<svg width="1920" height="1080" viewBox="0 0 1920 1080" fill="none" xmlns="http://www.w3.org/2000/svg">
<rect width="1920" height="1080" fill="white"/>
<path d="M938.137 644.654H935.857V643.734H938.137C938.578 643.734 938.936 643.664 939.209 643.523C939.482 643.383 939.682 643.188 939.807 642.938C939.936 642.688 940 642.402 940 642.082C940 641.789 939.936 641.514 939.807 641.256C939.682 640.998 939.482 640.791 939.209 640.635C938.936 640.475 938.578 640.395 938.137 640.395H936.121V648H934.99V639.469H938.137C938.781 639.469 939.326 639.58 939.771 639.803C940.217 640.025 940.555 640.334 940.785 640.729C941.016 641.119 941.131 641.566 941.131 642.07C941.131 642.617 941.016 643.084 940.785 643.471C940.555 643.857 940.217 644.152 939.771 644.355C939.326 644.555 938.781 644.654 938.137 644.654ZM946.464 646.916V643.652C946.464 643.402 946.414 643.186 946.312 643.002C946.214 642.814 946.066 642.67 945.867 642.568C945.668 642.467 945.421 642.416 945.129 642.416C944.855 642.416 944.615 642.463 944.408 642.557C944.205 642.65 944.045 642.773 943.927 642.926C943.814 643.078 943.757 643.242 943.757 643.418H942.673C942.673 643.191 942.732 642.967 942.849 642.744C942.966 642.521 943.134 642.32 943.353 642.141C943.576 641.957 943.841 641.812 944.15 641.707C944.463 641.598 944.81 641.543 945.193 641.543C945.654 641.543 946.06 641.621 946.412 641.777C946.767 641.934 947.045 642.17 947.244 642.486C947.447 642.799 947.548 643.191 947.548 643.664V646.617C947.548 646.828 947.566 647.053 947.601 647.291C947.64 647.529 947.697 647.734 947.771 647.906V648H946.64C946.586 647.875 946.543 647.709 946.511 647.502C946.48 647.291 946.464 647.096 946.464 646.916ZM946.652 644.156L946.664 644.918H945.568C945.259 644.918 944.984 644.943 944.742 644.994C944.5 645.041 944.296 645.113 944.132 645.211C943.968 645.309 943.843 645.432 943.757 645.58C943.671 645.725 943.629 645.895 943.629 646.09C943.629 646.289 943.673 646.471 943.763 646.635C943.853 646.799 943.988 646.93 944.168 647.027C944.351 647.121 944.576 647.168 944.841 647.168C945.173 647.168 945.466 647.098 945.72 646.957C945.974 646.816 946.175 646.645 946.324 646.441C946.476 646.238 946.558 646.041 946.57 645.85L947.033 646.371C947.005 646.535 946.931 646.717 946.81 646.916C946.689 647.115 946.527 647.307 946.324 647.49C946.125 647.67 945.886 647.82 945.609 647.941C945.336 648.059 945.027 648.117 944.683 648.117C944.254 648.117 943.877 648.033 943.552 647.865C943.232 647.697 942.982 647.473 942.802 647.191C942.627 646.906 942.539 646.588 942.539 646.236C942.539 645.896 942.605 645.598 942.738 645.34C942.871 645.078 943.062 644.861 943.312 644.689C943.562 644.514 943.863 644.381 944.214 644.291C944.566 644.201 944.959 644.156 945.392 644.156H946.652ZM953.345 646.318C953.345 646.162 953.31 646.018 953.239 645.885C953.173 645.748 953.034 645.625 952.823 645.516C952.616 645.402 952.304 645.305 951.886 645.223C951.534 645.148 951.216 645.061 950.931 644.959C950.65 644.857 950.409 644.734 950.21 644.59C950.015 644.445 949.864 644.275 949.759 644.08C949.654 643.885 949.601 643.656 949.601 643.395C949.601 643.145 949.655 642.908 949.765 642.686C949.878 642.463 950.036 642.266 950.239 642.094C950.446 641.922 950.695 641.787 950.984 641.689C951.273 641.592 951.595 641.543 951.95 641.543C952.458 641.543 952.892 641.633 953.251 641.812C953.611 641.992 953.886 642.232 954.077 642.533C954.269 642.83 954.364 643.16 954.364 643.523H953.28C953.28 643.348 953.228 643.178 953.122 643.014C953.021 642.846 952.87 642.707 952.671 642.598C952.476 642.488 952.236 642.434 951.95 642.434C951.65 642.434 951.405 642.48 951.218 642.574C951.034 642.664 950.9 642.779 950.814 642.92C950.732 643.061 950.691 643.209 950.691 643.365C950.691 643.482 950.71 643.588 950.749 643.682C950.792 643.771 950.866 643.855 950.972 643.934C951.077 644.008 951.226 644.078 951.417 644.145C951.609 644.211 951.853 644.277 952.15 644.344C952.669 644.461 953.097 644.602 953.433 644.766C953.769 644.93 954.019 645.131 954.183 645.369C954.347 645.607 954.429 645.896 954.429 646.236C954.429 646.514 954.37 646.768 954.253 646.998C954.14 647.229 953.974 647.428 953.755 647.596C953.54 647.76 953.282 647.889 952.982 647.982C952.685 648.072 952.351 648.117 951.98 648.117C951.421 648.117 950.948 648.018 950.562 647.818C950.175 647.619 949.882 647.361 949.683 647.045C949.484 646.729 949.384 646.395 949.384 646.043H950.474C950.489 646.34 950.575 646.576 950.732 646.752C950.888 646.924 951.079 647.047 951.306 647.121C951.532 647.191 951.757 647.227 951.98 647.227C952.277 647.227 952.525 647.188 952.724 647.109C952.927 647.031 953.081 646.924 953.187 646.787C953.292 646.65 953.345 646.494 953.345 646.318ZM959.944 646.318C959.944 646.162 959.909 646.018 959.839 645.885C959.772 645.748 959.634 645.625 959.423 645.516C959.216 645.402 958.903 645.305 958.485 645.223C958.134 645.148 957.815 645.061 957.53 644.959C957.249 644.857 957.009 644.734 956.809 644.59C956.614 644.445 956.464 644.275 956.358 644.08C956.253 643.885 956.2 643.656 956.2 643.395C956.2 643.145 956.255 642.908 956.364 642.686C956.477 642.463 956.636 642.266 956.839 642.094C957.046 641.922 957.294 641.787 957.583 641.689C957.872 641.592 958.194 641.543 958.55 641.543C959.057 641.543 959.491 641.633 959.85 641.812C960.21 641.992 960.485 642.232 960.677 642.533C960.868 642.83 960.964 643.16 960.964 643.523H959.88C959.88 643.348 959.827 643.178 959.721 643.014C959.62 642.846 959.47 642.707 959.27 642.598C959.075 642.488 958.835 642.434 958.55 642.434C958.249 642.434 958.005 642.48 957.817 642.574C957.634 642.664 957.499 642.779 957.413 642.92C957.331 643.061 957.29 643.209 957.29 643.365C957.29 643.482 957.309 643.588 957.348 643.682C957.391 643.771 957.466 643.855 957.571 643.934C957.677 644.008 957.825 644.078 958.016 644.145C958.208 644.211 958.452 644.277 958.749 644.344C959.268 644.461 959.696 644.602 960.032 644.766C960.368 644.93 960.618 645.131 960.782 645.369C960.946 645.607 961.028 645.896 961.028 646.236C961.028 646.514 960.97 646.768 960.852 646.998C960.739 647.229 960.573 647.428 960.354 647.596C960.139 647.76 959.882 647.889 959.581 647.982C959.284 648.072 958.95 648.117 958.579 648.117C958.02 648.117 957.548 648.018 957.161 647.818C956.774 647.619 956.481 647.361 956.282 647.045C956.083 646.729 955.983 646.395 955.983 646.043H957.073C957.089 646.34 957.175 646.576 957.331 646.752C957.487 646.924 957.679 647.047 957.905 647.121C958.132 647.191 958.356 647.227 958.579 647.227C958.876 647.227 959.124 647.188 959.323 647.109C959.526 647.031 959.68 646.924 959.786 646.787C959.891 646.65 959.944 646.494 959.944 646.318ZM964.457 646.875L966.086 641.66H966.801L966.661 642.697L965.002 648H964.305L964.457 646.875ZM963.362 641.66L964.75 646.934L964.85 648H964.118L962.278 641.66H963.362ZM968.36 646.893L969.684 641.66H970.762L968.922 648H968.196L968.36 646.893ZM966.959 641.66L968.553 646.787L968.735 648H968.043L966.338 642.686L966.198 641.66H966.959ZM971.988 644.9V644.766C971.988 644.309 972.055 643.885 972.188 643.494C972.32 643.1 972.512 642.758 972.762 642.469C973.012 642.176 973.314 641.949 973.67 641.789C974.025 641.625 974.424 641.543 974.865 641.543C975.311 641.543 975.711 641.625 976.066 641.789C976.426 641.949 976.73 642.176 976.98 642.469C977.234 642.758 977.428 643.1 977.561 643.494C977.693 643.885 977.76 644.309 977.76 644.766V644.9C977.76 645.357 977.693 645.781 977.561 646.172C977.428 646.562 977.234 646.904 976.98 647.197C976.73 647.486 976.428 647.713 976.072 647.877C975.721 648.037 975.322 648.117 974.877 648.117C974.432 648.117 974.031 648.037 973.676 647.877C973.32 647.713 973.016 647.486 972.762 647.197C972.512 646.904 972.32 646.562 972.188 646.172C972.055 645.781 971.988 645.357 971.988 644.9ZM973.072 644.766V644.9C973.072 645.217 973.109 645.516 973.184 645.797C973.258 646.074 973.369 646.32 973.518 646.535C973.67 646.75 973.859 646.92 974.086 647.045C974.312 647.166 974.576 647.227 974.877 647.227C975.174 647.227 975.434 647.166 975.656 647.045C975.883 646.92 976.07 646.75 976.219 646.535C976.367 646.32 976.479 646.074 976.553 645.797C976.631 645.516 976.67 645.217 976.67 644.9V644.766C976.67 644.453 976.631 644.158 976.553 643.881C976.479 643.6 976.365 643.352 976.213 643.137C976.064 642.918 975.877 642.746 975.65 642.621C975.428 642.496 975.166 642.434 974.865 642.434C974.568 642.434 974.307 642.496 974.08 642.621C973.857 642.746 973.67 642.918 973.518 643.137C973.369 643.352 973.258 643.6 973.184 643.881C973.109 644.158 973.072 644.453 973.072 644.766ZM980.603 642.656V648H979.519V641.66H980.574L980.603 642.656ZM982.584 641.625L982.578 642.633C982.488 642.613 982.402 642.602 982.32 642.598C982.242 642.59 982.152 642.586 982.05 642.586C981.8 642.586 981.58 642.625 981.388 642.703C981.197 642.781 981.035 642.891 980.902 643.031C980.769 643.172 980.664 643.34 980.586 643.535C980.511 643.727 980.463 643.938 980.439 644.168L980.134 644.344C980.134 643.961 980.171 643.602 980.246 643.266C980.324 642.93 980.443 642.633 980.603 642.375C980.763 642.113 980.966 641.91 981.213 641.766C981.463 641.617 981.759 641.543 982.103 641.543C982.181 641.543 982.271 641.553 982.373 641.572C982.474 641.588 982.545 641.605 982.584 641.625ZM987.864 646.77V639H988.954V648H987.958L987.864 646.77ZM983.599 644.9V644.777C983.599 644.293 983.657 643.854 983.775 643.459C983.896 643.061 984.066 642.719 984.284 642.434C984.507 642.148 984.771 641.93 985.075 641.777C985.384 641.621 985.728 641.543 986.107 641.543C986.505 641.543 986.853 641.613 987.15 641.754C987.45 641.891 987.704 642.092 987.911 642.357C988.122 642.619 988.288 642.936 988.409 643.307C988.53 643.678 988.614 644.098 988.661 644.566V645.105C988.618 645.57 988.534 645.988 988.409 646.359C988.288 646.73 988.122 647.047 987.911 647.309C987.704 647.57 987.45 647.771 987.15 647.912C986.849 648.049 986.497 648.117 986.095 648.117C985.724 648.117 985.384 648.037 985.075 647.877C984.771 647.717 984.507 647.492 984.284 647.203C984.066 646.914 983.896 646.574 983.775 646.184C983.657 645.789 983.599 645.361 983.599 644.9ZM984.689 644.777V644.9C984.689 645.217 984.72 645.514 984.782 645.791C984.849 646.068 984.95 646.312 985.087 646.523C985.224 646.734 985.398 646.9 985.609 647.021C985.82 647.139 986.071 647.197 986.364 647.197C986.724 647.197 987.019 647.121 987.249 646.969C987.484 646.816 987.671 646.615 987.812 646.365C987.952 646.115 988.062 645.844 988.14 645.551V644.139C988.093 643.924 988.025 643.717 987.935 643.518C987.849 643.314 987.736 643.135 987.595 642.979C987.458 642.818 987.288 642.691 987.085 642.598C986.886 642.504 986.65 642.457 986.376 642.457C986.079 642.457 985.823 642.52 985.609 642.645C985.398 642.766 985.224 642.934 985.087 643.148C984.95 643.359 984.849 643.605 984.782 643.887C984.72 644.164 984.689 644.461 984.689 644.777Z" fill="#49454F"/>
<rect x="795" y="223" width="1091" height="578" rx="49" fill="#D9D9D9"/>
<path d="M932.137 636.654H929.857V635.734H932.137C932.578 635.734 932.936 635.664 933.209 635.523C933.482 635.383 933.682 635.188 933.807 634.938C933.936 634.688 934 634.402 934 634.082C934 633.789 933.936 633.514 933.807 633.256C933.682 632.998 933.482 632.791 933.209 632.635C932.936 632.475 932.578 632.395 932.137 632.395H930.121V640H928.99V631.469H932.137C932.781 631.469 933.326 631.58 933.771 631.803C934.217 632.025 934.555 632.334 934.785 632.729C935.016 633.119 935.131 633.566 935.131 634.07C935.131 634.617 935.016 635.084 934.785 635.471C934.555 635.857 934.217 636.152 933.771 636.355C933.326 636.555 932.781 636.654 932.137 636.654ZM940.464 638.916V635.652C940.464 635.402 940.414 635.186 940.312 635.002C940.214 634.814 940.066 634.67 939.867 634.568C939.668 634.467 939.421 634.416 939.129 634.416C938.855 634.416 938.615 634.463 938.408 634.557C938.205 634.65 938.045 634.773 937.927 634.926C937.814 635.078 937.757 635.242 937.757 635.418H936.673C936.673 635.191 936.732 634.967 936.849 634.744C936.966 634.521 937.134 634.32 937.353 634.141C937.576 633.957 937.841 633.812 938.15 633.707C938.463 633.598 938.81 633.543 939.193 633.543C939.654 633.543 940.06 633.621 940.412 633.777C940.767 633.934 941.045 634.17 941.244 634.486C941.447 634.799 941.548 635.191 941.548 635.664V638.617C941.548 638.828 941.566 639.053 941.601 639.291C941.64 639.529 941.697 639.734 941.771 639.906V640H940.64C940.586 639.875 940.543 639.709 940.511 639.502C940.48 639.291 940.464 639.096 940.464 638.916ZM940.652 636.156L940.664 636.918H939.568C939.259 636.918 938.984 636.943 938.742 636.994C938.5 637.041 938.296 637.113 938.132 637.211C937.968 637.309 937.843 637.432 937.757 637.58C937.671 637.725 937.629 637.895 937.629 638.09C937.629 638.289 937.673 638.471 937.763 638.635C937.853 638.799 937.988 638.93 938.168 639.027C938.351 639.121 938.576 639.168 938.841 639.168C939.173 639.168 939.466 639.098 939.72 638.957C939.974 638.816 940.175 638.645 940.324 638.441C940.476 638.238 940.558 638.041 940.57 637.85L941.033 638.371C941.005 638.535 940.931 638.717 940.81 638.916C940.689 639.115 940.527 639.307 940.324 639.49C940.125 639.67 939.886 639.82 939.609 639.941C939.336 640.059 939.027 640.117 938.683 640.117C938.254 640.117 937.877 640.033 937.552 639.865C937.232 639.697 936.982 639.473 936.802 639.191C936.627 638.906 936.539 638.588 936.539 638.236C936.539 637.896 936.605 637.598 936.738 637.34C936.871 637.078 937.062 636.861 937.312 636.689C937.562 636.514 937.863 636.381 938.214 636.291C938.566 636.201 938.959 636.156 939.392 636.156H940.652ZM947.345 638.318C947.345 638.162 947.31 638.018 947.239 637.885C947.173 637.748 947.034 637.625 946.823 637.516C946.616 637.402 946.304 637.305 945.886 637.223C945.534 637.148 945.216 637.061 944.931 636.959C944.65 636.857 944.409 636.734 944.21 636.59C944.015 636.445 943.864 636.275 943.759 636.08C943.654 635.885 943.601 635.656 943.601 635.395C943.601 635.145 943.655 634.908 943.765 634.686C943.878 634.463 944.036 634.266 944.239 634.094C944.446 633.922 944.695 633.787 944.984 633.689C945.273 633.592 945.595 633.543 945.95 633.543C946.458 633.543 946.892 633.633 947.251 633.812C947.611 633.992 947.886 634.232 948.077 634.533C948.269 634.83 948.364 635.16 948.364 635.523H947.28C947.28 635.348 947.228 635.178 947.122 635.014C947.021 634.846 946.87 634.707 946.671 634.598C946.476 634.488 946.236 634.434 945.95 634.434C945.65 634.434 945.405 634.48 945.218 634.574C945.034 634.664 944.9 634.779 944.814 634.92C944.732 635.061 944.691 635.209 944.691 635.365C944.691 635.482 944.71 635.588 944.749 635.682C944.792 635.771 944.866 635.855 944.972 635.934C945.077 636.008 945.226 636.078 945.417 636.145C945.609 636.211 945.853 636.277 946.15 636.344C946.669 636.461 947.097 636.602 947.433 636.766C947.769 636.93 948.019 637.131 948.183 637.369C948.347 637.607 948.429 637.896 948.429 638.236C948.429 638.514 948.37 638.768 948.253 638.998C948.14 639.229 947.974 639.428 947.755 639.596C947.54 639.76 947.282 639.889 946.982 639.982C946.685 640.072 946.351 640.117 945.98 640.117C945.421 640.117 944.948 640.018 944.562 639.818C944.175 639.619 943.882 639.361 943.683 639.045C943.484 638.729 943.384 638.395 943.384 638.043H944.474C944.489 638.34 944.575 638.576 944.732 638.752C944.888 638.924 945.079 639.047 945.306 639.121C945.532 639.191 945.757 639.227 945.98 639.227C946.277 639.227 946.525 639.188 946.724 639.109C946.927 639.031 947.081 638.924 947.187 638.787C947.292 638.65 947.345 638.494 947.345 638.318ZM953.944 638.318C953.944 638.162 953.909 638.018 953.839 637.885C953.772 637.748 953.634 637.625 953.423 637.516C953.216 637.402 952.903 637.305 952.485 637.223C952.134 637.148 951.815 637.061 951.53 636.959C951.249 636.857 951.009 636.734 950.809 636.59C950.614 636.445 950.464 636.275 950.358 636.08C950.253 635.885 950.2 635.656 950.2 635.395C950.2 635.145 950.255 634.908 950.364 634.686C950.477 634.463 950.636 634.266 950.839 634.094C951.046 633.922 951.294 633.787 951.583 633.689C951.872 633.592 952.194 633.543 952.55 633.543C953.057 633.543 953.491 633.633 953.85 633.812C954.21 633.992 954.485 634.232 954.677 634.533C954.868 634.83 954.964 635.16 954.964 635.523H953.88C953.88 635.348 953.827 635.178 953.721 635.014C953.62 634.846 953.47 634.707 953.27 634.598C953.075 634.488 952.835 634.434 952.55 634.434C952.249 634.434 952.005 634.48 951.817 634.574C951.634 634.664 951.499 634.779 951.413 634.92C951.331 635.061 951.29 635.209 951.29 635.365C951.29 635.482 951.309 635.588 951.348 635.682C951.391 635.771 951.466 635.855 951.571 635.934C951.677 636.008 951.825 636.078 952.016 636.145C952.208 636.211 952.452 636.277 952.749 636.344C953.268 636.461 953.696 636.602 954.032 636.766C954.368 636.93 954.618 637.131 954.782 637.369C954.946 637.607 955.028 637.896 955.028 638.236C955.028 638.514 954.97 638.768 954.852 638.998C954.739 639.229 954.573 639.428 954.354 639.596C954.139 639.76 953.882 639.889 953.581 639.982C953.284 640.072 952.95 640.117 952.579 640.117C952.02 640.117 951.548 640.018 951.161 639.818C950.774 639.619 950.481 639.361 950.282 639.045C950.083 638.729 949.983 638.395 949.983 638.043H951.073C951.089 638.34 951.175 638.576 951.331 638.752C951.487 638.924 951.679 639.047 951.905 639.121C952.132 639.191 952.356 639.227 952.579 639.227C952.876 639.227 953.124 639.188 953.323 639.109C953.526 639.031 953.68 638.924 953.786 638.787C953.891 638.65 953.944 638.494 953.944 638.318ZM958.457 638.875L960.086 633.66H960.801L960.661 634.697L959.002 640H958.305L958.457 638.875ZM957.362 633.66L958.75 638.934L958.85 640H958.118L956.278 633.66H957.362ZM962.36 638.893L963.684 633.66H964.762L962.922 640H962.196L962.36 638.893ZM960.959 633.66L962.553 638.787L962.735 640H962.043L960.338 634.686L960.198 633.66H960.959ZM965.988 636.9V636.766C965.988 636.309 966.055 635.885 966.188 635.494C966.32 635.1 966.512 634.758 966.762 634.469C967.012 634.176 967.314 633.949 967.67 633.789C968.025 633.625 968.424 633.543 968.865 633.543C969.311 633.543 969.711 633.625 970.066 633.789C970.426 633.949 970.73 634.176 970.98 634.469C971.234 634.758 971.428 635.1 971.561 635.494C971.693 635.885 971.76 636.309 971.76 636.766V636.9C971.76 637.357 971.693 637.781 971.561 638.172C971.428 638.562 971.234 638.904 970.98 639.197C970.73 639.486 970.428 639.713 970.072 639.877C969.721 640.037 969.322 640.117 968.877 640.117C968.432 640.117 968.031 640.037 967.676 639.877C967.32 639.713 967.016 639.486 966.762 639.197C966.512 638.904 966.32 638.562 966.188 638.172C966.055 637.781 965.988 637.357 965.988 636.9ZM967.072 636.766V636.9C967.072 637.217 967.109 637.516 967.184 637.797C967.258 638.074 967.369 638.32 967.518 638.535C967.67 638.75 967.859 638.92 968.086 639.045C968.312 639.166 968.576 639.227 968.877 639.227C969.174 639.227 969.434 639.166 969.656 639.045C969.883 638.92 970.07 638.75 970.219 638.535C970.367 638.32 970.479 638.074 970.553 637.797C970.631 637.516 970.67 637.217 970.67 636.9V636.766C970.67 636.453 970.631 636.158 970.553 635.881C970.479 635.6 970.365 635.352 970.213 635.137C970.064 634.918 969.877 634.746 969.65 634.621C969.428 634.496 969.166 634.434 968.865 634.434C968.568 634.434 968.307 634.496 968.08 634.621C967.857 634.746 967.67 634.918 967.518 635.137C967.369 635.352 967.258 635.6 967.184 635.881C967.109 636.158 967.072 636.453 967.072 636.766ZM974.603 634.656V640H973.519V633.66H974.574L974.603 634.656ZM976.584 633.625L976.578 634.633C976.488 634.613 976.402 634.602 976.32 634.598C976.242 634.59 976.152 634.586 976.05 634.586C975.8 634.586 975.58 634.625 975.388 634.703C975.197 634.781 975.035 634.891 974.902 635.031C974.769 635.172 974.664 635.34 974.586 635.535C974.511 635.727 974.463 635.938 974.439 636.168L974.134 636.344C974.134 635.961 974.171 635.602 974.246 635.266C974.324 634.93 974.443 634.633 974.603 634.375C974.763 634.113 974.966 633.91 975.213 633.766C975.463 633.617 975.759 633.543 976.103 633.543C976.181 633.543 976.271 633.553 976.373 633.572C976.474 633.588 976.545 633.605 976.584 633.625ZM981.864 638.77V631H982.954V640H981.958L981.864 638.77ZM977.599 636.9V636.777C977.599 636.293 977.657 635.854 977.775 635.459C977.896 635.061 978.066 634.719 978.284 634.434C978.507 634.148 978.771 633.93 979.075 633.777C979.384 633.621 979.728 633.543 980.107 633.543C980.505 633.543 980.853 633.613 981.15 633.754C981.45 633.891 981.704 634.092 981.911 634.357C982.122 634.619 982.288 634.936 982.409 635.307C982.53 635.678 982.614 636.098 982.661 636.566V637.105C982.618 637.57 982.534 637.988 982.409 638.359C982.288 638.73 982.122 639.047 981.911 639.309C981.704 639.57 981.45 639.771 981.15 639.912C980.849 640.049 980.497 640.117 980.095 640.117C979.724 640.117 979.384 640.037 979.075 639.877C978.771 639.717 978.507 639.492 978.284 639.203C978.066 638.914 977.896 638.574 977.775 638.184C977.657 637.789 977.599 637.361 977.599 636.9ZM978.689 636.777V636.9C978.689 637.217 978.72 637.514 978.782 637.791C978.849 638.068 978.95 638.312 979.087 638.523C979.224 638.734 979.398 638.9 979.609 639.021C979.82 639.139 980.071 639.197 980.364 639.197C980.724 639.197 981.019 639.121 981.249 638.969C981.484 638.816 981.671 638.615 981.812 638.365C981.952 638.115 982.062 637.844 982.14 637.551V636.139C982.093 635.924 982.025 635.717 981.935 635.518C981.849 635.314 981.736 635.135 981.595 634.979C981.458 634.818 981.288 634.691 981.085 634.598C980.886 634.504 980.65 634.457 980.376 634.457C980.079 634.457 979.823 634.52 979.609 634.645C979.398 634.766 979.224 634.934 979.087 635.148C978.95 635.359 978.849 635.605 978.782 635.887C978.72 636.164 978.689 636.461 978.689 636.777Z" fill="#49454F"/>
<path d="M1276.64 327V280.455H1292.91C1296.15 280.455 1298.83 281.015 1300.93 282.136C1303.04 283.242 1304.61 284.735 1305.64 286.614C1306.67 288.477 1307.18 290.545 1307.18 292.818C1307.18 294.818 1306.83 296.47 1306.11 297.773C1305.42 299.076 1304.49 300.106 1303.34 300.864C1302.2 301.621 1300.97 302.182 1299.64 302.545V303C1301.06 303.091 1302.49 303.591 1303.93 304.5C1305.37 305.409 1306.58 306.712 1307.55 308.409C1308.52 310.106 1309 312.182 1309 314.636C1309 316.97 1308.47 319.068 1307.41 320.932C1306.35 322.795 1304.67 324.273 1302.39 325.364C1300.1 326.455 1297.12 327 1293.45 327H1276.64ZM1282.27 322H1293.45C1297.14 322 1299.75 321.288 1301.3 319.864C1302.86 318.424 1303.64 316.682 1303.64 314.636C1303.64 313.061 1303.23 311.606 1302.43 310.273C1301.63 308.924 1300.48 307.848 1299 307.045C1297.52 306.227 1295.76 305.818 1293.73 305.818H1282.27V322ZM1282.27 300.909H1292.73C1294.42 300.909 1295.95 300.576 1297.32 299.909C1298.7 299.242 1299.79 298.303 1300.59 297.091C1301.41 295.879 1301.82 294.455 1301.82 292.818C1301.82 290.773 1301.11 289.038 1299.68 287.614C1298.26 286.174 1296 285.455 1292.91 285.455H1282.27V300.909ZM1321.53 292.091L1329.9 306.364L1338.26 292.091H1344.44L1333.17 309.545L1344.44 327H1338.26L1329.9 313.455L1321.53 327H1315.35L1326.44 309.545L1315.35 292.091H1321.53ZM1364.84 327.727C1361.69 327.727 1358.92 326.977 1356.55 325.477C1354.18 323.977 1352.33 321.879 1351 319.182C1349.68 316.485 1349.02 313.333 1349.02 309.727C1349.02 306.091 1349.68 302.917 1351 300.205C1352.33 297.492 1354.18 295.386 1356.55 293.886C1358.92 292.386 1361.69 291.636 1364.84 291.636C1367.99 291.636 1370.75 292.386 1373.11 293.886C1375.49 295.386 1377.34 297.492 1378.66 300.205C1379.99 302.917 1380.66 306.091 1380.66 309.727C1380.66 313.333 1379.99 316.485 1378.66 319.182C1377.34 321.879 1375.49 323.977 1373.11 325.477C1370.75 326.977 1367.99 327.727 1364.84 327.727ZM1364.84 322.909C1367.23 322.909 1369.2 322.295 1370.75 321.068C1372.3 319.841 1373.44 318.227 1374.18 316.227C1374.92 314.227 1375.3 312.061 1375.3 309.727C1375.3 307.394 1374.92 305.22 1374.18 303.205C1373.44 301.189 1372.3 299.561 1370.75 298.318C1369.2 297.076 1367.23 296.455 1364.84 296.455C1362.45 296.455 1360.48 297.076 1358.93 298.318C1357.39 299.561 1356.24 301.189 1355.5 303.205C1354.76 305.22 1354.39 307.394 1354.39 309.727C1354.39 312.061 1354.76 314.227 1355.5 316.227C1356.24 318.227 1357.39 319.841 1358.93 321.068C1360.48 322.295 1362.45 322.909 1364.84 322.909ZM1385.12 337V322H1388.03C1388.74 321.258 1389.35 320.455 1389.87 319.591C1390.38 318.727 1390.83 317.705 1391.21 316.523C1391.6 315.326 1391.94 313.871 1392.21 312.159C1392.48 310.432 1392.73 308.348 1392.94 305.909L1394.12 292.091H1416.3V322H1421.66V337H1416.3V327H1390.48V337H1385.12ZM1394.12 322H1410.94V297.091H1399.12L1398.21 305.909C1397.83 309.561 1397.36 312.75 1396.8 315.477C1396.24 318.205 1395.35 320.379 1394.12 322Z" fill="black"/>
<mask id="path-5-inside-1_2_2" fill="white">
<path d="M929 721C929 716.582 932.582 713 937 713H984C988.418 713 992 716.582 992 721V745C992 749.418 988.418 753 984 753H937C932.582 753 929 749.418 929 745V721Z"/>
</mask>
<path d="M929 721C929 716.582 932.582 713 937 713H984C988.418 713 992 716.582 992 721V745C992 749.418 988.418 753 984 753H937C932.582 753 929 749.418 929 745V721Z" fill="#2C2C2C"/>
<path d="M937 713V714H984V713V712H937V713ZM992 721H991V745H992H993V721H992ZM984 753V752H937V753V754H984V753ZM929 745H930V721H929H928V745H929ZM937 753V752C933.134 752 930 748.866 930 745H929H928C928 749.971 932.029 754 937 754V753ZM992 745H991C991 748.866 987.866 752 984 752V753V754C988.971 754 993 749.971 993 745H992ZM984 713V714C987.866 714 991 717.134 991 721H992H993C993 716.029 988.971 712 984 712V713ZM937 713V712C932.029 712 928 716.029 928 721H929H930C930 717.134 933.134 714 937 714V713Z" fill="#2C2C2C" mask="url(#path-5-inside-1_2_2)"/>
<path d="M942.409 739V727.364H946.477C947.288 727.364 947.956 727.504 948.483 727.784C949.009 728.061 949.402 728.434 949.659 728.903C949.917 729.369 950.045 729.886 950.045 730.455C950.045 730.955 949.956 731.367 949.778 731.693C949.604 732.019 949.373 732.277 949.085 732.466C948.801 732.655 948.492 732.795 948.159 732.886V733C948.515 733.023 948.873 733.148 949.233 733.375C949.593 733.602 949.894 733.928 950.136 734.352C950.379 734.777 950.5 735.295 950.5 735.909C950.5 736.492 950.367 737.017 950.102 737.483C949.837 737.949 949.419 738.318 948.847 738.591C948.275 738.864 947.53 739 946.614 739H942.409ZM943.818 737.75H946.614C947.534 737.75 948.188 737.572 948.574 737.216C948.964 736.856 949.159 736.42 949.159 735.909C949.159 735.515 949.059 735.152 948.858 734.818C948.657 734.481 948.371 734.212 948 734.011C947.629 733.807 947.189 733.705 946.682 733.705H943.818V737.75ZM943.818 732.477H946.432C946.856 732.477 947.239 732.394 947.58 732.227C947.924 732.061 948.197 731.826 948.398 731.523C948.602 731.22 948.705 730.864 948.705 730.455C948.705 729.943 948.527 729.509 948.17 729.153C947.814 728.794 947.25 728.614 946.477 728.614H943.818V732.477ZM953.634 730.273L955.724 733.841L957.815 730.273H959.361L956.543 734.636L959.361 739H957.815L955.724 735.614L953.634 739H952.088L954.861 734.636L952.088 730.273H953.634ZM964.46 739.182C963.672 739.182 962.981 738.994 962.386 738.619C961.795 738.244 961.333 737.72 961 737.045C960.67 736.371 960.506 735.583 960.506 734.682C960.506 733.773 960.67 732.979 961 732.301C961.333 731.623 961.795 731.097 962.386 730.722C962.981 730.347 963.672 730.159 964.46 730.159C965.248 730.159 965.938 730.347 966.528 730.722C967.123 731.097 967.585 731.623 967.915 732.301C968.248 732.979 968.415 733.773 968.415 734.682C968.415 735.583 968.248 736.371 967.915 737.045C967.585 737.72 967.123 738.244 966.528 738.619C965.938 738.994 965.248 739.182 964.46 739.182ZM964.46 737.977C965.059 737.977 965.551 737.824 965.938 737.517C966.324 737.21 966.61 736.807 966.795 736.307C966.981 735.807 967.074 735.265 967.074 734.682C967.074 734.098 966.981 733.555 966.795 733.051C966.61 732.547 966.324 732.14 965.938 731.83C965.551 731.519 965.059 731.364 964.46 731.364C963.862 731.364 963.369 731.519 962.983 731.83C962.597 732.14 962.311 732.547 962.125 733.051C961.939 733.555 961.847 734.098 961.847 734.682C961.847 735.265 961.939 735.807 962.125 736.307C962.311 736.807 962.597 737.21 962.983 737.517C963.369 737.824 963.862 737.977 964.46 737.977ZM969.53 741.5V737.75H970.257C970.435 737.564 970.589 737.364 970.717 737.148C970.846 736.932 970.958 736.676 971.053 736.381C971.151 736.081 971.234 735.718 971.303 735.29C971.371 734.858 971.431 734.337 971.484 733.727L971.78 730.273H977.325V737.75H978.666V741.5H977.325V739H970.871V741.5H969.53ZM971.78 737.75H975.984V731.523H973.03L972.803 733.727C972.708 734.64 972.59 735.437 972.45 736.119C972.31 736.801 972.087 737.345 971.78 737.75Z" fill="#F5F5F5"/>
<path d="M930 441C930 438.791 931.791 437 934 437H1785C1787.21 437 1789 438.791 1789 441V496H930V441Z" fill="#E6E0E9"/>
<path d="M953.828 466.625H955.328V474.32C955.328 475.174 955.138 475.885 954.758 476.453C954.378 477.021 953.872 477.448 953.242 477.734C952.617 478.016 951.938 478.156 951.203 478.156C950.432 478.156 949.734 478.016 949.109 477.734C948.49 477.448 947.997 477.021 947.633 476.453C947.273 475.885 947.094 475.174 947.094 474.32V466.625H948.586V474.32C948.586 474.914 948.695 475.404 948.914 475.789C949.133 476.174 949.438 476.461 949.828 476.648C950.224 476.836 950.682 476.93 951.203 476.93C951.729 476.93 952.188 476.836 952.578 476.648C952.974 476.461 953.281 476.174 953.5 475.789C953.719 475.404 953.828 474.914 953.828 474.32V466.625ZM962.898 475.758C962.898 475.549 962.852 475.357 962.758 475.18C962.669 474.997 962.484 474.833 962.203 474.688C961.927 474.536 961.51 474.406 960.953 474.297C960.484 474.198 960.06 474.081 959.68 473.945C959.305 473.81 958.984 473.646 958.719 473.453C958.458 473.26 958.258 473.034 958.117 472.773C957.977 472.513 957.906 472.208 957.906 471.859C957.906 471.526 957.979 471.211 958.125 470.914C958.276 470.617 958.487 470.354 958.758 470.125C959.034 469.896 959.365 469.716 959.75 469.586C960.135 469.456 960.565 469.391 961.039 469.391C961.716 469.391 962.294 469.51 962.773 469.75C963.253 469.99 963.62 470.31 963.875 470.711C964.13 471.107 964.258 471.547 964.258 472.031H962.812C962.812 471.797 962.742 471.57 962.602 471.352C962.466 471.128 962.266 470.943 962 470.797C961.74 470.651 961.419 470.578 961.039 470.578C960.638 470.578 960.312 470.641 960.062 470.766C959.818 470.885 959.638 471.039 959.523 471.227C959.414 471.414 959.359 471.612 959.359 471.82C959.359 471.977 959.385 472.117 959.438 472.242C959.495 472.362 959.594 472.474 959.734 472.578C959.875 472.677 960.073 472.771 960.328 472.859C960.583 472.948 960.909 473.036 961.305 473.125C961.997 473.281 962.568 473.469 963.016 473.688C963.464 473.906 963.797 474.174 964.016 474.492C964.234 474.81 964.344 475.195 964.344 475.648C964.344 476.018 964.266 476.357 964.109 476.664C963.958 476.971 963.737 477.237 963.445 477.461C963.159 477.68 962.815 477.852 962.414 477.977C962.018 478.096 961.573 478.156 961.078 478.156C960.333 478.156 959.703 478.023 959.188 477.758C958.672 477.492 958.281 477.148 958.016 476.727C957.75 476.305 957.617 475.859 957.617 475.391H959.07C959.091 475.786 959.206 476.102 959.414 476.336C959.622 476.565 959.878 476.729 960.18 476.828C960.482 476.922 960.781 476.969 961.078 476.969C961.474 476.969 961.805 476.917 962.07 476.812C962.341 476.708 962.547 476.565 962.688 476.383C962.828 476.201 962.898 475.992 962.898 475.758ZM970.25 478.156C969.661 478.156 969.128 478.057 968.648 477.859C968.174 477.656 967.766 477.372 967.422 477.008C967.083 476.643 966.823 476.211 966.641 475.711C966.458 475.211 966.367 474.664 966.367 474.07V473.742C966.367 473.055 966.469 472.443 966.672 471.906C966.875 471.365 967.151 470.906 967.5 470.531C967.849 470.156 968.245 469.872 968.688 469.68C969.13 469.487 969.589 469.391 970.062 469.391C970.667 469.391 971.188 469.495 971.625 469.703C972.068 469.911 972.43 470.203 972.711 470.578C972.992 470.948 973.201 471.385 973.336 471.891C973.471 472.391 973.539 472.938 973.539 473.531V474.18H967.227V473H972.094V472.891C972.073 472.516 971.995 472.151 971.859 471.797C971.729 471.443 971.521 471.151 971.234 470.922C970.948 470.693 970.557 470.578 970.062 470.578C969.734 470.578 969.432 470.648 969.156 470.789C968.88 470.924 968.643 471.128 968.445 471.398C968.247 471.669 968.094 472 967.984 472.391C967.875 472.781 967.82 473.232 967.82 473.742V474.07C967.82 474.471 967.875 474.849 967.984 475.203C968.099 475.552 968.263 475.859 968.477 476.125C968.695 476.391 968.958 476.599 969.266 476.75C969.578 476.901 969.932 476.977 970.328 476.977C970.839 476.977 971.271 476.872 971.625 476.664C971.979 476.456 972.289 476.177 972.555 475.828L973.43 476.523C973.247 476.799 973.016 477.062 972.734 477.312C972.453 477.562 972.107 477.766 971.695 477.922C971.289 478.078 970.807 478.156 970.25 478.156ZM977.172 470.875V478H975.727V469.547H977.133L977.172 470.875ZM979.812 469.5L979.805 470.844C979.685 470.818 979.57 470.802 979.461 470.797C979.357 470.786 979.237 470.781 979.102 470.781C978.768 470.781 978.474 470.833 978.219 470.938C977.964 471.042 977.747 471.188 977.57 471.375C977.393 471.562 977.253 471.786 977.148 472.047C977.049 472.302 976.984 472.583 976.953 472.891L976.547 473.125C976.547 472.615 976.596 472.135 976.695 471.688C976.799 471.24 976.958 470.844 977.172 470.5C977.385 470.151 977.656 469.88 977.984 469.688C978.318 469.49 978.714 469.391 979.172 469.391C979.276 469.391 979.396 469.404 979.531 469.43C979.667 469.451 979.76 469.474 979.812 469.5Z" fill="#1D1B20"/>
<line x1="930" y1="495.5" x2="1789" y2="495.5" stroke="#49454F"/>
<path d="M952.164 511.08V512H947.898V511.08H952.164ZM948.121 503.469V512H946.99V503.469H948.121ZM953.408 508.9V508.766C953.408 508.309 953.474 507.885 953.607 507.494C953.74 507.1 953.931 506.758 954.181 506.469C954.431 506.176 954.734 505.949 955.089 505.789C955.445 505.625 955.843 505.543 956.285 505.543C956.73 505.543 957.13 505.625 957.486 505.789C957.845 505.949 958.15 506.176 958.4 506.469C958.654 506.758 958.847 507.1 958.98 507.494C959.113 507.885 959.179 508.309 959.179 508.766V508.9C959.179 509.357 959.113 509.781 958.98 510.172C958.847 510.562 958.654 510.904 958.4 511.197C958.15 511.486 957.847 511.713 957.492 511.877C957.14 512.037 956.742 512.117 956.296 512.117C955.851 512.117 955.451 512.037 955.095 511.877C954.74 511.713 954.435 511.486 954.181 511.197C953.931 510.904 953.74 510.562 953.607 510.172C953.474 509.781 953.408 509.357 953.408 508.9ZM954.492 508.766V508.9C954.492 509.217 954.529 509.516 954.603 509.797C954.677 510.074 954.789 510.32 954.937 510.535C955.089 510.75 955.279 510.92 955.505 511.045C955.732 511.166 955.996 511.227 956.296 511.227C956.593 511.227 956.853 511.166 957.076 511.045C957.302 510.92 957.49 510.75 957.638 510.535C957.787 510.32 957.898 510.074 957.972 509.797C958.05 509.516 958.089 509.217 958.089 508.9V508.766C958.089 508.453 958.05 508.158 957.972 507.881C957.898 507.6 957.785 507.352 957.632 507.137C957.484 506.918 957.296 506.746 957.07 506.621C956.847 506.496 956.586 506.434 956.285 506.434C955.988 506.434 955.726 506.496 955.5 506.621C955.277 506.746 955.089 506.918 954.937 507.137C954.789 507.352 954.677 507.6 954.603 507.881C954.529 508.158 954.492 508.453 954.492 508.766ZM965.046 505.66H966.03V511.865C966.03 512.424 965.917 512.9 965.691 513.295C965.464 513.689 965.148 513.988 964.741 514.191C964.339 514.398 963.874 514.502 963.347 514.502C963.128 514.502 962.87 514.467 962.573 514.396C962.28 514.33 961.991 514.215 961.706 514.051C961.425 513.891 961.189 513.674 960.997 513.4L961.566 512.756C961.831 513.076 962.109 513.299 962.398 513.424C962.691 513.549 962.98 513.611 963.265 513.611C963.609 513.611 963.905 513.547 964.155 513.418C964.405 513.289 964.599 513.098 964.736 512.844C964.876 512.594 964.946 512.285 964.946 511.918V507.055L965.046 505.66ZM960.681 508.9V508.777C960.681 508.293 960.738 507.854 960.851 507.459C960.968 507.061 961.134 506.719 961.349 506.434C961.568 506.148 961.831 505.93 962.14 505.777C962.448 505.621 962.796 505.543 963.183 505.543C963.581 505.543 963.929 505.613 964.226 505.754C964.527 505.891 964.78 506.092 964.988 506.357C965.198 506.619 965.364 506.936 965.486 507.307C965.607 507.678 965.691 508.098 965.738 508.566V509.105C965.695 509.57 965.611 509.988 965.486 510.359C965.364 510.73 965.198 511.047 964.988 511.309C964.78 511.57 964.527 511.771 964.226 511.912C963.925 512.049 963.573 512.117 963.171 512.117C962.792 512.117 962.448 512.037 962.14 511.877C961.835 511.717 961.573 511.492 961.355 511.203C961.136 510.914 960.968 510.574 960.851 510.184C960.738 509.789 960.681 509.361 960.681 508.9ZM961.765 508.777V508.9C961.765 509.217 961.796 509.514 961.859 509.791C961.925 510.068 962.025 510.312 962.157 510.523C962.294 510.734 962.468 510.9 962.679 511.021C962.89 511.139 963.142 511.197 963.435 511.197C963.794 511.197 964.091 511.121 964.325 510.969C964.56 510.816 964.745 510.615 964.882 510.365C965.023 510.115 965.132 509.844 965.21 509.551V508.139C965.167 507.924 965.101 507.717 965.011 507.518C964.925 507.314 964.812 507.135 964.671 506.979C964.534 506.818 964.364 506.691 964.161 506.598C963.958 506.504 963.72 506.457 963.446 506.457C963.15 506.457 962.894 506.52 962.679 506.645C962.468 506.766 962.294 506.934 962.157 507.148C962.025 507.359 961.925 507.605 961.859 507.887C961.796 508.164 961.765 508.461 961.765 508.777ZM969.255 505.66V512H968.165V505.66H969.255ZM968.083 503.979C968.083 503.803 968.136 503.654 968.241 503.533C968.35 503.412 968.511 503.352 968.721 503.352C968.929 503.352 969.087 503.412 969.196 503.533C969.309 503.654 969.366 503.803 969.366 503.979C969.366 504.146 969.309 504.291 969.196 504.412C969.087 504.529 968.929 504.588 968.721 504.588C968.511 504.588 968.35 504.529 968.241 504.412C968.136 504.291 968.083 504.146 968.083 503.979ZM972.479 507.014V512H971.395V505.66H972.42L972.479 507.014ZM972.221 508.59L971.77 508.572C971.774 508.139 971.838 507.738 971.963 507.371C972.088 507 972.264 506.678 972.491 506.404C972.717 506.131 972.987 505.92 973.299 505.771C973.616 505.619 973.965 505.543 974.348 505.543C974.661 505.543 974.942 505.586 975.192 505.672C975.442 505.754 975.655 505.887 975.83 506.07C976.01 506.254 976.147 506.492 976.241 506.785C976.334 507.074 976.381 507.428 976.381 507.846V512H975.291V507.834C975.291 507.502 975.243 507.236 975.145 507.037C975.047 506.834 974.905 506.688 974.717 506.598C974.53 506.504 974.299 506.457 974.026 506.457C973.756 506.457 973.51 506.514 973.288 506.627C973.069 506.74 972.879 506.896 972.719 507.096C972.563 507.295 972.44 507.523 972.35 507.781C972.264 508.035 972.221 508.305 972.221 508.59Z" fill="#49454F"/>
<path d="M895 599L893 601M893 601L896 604L892.5 607.5L889.5 604.5M893 601L889.5 604.5M885.39 608.61C885.906 609.119 886.317 609.726 886.598 610.395C886.879 611.064 887.025 611.781 887.027 612.507C887.029 613.232 886.888 613.951 886.612 614.621C886.335 615.292 885.929 615.901 885.416 616.414C884.903 616.927 884.294 617.333 883.623 617.61C882.953 617.886 882.234 618.027 881.509 618.025C880.783 618.023 880.066 617.877 879.397 617.596C878.728 617.315 878.121 616.904 877.612 616.388C876.61 615.351 876.056 613.961 876.068 612.519C876.081 611.077 876.659 609.698 877.679 608.678C878.699 607.658 880.078 607.08 881.52 607.067C882.962 607.055 884.352 607.609 885.389 608.611L885.39 608.61ZM885.39 608.61L889.5 604.5" stroke="#1E1E1E" stroke-width="2.5" stroke-linecap="round" stroke-linejoin="round"/>
<path d="M930 578C930 575.791 931.791 574 934 574H1785C1787.21 574 1789 575.791 1789 578V630H930V578Z" fill="#E6E0E9"/>
<path d="M947.008 609.469L948.578 607.312L946.219 606.609L946.586 605.438L948.945 606.305L948.875 603.617H950.062L949.984 606.352L952.312 605.484L952.672 606.68L950.273 607.391L951.812 609.508L950.844 610.234L949.398 607.984L947.984 610.18L947.008 609.469ZM954.398 609.469L955.969 607.312L953.609 606.609L953.977 605.438L956.336 606.305L956.266 603.617H957.453L957.375 606.352L959.703 605.484L960.062 606.68L957.664 607.391L959.203 609.508L958.234 610.234L956.789 607.984L955.375 610.18L954.398 609.469ZM961.789 609.469L963.359 607.312L961 606.609L961.367 605.438L963.727 606.305L963.656 603.617H964.844L964.766 606.352L967.094 605.484L967.453 606.68L965.055 607.391L966.594 609.508L965.625 610.234L964.18 607.984L962.766 610.18L961.789 609.469ZM969.18 609.469L970.75 607.312L968.391 606.609L968.758 605.438L971.117 606.305L971.047 603.617H972.234L972.156 606.352L974.484 605.484L974.844 606.68L972.445 607.391L973.984 609.508L973.016 610.234L971.57 607.984L970.156 610.18L969.18 609.469ZM976.57 609.469L978.141 607.312L975.781 606.609L976.148 605.438L978.508 606.305L978.438 603.617H979.625L979.547 606.352L981.875 605.484L982.234 606.68L979.836 607.391L981.375 609.508L980.406 610.234L978.961 607.984L977.547 610.18L976.57 609.469Z" fill="#1D1B20"/>
<path d="M1691 713.5H1800C1804.14 713.5 1807.5 716.858 1807.5 721V745C1807.5 749.142 1804.14 752.5 1800 752.5H1691C1686.86 752.5 1683.5 749.142 1683.5 745V721C1683.5 716.858 1686.86 713.5 1691 713.5Z" fill="#EC221F"/>
<path d="M1691 713.5H1800C1804.14 713.5 1807.5 716.858 1807.5 721V745C1807.5 749.142 1804.14 752.5 1800 752.5H1691C1686.86 752.5 1683.5 749.142 1683.5 745V721C1683.5 716.858 1686.86 713.5 1691 713.5Z" stroke="#C00F0C" stroke-linecap="round"/>
<path d="M1696.41 739V727.364H1700.34C1701.25 727.364 1702 727.528 1702.58 727.858C1703.16 728.184 1703.59 728.625 1703.88 729.182C1704.16 729.739 1704.3 730.36 1704.3 731.045C1704.3 731.731 1704.16 732.354 1703.88 732.915C1703.6 733.475 1703.17 733.922 1702.59 734.256C1702.01 734.585 1701.27 734.75 1700.36 734.75H1697.55V733.5H1700.32C1700.94 733.5 1701.45 733.392 1701.82 733.176C1702.2 732.96 1702.48 732.669 1702.65 732.301C1702.82 731.93 1702.91 731.511 1702.91 731.045C1702.91 730.58 1702.82 730.163 1702.65 729.795C1702.48 729.428 1702.2 729.14 1701.82 728.932C1701.44 728.72 1700.93 728.614 1700.3 728.614H1697.82V739H1696.41ZM1709.95 739.182C1709.11 739.182 1708.38 738.996 1707.77 738.625C1707.17 738.25 1706.7 737.727 1706.37 737.057C1706.04 736.383 1705.88 735.598 1705.88 734.705C1705.88 733.811 1706.04 733.023 1706.37 732.341C1706.7 731.655 1707.16 731.121 1707.74 730.739C1708.34 730.352 1709.02 730.159 1709.81 730.159C1710.27 730.159 1710.72 730.235 1711.16 730.386C1711.6 730.538 1712.01 730.784 1712.37 731.125C1712.73 731.462 1713.02 731.909 1713.24 732.466C1713.45 733.023 1713.56 733.708 1713.56 734.523V735.091H1706.84V733.932H1712.2C1712.2 733.439 1712.1 733 1711.9 732.614C1711.71 732.227 1711.43 731.922 1711.07 731.699C1710.72 731.475 1710.3 731.364 1709.81 731.364C1709.28 731.364 1708.82 731.496 1708.43 731.761C1708.04 732.023 1707.74 732.364 1707.53 732.784C1707.33 733.205 1707.22 733.655 1707.22 734.136V734.909C1707.22 735.568 1707.34 736.127 1707.56 736.585C1707.79 737.04 1708.11 737.386 1708.52 737.625C1708.93 737.86 1709.41 737.977 1709.95 737.977C1710.3 737.977 1710.62 737.928 1710.9 737.83C1711.19 737.727 1711.44 737.576 1711.65 737.375C1711.86 737.17 1712.02 736.917 1712.13 736.614L1713.43 736.977C1713.29 737.417 1713.06 737.803 1712.74 738.136C1712.42 738.466 1712.02 738.723 1711.55 738.909C1711.07 739.091 1710.54 739.182 1709.95 739.182ZM1720.99 730.273V731.523H1716.94V739H1715.6V730.273H1720.99ZM1726.15 739.182C1725.31 739.182 1724.59 738.996 1723.98 738.625C1723.37 738.25 1722.9 737.727 1722.57 737.057C1722.25 736.383 1722.08 735.598 1722.08 734.705C1722.08 733.811 1722.25 733.023 1722.57 732.341C1722.9 731.655 1723.36 731.121 1723.95 730.739C1724.54 730.352 1725.23 730.159 1726.02 730.159C1726.47 730.159 1726.92 730.235 1727.36 730.386C1727.81 730.538 1728.21 730.784 1728.57 731.125C1728.94 731.462 1729.23 731.909 1729.44 732.466C1729.66 733.023 1729.77 733.708 1729.77 734.523V735.091H1723.04V733.932H1728.4C1728.4 733.439 1728.3 733 1728.11 732.614C1727.91 732.227 1727.64 731.922 1727.28 731.699C1726.92 731.475 1726.5 731.364 1726.02 731.364C1725.48 731.364 1725.02 731.496 1724.63 731.761C1724.24 732.023 1723.95 732.364 1723.74 732.784C1723.53 733.205 1723.42 733.655 1723.42 734.136V734.909C1723.42 735.568 1723.54 736.127 1723.77 736.585C1724 737.04 1724.32 737.386 1724.73 737.625C1725.13 737.86 1725.61 737.977 1726.15 737.977C1726.5 737.977 1726.82 737.928 1727.11 737.83C1727.39 737.727 1727.64 737.576 1727.85 737.375C1728.06 737.17 1728.22 736.917 1728.33 736.614L1729.63 736.977C1729.49 737.417 1729.26 737.803 1728.94 738.136C1728.62 738.466 1728.22 738.723 1727.75 738.909C1727.28 739.091 1726.74 739.182 1726.15 739.182ZM1735.35 739.182C1734.53 739.182 1733.83 738.989 1733.24 738.602C1732.65 738.216 1732.19 737.684 1731.87 737.006C1731.56 736.328 1731.4 735.553 1731.4 734.682C1731.4 733.795 1731.56 733.013 1731.88 732.335C1732.21 731.653 1732.67 731.121 1733.26 730.739C1733.85 730.352 1734.54 730.159 1735.33 730.159C1735.94 730.159 1736.49 730.273 1736.99 730.5C1737.48 730.727 1737.88 731.045 1738.2 731.455C1738.51 731.864 1738.71 732.341 1738.78 732.886H1737.44C1737.34 732.489 1737.11 732.136 1736.76 731.83C1736.41 731.519 1735.94 731.364 1735.35 731.364C1734.83 731.364 1734.37 731.5 1733.98 731.773C1733.59 732.042 1733.28 732.422 1733.06 732.915C1732.85 733.403 1732.74 733.977 1732.74 734.636C1732.74 735.311 1732.84 735.898 1733.06 736.398C1733.27 736.898 1733.57 737.286 1733.96 737.562C1734.36 737.839 1734.82 737.977 1735.35 737.977C1735.7 737.977 1736.02 737.917 1736.3 737.795C1736.58 737.674 1736.82 737.5 1737.02 737.273C1737.22 737.045 1737.36 736.773 1737.44 736.455H1738.78C1738.71 736.97 1738.52 737.434 1738.22 737.847C1737.92 738.256 1737.53 738.581 1737.04 738.824C1736.56 739.062 1735.99 739.182 1735.35 739.182ZM1740.06 731.523V730.273H1747.15V731.523H1744.28V739H1742.94V731.523H1740.06ZM1749.1 742.273V730.273H1750.4V731.659H1750.56C1750.66 731.508 1750.79 731.314 1750.97 731.08C1751.14 730.841 1751.4 730.629 1751.73 730.443C1752.06 730.254 1752.51 730.159 1753.08 730.159C1753.81 730.159 1754.46 730.343 1755.02 730.71C1755.58 731.078 1756.02 731.598 1756.34 732.273C1756.65 732.947 1756.81 733.742 1756.81 734.659C1756.81 735.583 1756.65 736.384 1756.34 737.062C1756.02 737.737 1755.59 738.259 1755.03 738.631C1754.47 738.998 1753.83 739.182 1753.1 739.182C1752.54 739.182 1752.09 739.089 1751.76 738.903C1751.42 738.714 1751.16 738.5 1750.98 738.261C1750.8 738.019 1750.66 737.818 1750.56 737.659H1750.44V742.273H1749.1ZM1750.42 734.636C1750.42 735.295 1750.52 735.877 1750.71 736.381C1750.9 736.881 1751.19 737.273 1751.56 737.557C1751.93 737.837 1752.38 737.977 1752.92 737.977C1753.48 737.977 1753.95 737.83 1754.32 737.534C1754.7 737.235 1754.99 736.833 1755.18 736.33C1755.37 735.822 1755.47 735.258 1755.47 734.636C1755.47 734.023 1755.37 733.47 1755.18 732.977C1755 732.481 1754.71 732.089 1754.34 731.801C1753.96 731.509 1753.49 731.364 1752.92 731.364C1752.38 731.364 1751.92 731.502 1751.55 731.778C1751.17 732.051 1750.89 732.434 1750.7 732.926C1750.52 733.415 1750.42 733.985 1750.42 734.636ZM1761.42 739.205C1760.87 739.205 1760.37 739.1 1759.91 738.892C1759.46 738.68 1759.11 738.375 1758.84 737.977C1758.58 737.576 1758.44 737.091 1758.44 736.523C1758.44 736.023 1758.54 735.617 1758.74 735.307C1758.94 734.992 1759.2 734.746 1759.53 734.568C1759.86 734.39 1760.22 734.258 1760.62 734.17C1761.02 734.08 1761.42 734.008 1761.83 733.955C1762.36 733.886 1762.79 733.835 1763.12 733.801C1763.45 733.763 1763.7 733.701 1763.85 733.614C1764 733.527 1764.08 733.375 1764.08 733.159V733.114C1764.08 732.553 1763.93 732.117 1763.62 731.807C1763.32 731.496 1762.86 731.341 1762.24 731.341C1761.6 731.341 1761.1 731.481 1760.73 731.761C1760.37 732.042 1760.11 732.341 1759.97 732.659L1758.69 732.205C1758.92 731.674 1759.22 731.261 1759.6 730.966C1759.98 730.667 1760.4 730.458 1760.85 730.341C1761.31 730.22 1761.75 730.159 1762.19 730.159C1762.47 730.159 1762.8 730.193 1763.16 730.261C1763.53 730.326 1763.88 730.46 1764.22 730.665C1764.57 730.869 1764.85 731.178 1765.08 731.591C1765.31 732.004 1765.42 732.557 1765.42 733.25V739H1764.08V737.818H1764.01C1763.92 738.008 1763.77 738.21 1763.56 738.426C1763.34 738.642 1763.06 738.826 1762.71 738.977C1762.36 739.129 1761.93 739.205 1761.42 739.205ZM1761.62 738C1762.16 738 1762.6 737.896 1762.97 737.688C1763.33 737.479 1763.61 737.21 1763.8 736.881C1763.98 736.551 1764.08 736.205 1764.08 735.841V734.614C1764.02 734.682 1763.9 734.744 1763.7 734.801C1763.52 734.854 1763.3 734.902 1763.05 734.943C1762.8 734.981 1762.56 735.015 1762.32 735.045C1762.09 735.072 1761.91 735.095 1761.76 735.114C1761.41 735.159 1761.09 735.233 1760.78 735.335C1760.48 735.434 1760.24 735.583 1760.06 735.784C1759.88 735.981 1759.78 736.25 1759.78 736.591C1759.78 737.057 1759.96 737.409 1760.3 737.648C1760.65 737.883 1761.09 738 1761.62 738ZM1774.73 730.273V737.75H1775.96V741.818H1774.62V739H1767.87V730.273H1769.21V737.75H1773.39V730.273H1774.73ZM1779.37 737.023L1783.57 730.273H1785.12V739H1783.77V732.25L1779.59 739H1778.02V730.273H1779.37V737.023ZM1792.82 739V731.5H1790.5C1789.98 731.5 1789.57 731.621 1789.27 731.864C1788.97 732.106 1788.82 732.439 1788.82 732.864C1788.82 733.28 1788.96 733.608 1789.22 733.847C1789.5 734.085 1789.87 734.205 1790.34 734.205H1793.16V735.455H1790.34C1789.75 735.455 1789.24 735.35 1788.82 735.142C1788.39 734.934 1788.06 734.636 1787.83 734.25C1787.6 733.86 1787.48 733.398 1787.48 732.864C1787.48 732.326 1787.6 731.864 1787.84 731.477C1788.09 731.091 1788.43 730.794 1788.88 730.585C1789.34 730.377 1789.88 730.273 1790.5 730.273H1794.09V739H1792.82ZM1787 739L1789.48 734.659H1790.93L1788.46 739H1787Z" fill="#FEE9E7"/>
<rect x="866" y="447" width="40" height="40" rx="20" fill="#EADDFF"/>
<path fill-rule="evenodd" clip-rule="evenodd" d="M892 463C892 466.314 889.314 469 886 469C882.687 469 880 466.314 880 463C880 459.686 882.687 457 886 457C889.314 457 892 459.686 892 463ZM890 463C890 465.209 888.209 467 886 467C883.791 467 882 465.209 882 463C882 460.791 883.791 459 886 459C888.209 459 890 460.791 890 463Z" fill="#4F378A"/>
<path d="M886 472C879.526 472 874.01 475.828 871.908 481.192C872.42 481.7 872.959 482.181 873.524 482.632C875.088 477.708 879.997 474 886 474C892.004 474 896.912 477.708 898.477 482.632C899.041 482.181 899.58 481.7 900.092 481.192C897.991 475.828 892.475 472 886 472Z" fill="#4F378A"/>
<rect width="731" height="1080" fill="#D9D9D9"/>
<path d="M146.091 467.636V462.364H149C150.121 462.364 151.061 462.144 151.818 461.705C152.591 461.265 153.227 460.697 153.727 460C154.242 459.303 154.667 458.576 155 457.818L155.727 456.091L139.636 420.455H145.727L158.545 449.364L170.273 420.455H176.273L160.182 459.455C159.545 460.909 158.818 462.258 158 463.5C157.197 464.742 156.098 465.742 154.705 466.5C153.326 467.258 151.455 467.636 149.091 467.636H146.091ZM180.284 467V432.091H207.739V467H202.375V437.091H185.648V467H180.284ZM217.534 480.091V432.091H222.716V437.636H223.352C223.746 437.03 224.292 436.258 224.989 435.318C225.701 434.364 226.716 433.515 228.034 432.773C229.367 432.015 231.17 431.636 233.443 431.636C236.383 431.636 238.973 432.371 241.216 433.841C243.458 435.311 245.208 437.394 246.466 440.091C247.723 442.788 248.352 445.97 248.352 449.636C248.352 453.333 247.723 456.538 246.466 459.25C245.208 461.947 243.466 464.038 241.239 465.523C239.011 466.992 236.443 467.727 233.534 467.727C231.292 467.727 229.496 467.356 228.148 466.614C226.799 465.856 225.761 465 225.034 464.045C224.307 463.076 223.746 462.273 223.352 461.636H222.898V480.091H217.534ZM222.807 449.545C222.807 452.182 223.193 454.508 223.966 456.523C224.739 458.523 225.867 460.091 227.352 461.227C228.837 462.348 230.655 462.909 232.807 462.909C235.049 462.909 236.92 462.318 238.42 461.136C239.936 459.939 241.072 458.333 241.83 456.318C242.602 454.288 242.989 452.03 242.989 449.545C242.989 447.091 242.61 444.879 241.852 442.909C241.11 440.924 239.981 439.356 238.466 438.205C236.966 437.038 235.08 436.455 232.807 436.455C230.625 436.455 228.792 437.008 227.307 438.114C225.822 439.205 224.701 440.735 223.943 442.705C223.186 444.659 222.807 446.939 222.807 449.545ZM266.807 467.818C264.595 467.818 262.587 467.402 260.784 466.568C258.981 465.72 257.549 464.5 256.489 462.909C255.428 461.303 254.898 459.364 254.898 457.091C254.898 455.091 255.292 453.47 256.08 452.227C256.867 450.97 257.92 449.985 259.239 449.273C260.557 448.561 262.011 448.03 263.602 447.682C265.208 447.318 266.822 447.03 268.443 446.818C270.564 446.545 272.284 446.341 273.602 446.205C274.936 446.053 275.905 445.803 276.511 445.455C277.133 445.106 277.443 444.5 277.443 443.636V443.455C277.443 441.212 276.83 439.47 275.602 438.227C274.39 436.985 272.549 436.364 270.08 436.364C267.519 436.364 265.511 436.924 264.057 438.045C262.602 439.167 261.58 440.364 260.989 441.636L255.898 439.818C256.807 437.697 258.019 436.045 259.534 434.864C261.064 433.667 262.731 432.833 264.534 432.364C266.352 431.879 268.14 431.636 269.898 431.636C271.019 431.636 272.307 431.773 273.761 432.045C275.231 432.303 276.648 432.841 278.011 433.659C279.39 434.477 280.534 435.712 281.443 437.364C282.352 439.015 282.807 441.227 282.807 444V467H277.443V462.273H277.17C276.807 463.03 276.201 463.841 275.352 464.705C274.504 465.568 273.375 466.303 271.966 466.909C270.557 467.515 268.837 467.818 266.807 467.818ZM267.625 463C269.746 463 271.534 462.583 272.989 461.75C274.458 460.917 275.564 459.841 276.307 458.523C277.064 457.205 277.443 455.818 277.443 454.364V449.455C277.216 449.727 276.716 449.977 275.943 450.205C275.186 450.417 274.307 450.606 273.307 450.773C272.322 450.924 271.36 451.061 270.42 451.182C269.496 451.288 268.746 451.379 268.17 451.455C266.777 451.636 265.473 451.932 264.261 452.341C263.064 452.735 262.095 453.333 261.352 454.136C260.625 454.924 260.261 456 260.261 457.364C260.261 459.227 260.951 460.636 262.33 461.591C263.723 462.53 265.489 463 267.625 463ZM292.597 467V432.091H306.869C310.627 432.091 313.612 432.939 315.824 434.636C318.036 436.333 319.142 438.576 319.142 441.364C319.142 443.485 318.513 445.129 317.256 446.295C315.998 447.447 314.384 448.227 312.415 448.636C313.703 448.818 314.953 449.273 316.165 450C317.392 450.727 318.407 451.727 319.21 453C320.013 454.258 320.415 455.803 320.415 457.636C320.415 459.424 319.96 461.023 319.051 462.432C318.142 463.841 316.839 464.955 315.142 465.773C313.445 466.591 311.415 467 309.051 467H292.597ZM297.688 462.091H309.051C310.9 462.091 312.347 461.652 313.392 460.773C314.438 459.894 314.96 458.697 314.96 457.182C314.96 455.379 314.438 453.962 313.392 452.932C312.347 451.886 310.9 451.364 309.051 451.364H297.688V462.091ZM297.688 446.727H306.869C308.309 446.727 309.544 446.53 310.574 446.136C311.604 445.727 312.392 445.152 312.938 444.409C313.498 443.652 313.778 442.758 313.778 441.727C313.778 440.258 313.165 439.106 311.938 438.273C310.71 437.424 309.021 437 306.869 437H297.688V446.727ZM325.443 467V462H326.716C327.761 462 328.633 461.795 329.33 461.386C330.027 460.962 330.587 460.227 331.011 459.182C331.451 458.121 331.784 456.652 332.011 454.773C332.254 452.879 332.428 450.47 332.534 447.545L333.17 432.091H356.443V467H351.08V437.091H338.261L337.716 449.545C337.595 452.409 337.337 454.932 336.943 457.114C336.564 459.28 335.981 461.098 335.193 462.568C334.42 464.038 333.39 465.144 332.102 465.886C330.814 466.629 329.201 467 327.261 467H325.443ZM380.92 467.727C377.557 467.727 374.655 466.985 372.216 465.5C369.792 464 367.92 461.909 366.602 459.227C365.299 456.53 364.648 453.394 364.648 449.818C364.648 446.242 365.299 443.091 366.602 440.364C367.92 437.621 369.754 435.485 372.102 433.955C374.466 432.409 377.223 431.636 380.375 431.636C382.193 431.636 383.989 431.939 385.761 432.545C387.534 433.152 389.148 434.136 390.602 435.5C392.057 436.848 393.216 438.636 394.08 440.864C394.943 443.091 395.375 445.833 395.375 449.091V451.364H368.466V446.727H389.92C389.92 444.758 389.527 443 388.739 441.455C387.966 439.909 386.86 438.689 385.42 437.795C383.996 436.902 382.314 436.455 380.375 436.455C378.239 436.455 376.39 436.985 374.83 438.045C373.284 439.091 372.095 440.455 371.261 442.136C370.428 443.818 370.011 445.621 370.011 447.545V450.636C370.011 453.273 370.466 455.508 371.375 457.341C372.299 459.159 373.58 460.545 375.216 461.5C376.852 462.439 378.754 462.909 380.92 462.909C382.33 462.909 383.602 462.712 384.739 462.318C385.89 461.909 386.883 461.303 387.716 460.5C388.549 459.682 389.193 458.667 389.648 457.455L394.83 458.909C394.284 460.667 393.367 462.212 392.08 463.545C390.792 464.864 389.201 465.894 387.307 466.636C385.413 467.364 383.284 467.727 380.92 467.727ZM426.898 447.091V452.091H407.625V447.091H426.898ZM408.898 432.091V467H403.534V432.091H408.898ZM430.989 432.091V467H425.625V432.091H430.989ZM446.148 459.091L462.966 432.091H469.148V467H463.784V440L447.057 467H440.784V432.091H446.148V459.091ZM493.608 467.727C490.244 467.727 487.343 466.985 484.903 465.5C482.479 464 480.608 461.909 479.29 459.227C477.987 456.53 477.335 453.394 477.335 449.818C477.335 446.242 477.987 443.091 479.29 440.364C480.608 437.621 482.441 435.485 484.79 433.955C487.153 432.409 489.911 431.636 493.062 431.636C494.881 431.636 496.676 431.939 498.449 432.545C500.222 433.152 501.835 434.136 503.29 435.5C504.744 436.848 505.903 438.636 506.767 440.864C507.631 443.091 508.062 445.833 508.062 449.091V451.364H481.153V446.727H502.608C502.608 444.758 502.214 443 501.426 441.455C500.653 439.909 499.547 438.689 498.108 437.795C496.684 436.902 495.002 436.455 493.062 436.455C490.926 436.455 489.078 436.985 487.517 438.045C485.972 439.091 484.782 440.455 483.949 442.136C483.116 443.818 482.699 445.621 482.699 447.545V450.636C482.699 453.273 483.153 455.508 484.062 457.341C484.987 459.159 486.267 460.545 487.903 461.5C489.54 462.439 491.441 462.909 493.608 462.909C495.017 462.909 496.29 462.712 497.426 462.318C498.578 461.909 499.57 461.303 500.403 460.5C501.237 459.682 501.881 458.667 502.335 457.455L507.517 458.909C506.972 460.667 506.055 462.212 504.767 463.545C503.479 464.864 501.888 465.894 499.994 466.636C498.1 467.364 495.972 467.727 493.608 467.727ZM170.364 509.091V539H175.273V555.273H169.909V544H142.909V509.091H148.273V539H165V509.091H170.364ZM188.898 536.091L205.716 509.091H211.898V544H206.534V517L189.807 544H183.534V509.091H188.898V536.091ZM235.903 555.909V497.455H241.267V555.909H235.903ZM235.903 544.727C233.54 544.727 231.388 544.303 229.449 543.455C227.509 542.591 225.843 541.371 224.449 539.795C223.055 538.205 221.979 536.303 221.222 534.091C220.464 531.879 220.085 529.424 220.085 526.727C220.085 524 220.464 521.53 221.222 519.318C221.979 517.091 223.055 515.182 224.449 513.591C225.843 512 227.509 510.78 229.449 509.932C231.388 509.068 233.54 508.636 235.903 508.636H237.54V544.727H235.903ZM235.903 539.909H236.812V513.455H235.903C234.116 513.455 232.563 513.818 231.244 514.545C229.926 515.258 228.835 516.235 227.972 517.477C227.123 518.705 226.487 520.114 226.062 521.705C225.653 523.295 225.449 524.97 225.449 526.727C225.449 529.061 225.82 531.227 226.562 533.227C227.305 535.227 228.449 536.841 229.994 538.068C231.54 539.295 233.509 539.909 235.903 539.909ZM241.267 544.727H239.631V508.636H241.267C243.631 508.636 245.782 509.068 247.722 509.932C249.661 510.78 251.328 512 252.722 513.591C254.116 515.182 255.191 517.091 255.949 519.318C256.706 521.53 257.085 524 257.085 526.727C257.085 529.424 256.706 531.879 255.949 534.091C255.191 536.303 254.116 538.205 252.722 539.795C251.328 541.371 249.661 542.591 247.722 543.455C245.782 544.303 243.631 544.727 241.267 544.727ZM241.267 539.909C243.07 539.909 244.623 539.561 245.926 538.864C247.244 538.152 248.328 537.182 249.176 535.955C250.04 534.712 250.676 533.303 251.085 531.727C251.509 530.136 251.722 528.47 251.722 526.727C251.722 524.394 251.35 522.22 250.608 520.205C249.866 518.189 248.722 516.561 247.176 515.318C245.631 514.076 243.661 513.455 241.267 513.455H240.358V539.909H241.267ZM265.284 557.091V509.091H270.466V514.636H271.102C271.496 514.03 272.042 513.258 272.739 512.318C273.451 511.364 274.466 510.515 275.784 509.773C277.117 509.015 278.92 508.636 281.193 508.636C284.133 508.636 286.723 509.371 288.966 510.841C291.208 512.311 292.958 514.394 294.216 517.091C295.473 519.788 296.102 522.97 296.102 526.636C296.102 530.333 295.473 533.538 294.216 536.25C292.958 538.947 291.216 541.038 288.989 542.523C286.761 543.992 284.193 544.727 281.284 544.727C279.042 544.727 277.246 544.356 275.898 543.614C274.549 542.856 273.511 542 272.784 541.045C272.057 540.076 271.496 539.273 271.102 538.636H270.648V557.091H265.284ZM270.557 526.545C270.557 529.182 270.943 531.508 271.716 533.523C272.489 535.523 273.617 537.091 275.102 538.227C276.587 539.348 278.405 539.909 280.557 539.909C282.799 539.909 284.67 539.318 286.17 538.136C287.686 536.939 288.822 535.333 289.58 533.318C290.352 531.288 290.739 529.03 290.739 526.545C290.739 524.091 290.36 521.879 289.602 519.909C288.86 517.924 287.731 516.356 286.216 515.205C284.716 514.038 282.83 513.455 280.557 513.455C278.375 513.455 276.542 514.008 275.057 515.114C273.572 516.205 272.451 517.735 271.693 519.705C270.936 521.659 270.557 523.939 270.557 526.545ZM318.466 544.727C315.314 544.727 312.549 543.977 310.17 542.477C307.807 540.977 305.958 538.879 304.625 536.182C303.307 533.485 302.648 530.333 302.648 526.727C302.648 523.091 303.307 519.917 304.625 517.205C305.958 514.492 307.807 512.386 310.17 510.886C312.549 509.386 315.314 508.636 318.466 508.636C321.617 508.636 324.375 509.386 326.739 510.886C329.117 512.386 330.966 514.492 332.284 517.205C333.617 519.917 334.284 523.091 334.284 526.727C334.284 530.333 333.617 533.485 332.284 536.182C330.966 538.879 329.117 540.977 326.739 542.477C324.375 543.977 321.617 544.727 318.466 544.727ZM318.466 539.909C320.86 539.909 322.83 539.295 324.375 538.068C325.92 536.841 327.064 535.227 327.807 533.227C328.549 531.227 328.92 529.061 328.92 526.727C328.92 524.394 328.549 522.22 327.807 520.205C327.064 518.189 325.92 516.561 324.375 515.318C322.83 514.076 320.86 513.455 318.466 513.455C316.072 513.455 314.102 514.076 312.557 515.318C311.011 516.561 309.867 518.189 309.125 520.205C308.383 522.22 308.011 524.394 308.011 526.727C308.011 529.061 308.383 531.227 309.125 533.227C309.867 535.227 311.011 536.841 312.557 538.068C314.102 539.295 316.072 539.909 318.466 539.909ZM342.472 544V509.091H356.744C360.502 509.091 363.487 509.939 365.699 511.636C367.911 513.333 369.017 515.576 369.017 518.364C369.017 520.485 368.388 522.129 367.131 523.295C365.873 524.447 364.259 525.227 362.29 525.636C363.578 525.818 364.828 526.273 366.04 527C367.267 527.727 368.282 528.727 369.085 530C369.888 531.258 370.29 532.803 370.29 534.636C370.29 536.424 369.835 538.023 368.926 539.432C368.017 540.841 366.714 541.955 365.017 542.773C363.32 543.591 361.29 544 358.926 544H342.472ZM347.562 539.091H358.926C360.775 539.091 362.222 538.652 363.267 537.773C364.313 536.894 364.835 535.697 364.835 534.182C364.835 532.379 364.313 530.962 363.267 529.932C362.222 528.886 360.775 528.364 358.926 528.364H347.562V539.091ZM347.562 523.727H356.744C358.184 523.727 359.419 523.53 360.449 523.136C361.479 522.727 362.267 522.152 362.812 521.409C363.373 520.652 363.653 519.758 363.653 518.727C363.653 517.258 363.04 516.106 361.812 515.273C360.585 514.424 358.896 514 356.744 514H347.562V523.727ZM392.591 544.727C389.439 544.727 386.674 543.977 384.295 542.477C381.932 540.977 380.083 538.879 378.75 536.182C377.432 533.485 376.773 530.333 376.773 526.727C376.773 523.091 377.432 519.917 378.75 517.205C380.083 514.492 381.932 512.386 384.295 510.886C386.674 509.386 389.439 508.636 392.591 508.636C395.742 508.636 398.5 509.386 400.864 510.886C403.242 512.386 405.091 514.492 406.409 517.205C407.742 519.917 408.409 523.091 408.409 526.727C408.409 530.333 407.742 533.485 406.409 536.182C405.091 538.879 403.242 540.977 400.864 542.477C398.5 543.977 395.742 544.727 392.591 544.727ZM392.591 539.909C394.985 539.909 396.955 539.295 398.5 538.068C400.045 536.841 401.189 535.227 401.932 533.227C402.674 531.227 403.045 529.061 403.045 526.727C403.045 524.394 402.674 522.22 401.932 520.205C401.189 518.189 400.045 516.561 398.5 515.318C396.955 514.076 394.985 513.455 392.591 513.455C390.197 513.455 388.227 514.076 386.682 515.318C385.136 516.561 383.992 518.189 383.25 520.205C382.508 522.22 382.136 524.394 382.136 526.727C382.136 529.061 382.508 531.227 383.25 533.227C383.992 535.227 385.136 536.841 386.682 538.068C388.227 539.295 390.197 539.909 392.591 539.909ZM421.96 536.091L438.778 509.091H444.96V544H439.597V517L422.869 544H416.597V509.091H421.96V536.091ZM435.233 497.455H440.233C440.233 499.909 439.384 501.917 437.688 503.477C435.991 505.038 433.688 505.818 430.778 505.818C427.915 505.818 425.634 505.038 423.938 503.477C422.256 501.917 421.415 499.909 421.415 497.455H426.415C426.415 498.636 426.741 499.674 427.392 500.568C428.059 501.462 429.188 501.909 430.778 501.909C432.369 501.909 433.506 501.462 434.188 500.568C434.884 499.674 435.233 498.636 435.233 497.455ZM168.818 573L171.545 576.273C170.485 577.303 169.258 578.023 167.864 578.432C166.47 578.841 164.894 579.091 163.136 579.182C161.379 579.273 159.424 579.364 157.273 579.455C154.848 579.545 152.841 580.136 151.25 581.227C149.659 582.318 148.432 583.894 147.568 585.955C146.705 588.015 146.152 590.545 145.909 593.545H146.364C147.545 591.364 149.182 589.758 151.273 588.727C153.364 587.697 155.606 587.182 158 587.182C160.727 587.182 163.182 587.818 165.364 589.091C167.545 590.364 169.273 592.25 170.545 594.75C171.818 597.25 172.455 600.333 172.455 604C172.455 607.652 171.803 610.803 170.5 613.455C169.212 616.106 167.402 618.152 165.068 619.591C162.75 621.015 160.03 621.727 156.909 621.727C153.788 621.727 151.053 620.992 148.705 619.523C146.356 618.038 144.53 615.841 143.227 612.932C141.924 610.008 141.273 606.394 141.273 602.091V598.364C141.273 590.591 142.591 584.697 145.227 580.682C147.879 576.667 151.864 574.591 157.182 574.455C159.061 574.394 160.735 574.379 162.205 574.409C163.674 574.439 164.955 574.371 166.045 574.205C167.136 574.038 168.061 573.636 168.818 573ZM156.909 616.909C159.015 616.909 160.826 616.379 162.341 615.318C163.871 614.258 165.045 612.765 165.864 610.841C166.682 608.902 167.091 606.621 167.091 604C167.091 601.455 166.674 599.288 165.841 597.5C165.023 595.712 163.848 594.348 162.318 593.409C160.788 592.47 158.955 592 156.818 592C155.258 592 153.856 592.265 152.614 592.795C151.371 593.326 150.311 594.106 149.432 595.136C148.553 596.167 147.871 597.424 147.386 598.909C146.917 600.394 146.667 602.091 146.636 604C146.636 607.909 147.553 611.038 149.386 613.386C151.22 615.735 153.727 616.909 156.909 616.909ZM186.023 613.091L202.841 586.091H209.023V621H203.659V594L186.932 621H180.659V586.091H186.023V613.091ZM244.756 573L247.483 576.273C246.422 577.303 245.195 578.023 243.801 578.432C242.407 578.841 240.831 579.091 239.074 579.182C237.316 579.273 235.362 579.364 233.21 579.455C230.786 579.545 228.778 580.136 227.188 581.227C225.597 582.318 224.369 583.894 223.506 585.955C222.642 588.015 222.089 590.545 221.847 593.545H222.301C223.483 591.364 225.119 589.758 227.21 588.727C229.301 587.697 231.544 587.182 233.938 587.182C236.665 587.182 239.119 587.818 241.301 589.091C243.483 590.364 245.21 592.25 246.483 594.75C247.756 597.25 248.392 600.333 248.392 604C248.392 607.652 247.741 610.803 246.438 613.455C245.15 616.106 243.339 618.152 241.006 619.591C238.688 621.015 235.968 621.727 232.847 621.727C229.725 621.727 226.991 620.992 224.642 619.523C222.294 618.038 220.468 615.841 219.165 612.932C217.862 610.008 217.21 606.394 217.21 602.091V598.364C217.21 590.591 218.528 584.697 221.165 580.682C223.816 576.667 227.801 574.591 233.119 574.455C234.998 574.394 236.672 574.379 238.142 574.409C239.612 574.439 240.892 574.371 241.983 574.205C243.074 574.038 243.998 573.636 244.756 573ZM232.847 616.909C234.953 616.909 236.763 616.379 238.278 615.318C239.809 614.258 240.983 612.765 241.801 610.841C242.619 608.902 243.028 606.621 243.028 604C243.028 601.455 242.612 599.288 241.778 597.5C240.96 595.712 239.786 594.348 238.256 593.409C236.725 592.47 234.892 592 232.756 592C231.195 592 229.794 592.265 228.551 592.795C227.309 593.326 226.248 594.106 225.369 595.136C224.491 596.167 223.809 597.424 223.324 598.909C222.854 600.394 222.604 602.091 222.574 604C222.574 607.909 223.491 611.038 225.324 613.386C227.157 615.735 229.665 616.909 232.847 616.909ZM253.506 621V616H254.778C255.824 616 256.695 615.795 257.392 615.386C258.089 614.962 258.65 614.227 259.074 613.182C259.513 612.121 259.847 610.652 260.074 608.773C260.316 606.879 260.491 604.47 260.597 601.545L261.233 586.091H284.506V621H279.142V591.091H266.324L265.778 603.545C265.657 606.409 265.4 608.932 265.006 611.114C264.627 613.28 264.044 615.098 263.256 616.568C262.483 618.038 261.453 619.144 260.165 619.886C258.877 620.629 257.263 621 255.324 621H253.506ZM299.71 613.091L316.528 586.091H322.71V621H317.347V594L300.619 621H294.347V586.091H299.71V613.091ZM346.716 621.727C343.564 621.727 340.799 620.977 338.42 619.477C336.057 617.977 334.208 615.879 332.875 613.182C331.557 610.485 330.898 607.333 330.898 603.727C330.898 600.091 331.557 596.917 332.875 594.205C334.208 591.492 336.057 589.386 338.42 587.886C340.799 586.386 343.564 585.636 346.716 585.636C349.867 585.636 352.625 586.386 354.989 587.886C357.367 589.386 359.216 591.492 360.534 594.205C361.867 596.917 362.534 600.091 362.534 603.727C362.534 607.333 361.867 610.485 360.534 613.182C359.216 615.879 357.367 617.977 354.989 619.477C352.625 620.977 349.867 621.727 346.716 621.727ZM346.716 616.909C349.11 616.909 351.08 616.295 352.625 615.068C354.17 613.841 355.314 612.227 356.057 610.227C356.799 608.227 357.17 606.061 357.17 603.727C357.17 601.394 356.799 599.22 356.057 597.205C355.314 595.189 354.17 593.561 352.625 592.318C351.08 591.076 349.11 590.455 346.716 590.455C344.322 590.455 342.352 591.076 340.807 592.318C339.261 593.561 338.117 595.189 337.375 597.205C336.633 599.22 336.261 601.394 336.261 603.727C336.261 606.061 336.633 608.227 337.375 610.227C338.117 612.227 339.261 613.841 340.807 615.068C342.352 616.295 344.322 616.909 346.716 616.909ZM366.159 591.091V586.091H394.523V591.091H383.068V621H377.705V591.091H366.159ZM415.17 621.727C411.807 621.727 408.905 620.985 406.466 619.5C404.042 618 402.17 615.909 400.852 613.227C399.549 610.53 398.898 607.394 398.898 603.818C398.898 600.242 399.549 597.091 400.852 594.364C402.17 591.621 404.004 589.485 406.352 587.955C408.716 586.409 411.473 585.636 414.625 585.636C416.443 585.636 418.239 585.939 420.011 586.545C421.784 587.152 423.398 588.136 424.852 589.5C426.307 590.848 427.466 592.636 428.33 594.864C429.193 597.091 429.625 599.833 429.625 603.091V605.364H402.716V600.727H424.17C424.17 598.758 423.777 597 422.989 595.455C422.216 593.909 421.11 592.689 419.67 591.795C418.246 590.902 416.564 590.455 414.625 590.455C412.489 590.455 410.64 590.985 409.08 592.045C407.534 593.091 406.345 594.455 405.511 596.136C404.678 597.818 404.261 599.621 404.261 601.545V604.636C404.261 607.273 404.716 609.508 405.625 611.341C406.549 613.159 407.83 614.545 409.466 615.5C411.102 616.439 413.004 616.909 415.17 616.909C416.58 616.909 417.852 616.712 418.989 616.318C420.14 615.909 421.133 615.303 421.966 614.5C422.799 613.682 423.443 612.667 423.898 611.455L429.08 612.909C428.534 614.667 427.617 616.212 426.33 617.545C425.042 618.864 423.451 619.894 421.557 620.636C419.663 621.364 417.534 621.727 415.17 621.727ZM437.784 621V586.091H443.148V601.273H446.693L459.239 586.091H466.148L452.057 602.909L466.33 621H459.42L447.966 606.273H443.148V621H437.784ZM484.903 621.727C481.752 621.727 478.987 620.977 476.608 619.477C474.244 617.977 472.396 615.879 471.062 613.182C469.744 610.485 469.085 607.333 469.085 603.727C469.085 600.091 469.744 596.917 471.062 594.205C472.396 591.492 474.244 589.386 476.608 587.886C478.987 586.386 481.752 585.636 484.903 585.636C488.055 585.636 490.813 586.386 493.176 587.886C495.555 589.386 497.403 591.492 498.722 594.205C500.055 596.917 500.722 600.091 500.722 603.727C500.722 607.333 500.055 610.485 498.722 613.182C497.403 615.879 495.555 617.977 493.176 619.477C490.813 620.977 488.055 621.727 484.903 621.727ZM484.903 616.909C487.297 616.909 489.267 616.295 490.812 615.068C492.358 613.841 493.502 612.227 494.244 610.227C494.987 608.227 495.358 606.061 495.358 603.727C495.358 601.394 494.987 599.22 494.244 597.205C493.502 595.189 492.358 593.561 490.812 592.318C489.267 591.076 487.297 590.455 484.903 590.455C482.509 590.455 480.54 591.076 478.994 592.318C477.449 593.561 476.305 595.189 475.562 597.205C474.82 599.22 474.449 601.394 474.449 603.727C474.449 606.061 474.82 608.227 475.562 610.227C476.305 612.227 477.449 613.841 478.994 615.068C480.54 616.295 482.509 616.909 484.903 616.909ZM514.273 613.091L531.091 586.091H537.273V621H531.909V594L515.182 621H508.909V586.091H514.273V613.091ZM527.545 574.455H532.545C532.545 576.909 531.697 578.917 530 580.477C528.303 582.038 526 582.818 523.091 582.818C520.227 582.818 517.947 582.038 516.25 580.477C514.568 578.917 513.727 576.909 513.727 574.455H518.727C518.727 575.636 519.053 576.674 519.705 577.568C520.371 578.462 521.5 578.909 523.091 578.909C524.682 578.909 525.818 578.462 526.5 577.568C527.197 576.674 527.545 575.636 527.545 574.455Z" fill="black"/>
<mask id="path-24-inside-2_2_2" fill="white">
<path d="M1673 32C1673 27.5817 1676.58 24 1681 24H1890C1894.42 24 1898 27.5817 1898 32V56C1898 60.4183 1894.42 64 1890 64H1681C1676.58 64 1673 60.4183 1673 56V32Z"/>
</mask>
<path d="M1673 32C1673 27.5817 1676.58 24 1681 24H1890C1894.42 24 1898 27.5817 1898 32V56C1898 60.4183 1894.42 64 1890 64H1681C1676.58 64 1673 60.4183 1673 56V32Z" fill="#2C2C2C"/>
<path d="M1681 24V25H1890V24V23H1681V24ZM1898 32H1897V56H1898H1899V32H1898ZM1890 64V63H1681V64V65H1890V64ZM1673 56H1674V32H1673H1672V56H1673ZM1681 64V63C1677.13 63 1674 59.866 1674 56H1673H1672C1672 60.9706 1676.03 65 1681 65V64ZM1898 56H1897C1897 59.866 1893.87 63 1890 63V64V65C1894.97 65 1899 60.9706 1899 56H1898ZM1890 24V25C1893.87 25 1897 28.134 1897 32H1898H1899C1899 27.0294 1894.97 23 1890 23V24ZM1681 24V23C1676.03 23 1672 27.0294 1672 32H1673H1674C1674 28.134 1677.13 25 1681 25V24Z" fill="#2C2C2C" mask="url(#path-24-inside-2_2_2)"/>
<path d="M1686.41 50V38.3636H1690.48C1691.29 38.3636 1691.96 38.5038 1692.48 38.7841C1693.01 39.0606 1693.4 39.4337 1693.66 39.9034C1693.92 40.3693 1694.05 40.8864 1694.05 41.4545C1694.05 41.9545 1693.96 42.3674 1693.78 42.6932C1693.6 43.0189 1693.37 43.2765 1693.09 43.4659C1692.8 43.6553 1692.49 43.7955 1692.16 43.8864V44C1692.52 44.0227 1692.87 44.1477 1693.23 44.375C1693.59 44.6023 1693.89 44.928 1694.14 45.3523C1694.38 45.7765 1694.5 46.2955 1694.5 46.9091C1694.5 47.4924 1694.37 48.017 1694.1 48.483C1693.84 48.9489 1693.42 49.3182 1692.85 49.5909C1692.27 49.8636 1691.53 50 1690.61 50H1686.41ZM1687.82 48.75H1690.61C1691.53 48.75 1692.19 48.572 1692.57 48.2159C1692.96 47.8561 1693.16 47.4205 1693.16 46.9091C1693.16 46.5152 1693.06 46.1515 1692.86 45.8182C1692.66 45.4811 1692.37 45.2121 1692 45.0114C1691.63 44.8068 1691.19 44.7045 1690.68 44.7045H1687.82V48.75ZM1687.82 43.4773H1690.43C1690.86 43.4773 1691.24 43.3939 1691.58 43.2273C1691.92 43.0606 1692.2 42.8258 1692.4 42.5227C1692.6 42.2197 1692.7 41.8636 1692.7 41.4545C1692.7 40.9432 1692.53 40.5095 1692.17 40.1534C1691.81 39.7936 1691.25 39.6136 1690.48 39.6136H1687.82V43.4773ZM1697.63 41.2727L1699.72 44.8409L1701.82 41.2727H1703.36L1700.54 45.6364L1703.36 50H1701.82L1699.72 46.6136L1697.63 50H1696.09L1698.86 45.6364L1696.09 41.2727H1697.63ZM1708.46 50.1818C1707.67 50.1818 1706.98 49.9943 1706.39 49.6193C1705.8 49.2443 1705.33 48.7197 1705 48.0455C1704.67 47.3712 1704.51 46.5833 1704.51 45.6818C1704.51 44.7727 1704.67 43.9792 1705 43.3011C1705.33 42.6231 1705.8 42.0966 1706.39 41.7216C1706.98 41.3466 1707.67 41.1591 1708.46 41.1591C1709.25 41.1591 1709.94 41.3466 1710.53 41.7216C1711.12 42.0966 1711.59 42.6231 1711.91 43.3011C1712.25 43.9792 1712.41 44.7727 1712.41 45.6818C1712.41 46.5833 1712.25 47.3712 1711.91 48.0455C1711.59 48.7197 1711.12 49.2443 1710.53 49.6193C1709.94 49.9943 1709.25 50.1818 1708.46 50.1818ZM1708.46 48.9773C1709.06 48.9773 1709.55 48.8239 1709.94 48.517C1710.32 48.2102 1710.61 47.8068 1710.8 47.3068C1710.98 46.8068 1711.07 46.2652 1711.07 45.6818C1711.07 45.0985 1710.98 44.5549 1710.8 44.0511C1710.61 43.5473 1710.32 43.1402 1709.94 42.8295C1709.55 42.5189 1709.06 42.3636 1708.46 42.3636C1707.86 42.3636 1707.37 42.5189 1706.98 42.8295C1706.6 43.1402 1706.31 43.5473 1706.12 44.0511C1705.94 44.5549 1705.85 45.0985 1705.85 45.6818C1705.85 46.2652 1705.94 46.8068 1706.12 47.3068C1706.31 47.8068 1706.6 48.2102 1706.98 48.517C1707.37 48.8239 1707.86 48.9773 1708.46 48.9773ZM1713.53 52.5V48.75H1714.26C1714.44 48.5644 1714.59 48.3636 1714.72 48.1477C1714.85 47.9318 1714.96 47.6761 1715.05 47.3807C1715.15 47.0814 1715.23 46.7178 1715.3 46.2898C1715.37 45.858 1715.43 45.3371 1715.48 44.7273L1715.78 41.2727H1721.33V48.75H1722.67V52.5H1721.33V50H1714.87V52.5H1713.53ZM1715.78 48.75H1719.98V42.5227H1717.03L1716.8 44.7273C1716.71 45.6402 1716.59 46.4375 1716.45 47.1193C1716.31 47.8011 1716.09 48.3447 1715.78 48.75ZM1733.45 50V41.2727H1734.79V45.0682H1735.67L1738.81 41.2727H1740.54L1737.01 45.4773L1740.58 50H1738.86L1735.99 46.3182H1734.79V50H1733.45ZM1744.61 50.2045C1744.05 50.2045 1743.55 50.1004 1743.1 49.892C1742.65 49.6799 1742.29 49.375 1742.03 48.9773C1741.76 48.5758 1741.63 48.0909 1741.63 47.5227C1741.63 47.0227 1741.73 46.6174 1741.93 46.3068C1742.12 45.9924 1742.39 45.7462 1742.72 45.5682C1743.05 45.3902 1743.41 45.2576 1743.81 45.1705C1744.21 45.0795 1744.61 45.0076 1745.02 44.9545C1745.55 44.8864 1745.98 44.8352 1746.31 44.8011C1746.64 44.7633 1746.88 44.7008 1747.03 44.6136C1747.19 44.5265 1747.27 44.375 1747.27 44.1591V44.1136C1747.27 43.553 1747.11 43.1174 1746.81 42.8068C1746.5 42.4962 1746.04 42.3409 1745.43 42.3409C1744.79 42.3409 1744.28 42.4811 1743.92 42.7614C1743.56 43.0417 1743.3 43.3409 1743.15 43.6591L1741.88 43.2045C1742.11 42.6742 1742.41 42.2614 1742.79 41.9659C1743.17 41.6667 1743.59 41.4583 1744.04 41.3409C1744.49 41.2197 1744.94 41.1591 1745.38 41.1591C1745.66 41.1591 1745.98 41.1932 1746.35 41.2614C1746.71 41.3258 1747.07 41.4602 1747.41 41.6648C1747.75 41.8693 1748.04 42.178 1748.27 42.5909C1748.49 43.0038 1748.61 43.5568 1748.61 44.25V50H1747.27V48.8182H1747.2C1747.11 49.0076 1746.96 49.2102 1746.74 49.4261C1746.53 49.642 1746.25 49.8258 1745.9 49.9773C1745.55 50.1288 1745.12 50.2045 1744.61 50.2045ZM1744.81 49C1745.34 49 1745.79 48.8958 1746.15 48.6875C1746.52 48.4792 1746.8 48.2102 1746.98 47.8807C1747.17 47.5511 1747.27 47.2045 1747.27 46.8409V45.6136C1747.21 45.6818 1747.09 45.7443 1746.89 45.8011C1746.7 45.8542 1746.48 45.9015 1746.23 45.9432C1745.99 45.9811 1745.75 46.0152 1745.51 46.0455C1745.28 46.072 1745.09 46.0947 1744.95 46.1136C1744.6 46.1591 1744.27 46.233 1743.97 46.3352C1743.67 46.4337 1743.43 46.5833 1743.24 46.7841C1743.06 46.9811 1742.97 47.25 1742.97 47.5909C1742.97 48.0568 1743.14 48.4091 1743.49 48.6477C1743.84 48.8826 1744.28 49 1744.81 49ZM1751.06 50V41.2727H1752.4V45.0682H1753.28L1756.42 41.2727H1758.15L1754.62 45.4773L1758.19 50H1756.46L1753.6 46.3182H1752.4V50H1751.06ZM1766.72 50.2045C1766.16 50.2045 1765.66 50.1004 1765.21 49.892C1764.76 49.6799 1764.4 49.375 1764.14 48.9773C1763.87 48.5758 1763.74 48.0909 1763.74 47.5227C1763.74 47.0227 1763.84 46.6174 1764.04 46.3068C1764.23 45.9924 1764.5 45.7462 1764.83 45.5682C1765.15 45.3902 1765.52 45.2576 1765.92 45.1705C1766.32 45.0795 1766.72 45.0076 1767.13 44.9545C1767.66 44.8864 1768.09 44.8352 1768.42 44.8011C1768.75 44.7633 1768.99 44.7008 1769.14 44.6136C1769.3 44.5265 1769.38 44.375 1769.38 44.1591V44.1136C1769.38 43.553 1769.22 43.1174 1768.92 42.8068C1768.61 42.4962 1768.15 42.3409 1767.54 42.3409C1766.9 42.3409 1766.39 42.4811 1766.03 42.7614C1765.67 43.0417 1765.41 43.3409 1765.26 43.6591L1763.99 43.2045C1764.22 42.6742 1764.52 42.2614 1764.9 41.9659C1765.28 41.6667 1765.7 41.4583 1766.15 41.3409C1766.6 41.2197 1767.05 41.1591 1767.49 41.1591C1767.77 41.1591 1768.09 41.1932 1768.46 41.2614C1768.82 41.3258 1769.18 41.4602 1769.52 41.6648C1769.86 41.8693 1770.15 42.178 1770.38 42.5909C1770.6 43.0038 1770.72 43.5568 1770.72 44.25V50H1769.38V48.8182H1769.31C1769.22 49.0076 1769.07 49.2102 1768.85 49.4261C1768.64 49.642 1768.36 49.8258 1768.01 49.9773C1767.65 50.1288 1767.22 50.2045 1766.72 50.2045ZM1766.92 49C1767.45 49 1767.9 48.8958 1768.26 48.6875C1768.63 48.4792 1768.91 48.2102 1769.09 47.8807C1769.28 47.5511 1769.38 47.2045 1769.38 46.8409V45.6136C1769.32 45.6818 1769.19 45.7443 1769 45.8011C1768.81 45.8542 1768.59 45.9015 1768.34 45.9432C1768.1 45.9811 1767.86 46.0152 1767.62 46.0455C1767.39 46.072 1767.2 46.0947 1767.06 46.1136C1766.71 46.1591 1766.38 46.233 1766.08 46.3352C1765.78 46.4337 1765.54 46.5833 1765.35 46.7841C1765.17 46.9811 1765.08 47.25 1765.08 47.5909C1765.08 48.0568 1765.25 48.4091 1765.6 48.6477C1765.95 48.8826 1766.39 49 1766.92 49ZM1772.23 52.5V48.75H1772.96C1773.14 48.5644 1773.29 48.3636 1773.42 48.1477C1773.55 47.9318 1773.66 47.6761 1773.76 47.3807C1773.85 47.0814 1773.94 46.7178 1774.01 46.2898C1774.07 45.858 1774.13 45.3371 1774.19 44.7273L1774.48 41.2727H1780.03V48.75H1781.37V52.5H1780.03V50H1773.57V52.5H1772.23ZM1774.48 48.75H1778.69V42.5227H1775.73L1775.51 44.7273C1775.41 45.6402 1775.29 46.4375 1775.15 47.1193C1775.01 47.8011 1774.79 48.3447 1774.48 48.75ZM1787.92 48.1818L1790.97 41.2727H1792.24L1788.47 50H1787.38L1783.67 41.2727H1784.92L1787.92 48.1818ZM1784.49 41.2727V50H1783.15V41.2727H1784.49ZM1791.35 50V41.2727H1792.69V50H1791.35ZM1796.49 48.0227L1800.69 41.2727H1802.24V50H1800.9V43.25L1796.72 50H1795.15V41.2727H1796.49V48.0227ZM1810.54 45.0227V46.2727H1805.72V45.0227H1810.54ZM1806.04 41.2727V50H1804.7V41.2727H1806.04ZM1811.56 41.2727V50H1810.22V41.2727H1811.56ZM1815.35 48.0227L1819.55 41.2727H1821.1V50H1819.76V43.25L1815.58 50H1814.01V41.2727H1815.35V48.0227ZM1827.1 50.1818C1826.28 50.1818 1825.58 49.9886 1824.99 49.6023C1824.4 49.2159 1823.94 48.6837 1823.62 48.0057C1823.31 47.3277 1823.15 46.553 1823.15 45.6818C1823.15 44.7955 1823.31 44.0133 1823.63 43.3352C1823.96 42.6534 1824.42 42.1212 1825.01 41.7386C1825.6 41.3523 1826.29 41.1591 1827.08 41.1591C1827.69 41.1591 1828.24 41.2727 1828.74 41.5C1829.23 41.7273 1829.63 42.0455 1829.95 42.4545C1830.26 42.8636 1830.46 43.3409 1830.53 43.8864H1829.19C1829.09 43.4886 1828.86 43.1364 1828.51 42.8295C1828.16 42.5189 1827.69 42.3636 1827.1 42.3636C1826.58 42.3636 1826.12 42.5 1825.73 42.7727C1825.34 43.0417 1825.03 43.4223 1824.81 43.9148C1824.6 44.4034 1824.49 44.9773 1824.49 45.6364C1824.49 46.3106 1824.59 46.8977 1824.81 47.3977C1825.02 47.8977 1825.32 48.286 1825.71 48.5625C1826.11 48.839 1826.57 48.9773 1827.1 48.9773C1827.45 48.9773 1827.77 48.9167 1828.05 48.7955C1828.33 48.6742 1828.57 48.5 1828.77 48.2727C1828.97 48.0455 1829.11 47.7727 1829.19 47.4545H1830.53C1830.46 47.9697 1830.27 48.4337 1829.97 48.8466C1829.67 49.2557 1829.28 49.5814 1828.79 49.8239C1828.31 50.0625 1827.74 50.1818 1827.1 50.1818ZM1831.81 42.5227V41.2727H1838.9V42.5227H1836.03V50H1834.69V42.5227H1831.81ZM1840.85 53.2727V41.2727H1842.15V42.6591H1842.31C1842.41 42.5076 1842.54 42.3144 1842.72 42.0795C1842.89 41.8409 1843.15 41.6288 1843.48 41.4432C1843.81 41.2538 1844.26 41.1591 1844.83 41.1591C1845.56 41.1591 1846.21 41.3428 1846.77 41.7102C1847.33 42.0777 1847.77 42.5985 1848.09 43.2727C1848.4 43.947 1848.56 44.7424 1848.56 45.6591C1848.56 46.5833 1848.4 47.3845 1848.09 48.0625C1847.77 48.7367 1847.34 49.2595 1846.78 49.6307C1846.22 49.9981 1845.58 50.1818 1844.85 50.1818C1844.29 50.1818 1843.84 50.089 1843.51 49.9034C1843.17 49.714 1842.91 49.5 1842.73 49.2614C1842.55 49.0189 1842.41 48.8182 1842.31 48.6591H1842.19V53.2727H1840.85ZM1842.17 45.6364C1842.17 46.2955 1842.27 46.8769 1842.46 47.3807C1842.65 47.8807 1842.94 48.2727 1843.31 48.5568C1843.68 48.8371 1844.13 48.9773 1844.67 48.9773C1845.23 48.9773 1845.7 48.8295 1846.07 48.5341C1846.45 48.2348 1846.74 47.8333 1846.93 47.3295C1847.12 46.822 1847.22 46.2576 1847.22 45.6364C1847.22 45.0227 1847.12 44.4697 1846.93 43.9773C1846.75 43.4811 1846.46 43.089 1846.09 42.8011C1845.71 42.5095 1845.24 42.3636 1844.67 42.3636C1844.13 42.3636 1843.67 42.5019 1843.3 42.7784C1842.92 43.0511 1842.64 43.4337 1842.45 43.9261C1842.27 44.4148 1842.17 44.9848 1842.17 45.6364ZM1853.17 50.2045C1852.62 50.2045 1852.12 50.1004 1851.66 49.892C1851.21 49.6799 1850.86 49.375 1850.59 48.9773C1850.33 48.5758 1850.19 48.0909 1850.19 47.5227C1850.19 47.0227 1850.29 46.6174 1850.49 46.3068C1850.69 45.9924 1850.95 45.7462 1851.28 45.5682C1851.61 45.3902 1851.97 45.2576 1852.37 45.1705C1852.77 45.0795 1853.17 45.0076 1853.58 44.9545C1854.11 44.8864 1854.54 44.8352 1854.87 44.8011C1855.2 44.7633 1855.45 44.7008 1855.6 44.6136C1855.75 44.5265 1855.83 44.375 1855.83 44.1591V44.1136C1855.83 43.553 1855.68 43.1174 1855.37 42.8068C1855.07 42.4962 1854.61 42.3409 1853.99 42.3409C1853.35 42.3409 1852.85 42.4811 1852.48 42.7614C1852.12 43.0417 1851.86 43.3409 1851.72 43.6591L1850.44 43.2045C1850.67 42.6742 1850.97 42.2614 1851.35 41.9659C1851.73 41.6667 1852.15 41.4583 1852.6 41.3409C1853.06 41.2197 1853.5 41.1591 1853.94 41.1591C1854.22 41.1591 1854.55 41.1932 1854.91 41.2614C1855.28 41.3258 1855.63 41.4602 1855.97 41.6648C1856.32 41.8693 1856.6 42.178 1856.83 42.5909C1857.06 43.0038 1857.17 43.5568 1857.17 44.25V50H1855.83V48.8182H1855.76C1855.67 49.0076 1855.52 49.2102 1855.31 49.4261C1855.09 49.642 1854.81 49.8258 1854.46 49.9773C1854.11 50.1288 1853.68 50.2045 1853.17 50.2045ZM1853.38 49C1853.91 49 1854.35 48.8958 1854.72 48.6875C1855.08 48.4792 1855.36 48.2102 1855.55 47.8807C1855.73 47.5511 1855.83 47.2045 1855.83 46.8409V45.6136C1855.77 45.6818 1855.65 45.7443 1855.45 45.8011C1855.27 45.8542 1855.05 45.9015 1854.8 45.9432C1854.55 45.9811 1854.31 46.0152 1854.07 46.0455C1853.84 46.072 1853.66 46.0947 1853.51 46.1136C1853.16 46.1591 1852.84 46.233 1852.53 46.3352C1852.23 46.4337 1851.99 46.5833 1851.81 46.7841C1851.63 46.9811 1851.53 47.25 1851.53 47.5909C1851.53 48.0568 1851.71 48.4091 1852.05 48.6477C1852.4 48.8826 1852.84 49 1853.38 49ZM1858.43 42.5227V41.2727H1865.52V42.5227H1862.66V50H1861.32V42.5227H1858.43ZM1870.57 50.1818C1869.78 50.1818 1869.09 49.9943 1868.5 49.6193C1867.9 49.2443 1867.44 48.7197 1867.11 48.0455C1866.78 47.3712 1866.62 46.5833 1866.62 45.6818C1866.62 44.7727 1866.78 43.9792 1867.11 43.3011C1867.44 42.6231 1867.9 42.0966 1868.5 41.7216C1869.09 41.3466 1869.78 41.1591 1870.57 41.1591C1871.36 41.1591 1872.05 41.3466 1872.64 41.7216C1873.23 42.0966 1873.69 42.6231 1874.02 43.3011C1874.36 43.9792 1874.52 44.7727 1874.52 45.6818C1874.52 46.5833 1874.36 47.3712 1874.02 48.0455C1873.69 48.7197 1873.23 49.2443 1872.64 49.6193C1872.05 49.9943 1871.36 50.1818 1870.57 50.1818ZM1870.57 48.9773C1871.17 48.9773 1871.66 48.8239 1872.05 48.517C1872.43 48.2102 1872.72 47.8068 1872.9 47.3068C1873.09 46.8068 1873.18 46.2652 1873.18 45.6818C1873.18 45.0985 1873.09 44.5549 1872.9 44.0511C1872.72 43.5473 1872.43 43.1402 1872.05 42.8295C1871.66 42.5189 1871.17 42.3636 1870.57 42.3636C1869.97 42.3636 1869.48 42.5189 1869.09 42.8295C1868.71 43.1402 1868.42 43.5473 1868.23 44.0511C1868.05 44.5549 1867.96 45.0985 1867.96 45.6818C1867.96 46.2652 1868.05 46.8068 1868.23 47.3068C1868.42 47.8068 1868.71 48.2102 1869.09 48.517C1869.48 48.8239 1869.97 48.9773 1870.57 48.9773ZM1876.57 53.2727V41.2727H1877.87V42.6591H1878.03C1878.12 42.5076 1878.26 42.3144 1878.43 42.0795C1878.61 41.8409 1878.87 41.6288 1879.2 41.4432C1879.53 41.2538 1879.98 41.1591 1880.55 41.1591C1881.28 41.1591 1881.93 41.3428 1882.49 41.7102C1883.05 42.0777 1883.49 42.5985 1883.8 43.2727C1884.12 43.947 1884.28 44.7424 1884.28 45.6591C1884.28 46.5833 1884.12 47.3845 1883.8 48.0625C1883.49 48.7367 1883.05 49.2595 1882.5 49.6307C1881.94 49.9981 1881.3 50.1818 1880.57 50.1818C1880.01 50.1818 1879.56 50.089 1879.22 49.9034C1878.89 49.714 1878.63 49.5 1878.45 49.2614C1878.26 49.0189 1878.12 48.8182 1878.03 48.6591H1877.91V53.2727H1876.57ZM1877.89 45.6364C1877.89 46.2955 1877.99 46.8769 1878.18 47.3807C1878.37 47.8807 1878.65 48.2727 1879.03 48.5568C1879.4 48.8371 1879.85 48.9773 1880.39 48.9773C1880.95 48.9773 1881.42 48.8295 1881.79 48.5341C1882.17 48.2348 1882.46 47.8333 1882.64 47.3295C1882.84 46.822 1882.93 46.2576 1882.93 45.6364C1882.93 45.0227 1882.84 44.4697 1882.65 43.9773C1882.46 43.4811 1882.18 43.089 1881.8 42.8011C1881.43 42.5095 1880.96 42.3636 1880.39 42.3636C1879.84 42.3636 1879.39 42.5019 1879.01 42.7784C1878.64 43.0511 1878.36 43.4337 1878.17 43.9261C1877.98 44.4148 1877.89 44.9848 1877.89 45.6364Z" fill="#F5F5F5"/>
</svg>
