<svg width="1920" height="1080" viewBox="0 0 1920 1080" fill="none" xmlns="http://www.w3.org/2000/svg">
<rect width="1920" height="1080" fill="white"/>
<path d="M938.137 611.654H935.857V610.734H938.137C938.578 610.734 938.936 610.664 939.209 610.523C939.482 610.383 939.682 610.188 939.807 609.938C939.936 609.688 940 609.402 940 609.082C940 608.789 939.936 608.514 939.807 608.256C939.682 607.998 939.482 607.791 939.209 607.635C938.936 607.475 938.578 607.395 938.137 607.395H936.121V615H934.99V606.469H938.137C938.781 606.469 939.326 606.58 939.771 606.803C940.217 607.025 940.555 607.334 940.785 607.729C941.016 608.119 941.131 608.566 941.131 609.07C941.131 609.617 941.016 610.084 940.785 610.471C940.555 610.857 940.217 611.152 939.771 611.355C939.326 611.555 938.781 611.654 938.137 611.654ZM946.464 613.916V610.652C946.464 610.402 946.414 610.186 946.312 610.002C946.214 609.814 946.066 609.67 945.867 609.568C945.668 609.467 945.421 609.416 945.129 609.416C944.855 609.416 944.615 609.463 944.408 609.557C944.205 609.65 944.045 609.773 943.927 609.926C943.814 610.078 943.757 610.242 943.757 610.418H942.673C942.673 610.191 942.732 609.967 942.849 609.744C942.966 609.521 943.134 609.32 943.353 609.141C943.576 608.957 943.841 608.812 944.15 608.707C944.463 608.598 944.81 608.543 945.193 608.543C945.654 608.543 946.06 608.621 946.412 608.777C946.767 608.934 947.045 609.17 947.244 609.486C947.447 609.799 947.548 610.191 947.548 610.664V613.617C947.548 613.828 947.566 614.053 947.601 614.291C947.64 614.529 947.697 614.734 947.771 614.906V615H946.64C946.586 614.875 946.543 614.709 946.511 614.502C946.48 614.291 946.464 614.096 946.464 613.916ZM946.652 611.156L946.664 611.918H945.568C945.259 611.918 944.984 611.943 944.742 611.994C944.5 612.041 944.296 612.113 944.132 612.211C943.968 612.309 943.843 612.432 943.757 612.58C943.671 612.725 943.629 612.895 943.629 613.09C943.629 613.289 943.673 613.471 943.763 613.635C943.853 613.799 943.988 613.93 944.168 614.027C944.351 614.121 944.576 614.168 944.841 614.168C945.173 614.168 945.466 614.098 945.72 613.957C945.974 613.816 946.175 613.645 946.324 613.441C946.476 613.238 946.558 613.041 946.57 612.85L947.033 613.371C947.005 613.535 946.931 613.717 946.81 613.916C946.689 614.115 946.527 614.307 946.324 614.49C946.125 614.67 945.886 614.82 945.609 614.941C945.336 615.059 945.027 615.117 944.683 615.117C944.254 615.117 943.877 615.033 943.552 614.865C943.232 614.697 942.982 614.473 942.802 614.191C942.627 613.906 942.539 613.588 942.539 613.236C942.539 612.896 942.605 612.598 942.738 612.34C942.871 612.078 943.062 611.861 943.312 611.689C943.562 611.514 943.863 611.381 944.214 611.291C944.566 611.201 944.959 611.156 945.392 611.156H946.652ZM953.345 613.318C953.345 613.162 953.31 613.018 953.239 612.885C953.173 612.748 953.034 612.625 952.823 612.516C952.616 612.402 952.304 612.305 951.886 612.223C951.534 612.148 951.216 612.061 950.931 611.959C950.65 611.857 950.409 611.734 950.21 611.59C950.015 611.445 949.864 611.275 949.759 611.08C949.654 610.885 949.601 610.656 949.601 610.395C949.601 610.145 949.655 609.908 949.765 609.686C949.878 609.463 950.036 609.266 950.239 609.094C950.446 608.922 950.695 608.787 950.984 608.689C951.273 608.592 951.595 608.543 951.95 608.543C952.458 608.543 952.892 608.633 953.251 608.812C953.611 608.992 953.886 609.232 954.077 609.533C954.269 609.83 954.364 610.16 954.364 610.523H953.28C953.28 610.348 953.228 610.178 953.122 610.014C953.021 609.846 952.87 609.707 952.671 609.598C952.476 609.488 952.236 609.434 951.95 609.434C951.65 609.434 951.405 609.48 951.218 609.574C951.034 609.664 950.9 609.779 950.814 609.92C950.732 610.061 950.691 610.209 950.691 610.365C950.691 610.482 950.71 610.588 950.749 610.682C950.792 610.771 950.866 610.855 950.972 610.934C951.077 611.008 951.226 611.078 951.417 611.145C951.609 611.211 951.853 611.277 952.15 611.344C952.669 611.461 953.097 611.602 953.433 611.766C953.769 611.93 954.019 612.131 954.183 612.369C954.347 612.607 954.429 612.896 954.429 613.236C954.429 613.514 954.37 613.768 954.253 613.998C954.14 614.229 953.974 614.428 953.755 614.596C953.54 614.76 953.282 614.889 952.982 614.982C952.685 615.072 952.351 615.117 951.98 615.117C951.421 615.117 950.948 615.018 950.562 614.818C950.175 614.619 949.882 614.361 949.683 614.045C949.484 613.729 949.384 613.395 949.384 613.043H950.474C950.489 613.34 950.575 613.576 950.732 613.752C950.888 613.924 951.079 614.047 951.306 614.121C951.532 614.191 951.757 614.227 951.98 614.227C952.277 614.227 952.525 614.188 952.724 614.109C952.927 614.031 953.081 613.924 953.187 613.787C953.292 613.65 953.345 613.494 953.345 613.318ZM959.944 613.318C959.944 613.162 959.909 613.018 959.839 612.885C959.772 612.748 959.634 612.625 959.423 612.516C959.216 612.402 958.903 612.305 958.485 612.223C958.134 612.148 957.815 612.061 957.53 611.959C957.249 611.857 957.009 611.734 956.809 611.59C956.614 611.445 956.464 611.275 956.358 611.08C956.253 610.885 956.2 610.656 956.2 610.395C956.2 610.145 956.255 609.908 956.364 609.686C956.477 609.463 956.636 609.266 956.839 609.094C957.046 608.922 957.294 608.787 957.583 608.689C957.872 608.592 958.194 608.543 958.55 608.543C959.057 608.543 959.491 608.633 959.85 608.812C960.21 608.992 960.485 609.232 960.677 609.533C960.868 609.83 960.964 610.16 960.964 610.523H959.88C959.88 610.348 959.827 610.178 959.721 610.014C959.62 609.846 959.47 609.707 959.27 609.598C959.075 609.488 958.835 609.434 958.55 609.434C958.249 609.434 958.005 609.48 957.817 609.574C957.634 609.664 957.499 609.779 957.413 609.92C957.331 610.061 957.29 610.209 957.29 610.365C957.29 610.482 957.309 610.588 957.348 610.682C957.391 610.771 957.466 610.855 957.571 610.934C957.677 611.008 957.825 611.078 958.016 611.145C958.208 611.211 958.452 611.277 958.749 611.344C959.268 611.461 959.696 611.602 960.032 611.766C960.368 611.93 960.618 612.131 960.782 612.369C960.946 612.607 961.028 612.896 961.028 613.236C961.028 613.514 960.97 613.768 960.852 613.998C960.739 614.229 960.573 614.428 960.354 614.596C960.139 614.76 959.882 614.889 959.581 614.982C959.284 615.072 958.95 615.117 958.579 615.117C958.02 615.117 957.548 615.018 957.161 614.818C956.774 614.619 956.481 614.361 956.282 614.045C956.083 613.729 955.983 613.395 955.983 613.043H957.073C957.089 613.34 957.175 613.576 957.331 613.752C957.487 613.924 957.679 614.047 957.905 614.121C958.132 614.191 958.356 614.227 958.579 614.227C958.876 614.227 959.124 614.188 959.323 614.109C959.526 614.031 959.68 613.924 959.786 613.787C959.891 613.65 959.944 613.494 959.944 613.318ZM964.457 613.875L966.086 608.66H966.801L966.661 609.697L965.002 615H964.305L964.457 613.875ZM963.362 608.66L964.75 613.934L964.85 615H964.118L962.278 608.66H963.362ZM968.36 613.893L969.684 608.66H970.762L968.922 615H968.196L968.36 613.893ZM966.959 608.66L968.553 613.787L968.735 615H968.043L966.338 609.686L966.198 608.66H966.959ZM971.988 611.9V611.766C971.988 611.309 972.055 610.885 972.188 610.494C972.32 610.1 972.512 609.758 972.762 609.469C973.012 609.176 973.314 608.949 973.67 608.789C974.025 608.625 974.424 608.543 974.865 608.543C975.311 608.543 975.711 608.625 976.066 608.789C976.426 608.949 976.73 609.176 976.98 609.469C977.234 609.758 977.428 610.1 977.561 610.494C977.693 610.885 977.76 611.309 977.76 611.766V611.9C977.76 612.357 977.693 612.781 977.561 613.172C977.428 613.562 977.234 613.904 976.98 614.197C976.73 614.486 976.428 614.713 976.072 614.877C975.721 615.037 975.322 615.117 974.877 615.117C974.432 615.117 974.031 615.037 973.676 614.877C973.32 614.713 973.016 614.486 972.762 614.197C972.512 613.904 972.32 613.562 972.188 613.172C972.055 612.781 971.988 612.357 971.988 611.9ZM973.072 611.766V611.9C973.072 612.217 973.109 612.516 973.184 612.797C973.258 613.074 973.369 613.32 973.518 613.535C973.67 613.75 973.859 613.92 974.086 614.045C974.312 614.166 974.576 614.227 974.877 614.227C975.174 614.227 975.434 614.166 975.656 614.045C975.883 613.92 976.07 613.75 976.219 613.535C976.367 613.32 976.479 613.074 976.553 612.797C976.631 612.516 976.67 612.217 976.67 611.9V611.766C976.67 611.453 976.631 611.158 976.553 610.881C976.479 610.6 976.365 610.352 976.213 610.137C976.064 609.918 975.877 609.746 975.65 609.621C975.428 609.496 975.166 609.434 974.865 609.434C974.568 609.434 974.307 609.496 974.08 609.621C973.857 609.746 973.67 609.918 973.518 610.137C973.369 610.352 973.258 610.6 973.184 610.881C973.109 611.158 973.072 611.453 973.072 611.766ZM980.603 609.656V615H979.519V608.66H980.574L980.603 609.656ZM982.584 608.625L982.578 609.633C982.488 609.613 982.402 609.602 982.32 609.598C982.242 609.59 982.152 609.586 982.05 609.586C981.8 609.586 981.58 609.625 981.388 609.703C981.197 609.781 981.035 609.891 980.902 610.031C980.769 610.172 980.664 610.34 980.586 610.535C980.511 610.727 980.463 610.938 980.439 611.168L980.134 611.344C980.134 610.961 980.171 610.602 980.246 610.266C980.324 609.93 980.443 609.633 980.603 609.375C980.763 609.113 980.966 608.91 981.213 608.766C981.463 608.617 981.759 608.543 982.103 608.543C982.181 608.543 982.271 608.553 982.373 608.572C982.474 608.588 982.545 608.605 982.584 608.625ZM987.864 613.77V606H988.954V615H987.958L987.864 613.77ZM983.599 611.9V611.777C983.599 611.293 983.657 610.854 983.775 610.459C983.896 610.061 984.066 609.719 984.284 609.434C984.507 609.148 984.771 608.93 985.075 608.777C985.384 608.621 985.728 608.543 986.107 608.543C986.505 608.543 986.853 608.613 987.15 608.754C987.45 608.891 987.704 609.092 987.911 609.357C988.122 609.619 988.288 609.936 988.409 610.307C988.53 610.678 988.614 611.098 988.661 611.566V612.105C988.618 612.57 988.534 612.988 988.409 613.359C988.288 613.73 988.122 614.047 987.911 614.309C987.704 614.57 987.45 614.771 987.15 614.912C986.849 615.049 986.497 615.117 986.095 615.117C985.724 615.117 985.384 615.037 985.075 614.877C984.771 614.717 984.507 614.492 984.284 614.203C984.066 613.914 983.896 613.574 983.775 613.184C983.657 612.789 983.599 612.361 983.599 611.9ZM984.689 611.777V611.9C984.689 612.217 984.72 612.514 984.782 612.791C984.849 613.068 984.95 613.312 985.087 613.523C985.224 613.734 985.398 613.9 985.609 614.021C985.82 614.139 986.071 614.197 986.364 614.197C986.724 614.197 987.019 614.121 987.249 613.969C987.484 613.816 987.671 613.615 987.812 613.365C987.952 613.115 988.062 612.844 988.14 612.551V611.139C988.093 610.924 988.025 610.717 987.935 610.518C987.849 610.314 987.736 610.135 987.595 609.979C987.458 609.818 987.288 609.691 987.085 609.598C986.886 609.504 986.65 609.457 986.376 609.457C986.079 609.457 985.823 609.52 985.609 609.645C985.398 609.766 985.224 609.934 985.087 610.148C984.95 610.359 984.849 610.605 984.782 610.887C984.72 611.164 984.689 611.461 984.689 611.777Z" fill="#49454F"/>
<path d="M938.137 688.654H935.857V687.734H938.137C938.578 687.734 938.936 687.664 939.209 687.523C939.482 687.383 939.682 687.188 939.807 686.938C939.936 686.688 940 686.402 940 686.082C940 685.789 939.936 685.514 939.807 685.256C939.682 684.998 939.482 684.791 939.209 684.635C938.936 684.475 938.578 684.395 938.137 684.395H936.121V692H934.99V683.469H938.137C938.781 683.469 939.326 683.58 939.771 683.803C940.217 684.025 940.555 684.334 940.785 684.729C941.016 685.119 941.131 685.566 941.131 686.07C941.131 686.617 941.016 687.084 940.785 687.471C940.555 687.857 940.217 688.152 939.771 688.355C939.326 688.555 938.781 688.654 938.137 688.654ZM946.464 690.916V687.652C946.464 687.402 946.414 687.186 946.312 687.002C946.214 686.814 946.066 686.67 945.867 686.568C945.668 686.467 945.421 686.416 945.129 686.416C944.855 686.416 944.615 686.463 944.408 686.557C944.205 686.65 944.045 686.773 943.927 686.926C943.814 687.078 943.757 687.242 943.757 687.418H942.673C942.673 687.191 942.732 686.967 942.849 686.744C942.966 686.521 943.134 686.32 943.353 686.141C943.576 685.957 943.841 685.812 944.15 685.707C944.463 685.598 944.81 685.543 945.193 685.543C945.654 685.543 946.06 685.621 946.412 685.777C946.767 685.934 947.045 686.17 947.244 686.486C947.447 686.799 947.548 687.191 947.548 687.664V690.617C947.548 690.828 947.566 691.053 947.601 691.291C947.64 691.529 947.697 691.734 947.771 691.906V692H946.64C946.586 691.875 946.543 691.709 946.511 691.502C946.48 691.291 946.464 691.096 946.464 690.916ZM946.652 688.156L946.664 688.918H945.568C945.259 688.918 944.984 688.943 944.742 688.994C944.5 689.041 944.296 689.113 944.132 689.211C943.968 689.309 943.843 689.432 943.757 689.58C943.671 689.725 943.629 689.895 943.629 690.09C943.629 690.289 943.673 690.471 943.763 690.635C943.853 690.799 943.988 690.93 944.168 691.027C944.351 691.121 944.576 691.168 944.841 691.168C945.173 691.168 945.466 691.098 945.72 690.957C945.974 690.816 946.175 690.645 946.324 690.441C946.476 690.238 946.558 690.041 946.57 689.85L947.033 690.371C947.005 690.535 946.931 690.717 946.81 690.916C946.689 691.115 946.527 691.307 946.324 691.49C946.125 691.67 945.886 691.82 945.609 691.941C945.336 692.059 945.027 692.117 944.683 692.117C944.254 692.117 943.877 692.033 943.552 691.865C943.232 691.697 942.982 691.473 942.802 691.191C942.627 690.906 942.539 690.588 942.539 690.236C942.539 689.896 942.605 689.598 942.738 689.34C942.871 689.078 943.062 688.861 943.312 688.689C943.562 688.514 943.863 688.381 944.214 688.291C944.566 688.201 944.959 688.156 945.392 688.156H946.652ZM953.345 690.318C953.345 690.162 953.31 690.018 953.239 689.885C953.173 689.748 953.034 689.625 952.823 689.516C952.616 689.402 952.304 689.305 951.886 689.223C951.534 689.148 951.216 689.061 950.931 688.959C950.65 688.857 950.409 688.734 950.21 688.59C950.015 688.445 949.864 688.275 949.759 688.08C949.654 687.885 949.601 687.656 949.601 687.395C949.601 687.145 949.655 686.908 949.765 686.686C949.878 686.463 950.036 686.266 950.239 686.094C950.446 685.922 950.695 685.787 950.984 685.689C951.273 685.592 951.595 685.543 951.95 685.543C952.458 685.543 952.892 685.633 953.251 685.812C953.611 685.992 953.886 686.232 954.077 686.533C954.269 686.83 954.364 687.16 954.364 687.523H953.28C953.28 687.348 953.228 687.178 953.122 687.014C953.021 686.846 952.87 686.707 952.671 686.598C952.476 686.488 952.236 686.434 951.95 686.434C951.65 686.434 951.405 686.48 951.218 686.574C951.034 686.664 950.9 686.779 950.814 686.92C950.732 687.061 950.691 687.209 950.691 687.365C950.691 687.482 950.71 687.588 950.749 687.682C950.792 687.771 950.866 687.855 950.972 687.934C951.077 688.008 951.226 688.078 951.417 688.145C951.609 688.211 951.853 688.277 952.15 688.344C952.669 688.461 953.097 688.602 953.433 688.766C953.769 688.93 954.019 689.131 954.183 689.369C954.347 689.607 954.429 689.896 954.429 690.236C954.429 690.514 954.37 690.768 954.253 690.998C954.14 691.229 953.974 691.428 953.755 691.596C953.54 691.76 953.282 691.889 952.982 691.982C952.685 692.072 952.351 692.117 951.98 692.117C951.421 692.117 950.948 692.018 950.562 691.818C950.175 691.619 949.882 691.361 949.683 691.045C949.484 690.729 949.384 690.395 949.384 690.043H950.474C950.489 690.34 950.575 690.576 950.732 690.752C950.888 690.924 951.079 691.047 951.306 691.121C951.532 691.191 951.757 691.227 951.98 691.227C952.277 691.227 952.525 691.188 952.724 691.109C952.927 691.031 953.081 690.924 953.187 690.787C953.292 690.65 953.345 690.494 953.345 690.318ZM959.944 690.318C959.944 690.162 959.909 690.018 959.839 689.885C959.772 689.748 959.634 689.625 959.423 689.516C959.216 689.402 958.903 689.305 958.485 689.223C958.134 689.148 957.815 689.061 957.53 688.959C957.249 688.857 957.009 688.734 956.809 688.59C956.614 688.445 956.464 688.275 956.358 688.08C956.253 687.885 956.2 687.656 956.2 687.395C956.2 687.145 956.255 686.908 956.364 686.686C956.477 686.463 956.636 686.266 956.839 686.094C957.046 685.922 957.294 685.787 957.583 685.689C957.872 685.592 958.194 685.543 958.55 685.543C959.057 685.543 959.491 685.633 959.85 685.812C960.21 685.992 960.485 686.232 960.677 686.533C960.868 686.83 960.964 687.16 960.964 687.523H959.88C959.88 687.348 959.827 687.178 959.721 687.014C959.62 686.846 959.47 686.707 959.27 686.598C959.075 686.488 958.835 686.434 958.55 686.434C958.249 686.434 958.005 686.48 957.817 686.574C957.634 686.664 957.499 686.779 957.413 686.92C957.331 687.061 957.29 687.209 957.29 687.365C957.29 687.482 957.309 687.588 957.348 687.682C957.391 687.771 957.466 687.855 957.571 687.934C957.677 688.008 957.825 688.078 958.016 688.145C958.208 688.211 958.452 688.277 958.749 688.344C959.268 688.461 959.696 688.602 960.032 688.766C960.368 688.93 960.618 689.131 960.782 689.369C960.946 689.607 961.028 689.896 961.028 690.236C961.028 690.514 960.97 690.768 960.852 690.998C960.739 691.229 960.573 691.428 960.354 691.596C960.139 691.76 959.882 691.889 959.581 691.982C959.284 692.072 958.95 692.117 958.579 692.117C958.02 692.117 957.548 692.018 957.161 691.818C956.774 691.619 956.481 691.361 956.282 691.045C956.083 690.729 955.983 690.395 955.983 690.043H957.073C957.089 690.34 957.175 690.576 957.331 690.752C957.487 690.924 957.679 691.047 957.905 691.121C958.132 691.191 958.356 691.227 958.579 691.227C958.876 691.227 959.124 691.188 959.323 691.109C959.526 691.031 959.68 690.924 959.786 690.787C959.891 690.65 959.944 690.494 959.944 690.318ZM964.457 690.875L966.086 685.66H966.801L966.661 686.697L965.002 692H964.305L964.457 690.875ZM963.362 685.66L964.75 690.934L964.85 692H964.118L962.278 685.66H963.362ZM968.36 690.893L969.684 685.66H970.762L968.922 692H968.196L968.36 690.893ZM966.959 685.66L968.553 690.787L968.735 692H968.043L966.338 686.686L966.198 685.66H966.959ZM971.988 688.9V688.766C971.988 688.309 972.055 687.885 972.188 687.494C972.32 687.1 972.512 686.758 972.762 686.469C973.012 686.176 973.314 685.949 973.67 685.789C974.025 685.625 974.424 685.543 974.865 685.543C975.311 685.543 975.711 685.625 976.066 685.789C976.426 685.949 976.73 686.176 976.98 686.469C977.234 686.758 977.428 687.1 977.561 687.494C977.693 687.885 977.76 688.309 977.76 688.766V688.9C977.76 689.357 977.693 689.781 977.561 690.172C977.428 690.562 977.234 690.904 976.98 691.197C976.73 691.486 976.428 691.713 976.072 691.877C975.721 692.037 975.322 692.117 974.877 692.117C974.432 692.117 974.031 692.037 973.676 691.877C973.32 691.713 973.016 691.486 972.762 691.197C972.512 690.904 972.32 690.562 972.188 690.172C972.055 689.781 971.988 689.357 971.988 688.9ZM973.072 688.766V688.9C973.072 689.217 973.109 689.516 973.184 689.797C973.258 690.074 973.369 690.32 973.518 690.535C973.67 690.75 973.859 690.92 974.086 691.045C974.312 691.166 974.576 691.227 974.877 691.227C975.174 691.227 975.434 691.166 975.656 691.045C975.883 690.92 976.07 690.75 976.219 690.535C976.367 690.32 976.479 690.074 976.553 689.797C976.631 689.516 976.67 689.217 976.67 688.9V688.766C976.67 688.453 976.631 688.158 976.553 687.881C976.479 687.6 976.365 687.352 976.213 687.137C976.064 686.918 975.877 686.746 975.65 686.621C975.428 686.496 975.166 686.434 974.865 686.434C974.568 686.434 974.307 686.496 974.08 686.621C973.857 686.746 973.67 686.918 973.518 687.137C973.369 687.352 973.258 687.6 973.184 687.881C973.109 688.158 973.072 688.453 973.072 688.766ZM980.603 686.656V692H979.519V685.66H980.574L980.603 686.656ZM982.584 685.625L982.578 686.633C982.488 686.613 982.402 686.602 982.32 686.598C982.242 686.59 982.152 686.586 982.05 686.586C981.8 686.586 981.58 686.625 981.388 686.703C981.197 686.781 981.035 686.891 980.902 687.031C980.769 687.172 980.664 687.34 980.586 687.535C980.511 687.727 980.463 687.938 980.439 688.168L980.134 688.344C980.134 687.961 980.171 687.602 980.246 687.266C980.324 686.93 980.443 686.633 980.603 686.375C980.763 686.113 980.966 685.91 981.213 685.766C981.463 685.617 981.759 685.543 982.103 685.543C982.181 685.543 982.271 685.553 982.373 685.572C982.474 685.588 982.545 685.605 982.584 685.625ZM987.864 690.77V683H988.954V692H987.958L987.864 690.77ZM983.599 688.9V688.777C983.599 688.293 983.657 687.854 983.775 687.459C983.896 687.061 984.066 686.719 984.284 686.434C984.507 686.148 984.771 685.93 985.075 685.777C985.384 685.621 985.728 685.543 986.107 685.543C986.505 685.543 986.853 685.613 987.15 685.754C987.45 685.891 987.704 686.092 987.911 686.357C988.122 686.619 988.288 686.936 988.409 687.307C988.53 687.678 988.614 688.098 988.661 688.566V689.105C988.618 689.57 988.534 689.988 988.409 690.359C988.288 690.73 988.122 691.047 987.911 691.309C987.704 691.57 987.45 691.771 987.15 691.912C986.849 692.049 986.497 692.117 986.095 692.117C985.724 692.117 985.384 692.037 985.075 691.877C984.771 691.717 984.507 691.492 984.284 691.203C984.066 690.914 983.896 690.574 983.775 690.184C983.657 689.789 983.599 689.361 983.599 688.9ZM984.689 688.777V688.9C984.689 689.217 984.72 689.514 984.782 689.791C984.849 690.068 984.95 690.312 985.087 690.523C985.224 690.734 985.398 690.9 985.609 691.021C985.82 691.139 986.071 691.197 986.364 691.197C986.724 691.197 987.019 691.121 987.249 690.969C987.484 690.816 987.671 690.615 987.812 690.365C987.952 690.115 988.062 689.844 988.14 689.551V688.139C988.093 687.924 988.025 687.717 987.935 687.518C987.849 687.314 987.736 687.135 987.595 686.979C987.458 686.818 987.288 686.691 987.085 686.598C986.886 686.504 986.65 686.457 986.376 686.457C986.079 686.457 985.823 686.52 985.609 686.645C985.398 686.766 985.224 686.934 985.087 687.148C984.95 687.359 984.849 687.605 984.782 687.887C984.72 688.164 984.689 688.461 984.689 688.777Z" fill="#49454F"/>
<path d="M1176.64 284V237.455H1192.36C1196.02 237.455 1199 238.114 1201.32 239.432C1203.65 240.735 1205.38 242.5 1206.5 244.727C1207.62 246.955 1208.18 249.439 1208.18 252.182C1208.18 254.924 1207.62 257.417 1206.5 259.659C1205.39 261.902 1203.68 263.689 1201.36 265.023C1199.05 266.341 1196.08 267 1192.45 267H1181.18V262H1192.27C1194.77 262 1196.78 261.568 1198.3 260.705C1199.81 259.841 1200.91 258.674 1201.59 257.205C1202.29 255.72 1202.64 254.045 1202.64 252.182C1202.64 250.318 1202.29 248.652 1201.59 247.182C1200.91 245.712 1199.8 244.561 1198.27 243.727C1196.74 242.879 1194.71 242.455 1192.18 242.455H1182.27V284H1176.64ZM1230.8 284.727C1227.43 284.727 1224.53 283.985 1222.09 282.5C1219.67 281 1217.8 278.909 1216.48 276.227C1215.17 273.53 1214.52 270.394 1214.52 266.818C1214.52 263.242 1215.17 260.091 1216.48 257.364C1217.8 254.621 1219.63 252.485 1221.98 250.955C1224.34 249.409 1227.1 248.636 1230.25 248.636C1232.07 248.636 1233.86 248.939 1235.64 249.545C1237.41 250.152 1239.02 251.136 1240.48 252.5C1241.93 253.848 1243.09 255.636 1243.95 257.864C1244.82 260.091 1245.25 262.833 1245.25 266.091V268.364H1218.34V263.727H1239.8C1239.8 261.758 1239.4 260 1238.61 258.455C1237.84 256.909 1236.73 255.689 1235.3 254.795C1233.87 253.902 1232.19 253.455 1230.25 253.455C1228.11 253.455 1226.27 253.985 1224.7 255.045C1223.16 256.091 1221.97 257.455 1221.14 259.136C1220.3 260.818 1219.89 262.621 1219.89 264.545V267.636C1219.89 270.273 1220.34 272.508 1221.25 274.341C1222.17 276.159 1223.45 277.545 1225.09 278.5C1226.73 279.439 1228.63 279.909 1230.8 279.909C1232.2 279.909 1233.48 279.712 1234.61 279.318C1235.77 278.909 1236.76 278.303 1237.59 277.5C1238.42 276.682 1239.07 275.667 1239.52 274.455L1244.7 275.909C1244.16 277.667 1243.24 279.212 1241.95 280.545C1240.67 281.864 1239.08 282.894 1237.18 283.636C1235.29 284.364 1233.16 284.727 1230.8 284.727ZM1274.95 249.091V254.091H1258.77V284H1253.41V249.091H1274.95ZM1295.61 284.727C1292.24 284.727 1289.34 283.985 1286.9 282.5C1284.48 281 1282.61 278.909 1281.29 276.227C1279.99 273.53 1279.34 270.394 1279.34 266.818C1279.34 263.242 1279.99 260.091 1281.29 257.364C1282.61 254.621 1284.44 252.485 1286.79 250.955C1289.15 249.409 1291.91 248.636 1295.06 248.636C1296.88 248.636 1298.68 248.939 1300.45 249.545C1302.22 250.152 1303.84 251.136 1305.29 252.5C1306.74 253.848 1307.9 255.636 1308.77 257.864C1309.63 260.091 1310.06 262.833 1310.06 266.091V268.364H1283.15V263.727H1304.61C1304.61 261.758 1304.21 260 1303.43 258.455C1302.65 256.909 1301.55 255.689 1300.11 254.795C1298.68 253.902 1297 253.455 1295.06 253.455C1292.93 253.455 1291.08 253.985 1289.52 255.045C1287.97 256.091 1286.78 257.455 1285.95 259.136C1285.12 260.818 1284.7 262.621 1284.7 264.545V267.636C1284.7 270.273 1285.15 272.508 1286.06 274.341C1286.99 276.159 1288.27 277.545 1289.9 278.5C1291.54 279.439 1293.44 279.909 1295.61 279.909C1297.02 279.909 1298.29 279.712 1299.43 279.318C1300.58 278.909 1301.57 278.303 1302.4 277.5C1303.24 276.682 1303.88 275.667 1304.34 274.455L1309.52 275.909C1308.97 277.667 1308.05 279.212 1306.77 280.545C1305.48 281.864 1303.89 282.894 1301.99 283.636C1300.1 284.364 1297.97 284.727 1295.61 284.727ZM1332.4 284.727C1329.13 284.727 1326.31 283.955 1323.95 282.409C1321.59 280.864 1319.77 278.735 1318.49 276.023C1317.22 273.311 1316.59 270.212 1316.59 266.727C1316.59 263.182 1317.24 260.053 1318.54 257.341C1319.86 254.614 1321.69 252.485 1324.04 250.955C1326.4 249.409 1329.16 248.636 1332.31 248.636C1334.77 248.636 1336.98 249.091 1338.95 250C1340.92 250.909 1342.53 252.182 1343.79 253.818C1345.05 255.455 1345.83 257.364 1346.13 259.545H1340.77C1340.36 257.955 1339.45 256.545 1338.04 255.318C1336.65 254.076 1334.77 253.455 1332.4 253.455C1330.31 253.455 1328.48 254 1326.9 255.091C1325.34 256.167 1324.12 257.689 1323.24 259.659C1322.38 261.614 1321.95 263.909 1321.95 266.545C1321.95 269.242 1322.37 271.591 1323.22 273.591C1324.09 275.591 1325.3 277.144 1326.86 278.25C1328.43 279.356 1330.28 279.909 1332.4 279.909C1333.8 279.909 1335.06 279.667 1336.2 279.182C1337.34 278.697 1338.3 278 1339.09 277.091C1339.87 276.182 1340.43 275.091 1340.77 273.818H1346.13C1345.83 275.879 1345.08 277.735 1343.88 279.386C1342.7 281.023 1341.13 282.326 1339.18 283.295C1337.24 284.25 1334.98 284.727 1332.4 284.727ZM1351.22 254.091V249.091H1379.59V254.091H1368.13V284H1362.77V254.091H1351.22ZM1387.41 297.091V249.091H1392.59V254.636H1393.23C1393.62 254.03 1394.17 253.258 1394.86 252.318C1395.58 251.364 1396.59 250.515 1397.91 249.773C1399.24 249.015 1401.05 248.636 1403.32 248.636C1406.26 248.636 1408.85 249.371 1411.09 250.841C1413.33 252.311 1415.08 254.394 1416.34 257.091C1417.6 259.788 1418.23 262.97 1418.23 266.636C1418.23 270.333 1417.6 273.538 1416.34 276.25C1415.08 278.947 1413.34 281.038 1411.11 282.523C1408.89 283.992 1406.32 284.727 1403.41 284.727C1401.17 284.727 1399.37 284.356 1398.02 283.614C1396.67 282.856 1395.64 282 1394.91 281.045C1394.18 280.076 1393.62 279.273 1393.23 278.636H1392.77V297.091H1387.41ZM1392.68 266.545C1392.68 269.182 1393.07 271.508 1393.84 273.523C1394.61 275.523 1395.74 277.091 1397.23 278.227C1398.71 279.348 1400.53 279.909 1402.68 279.909C1404.92 279.909 1406.8 279.318 1408.3 278.136C1409.81 276.939 1410.95 275.333 1411.7 273.318C1412.48 271.288 1412.86 269.03 1412.86 266.545C1412.86 264.091 1412.48 261.879 1411.73 259.909C1410.98 257.924 1409.86 256.356 1408.34 255.205C1406.84 254.038 1404.95 253.455 1402.68 253.455C1400.5 253.455 1398.67 254.008 1397.18 255.114C1395.7 256.205 1394.58 257.735 1393.82 259.705C1393.06 261.659 1392.68 263.939 1392.68 266.545ZM1436.68 284.818C1434.47 284.818 1432.46 284.402 1430.66 283.568C1428.86 282.72 1427.42 281.5 1426.36 279.909C1425.3 278.303 1424.77 276.364 1424.77 274.091C1424.77 272.091 1425.17 270.47 1425.95 269.227C1426.74 267.97 1427.8 266.985 1429.11 266.273C1430.43 265.561 1431.89 265.03 1433.48 264.682C1435.08 264.318 1436.7 264.03 1438.32 263.818C1440.44 263.545 1442.16 263.341 1443.48 263.205C1444.81 263.053 1445.78 262.803 1446.39 262.455C1447.01 262.106 1447.32 261.5 1447.32 260.636V260.455C1447.32 258.212 1446.7 256.47 1445.48 255.227C1444.27 253.985 1442.42 253.364 1439.95 253.364C1437.39 253.364 1435.39 253.924 1433.93 255.045C1432.48 256.167 1431.45 257.364 1430.86 258.636L1425.77 256.818C1426.68 254.697 1427.89 253.045 1429.41 251.864C1430.94 250.667 1432.61 249.833 1434.41 249.364C1436.23 248.879 1438.02 248.636 1439.77 248.636C1440.89 248.636 1442.18 248.773 1443.64 249.045C1445.11 249.303 1446.52 249.841 1447.89 250.659C1449.27 251.477 1450.41 252.712 1451.32 254.364C1452.23 256.015 1452.68 258.227 1452.68 261V284H1447.32V279.273H1447.05C1446.68 280.03 1446.08 280.841 1445.23 281.705C1444.38 282.568 1443.25 283.303 1441.84 283.909C1440.43 284.515 1438.71 284.818 1436.68 284.818ZM1437.5 280C1439.62 280 1441.41 279.583 1442.86 278.75C1444.33 277.917 1445.44 276.841 1446.18 275.523C1446.94 274.205 1447.32 272.818 1447.32 271.364V266.455C1447.09 266.727 1446.59 266.977 1445.82 267.205C1445.06 267.417 1444.18 267.606 1443.18 267.773C1442.2 267.924 1441.23 268.061 1440.3 268.182C1439.37 268.288 1438.62 268.379 1438.05 268.455C1436.65 268.636 1435.35 268.932 1434.14 269.341C1432.94 269.735 1431.97 270.333 1431.23 271.136C1430.5 271.924 1430.14 273 1430.14 274.364C1430.14 276.227 1430.83 277.636 1432.2 278.591C1433.6 279.53 1435.36 280 1437.5 280ZM1489.93 249.091V279H1494.84V295.273H1489.47V284H1462.47V249.091H1467.84V279H1484.56V249.091H1489.93ZM1508.46 276.091L1525.28 249.091H1531.46V284H1526.1V257L1509.37 284H1503.1V249.091H1508.46V276.091ZM1562.28 284V254H1553.01C1550.92 254 1549.28 254.485 1548.08 255.455C1546.88 256.424 1546.28 257.758 1546.28 259.455C1546.28 261.121 1546.82 262.432 1547.9 263.386C1548.99 264.341 1550.48 264.818 1552.38 264.818H1563.65V269.818H1552.38C1550.01 269.818 1547.97 269.402 1546.26 268.568C1544.55 267.735 1543.23 266.545 1542.31 265C1541.38 263.439 1540.92 261.591 1540.92 259.455C1540.92 257.303 1541.41 255.455 1542.38 253.909C1543.34 252.364 1544.73 251.174 1546.53 250.341C1548.35 249.508 1550.51 249.091 1553.01 249.091H1567.38V284H1562.28ZM1539.01 284L1548.92 266.636H1554.74L1544.83 284H1539.01Z" fill="black"/>
<path d="M934 628C934 625.791 935.791 624 938 624H1789C1791.21 624 1793 625.791 1793 628V680H934V628Z" fill="#E6E0E9"/>
<path d="M951.008 659.469L952.578 657.312L950.219 656.609L950.586 655.438L952.945 656.305L952.875 653.617H954.062L953.984 656.352L956.312 655.484L956.672 656.68L954.273 657.391L955.812 659.508L954.844 660.234L953.398 657.984L951.984 660.18L951.008 659.469ZM958.398 659.469L959.969 657.312L957.609 656.609L957.977 655.438L960.336 656.305L960.266 653.617H961.453L961.375 656.352L963.703 655.484L964.062 656.68L961.664 657.391L963.203 659.508L962.234 660.234L960.789 657.984L959.375 660.18L958.398 659.469ZM965.789 659.469L967.359 657.312L965 656.609L965.367 655.438L967.727 656.305L967.656 653.617H968.844L968.766 656.352L971.094 655.484L971.453 656.68L969.055 657.391L970.594 659.508L969.625 660.234L968.18 657.984L966.766 660.18L965.789 659.469ZM973.18 659.469L974.75 657.312L972.391 656.609L972.758 655.438L975.117 656.305L975.047 653.617H976.234L976.156 656.352L978.484 655.484L978.844 656.68L976.445 657.391L977.984 659.508L977.016 660.234L975.57 657.984L974.156 660.18L973.18 659.469ZM980.57 659.469L982.141 657.312L979.781 656.609L980.148 655.438L982.508 656.305L982.438 653.617H983.625L983.547 656.352L985.875 655.484L986.234 656.68L983.836 657.391L985.375 659.508L984.406 660.234L982.961 657.984L981.547 660.18L980.57 659.469Z" fill="#1D1B20"/>
<rect x="875" y="414" width="40" height="40" rx="20" fill="#EADDFF"/>
<path fill-rule="evenodd" clip-rule="evenodd" d="M901 430C901 433.314 898.314 436 895 436C891.687 436 889 433.314 889 430C889 426.686 891.687 424 895 424C898.314 424 901 426.686 901 430ZM899 430C899 432.209 897.209 434 895 434C892.791 434 891 432.209 891 430C891 427.791 892.791 426 895 426C897.209 426 899 427.791 899 430Z" fill="#4F378A"/>
<path d="M895 439C888.526 439 883.01 442.828 880.908 448.192C881.42 448.7 881.959 449.181 882.524 449.632C884.088 444.708 888.997 441 895 441C901.004 441 905.912 444.708 907.477 449.632C908.041 449.181 908.58 448.7 909.092 448.192C906.991 442.828 901.475 439 895 439Z" fill="#4F378A"/>
<path d="M904 566L902 568M902 568L905 571L901.5 574.5L898.5 571.5M902 568L898.5 571.5M894.39 575.61C894.906 576.119 895.317 576.726 895.598 577.395C895.879 578.064 896.025 578.781 896.027 579.507C896.029 580.232 895.888 580.951 895.612 581.621C895.335 582.292 894.929 582.901 894.416 583.414C893.903 583.927 893.294 584.333 892.623 584.61C891.953 584.886 891.234 585.027 890.509 585.025C889.783 585.023 889.066 584.877 888.397 584.596C887.728 584.315 887.121 583.904 886.612 583.388C885.61 582.351 885.056 580.961 885.068 579.519C885.081 578.077 885.659 576.698 886.679 575.678C887.699 574.658 889.078 574.08 890.52 574.067C891.962 574.055 893.352 574.609 894.389 575.611L894.39 575.61ZM894.39 575.61L898.5 571.5" stroke="#1E1E1E" stroke-width="2.5" stroke-linecap="round" stroke-linejoin="round"/>
<path d="M906 642L904 644M904 644L907 647L903.5 650.5L900.5 647.5M904 644L900.5 647.5M896.39 651.61C896.906 652.119 897.317 652.726 897.598 653.395C897.879 654.064 898.025 654.781 898.027 655.507C898.029 656.232 897.888 656.951 897.612 657.621C897.335 658.292 896.929 658.901 896.416 659.414C895.903 659.927 895.294 660.333 894.623 660.61C893.953 660.886 893.234 661.027 892.509 661.025C891.783 661.023 891.066 660.877 890.397 660.596C889.728 660.315 889.121 659.904 888.612 659.388C887.61 658.351 887.056 656.961 887.068 655.519C887.081 654.077 887.659 652.698 888.679 651.678C889.699 650.658 891.078 650.08 892.52 650.067C893.962 650.055 895.352 650.609 896.389 651.611L896.39 651.61ZM896.39 651.61L900.5 647.5" stroke="#1E1E1E" stroke-width="2.5" stroke-linecap="round" stroke-linejoin="round"/>
<path d="M930 412C930 409.791 931.791 408 934 408H1785C1787.21 408 1789 409.791 1789 412V467H930V412Z" fill="#E6E0E9"/>
<path d="M953.828 437.625H955.328V445.32C955.328 446.174 955.138 446.885 954.758 447.453C954.378 448.021 953.872 448.448 953.242 448.734C952.617 449.016 951.938 449.156 951.203 449.156C950.432 449.156 949.734 449.016 949.109 448.734C948.49 448.448 947.997 448.021 947.633 447.453C947.273 446.885 947.094 446.174 947.094 445.32V437.625H948.586V445.32C948.586 445.914 948.695 446.404 948.914 446.789C949.133 447.174 949.438 447.461 949.828 447.648C950.224 447.836 950.682 447.93 951.203 447.93C951.729 447.93 952.188 447.836 952.578 447.648C952.974 447.461 953.281 447.174 953.5 446.789C953.719 446.404 953.828 445.914 953.828 445.32V437.625ZM962.898 446.758C962.898 446.549 962.852 446.357 962.758 446.18C962.669 445.997 962.484 445.833 962.203 445.688C961.927 445.536 961.51 445.406 960.953 445.297C960.484 445.198 960.06 445.081 959.68 444.945C959.305 444.81 958.984 444.646 958.719 444.453C958.458 444.26 958.258 444.034 958.117 443.773C957.977 443.513 957.906 443.208 957.906 442.859C957.906 442.526 957.979 442.211 958.125 441.914C958.276 441.617 958.487 441.354 958.758 441.125C959.034 440.896 959.365 440.716 959.75 440.586C960.135 440.456 960.565 440.391 961.039 440.391C961.716 440.391 962.294 440.51 962.773 440.75C963.253 440.99 963.62 441.31 963.875 441.711C964.13 442.107 964.258 442.547 964.258 443.031H962.812C962.812 442.797 962.742 442.57 962.602 442.352C962.466 442.128 962.266 441.943 962 441.797C961.74 441.651 961.419 441.578 961.039 441.578C960.638 441.578 960.312 441.641 960.062 441.766C959.818 441.885 959.638 442.039 959.523 442.227C959.414 442.414 959.359 442.612 959.359 442.82C959.359 442.977 959.385 443.117 959.438 443.242C959.495 443.362 959.594 443.474 959.734 443.578C959.875 443.677 960.073 443.771 960.328 443.859C960.583 443.948 960.909 444.036 961.305 444.125C961.997 444.281 962.568 444.469 963.016 444.688C963.464 444.906 963.797 445.174 964.016 445.492C964.234 445.81 964.344 446.195 964.344 446.648C964.344 447.018 964.266 447.357 964.109 447.664C963.958 447.971 963.737 448.237 963.445 448.461C963.159 448.68 962.815 448.852 962.414 448.977C962.018 449.096 961.573 449.156 961.078 449.156C960.333 449.156 959.703 449.023 959.188 448.758C958.672 448.492 958.281 448.148 958.016 447.727C957.75 447.305 957.617 446.859 957.617 446.391H959.07C959.091 446.786 959.206 447.102 959.414 447.336C959.622 447.565 959.878 447.729 960.18 447.828C960.482 447.922 960.781 447.969 961.078 447.969C961.474 447.969 961.805 447.917 962.07 447.812C962.341 447.708 962.547 447.565 962.688 447.383C962.828 447.201 962.898 446.992 962.898 446.758ZM970.25 449.156C969.661 449.156 969.128 449.057 968.648 448.859C968.174 448.656 967.766 448.372 967.422 448.008C967.083 447.643 966.823 447.211 966.641 446.711C966.458 446.211 966.367 445.664 966.367 445.07V444.742C966.367 444.055 966.469 443.443 966.672 442.906C966.875 442.365 967.151 441.906 967.5 441.531C967.849 441.156 968.245 440.872 968.688 440.68C969.13 440.487 969.589 440.391 970.062 440.391C970.667 440.391 971.188 440.495 971.625 440.703C972.068 440.911 972.43 441.203 972.711 441.578C972.992 441.948 973.201 442.385 973.336 442.891C973.471 443.391 973.539 443.938 973.539 444.531V445.18H967.227V444H972.094V443.891C972.073 443.516 971.995 443.151 971.859 442.797C971.729 442.443 971.521 442.151 971.234 441.922C970.948 441.693 970.557 441.578 970.062 441.578C969.734 441.578 969.432 441.648 969.156 441.789C968.88 441.924 968.643 442.128 968.445 442.398C968.247 442.669 968.094 443 967.984 443.391C967.875 443.781 967.82 444.232 967.82 444.742V445.07C967.82 445.471 967.875 445.849 967.984 446.203C968.099 446.552 968.263 446.859 968.477 447.125C968.695 447.391 968.958 447.599 969.266 447.75C969.578 447.901 969.932 447.977 970.328 447.977C970.839 447.977 971.271 447.872 971.625 447.664C971.979 447.456 972.289 447.177 972.555 446.828L973.43 447.523C973.247 447.799 973.016 448.062 972.734 448.312C972.453 448.562 972.107 448.766 971.695 448.922C971.289 449.078 970.807 449.156 970.25 449.156ZM977.172 441.875V449H975.727V440.547H977.133L977.172 441.875ZM979.812 440.5L979.805 441.844C979.685 441.818 979.57 441.802 979.461 441.797C979.357 441.786 979.237 441.781 979.102 441.781C978.768 441.781 978.474 441.833 978.219 441.938C977.964 442.042 977.747 442.188 977.57 442.375C977.393 442.562 977.253 442.786 977.148 443.047C977.049 443.302 976.984 443.583 976.953 443.891L976.547 444.125C976.547 443.615 976.596 443.135 976.695 442.688C976.799 442.24 976.958 441.844 977.172 441.5C977.385 441.151 977.656 440.88 977.984 440.688C978.318 440.49 978.714 440.391 979.172 440.391C979.276 440.391 979.396 440.404 979.531 440.43C979.667 440.451 979.76 440.474 979.812 440.5Z" fill="#1D1B20"/>
<line x1="930" y1="466.5" x2="1789" y2="466.5" stroke="#49454F"/>
<path d="M952.164 482.08V483H947.898V482.08H952.164ZM948.121 474.469V483H946.99V474.469H948.121ZM953.408 479.9V479.766C953.408 479.309 953.474 478.885 953.607 478.494C953.74 478.1 953.931 477.758 954.181 477.469C954.431 477.176 954.734 476.949 955.089 476.789C955.445 476.625 955.843 476.543 956.285 476.543C956.73 476.543 957.13 476.625 957.486 476.789C957.845 476.949 958.15 477.176 958.4 477.469C958.654 477.758 958.847 478.1 958.98 478.494C959.113 478.885 959.179 479.309 959.179 479.766V479.9C959.179 480.357 959.113 480.781 958.98 481.172C958.847 481.562 958.654 481.904 958.4 482.197C958.15 482.486 957.847 482.713 957.492 482.877C957.14 483.037 956.742 483.117 956.296 483.117C955.851 483.117 955.451 483.037 955.095 482.877C954.74 482.713 954.435 482.486 954.181 482.197C953.931 481.904 953.74 481.562 953.607 481.172C953.474 480.781 953.408 480.357 953.408 479.9ZM954.492 479.766V479.9C954.492 480.217 954.529 480.516 954.603 480.797C954.677 481.074 954.789 481.32 954.937 481.535C955.089 481.75 955.279 481.92 955.505 482.045C955.732 482.166 955.996 482.227 956.296 482.227C956.593 482.227 956.853 482.166 957.076 482.045C957.302 481.92 957.49 481.75 957.638 481.535C957.787 481.32 957.898 481.074 957.972 480.797C958.05 480.516 958.089 480.217 958.089 479.9V479.766C958.089 479.453 958.05 479.158 957.972 478.881C957.898 478.6 957.785 478.352 957.632 478.137C957.484 477.918 957.296 477.746 957.07 477.621C956.847 477.496 956.586 477.434 956.285 477.434C955.988 477.434 955.726 477.496 955.5 477.621C955.277 477.746 955.089 477.918 954.937 478.137C954.789 478.352 954.677 478.6 954.603 478.881C954.529 479.158 954.492 479.453 954.492 479.766ZM965.046 476.66H966.03V482.865C966.03 483.424 965.917 483.9 965.691 484.295C965.464 484.689 965.148 484.988 964.741 485.191C964.339 485.398 963.874 485.502 963.347 485.502C963.128 485.502 962.87 485.467 962.573 485.396C962.28 485.33 961.991 485.215 961.706 485.051C961.425 484.891 961.189 484.674 960.997 484.4L961.566 483.756C961.831 484.076 962.109 484.299 962.398 484.424C962.691 484.549 962.98 484.611 963.265 484.611C963.609 484.611 963.905 484.547 964.155 484.418C964.405 484.289 964.599 484.098 964.736 483.844C964.876 483.594 964.946 483.285 964.946 482.918V478.055L965.046 476.66ZM960.681 479.9V479.777C960.681 479.293 960.738 478.854 960.851 478.459C960.968 478.061 961.134 477.719 961.349 477.434C961.568 477.148 961.831 476.93 962.14 476.777C962.448 476.621 962.796 476.543 963.183 476.543C963.581 476.543 963.929 476.613 964.226 476.754C964.527 476.891 964.78 477.092 964.988 477.357C965.198 477.619 965.364 477.936 965.486 478.307C965.607 478.678 965.691 479.098 965.738 479.566V480.105C965.695 480.57 965.611 480.988 965.486 481.359C965.364 481.73 965.198 482.047 964.988 482.309C964.78 482.57 964.527 482.771 964.226 482.912C963.925 483.049 963.573 483.117 963.171 483.117C962.792 483.117 962.448 483.037 962.14 482.877C961.835 482.717 961.573 482.492 961.355 482.203C961.136 481.914 960.968 481.574 960.851 481.184C960.738 480.789 960.681 480.361 960.681 479.9ZM961.765 479.777V479.9C961.765 480.217 961.796 480.514 961.859 480.791C961.925 481.068 962.025 481.312 962.157 481.523C962.294 481.734 962.468 481.9 962.679 482.021C962.89 482.139 963.142 482.197 963.435 482.197C963.794 482.197 964.091 482.121 964.325 481.969C964.56 481.816 964.745 481.615 964.882 481.365C965.023 481.115 965.132 480.844 965.21 480.551V479.139C965.167 478.924 965.101 478.717 965.011 478.518C964.925 478.314 964.812 478.135 964.671 477.979C964.534 477.818 964.364 477.691 964.161 477.598C963.958 477.504 963.72 477.457 963.446 477.457C963.15 477.457 962.894 477.52 962.679 477.645C962.468 477.766 962.294 477.934 962.157 478.148C962.025 478.359 961.925 478.605 961.859 478.887C961.796 479.164 961.765 479.461 961.765 479.777ZM969.255 476.66V483H968.165V476.66H969.255ZM968.083 474.979C968.083 474.803 968.136 474.654 968.241 474.533C968.35 474.412 968.511 474.352 968.721 474.352C968.929 474.352 969.087 474.412 969.196 474.533C969.309 474.654 969.366 474.803 969.366 474.979C969.366 475.146 969.309 475.291 969.196 475.412C969.087 475.529 968.929 475.588 968.721 475.588C968.511 475.588 968.35 475.529 968.241 475.412C968.136 475.291 968.083 475.146 968.083 474.979ZM972.479 478.014V483H971.395V476.66H972.42L972.479 478.014ZM972.221 479.59L971.77 479.572C971.774 479.139 971.838 478.738 971.963 478.371C972.088 478 972.264 477.678 972.491 477.404C972.717 477.131 972.987 476.92 973.299 476.771C973.616 476.619 973.965 476.543 974.348 476.543C974.661 476.543 974.942 476.586 975.192 476.672C975.442 476.754 975.655 476.887 975.83 477.07C976.01 477.254 976.147 477.492 976.241 477.785C976.334 478.074 976.381 478.428 976.381 478.846V483H975.291V478.834C975.291 478.502 975.243 478.236 975.145 478.037C975.047 477.834 974.905 477.688 974.717 477.598C974.53 477.504 974.299 477.457 974.026 477.457C973.756 477.457 973.51 477.514 973.288 477.627C973.069 477.74 972.879 477.896 972.719 478.096C972.563 478.295 972.44 478.523 972.35 478.781C972.264 479.035 972.221 479.305 972.221 479.59Z" fill="#49454F"/>
<path d="M930 543C930 540.791 931.791 539 934 539H1785C1787.21 539 1789 540.791 1789 543V595H930V543Z" fill="#E6E0E9"/>
<path d="M947.008 574.469L948.578 572.312L946.219 571.609L946.586 570.438L948.945 571.305L948.875 568.617H950.062L949.984 571.352L952.312 570.484L952.672 571.68L950.273 572.391L951.812 574.508L950.844 575.234L949.398 572.984L947.984 575.18L947.008 574.469ZM954.398 574.469L955.969 572.312L953.609 571.609L953.977 570.438L956.336 571.305L956.266 568.617H957.453L957.375 571.352L959.703 570.484L960.062 571.68L957.664 572.391L959.203 574.508L958.234 575.234L956.789 572.984L955.375 575.18L954.398 574.469ZM961.789 574.469L963.359 572.312L961 571.609L961.367 570.438L963.727 571.305L963.656 568.617H964.844L964.766 571.352L967.094 570.484L967.453 571.68L965.055 572.391L966.594 574.508L965.625 575.234L964.18 572.984L962.766 575.18L961.789 574.469ZM969.18 574.469L970.75 572.312L968.391 571.609L968.758 570.438L971.117 571.305L971.047 568.617H972.234L972.156 571.352L974.484 570.484L974.844 571.68L972.445 572.391L973.984 574.508L973.016 575.234L971.57 572.984L970.156 575.18L969.18 574.469ZM976.57 574.469L978.141 572.312L975.781 571.609L976.148 570.438L978.508 571.305L978.438 568.617H979.625L979.547 571.352L981.875 570.484L982.234 571.68L979.836 572.391L981.375 574.508L980.406 575.234L978.961 572.984L977.547 575.18L976.57 574.469Z" fill="#1D1B20"/>
<path d="M938 753.5H1047C1051.14 753.5 1054.5 756.858 1054.5 761V785C1054.5 789.142 1051.14 792.5 1047 792.5H938C933.858 792.5 930.5 789.142 930.5 785V761C930.5 756.858 933.858 753.5 938 753.5Z" fill="#EC221F"/>
<path d="M938 753.5H1047C1051.14 753.5 1054.5 756.858 1054.5 761V785C1054.5 789.142 1051.14 792.5 1047 792.5H938C933.858 792.5 930.5 789.142 930.5 785V761C930.5 756.858 933.858 753.5 938 753.5Z" stroke="#C00F0C" stroke-linecap="round"/>
<path d="M943.409 779V767.364H947.341C948.254 767.364 949 767.528 949.58 767.858C950.163 768.184 950.595 768.625 950.875 769.182C951.155 769.739 951.295 770.36 951.295 771.045C951.295 771.731 951.155 772.354 950.875 772.915C950.598 773.475 950.17 773.922 949.591 774.256C949.011 774.585 948.269 774.75 947.364 774.75H944.545V773.5H947.318C947.943 773.5 948.445 773.392 948.824 773.176C949.203 772.96 949.477 772.669 949.648 772.301C949.822 771.93 949.909 771.511 949.909 771.045C949.909 770.58 949.822 770.163 949.648 769.795C949.477 769.428 949.201 769.14 948.818 768.932C948.436 768.72 947.928 768.614 947.295 768.614H944.818V779H943.409ZM956.949 779.182C956.108 779.182 955.383 778.996 954.773 778.625C954.167 778.25 953.699 777.727 953.369 777.057C953.044 776.383 952.881 775.598 952.881 774.705C952.881 773.811 953.044 773.023 953.369 772.341C953.699 771.655 954.157 771.121 954.744 770.739C955.335 770.352 956.025 770.159 956.812 770.159C957.267 770.159 957.716 770.235 958.159 770.386C958.602 770.538 959.006 770.784 959.369 771.125C959.733 771.462 960.023 771.909 960.239 772.466C960.455 773.023 960.562 773.708 960.562 774.523V775.091H953.835V773.932H959.199C959.199 773.439 959.1 773 958.903 772.614C958.71 772.227 958.434 771.922 958.074 771.699C957.718 771.475 957.297 771.364 956.812 771.364C956.278 771.364 955.816 771.496 955.426 771.761C955.04 772.023 954.742 772.364 954.534 772.784C954.326 773.205 954.222 773.655 954.222 774.136V774.909C954.222 775.568 954.335 776.127 954.562 776.585C954.794 777.04 955.114 777.386 955.523 777.625C955.932 777.86 956.407 777.977 956.949 777.977C957.301 777.977 957.619 777.928 957.903 777.83C958.191 777.727 958.439 777.576 958.648 777.375C958.856 777.17 959.017 776.917 959.131 776.614L960.426 776.977C960.29 777.417 960.061 777.803 959.739 778.136C959.417 778.466 959.019 778.723 958.545 778.909C958.072 779.091 957.54 779.182 956.949 779.182ZM967.989 770.273V771.523H963.943V779H962.602V770.273H967.989ZM973.152 779.182C972.311 779.182 971.586 778.996 970.976 778.625C970.37 778.25 969.902 777.727 969.572 777.057C969.247 776.383 969.084 775.598 969.084 774.705C969.084 773.811 969.247 773.023 969.572 772.341C969.902 771.655 970.36 771.121 970.947 770.739C971.538 770.352 972.228 770.159 973.016 770.159C973.47 770.159 973.919 770.235 974.362 770.386C974.805 770.538 975.209 770.784 975.572 771.125C975.936 771.462 976.226 771.909 976.442 772.466C976.658 773.023 976.766 773.708 976.766 774.523V775.091H970.038V773.932H975.402C975.402 773.439 975.304 773 975.107 772.614C974.913 772.227 974.637 771.922 974.277 771.699C973.921 771.475 973.5 771.364 973.016 771.364C972.482 771.364 972.019 771.496 971.629 771.761C971.243 772.023 970.946 772.364 970.737 772.784C970.529 773.205 970.425 773.655 970.425 774.136V774.909C970.425 775.568 970.538 776.127 970.766 776.585C970.997 777.04 971.317 777.386 971.726 777.625C972.135 777.86 972.61 777.977 973.152 777.977C973.504 777.977 973.822 777.928 974.107 777.83C974.394 777.727 974.643 777.576 974.851 777.375C975.059 777.17 975.22 776.917 975.334 776.614L976.629 776.977C976.493 777.417 976.264 777.803 975.942 778.136C975.62 778.466 975.222 778.723 974.749 778.909C974.275 779.091 973.743 779.182 973.152 779.182ZM982.351 779.182C981.533 779.182 980.828 778.989 980.237 778.602C979.646 778.216 979.192 777.684 978.874 777.006C978.555 776.328 978.396 775.553 978.396 774.682C978.396 773.795 978.559 773.013 978.885 772.335C979.214 771.653 979.673 771.121 980.26 770.739C980.851 770.352 981.54 770.159 982.328 770.159C982.942 770.159 983.495 770.273 983.987 770.5C984.48 770.727 984.883 771.045 985.197 771.455C985.512 771.864 985.707 772.341 985.783 772.886H984.442C984.339 772.489 984.112 772.136 983.76 771.83C983.411 771.519 982.942 771.364 982.351 771.364C981.828 771.364 981.37 771.5 980.976 771.773C980.586 772.042 980.281 772.422 980.061 772.915C979.845 773.403 979.737 773.977 979.737 774.636C979.737 775.311 979.843 775.898 980.055 776.398C980.271 776.898 980.574 777.286 980.964 777.562C981.358 777.839 981.821 777.977 982.351 777.977C982.699 777.977 983.016 777.917 983.3 777.795C983.584 777.674 983.824 777.5 984.021 777.273C984.218 777.045 984.358 776.773 984.442 776.455H985.783C985.707 776.97 985.519 777.434 985.22 777.847C984.925 778.256 984.533 778.581 984.044 778.824C983.559 779.062 982.995 779.182 982.351 779.182ZM987.055 771.523V770.273H994.146V771.523H991.283V779H989.942V771.523H987.055ZM996.102 782.273V770.273H997.398V771.659H997.557C997.655 771.508 997.792 771.314 997.966 771.08C998.144 770.841 998.398 770.629 998.727 770.443C999.061 770.254 999.511 770.159 1000.08 770.159C1000.81 770.159 1001.46 770.343 1002.02 770.71C1002.58 771.078 1003.02 771.598 1003.34 772.273C1003.65 772.947 1003.81 773.742 1003.81 774.659C1003.81 775.583 1003.65 776.384 1003.34 777.062C1003.02 777.737 1002.59 778.259 1002.03 778.631C1001.47 778.998 1000.83 779.182 1000.1 779.182C999.542 779.182 999.093 779.089 998.756 778.903C998.419 778.714 998.159 778.5 997.977 778.261C997.795 778.019 997.655 777.818 997.557 777.659H997.443V782.273H996.102ZM997.42 774.636C997.42 775.295 997.517 775.877 997.71 776.381C997.903 776.881 998.186 777.273 998.557 777.557C998.928 777.837 999.383 777.977 999.92 777.977C1000.48 777.977 1000.95 777.83 1001.32 777.534C1001.7 777.235 1001.99 776.833 1002.18 776.33C1002.37 775.822 1002.47 775.258 1002.47 774.636C1002.47 774.023 1002.37 773.47 1002.18 772.977C1002 772.481 1001.71 772.089 1001.34 771.801C1000.96 771.509 1000.49 771.364 999.92 771.364C999.375 771.364 998.917 771.502 998.545 771.778C998.174 772.051 997.894 772.434 997.705 772.926C997.515 773.415 997.42 773.985 997.42 774.636ZM1008.42 779.205C1007.87 779.205 1007.37 779.1 1006.91 778.892C1006.46 778.68 1006.11 778.375 1005.84 777.977C1005.58 777.576 1005.44 777.091 1005.44 776.523C1005.44 776.023 1005.54 775.617 1005.74 775.307C1005.94 774.992 1006.2 774.746 1006.53 774.568C1006.86 774.39 1007.22 774.258 1007.62 774.17C1008.02 774.08 1008.42 774.008 1008.83 773.955C1009.36 773.886 1009.79 773.835 1010.12 773.801C1010.45 773.763 1010.7 773.701 1010.85 773.614C1011 773.527 1011.08 773.375 1011.08 773.159V773.114C1011.08 772.553 1010.93 772.117 1010.62 771.807C1010.32 771.496 1009.86 771.341 1009.24 771.341C1008.6 771.341 1008.1 771.481 1007.73 771.761C1007.37 772.042 1007.11 772.341 1006.97 772.659L1005.69 772.205C1005.92 771.674 1006.22 771.261 1006.6 770.966C1006.98 770.667 1007.4 770.458 1007.85 770.341C1008.31 770.22 1008.75 770.159 1009.19 770.159C1009.47 770.159 1009.8 770.193 1010.16 770.261C1010.53 770.326 1010.88 770.46 1011.22 770.665C1011.57 770.869 1011.85 771.178 1012.08 771.591C1012.31 772.004 1012.42 772.557 1012.42 773.25V779H1011.08V777.818H1011.01C1010.92 778.008 1010.77 778.21 1010.56 778.426C1010.34 778.642 1010.06 778.826 1009.71 778.977C1009.36 779.129 1008.93 779.205 1008.42 779.205ZM1008.62 778C1009.16 778 1009.6 777.896 1009.97 777.688C1010.33 777.479 1010.61 777.21 1010.8 776.881C1010.98 776.551 1011.08 776.205 1011.08 775.841V774.614C1011.02 774.682 1010.9 774.744 1010.7 774.801C1010.52 774.854 1010.3 774.902 1010.05 774.943C1009.8 774.981 1009.56 775.015 1009.32 775.045C1009.09 775.072 1008.91 775.095 1008.76 775.114C1008.41 775.159 1008.09 775.233 1007.78 775.335C1007.48 775.434 1007.24 775.583 1007.06 775.784C1006.88 775.981 1006.78 776.25 1006.78 776.591C1006.78 777.057 1006.96 777.409 1007.3 777.648C1007.65 777.883 1008.09 778 1008.62 778ZM1021.73 770.273V777.75H1022.96V781.818H1021.62V779H1014.87V770.273H1016.21V777.75H1020.39V770.273H1021.73ZM1026.37 777.023L1030.57 770.273H1032.12V779H1030.77V772.25L1026.59 779H1025.02V770.273H1026.37V777.023ZM1039.82 779V771.5H1037.5C1036.98 771.5 1036.57 771.621 1036.27 771.864C1035.97 772.106 1035.82 772.439 1035.82 772.864C1035.82 773.28 1035.96 773.608 1036.22 773.847C1036.5 774.085 1036.87 774.205 1037.34 774.205H1040.16V775.455H1037.34C1036.75 775.455 1036.24 775.35 1035.82 775.142C1035.39 774.934 1035.06 774.636 1034.83 774.25C1034.6 773.86 1034.48 773.398 1034.48 772.864C1034.48 772.326 1034.6 771.864 1034.84 771.477C1035.09 771.091 1035.43 770.794 1035.88 770.585C1036.34 770.377 1036.88 770.273 1037.5 770.273H1041.09V779H1039.82ZM1034 779L1036.48 774.659H1037.93L1035.46 779H1034Z" fill="#FEE9E7"/>
<rect width="731" height="1080" fill="#D9D9D9"/>
<path d="M146.091 467.636V462.364H149C150.121 462.364 151.061 462.144 151.818 461.705C152.591 461.265 153.227 460.697 153.727 460C154.242 459.303 154.667 458.576 155 457.818L155.727 456.091L139.636 420.455H145.727L158.545 449.364L170.273 420.455H176.273L160.182 459.455C159.545 460.909 158.818 462.258 158 463.5C157.197 464.742 156.098 465.742 154.705 466.5C153.326 467.258 151.455 467.636 149.091 467.636H146.091ZM180.284 467V432.091H207.739V467H202.375V437.091H185.648V467H180.284ZM217.534 480.091V432.091H222.716V437.636H223.352C223.746 437.03 224.292 436.258 224.989 435.318C225.701 434.364 226.716 433.515 228.034 432.773C229.367 432.015 231.17 431.636 233.443 431.636C236.383 431.636 238.973 432.371 241.216 433.841C243.458 435.311 245.208 437.394 246.466 440.091C247.723 442.788 248.352 445.97 248.352 449.636C248.352 453.333 247.723 456.538 246.466 459.25C245.208 461.947 243.466 464.038 241.239 465.523C239.011 466.992 236.443 467.727 233.534 467.727C231.292 467.727 229.496 467.356 228.148 466.614C226.799 465.856 225.761 465 225.034 464.045C224.307 463.076 223.746 462.273 223.352 461.636H222.898V480.091H217.534ZM222.807 449.545C222.807 452.182 223.193 454.508 223.966 456.523C224.739 458.523 225.867 460.091 227.352 461.227C228.837 462.348 230.655 462.909 232.807 462.909C235.049 462.909 236.92 462.318 238.42 461.136C239.936 459.939 241.072 458.333 241.83 456.318C242.602 454.288 242.989 452.03 242.989 449.545C242.989 447.091 242.61 444.879 241.852 442.909C241.11 440.924 239.981 439.356 238.466 438.205C236.966 437.038 235.08 436.455 232.807 436.455C230.625 436.455 228.792 437.008 227.307 438.114C225.822 439.205 224.701 440.735 223.943 442.705C223.186 444.659 222.807 446.939 222.807 449.545ZM266.807 467.818C264.595 467.818 262.587 467.402 260.784 466.568C258.981 465.72 257.549 464.5 256.489 462.909C255.428 461.303 254.898 459.364 254.898 457.091C254.898 455.091 255.292 453.47 256.08 452.227C256.867 450.97 257.92 449.985 259.239 449.273C260.557 448.561 262.011 448.03 263.602 447.682C265.208 447.318 266.822 447.03 268.443 446.818C270.564 446.545 272.284 446.341 273.602 446.205C274.936 446.053 275.905 445.803 276.511 445.455C277.133 445.106 277.443 444.5 277.443 443.636V443.455C277.443 441.212 276.83 439.47 275.602 438.227C274.39 436.985 272.549 436.364 270.08 436.364C267.519 436.364 265.511 436.924 264.057 438.045C262.602 439.167 261.58 440.364 260.989 441.636L255.898 439.818C256.807 437.697 258.019 436.045 259.534 434.864C261.064 433.667 262.731 432.833 264.534 432.364C266.352 431.879 268.14 431.636 269.898 431.636C271.019 431.636 272.307 431.773 273.761 432.045C275.231 432.303 276.648 432.841 278.011 433.659C279.39 434.477 280.534 435.712 281.443 437.364C282.352 439.015 282.807 441.227 282.807 444V467H277.443V462.273H277.17C276.807 463.03 276.201 463.841 275.352 464.705C274.504 465.568 273.375 466.303 271.966 466.909C270.557 467.515 268.837 467.818 266.807 467.818ZM267.625 463C269.746 463 271.534 462.583 272.989 461.75C274.458 460.917 275.564 459.841 276.307 458.523C277.064 457.205 277.443 455.818 277.443 454.364V449.455C277.216 449.727 276.716 449.977 275.943 450.205C275.186 450.417 274.307 450.606 273.307 450.773C272.322 450.924 271.36 451.061 270.42 451.182C269.496 451.288 268.746 451.379 268.17 451.455C266.777 451.636 265.473 451.932 264.261 452.341C263.064 452.735 262.095 453.333 261.352 454.136C260.625 454.924 260.261 456 260.261 457.364C260.261 459.227 260.951 460.636 262.33 461.591C263.723 462.53 265.489 463 267.625 463ZM292.597 467V432.091H306.869C310.627 432.091 313.612 432.939 315.824 434.636C318.036 436.333 319.142 438.576 319.142 441.364C319.142 443.485 318.513 445.129 317.256 446.295C315.998 447.447 314.384 448.227 312.415 448.636C313.703 448.818 314.953 449.273 316.165 450C317.392 450.727 318.407 451.727 319.21 453C320.013 454.258 320.415 455.803 320.415 457.636C320.415 459.424 319.96 461.023 319.051 462.432C318.142 463.841 316.839 464.955 315.142 465.773C313.445 466.591 311.415 467 309.051 467H292.597ZM297.688 462.091H309.051C310.9 462.091 312.347 461.652 313.392 460.773C314.438 459.894 314.96 458.697 314.96 457.182C314.96 455.379 314.438 453.962 313.392 452.932C312.347 451.886 310.9 451.364 309.051 451.364H297.688V462.091ZM297.688 446.727H306.869C308.309 446.727 309.544 446.53 310.574 446.136C311.604 445.727 312.392 445.152 312.938 444.409C313.498 443.652 313.778 442.758 313.778 441.727C313.778 440.258 313.165 439.106 311.938 438.273C310.71 437.424 309.021 437 306.869 437H297.688V446.727ZM325.443 467V462H326.716C327.761 462 328.633 461.795 329.33 461.386C330.027 460.962 330.587 460.227 331.011 459.182C331.451 458.121 331.784 456.652 332.011 454.773C332.254 452.879 332.428 450.47 332.534 447.545L333.17 432.091H356.443V467H351.08V437.091H338.261L337.716 449.545C337.595 452.409 337.337 454.932 336.943 457.114C336.564 459.28 335.981 461.098 335.193 462.568C334.42 464.038 333.39 465.144 332.102 465.886C330.814 466.629 329.201 467 327.261 467H325.443ZM380.92 467.727C377.557 467.727 374.655 466.985 372.216 465.5C369.792 464 367.92 461.909 366.602 459.227C365.299 456.53 364.648 453.394 364.648 449.818C364.648 446.242 365.299 443.091 366.602 440.364C367.92 437.621 369.754 435.485 372.102 433.955C374.466 432.409 377.223 431.636 380.375 431.636C382.193 431.636 383.989 431.939 385.761 432.545C387.534 433.152 389.148 434.136 390.602 435.5C392.057 436.848 393.216 438.636 394.08 440.864C394.943 443.091 395.375 445.833 395.375 449.091V451.364H368.466V446.727H389.92C389.92 444.758 389.527 443 388.739 441.455C387.966 439.909 386.86 438.689 385.42 437.795C383.996 436.902 382.314 436.455 380.375 436.455C378.239 436.455 376.39 436.985 374.83 438.045C373.284 439.091 372.095 440.455 371.261 442.136C370.428 443.818 370.011 445.621 370.011 447.545V450.636C370.011 453.273 370.466 455.508 371.375 457.341C372.299 459.159 373.58 460.545 375.216 461.5C376.852 462.439 378.754 462.909 380.92 462.909C382.33 462.909 383.602 462.712 384.739 462.318C385.89 461.909 386.883 461.303 387.716 460.5C388.549 459.682 389.193 458.667 389.648 457.455L394.83 458.909C394.284 460.667 393.367 462.212 392.08 463.545C390.792 464.864 389.201 465.894 387.307 466.636C385.413 467.364 383.284 467.727 380.92 467.727ZM426.898 447.091V452.091H407.625V447.091H426.898ZM408.898 432.091V467H403.534V432.091H408.898ZM430.989 432.091V467H425.625V432.091H430.989ZM446.148 459.091L462.966 432.091H469.148V467H463.784V440L447.057 467H440.784V432.091H446.148V459.091ZM493.608 467.727C490.244 467.727 487.343 466.985 484.903 465.5C482.479 464 480.608 461.909 479.29 459.227C477.987 456.53 477.335 453.394 477.335 449.818C477.335 446.242 477.987 443.091 479.29 440.364C480.608 437.621 482.441 435.485 484.79 433.955C487.153 432.409 489.911 431.636 493.062 431.636C494.881 431.636 496.676 431.939 498.449 432.545C500.222 433.152 501.835 434.136 503.29 435.5C504.744 436.848 505.903 438.636 506.767 440.864C507.631 443.091 508.062 445.833 508.062 449.091V451.364H481.153V446.727H502.608C502.608 444.758 502.214 443 501.426 441.455C500.653 439.909 499.547 438.689 498.108 437.795C496.684 436.902 495.002 436.455 493.062 436.455C490.926 436.455 489.078 436.985 487.517 438.045C485.972 439.091 484.782 440.455 483.949 442.136C483.116 443.818 482.699 445.621 482.699 447.545V450.636C482.699 453.273 483.153 455.508 484.062 457.341C484.987 459.159 486.267 460.545 487.903 461.5C489.54 462.439 491.441 462.909 493.608 462.909C495.017 462.909 496.29 462.712 497.426 462.318C498.578 461.909 499.57 461.303 500.403 460.5C501.237 459.682 501.881 458.667 502.335 457.455L507.517 458.909C506.972 460.667 506.055 462.212 504.767 463.545C503.479 464.864 501.888 465.894 499.994 466.636C498.1 467.364 495.972 467.727 493.608 467.727ZM170.364 509.091V539H175.273V555.273H169.909V544H142.909V509.091H148.273V539H165V509.091H170.364ZM188.898 536.091L205.716 509.091H211.898V544H206.534V517L189.807 544H183.534V509.091H188.898V536.091ZM235.903 555.909V497.455H241.267V555.909H235.903ZM235.903 544.727C233.54 544.727 231.388 544.303 229.449 543.455C227.509 542.591 225.843 541.371 224.449 539.795C223.055 538.205 221.979 536.303 221.222 534.091C220.464 531.879 220.085 529.424 220.085 526.727C220.085 524 220.464 521.53 221.222 519.318C221.979 517.091 223.055 515.182 224.449 513.591C225.843 512 227.509 510.78 229.449 509.932C231.388 509.068 233.54 508.636 235.903 508.636H237.54V544.727H235.903ZM235.903 539.909H236.812V513.455H235.903C234.116 513.455 232.563 513.818 231.244 514.545C229.926 515.258 228.835 516.235 227.972 517.477C227.123 518.705 226.487 520.114 226.062 521.705C225.653 523.295 225.449 524.97 225.449 526.727C225.449 529.061 225.82 531.227 226.562 533.227C227.305 535.227 228.449 536.841 229.994 538.068C231.54 539.295 233.509 539.909 235.903 539.909ZM241.267 544.727H239.631V508.636H241.267C243.631 508.636 245.782 509.068 247.722 509.932C249.661 510.78 251.328 512 252.722 513.591C254.116 515.182 255.191 517.091 255.949 519.318C256.706 521.53 257.085 524 257.085 526.727C257.085 529.424 256.706 531.879 255.949 534.091C255.191 536.303 254.116 538.205 252.722 539.795C251.328 541.371 249.661 542.591 247.722 543.455C245.782 544.303 243.631 544.727 241.267 544.727ZM241.267 539.909C243.07 539.909 244.623 539.561 245.926 538.864C247.244 538.152 248.328 537.182 249.176 535.955C250.04 534.712 250.676 533.303 251.085 531.727C251.509 530.136 251.722 528.47 251.722 526.727C251.722 524.394 251.35 522.22 250.608 520.205C249.866 518.189 248.722 516.561 247.176 515.318C245.631 514.076 243.661 513.455 241.267 513.455H240.358V539.909H241.267ZM265.284 557.091V509.091H270.466V514.636H271.102C271.496 514.03 272.042 513.258 272.739 512.318C273.451 511.364 274.466 510.515 275.784 509.773C277.117 509.015 278.92 508.636 281.193 508.636C284.133 508.636 286.723 509.371 288.966 510.841C291.208 512.311 292.958 514.394 294.216 517.091C295.473 519.788 296.102 522.97 296.102 526.636C296.102 530.333 295.473 533.538 294.216 536.25C292.958 538.947 291.216 541.038 288.989 542.523C286.761 543.992 284.193 544.727 281.284 544.727C279.042 544.727 277.246 544.356 275.898 543.614C274.549 542.856 273.511 542 272.784 541.045C272.057 540.076 271.496 539.273 271.102 538.636H270.648V557.091H265.284ZM270.557 526.545C270.557 529.182 270.943 531.508 271.716 533.523C272.489 535.523 273.617 537.091 275.102 538.227C276.587 539.348 278.405 539.909 280.557 539.909C282.799 539.909 284.67 539.318 286.17 538.136C287.686 536.939 288.822 535.333 289.58 533.318C290.352 531.288 290.739 529.03 290.739 526.545C290.739 524.091 290.36 521.879 289.602 519.909C288.86 517.924 287.731 516.356 286.216 515.205C284.716 514.038 282.83 513.455 280.557 513.455C278.375 513.455 276.542 514.008 275.057 515.114C273.572 516.205 272.451 517.735 271.693 519.705C270.936 521.659 270.557 523.939 270.557 526.545ZM318.466 544.727C315.314 544.727 312.549 543.977 310.17 542.477C307.807 540.977 305.958 538.879 304.625 536.182C303.307 533.485 302.648 530.333 302.648 526.727C302.648 523.091 303.307 519.917 304.625 517.205C305.958 514.492 307.807 512.386 310.17 510.886C312.549 509.386 315.314 508.636 318.466 508.636C321.617 508.636 324.375 509.386 326.739 510.886C329.117 512.386 330.966 514.492 332.284 517.205C333.617 519.917 334.284 523.091 334.284 526.727C334.284 530.333 333.617 533.485 332.284 536.182C330.966 538.879 329.117 540.977 326.739 542.477C324.375 543.977 321.617 544.727 318.466 544.727ZM318.466 539.909C320.86 539.909 322.83 539.295 324.375 538.068C325.92 536.841 327.064 535.227 327.807 533.227C328.549 531.227 328.92 529.061 328.92 526.727C328.92 524.394 328.549 522.22 327.807 520.205C327.064 518.189 325.92 516.561 324.375 515.318C322.83 514.076 320.86 513.455 318.466 513.455C316.072 513.455 314.102 514.076 312.557 515.318C311.011 516.561 309.867 518.189 309.125 520.205C308.383 522.22 308.011 524.394 308.011 526.727C308.011 529.061 308.383 531.227 309.125 533.227C309.867 535.227 311.011 536.841 312.557 538.068C314.102 539.295 316.072 539.909 318.466 539.909ZM342.472 544V509.091H356.744C360.502 509.091 363.487 509.939 365.699 511.636C367.911 513.333 369.017 515.576 369.017 518.364C369.017 520.485 368.388 522.129 367.131 523.295C365.873 524.447 364.259 525.227 362.29 525.636C363.578 525.818 364.828 526.273 366.04 527C367.267 527.727 368.282 528.727 369.085 530C369.888 531.258 370.29 532.803 370.29 534.636C370.29 536.424 369.835 538.023 368.926 539.432C368.017 540.841 366.714 541.955 365.017 542.773C363.32 543.591 361.29 544 358.926 544H342.472ZM347.562 539.091H358.926C360.775 539.091 362.222 538.652 363.267 537.773C364.313 536.894 364.835 535.697 364.835 534.182C364.835 532.379 364.313 530.962 363.267 529.932C362.222 528.886 360.775 528.364 358.926 528.364H347.562V539.091ZM347.562 523.727H356.744C358.184 523.727 359.419 523.53 360.449 523.136C361.479 522.727 362.267 522.152 362.812 521.409C363.373 520.652 363.653 519.758 363.653 518.727C363.653 517.258 363.04 516.106 361.812 515.273C360.585 514.424 358.896 514 356.744 514H347.562V523.727ZM392.591 544.727C389.439 544.727 386.674 543.977 384.295 542.477C381.932 540.977 380.083 538.879 378.75 536.182C377.432 533.485 376.773 530.333 376.773 526.727C376.773 523.091 377.432 519.917 378.75 517.205C380.083 514.492 381.932 512.386 384.295 510.886C386.674 509.386 389.439 508.636 392.591 508.636C395.742 508.636 398.5 509.386 400.864 510.886C403.242 512.386 405.091 514.492 406.409 517.205C407.742 519.917 408.409 523.091 408.409 526.727C408.409 530.333 407.742 533.485 406.409 536.182C405.091 538.879 403.242 540.977 400.864 542.477C398.5 543.977 395.742 544.727 392.591 544.727ZM392.591 539.909C394.985 539.909 396.955 539.295 398.5 538.068C400.045 536.841 401.189 535.227 401.932 533.227C402.674 531.227 403.045 529.061 403.045 526.727C403.045 524.394 402.674 522.22 401.932 520.205C401.189 518.189 400.045 516.561 398.5 515.318C396.955 514.076 394.985 513.455 392.591 513.455C390.197 513.455 388.227 514.076 386.682 515.318C385.136 516.561 383.992 518.189 383.25 520.205C382.508 522.22 382.136 524.394 382.136 526.727C382.136 529.061 382.508 531.227 383.25 533.227C383.992 535.227 385.136 536.841 386.682 538.068C388.227 539.295 390.197 539.909 392.591 539.909ZM421.96 536.091L438.778 509.091H444.96V544H439.597V517L422.869 544H416.597V509.091H421.96V536.091ZM435.233 497.455H440.233C440.233 499.909 439.384 501.917 437.688 503.477C435.991 505.038 433.688 505.818 430.778 505.818C427.915 505.818 425.634 505.038 423.938 503.477C422.256 501.917 421.415 499.909 421.415 497.455H426.415C426.415 498.636 426.741 499.674 427.392 500.568C428.059 501.462 429.188 501.909 430.778 501.909C432.369 501.909 433.506 501.462 434.188 500.568C434.884 499.674 435.233 498.636 435.233 497.455ZM168.818 573L171.545 576.273C170.485 577.303 169.258 578.023 167.864 578.432C166.47 578.841 164.894 579.091 163.136 579.182C161.379 579.273 159.424 579.364 157.273 579.455C154.848 579.545 152.841 580.136 151.25 581.227C149.659 582.318 148.432 583.894 147.568 585.955C146.705 588.015 146.152 590.545 145.909 593.545H146.364C147.545 591.364 149.182 589.758 151.273 588.727C153.364 587.697 155.606 587.182 158 587.182C160.727 587.182 163.182 587.818 165.364 589.091C167.545 590.364 169.273 592.25 170.545 594.75C171.818 597.25 172.455 600.333 172.455 604C172.455 607.652 171.803 610.803 170.5 613.455C169.212 616.106 167.402 618.152 165.068 619.591C162.75 621.015 160.03 621.727 156.909 621.727C153.788 621.727 151.053 620.992 148.705 619.523C146.356 618.038 144.53 615.841 143.227 612.932C141.924 610.008 141.273 606.394 141.273 602.091V598.364C141.273 590.591 142.591 584.697 145.227 580.682C147.879 576.667 151.864 574.591 157.182 574.455C159.061 574.394 160.735 574.379 162.205 574.409C163.674 574.439 164.955 574.371 166.045 574.205C167.136 574.038 168.061 573.636 168.818 573ZM156.909 616.909C159.015 616.909 160.826 616.379 162.341 615.318C163.871 614.258 165.045 612.765 165.864 610.841C166.682 608.902 167.091 606.621 167.091 604C167.091 601.455 166.674 599.288 165.841 597.5C165.023 595.712 163.848 594.348 162.318 593.409C160.788 592.47 158.955 592 156.818 592C155.258 592 153.856 592.265 152.614 592.795C151.371 593.326 150.311 594.106 149.432 595.136C148.553 596.167 147.871 597.424 147.386 598.909C146.917 600.394 146.667 602.091 146.636 604C146.636 607.909 147.553 611.038 149.386 613.386C151.22 615.735 153.727 616.909 156.909 616.909ZM186.023 613.091L202.841 586.091H209.023V621H203.659V594L186.932 621H180.659V586.091H186.023V613.091ZM244.756 573L247.483 576.273C246.422 577.303 245.195 578.023 243.801 578.432C242.407 578.841 240.831 579.091 239.074 579.182C237.316 579.273 235.362 579.364 233.21 579.455C230.786 579.545 228.778 580.136 227.188 581.227C225.597 582.318 224.369 583.894 223.506 585.955C222.642 588.015 222.089 590.545 221.847 593.545H222.301C223.483 591.364 225.119 589.758 227.21 588.727C229.301 587.697 231.544 587.182 233.938 587.182C236.665 587.182 239.119 587.818 241.301 589.091C243.483 590.364 245.21 592.25 246.483 594.75C247.756 597.25 248.392 600.333 248.392 604C248.392 607.652 247.741 610.803 246.438 613.455C245.15 616.106 243.339 618.152 241.006 619.591C238.688 621.015 235.968 621.727 232.847 621.727C229.725 621.727 226.991 620.992 224.642 619.523C222.294 618.038 220.468 615.841 219.165 612.932C217.862 610.008 217.21 606.394 217.21 602.091V598.364C217.21 590.591 218.528 584.697 221.165 580.682C223.816 576.667 227.801 574.591 233.119 574.455C234.998 574.394 236.672 574.379 238.142 574.409C239.612 574.439 240.892 574.371 241.983 574.205C243.074 574.038 243.998 573.636 244.756 573ZM232.847 616.909C234.953 616.909 236.763 616.379 238.278 615.318C239.809 614.258 240.983 612.765 241.801 610.841C242.619 608.902 243.028 606.621 243.028 604C243.028 601.455 242.612 599.288 241.778 597.5C240.96 595.712 239.786 594.348 238.256 593.409C236.725 592.47 234.892 592 232.756 592C231.195 592 229.794 592.265 228.551 592.795C227.309 593.326 226.248 594.106 225.369 595.136C224.491 596.167 223.809 597.424 223.324 598.909C222.854 600.394 222.604 602.091 222.574 604C222.574 607.909 223.491 611.038 225.324 613.386C227.157 615.735 229.665 616.909 232.847 616.909ZM253.506 621V616H254.778C255.824 616 256.695 615.795 257.392 615.386C258.089 614.962 258.65 614.227 259.074 613.182C259.513 612.121 259.847 610.652 260.074 608.773C260.316 606.879 260.491 604.47 260.597 601.545L261.233 586.091H284.506V621H279.142V591.091H266.324L265.778 603.545C265.657 606.409 265.4 608.932 265.006 611.114C264.627 613.28 264.044 615.098 263.256 616.568C262.483 618.038 261.453 619.144 260.165 619.886C258.877 620.629 257.263 621 255.324 621H253.506ZM299.71 613.091L316.528 586.091H322.71V621H317.347V594L300.619 621H294.347V586.091H299.71V613.091ZM346.716 621.727C343.564 621.727 340.799 620.977 338.42 619.477C336.057 617.977 334.208 615.879 332.875 613.182C331.557 610.485 330.898 607.333 330.898 603.727C330.898 600.091 331.557 596.917 332.875 594.205C334.208 591.492 336.057 589.386 338.42 587.886C340.799 586.386 343.564 585.636 346.716 585.636C349.867 585.636 352.625 586.386 354.989 587.886C357.367 589.386 359.216 591.492 360.534 594.205C361.867 596.917 362.534 600.091 362.534 603.727C362.534 607.333 361.867 610.485 360.534 613.182C359.216 615.879 357.367 617.977 354.989 619.477C352.625 620.977 349.867 621.727 346.716 621.727ZM346.716 616.909C349.11 616.909 351.08 616.295 352.625 615.068C354.17 613.841 355.314 612.227 356.057 610.227C356.799 608.227 357.17 606.061 357.17 603.727C357.17 601.394 356.799 599.22 356.057 597.205C355.314 595.189 354.17 593.561 352.625 592.318C351.08 591.076 349.11 590.455 346.716 590.455C344.322 590.455 342.352 591.076 340.807 592.318C339.261 593.561 338.117 595.189 337.375 597.205C336.633 599.22 336.261 601.394 336.261 603.727C336.261 606.061 336.633 608.227 337.375 610.227C338.117 612.227 339.261 613.841 340.807 615.068C342.352 616.295 344.322 616.909 346.716 616.909ZM366.159 591.091V586.091H394.523V591.091H383.068V621H377.705V591.091H366.159ZM415.17 621.727C411.807 621.727 408.905 620.985 406.466 619.5C404.042 618 402.17 615.909 400.852 613.227C399.549 610.53 398.898 607.394 398.898 603.818C398.898 600.242 399.549 597.091 400.852 594.364C402.17 591.621 404.004 589.485 406.352 587.955C408.716 586.409 411.473 585.636 414.625 585.636C416.443 585.636 418.239 585.939 420.011 586.545C421.784 587.152 423.398 588.136 424.852 589.5C426.307 590.848 427.466 592.636 428.33 594.864C429.193 597.091 429.625 599.833 429.625 603.091V605.364H402.716V600.727H424.17C424.17 598.758 423.777 597 422.989 595.455C422.216 593.909 421.11 592.689 419.67 591.795C418.246 590.902 416.564 590.455 414.625 590.455C412.489 590.455 410.64 590.985 409.08 592.045C407.534 593.091 406.345 594.455 405.511 596.136C404.678 597.818 404.261 599.621 404.261 601.545V604.636C404.261 607.273 404.716 609.508 405.625 611.341C406.549 613.159 407.83 614.545 409.466 615.5C411.102 616.439 413.004 616.909 415.17 616.909C416.58 616.909 417.852 616.712 418.989 616.318C420.14 615.909 421.133 615.303 421.966 614.5C422.799 613.682 423.443 612.667 423.898 611.455L429.08 612.909C428.534 614.667 427.617 616.212 426.33 617.545C425.042 618.864 423.451 619.894 421.557 620.636C419.663 621.364 417.534 621.727 415.17 621.727ZM437.784 621V586.091H443.148V601.273H446.693L459.239 586.091H466.148L452.057 602.909L466.33 621H459.42L447.966 606.273H443.148V621H437.784ZM484.903 621.727C481.752 621.727 478.987 620.977 476.608 619.477C474.244 617.977 472.396 615.879 471.062 613.182C469.744 610.485 469.085 607.333 469.085 603.727C469.085 600.091 469.744 596.917 471.062 594.205C472.396 591.492 474.244 589.386 476.608 587.886C478.987 586.386 481.752 585.636 484.903 585.636C488.055 585.636 490.813 586.386 493.176 587.886C495.555 589.386 497.403 591.492 498.722 594.205C500.055 596.917 500.722 600.091 500.722 603.727C500.722 607.333 500.055 610.485 498.722 613.182C497.403 615.879 495.555 617.977 493.176 619.477C490.813 620.977 488.055 621.727 484.903 621.727ZM484.903 616.909C487.297 616.909 489.267 616.295 490.812 615.068C492.358 613.841 493.502 612.227 494.244 610.227C494.987 608.227 495.358 606.061 495.358 603.727C495.358 601.394 494.987 599.22 494.244 597.205C493.502 595.189 492.358 593.561 490.812 592.318C489.267 591.076 487.297 590.455 484.903 590.455C482.509 590.455 480.54 591.076 478.994 592.318C477.449 593.561 476.305 595.189 475.562 597.205C474.82 599.22 474.449 601.394 474.449 603.727C474.449 606.061 474.82 608.227 475.562 610.227C476.305 612.227 477.449 613.841 478.994 615.068C480.54 616.295 482.509 616.909 484.903 616.909ZM514.273 613.091L531.091 586.091H537.273V621H531.909V594L515.182 621H508.909V586.091H514.273V613.091ZM527.545 574.455H532.545C532.545 576.909 531.697 578.917 530 580.477C528.303 582.038 526 582.818 523.091 582.818C520.227 582.818 517.947 582.038 516.25 580.477C514.568 578.917 513.727 576.909 513.727 574.455H518.727C518.727 575.636 519.053 576.674 519.705 577.568C520.371 578.462 521.5 578.909 523.091 578.909C524.682 578.909 525.818 578.462 526.5 577.568C527.197 576.674 527.545 575.636 527.545 574.455Z" fill="black"/>
</svg>
