<svg width="1920" height="1080" viewBox="0 0 1920 1080" fill="none" xmlns="http://www.w3.org/2000/svg">
<rect width="1920" height="1080" fill="white"/>
<path d="M938.137 644.654H935.857V643.734H938.137C938.578 643.734 938.936 643.664 939.209 643.523C939.482 643.383 939.682 643.188 939.807 642.938C939.936 642.688 940 642.402 940 642.082C940 641.789 939.936 641.514 939.807 641.256C939.682 640.998 939.482 640.791 939.209 640.635C938.936 640.475 938.578 640.395 938.137 640.395H936.121V648H934.99V639.469H938.137C938.781 639.469 939.326 639.58 939.771 639.803C940.217 640.025 940.555 640.334 940.785 640.729C941.016 641.119 941.131 641.566 941.131 642.07C941.131 642.617 941.016 643.084 940.785 643.471C940.555 643.857 940.217 644.152 939.771 644.355C939.326 644.555 938.781 644.654 938.137 644.654ZM946.464 646.916V643.652C946.464 643.402 946.414 643.186 946.312 643.002C946.214 642.814 946.066 642.67 945.867 642.568C945.668 642.467 945.421 642.416 945.129 642.416C944.855 642.416 944.615 642.463 944.408 642.557C944.205 642.65 944.045 642.773 943.927 642.926C943.814 643.078 943.757 643.242 943.757 643.418H942.673C942.673 643.191 942.732 642.967 942.849 642.744C942.966 642.521 943.134 642.32 943.353 642.141C943.576 641.957 943.841 641.812 944.15 641.707C944.463 641.598 944.81 641.543 945.193 641.543C945.654 641.543 946.06 641.621 946.412 641.777C946.767 641.934 947.045 642.17 947.244 642.486C947.447 642.799 947.548 643.191 947.548 643.664V646.617C947.548 646.828 947.566 647.053 947.601 647.291C947.64 647.529 947.697 647.734 947.771 647.906V648H946.64C946.586 647.875 946.543 647.709 946.511 647.502C946.48 647.291 946.464 647.096 946.464 646.916ZM946.652 644.156L946.664 644.918H945.568C945.259 644.918 944.984 644.943 944.742 644.994C944.5 645.041 944.296 645.113 944.132 645.211C943.968 645.309 943.843 645.432 943.757 645.58C943.671 645.725 943.629 645.895 943.629 646.09C943.629 646.289 943.673 646.471 943.763 646.635C943.853 646.799 943.988 646.93 944.168 647.027C944.351 647.121 944.576 647.168 944.841 647.168C945.173 647.168 945.466 647.098 945.72 646.957C945.974 646.816 946.175 646.645 946.324 646.441C946.476 646.238 946.558 646.041 946.57 645.85L947.033 646.371C947.005 646.535 946.931 646.717 946.81 646.916C946.689 647.115 946.527 647.307 946.324 647.49C946.125 647.67 945.886 647.82 945.609 647.941C945.336 648.059 945.027 648.117 944.683 648.117C944.254 648.117 943.877 648.033 943.552 647.865C943.232 647.697 942.982 647.473 942.802 647.191C942.627 646.906 942.539 646.588 942.539 646.236C942.539 645.896 942.605 645.598 942.738 645.34C942.871 645.078 943.062 644.861 943.312 644.689C943.562 644.514 943.863 644.381 944.214 644.291C944.566 644.201 944.959 644.156 945.392 644.156H946.652ZM953.345 646.318C953.345 646.162 953.31 646.018 953.239 645.885C953.173 645.748 953.034 645.625 952.823 645.516C952.616 645.402 952.304 645.305 951.886 645.223C951.534 645.148 951.216 645.061 950.931 644.959C950.65 644.857 950.409 644.734 950.21 644.59C950.015 644.445 949.864 644.275 949.759 644.08C949.654 643.885 949.601 643.656 949.601 643.395C949.601 643.145 949.655 642.908 949.765 642.686C949.878 642.463 950.036 642.266 950.239 642.094C950.446 641.922 950.695 641.787 950.984 641.689C951.273 641.592 951.595 641.543 951.95 641.543C952.458 641.543 952.892 641.633 953.251 641.812C953.611 641.992 953.886 642.232 954.077 642.533C954.269 642.83 954.364 643.16 954.364 643.523H953.28C953.28 643.348 953.228 643.178 953.122 643.014C953.021 642.846 952.87 642.707 952.671 642.598C952.476 642.488 952.236 642.434 951.95 642.434C951.65 642.434 951.405 642.48 951.218 642.574C951.034 642.664 950.9 642.779 950.814 642.92C950.732 643.061 950.691 643.209 950.691 643.365C950.691 643.482 950.71 643.588 950.749 643.682C950.792 643.771 950.866 643.855 950.972 643.934C951.077 644.008 951.226 644.078 951.417 644.145C951.609 644.211 951.853 644.277 952.15 644.344C952.669 644.461 953.097 644.602 953.433 644.766C953.769 644.93 954.019 645.131 954.183 645.369C954.347 645.607 954.429 645.896 954.429 646.236C954.429 646.514 954.37 646.768 954.253 646.998C954.14 647.229 953.974 647.428 953.755 647.596C953.54 647.76 953.282 647.889 952.982 647.982C952.685 648.072 952.351 648.117 951.98 648.117C951.421 648.117 950.948 648.018 950.562 647.818C950.175 647.619 949.882 647.361 949.683 647.045C949.484 646.729 949.384 646.395 949.384 646.043H950.474C950.489 646.34 950.575 646.576 950.732 646.752C950.888 646.924 951.079 647.047 951.306 647.121C951.532 647.191 951.757 647.227 951.98 647.227C952.277 647.227 952.525 647.188 952.724 647.109C952.927 647.031 953.081 646.924 953.187 646.787C953.292 646.65 953.345 646.494 953.345 646.318ZM959.944 646.318C959.944 646.162 959.909 646.018 959.839 645.885C959.772 645.748 959.634 645.625 959.423 645.516C959.216 645.402 958.903 645.305 958.485 645.223C958.134 645.148 957.815 645.061 957.53 644.959C957.249 644.857 957.009 644.734 956.809 644.59C956.614 644.445 956.464 644.275 956.358 644.08C956.253 643.885 956.2 643.656 956.2 643.395C956.2 643.145 956.255 642.908 956.364 642.686C956.477 642.463 956.636 642.266 956.839 642.094C957.046 641.922 957.294 641.787 957.583 641.689C957.872 641.592 958.194 641.543 958.55 641.543C959.057 641.543 959.491 641.633 959.85 641.812C960.21 641.992 960.485 642.232 960.677 642.533C960.868 642.83 960.964 643.16 960.964 643.523H959.88C959.88 643.348 959.827 643.178 959.721 643.014C959.62 642.846 959.47 642.707 959.27 642.598C959.075 642.488 958.835 642.434 958.55 642.434C958.249 642.434 958.005 642.48 957.817 642.574C957.634 642.664 957.499 642.779 957.413 642.92C957.331 643.061 957.29 643.209 957.29 643.365C957.29 643.482 957.309 643.588 957.348 643.682C957.391 643.771 957.466 643.855 957.571 643.934C957.677 644.008 957.825 644.078 958.016 644.145C958.208 644.211 958.452 644.277 958.749 644.344C959.268 644.461 959.696 644.602 960.032 644.766C960.368 644.93 960.618 645.131 960.782 645.369C960.946 645.607 961.028 645.896 961.028 646.236C961.028 646.514 960.97 646.768 960.852 646.998C960.739 647.229 960.573 647.428 960.354 647.596C960.139 647.76 959.882 647.889 959.581 647.982C959.284 648.072 958.95 648.117 958.579 648.117C958.02 648.117 957.548 648.018 957.161 647.818C956.774 647.619 956.481 647.361 956.282 647.045C956.083 646.729 955.983 646.395 955.983 646.043H957.073C957.089 646.34 957.175 646.576 957.331 646.752C957.487 646.924 957.679 647.047 957.905 647.121C958.132 647.191 958.356 647.227 958.579 647.227C958.876 647.227 959.124 647.188 959.323 647.109C959.526 647.031 959.68 646.924 959.786 646.787C959.891 646.65 959.944 646.494 959.944 646.318ZM964.457 646.875L966.086 641.66H966.801L966.661 642.697L965.002 648H964.305L964.457 646.875ZM963.362 641.66L964.75 646.934L964.85 648H964.118L962.278 641.66H963.362ZM968.36 646.893L969.684 641.66H970.762L968.922 648H968.196L968.36 646.893ZM966.959 641.66L968.553 646.787L968.735 648H968.043L966.338 642.686L966.198 641.66H966.959ZM971.988 644.9V644.766C971.988 644.309 972.055 643.885 972.188 643.494C972.32 643.1 972.512 642.758 972.762 642.469C973.012 642.176 973.314 641.949 973.67 641.789C974.025 641.625 974.424 641.543 974.865 641.543C975.311 641.543 975.711 641.625 976.066 641.789C976.426 641.949 976.73 642.176 976.98 642.469C977.234 642.758 977.428 643.1 977.561 643.494C977.693 643.885 977.76 644.309 977.76 644.766V644.9C977.76 645.357 977.693 645.781 977.561 646.172C977.428 646.562 977.234 646.904 976.98 647.197C976.73 647.486 976.428 647.713 976.072 647.877C975.721 648.037 975.322 648.117 974.877 648.117C974.432 648.117 974.031 648.037 973.676 647.877C973.32 647.713 973.016 647.486 972.762 647.197C972.512 646.904 972.32 646.562 972.188 646.172C972.055 645.781 971.988 645.357 971.988 644.9ZM973.072 644.766V644.9C973.072 645.217 973.109 645.516 973.184 645.797C973.258 646.074 973.369 646.32 973.518 646.535C973.67 646.75 973.859 646.92 974.086 647.045C974.312 647.166 974.576 647.227 974.877 647.227C975.174 647.227 975.434 647.166 975.656 647.045C975.883 646.92 976.07 646.75 976.219 646.535C976.367 646.32 976.479 646.074 976.553 645.797C976.631 645.516 976.67 645.217 976.67 644.9V644.766C976.67 644.453 976.631 644.158 976.553 643.881C976.479 643.6 976.365 643.352 976.213 643.137C976.064 642.918 975.877 642.746 975.65 642.621C975.428 642.496 975.166 642.434 974.865 642.434C974.568 642.434 974.307 642.496 974.08 642.621C973.857 642.746 973.67 642.918 973.518 643.137C973.369 643.352 973.258 643.6 973.184 643.881C973.109 644.158 973.072 644.453 973.072 644.766ZM980.603 642.656V648H979.519V641.66H980.574L980.603 642.656ZM982.584 641.625L982.578 642.633C982.488 642.613 982.402 642.602 982.32 642.598C982.242 642.59 982.152 642.586 982.05 642.586C981.8 642.586 981.58 642.625 981.388 642.703C981.197 642.781 981.035 642.891 980.902 643.031C980.769 643.172 980.664 643.34 980.586 643.535C980.511 643.727 980.463 643.938 980.439 644.168L980.134 644.344C980.134 643.961 980.171 643.602 980.246 643.266C980.324 642.93 980.443 642.633 980.603 642.375C980.763 642.113 980.966 641.91 981.213 641.766C981.463 641.617 981.759 641.543 982.103 641.543C982.181 641.543 982.271 641.553 982.373 641.572C982.474 641.588 982.545 641.605 982.584 641.625ZM987.864 646.77V639H988.954V648H987.958L987.864 646.77ZM983.599 644.9V644.777C983.599 644.293 983.657 643.854 983.775 643.459C983.896 643.061 984.066 642.719 984.284 642.434C984.507 642.148 984.771 641.93 985.075 641.777C985.384 641.621 985.728 641.543 986.107 641.543C986.505 641.543 986.853 641.613 987.15 641.754C987.45 641.891 987.704 642.092 987.911 642.357C988.122 642.619 988.288 642.936 988.409 643.307C988.53 643.678 988.614 644.098 988.661 644.566V645.105C988.618 645.57 988.534 645.988 988.409 646.359C988.288 646.73 988.122 647.047 987.911 647.309C987.704 647.57 987.45 647.771 987.15 647.912C986.849 648.049 986.497 648.117 986.095 648.117C985.724 648.117 985.384 648.037 985.075 647.877C984.771 647.717 984.507 647.492 984.284 647.203C984.066 646.914 983.896 646.574 983.775 646.184C983.657 645.789 983.599 645.361 983.599 644.9ZM984.689 644.777V644.9C984.689 645.217 984.72 645.514 984.782 645.791C984.849 646.068 984.95 646.312 985.087 646.523C985.224 646.734 985.398 646.9 985.609 647.021C985.82 647.139 986.071 647.197 986.364 647.197C986.724 647.197 987.019 647.121 987.249 646.969C987.484 646.816 987.671 646.615 987.812 646.365C987.952 646.115 988.062 645.844 988.14 645.551V644.139C988.093 643.924 988.025 643.717 987.935 643.518C987.849 643.314 987.736 643.135 987.595 642.979C987.458 642.818 987.288 642.691 987.085 642.598C986.886 642.504 986.65 642.457 986.376 642.457C986.079 642.457 985.823 642.52 985.609 642.645C985.398 642.766 985.224 642.934 985.087 643.148C984.95 643.359 984.849 643.605 984.782 643.887C984.72 644.164 984.689 644.461 984.689 644.777Z" fill="#49454F"/>
<rect x="796" y="224" width="1091" height="578" rx="49" fill="#D9D9D9"/>
<path d="M932.137 636.654H929.857V635.734H932.137C932.578 635.734 932.936 635.664 933.209 635.523C933.482 635.383 933.682 635.188 933.807 634.938C933.936 634.688 934 634.402 934 634.082C934 633.789 933.936 633.514 933.807 633.256C933.682 632.998 933.482 632.791 933.209 632.635C932.936 632.475 932.578 632.395 932.137 632.395H930.121V640H928.99V631.469H932.137C932.781 631.469 933.326 631.58 933.771 631.803C934.217 632.025 934.555 632.334 934.785 632.729C935.016 633.119 935.131 633.566 935.131 634.07C935.131 634.617 935.016 635.084 934.785 635.471C934.555 635.857 934.217 636.152 933.771 636.355C933.326 636.555 932.781 636.654 932.137 636.654ZM940.464 638.916V635.652C940.464 635.402 940.414 635.186 940.312 635.002C940.214 634.814 940.066 634.67 939.867 634.568C939.668 634.467 939.421 634.416 939.129 634.416C938.855 634.416 938.615 634.463 938.408 634.557C938.205 634.65 938.045 634.773 937.927 634.926C937.814 635.078 937.757 635.242 937.757 635.418H936.673C936.673 635.191 936.732 634.967 936.849 634.744C936.966 634.521 937.134 634.32 937.353 634.141C937.576 633.957 937.841 633.812 938.15 633.707C938.463 633.598 938.81 633.543 939.193 633.543C939.654 633.543 940.06 633.621 940.412 633.777C940.767 633.934 941.045 634.17 941.244 634.486C941.447 634.799 941.548 635.191 941.548 635.664V638.617C941.548 638.828 941.566 639.053 941.601 639.291C941.64 639.529 941.697 639.734 941.771 639.906V640H940.64C940.586 639.875 940.543 639.709 940.511 639.502C940.48 639.291 940.464 639.096 940.464 638.916ZM940.652 636.156L940.664 636.918H939.568C939.259 636.918 938.984 636.943 938.742 636.994C938.5 637.041 938.296 637.113 938.132 637.211C937.968 637.309 937.843 637.432 937.757 637.58C937.671 637.725 937.629 637.895 937.629 638.09C937.629 638.289 937.673 638.471 937.763 638.635C937.853 638.799 937.988 638.93 938.168 639.027C938.351 639.121 938.576 639.168 938.841 639.168C939.173 639.168 939.466 639.098 939.72 638.957C939.974 638.816 940.175 638.645 940.324 638.441C940.476 638.238 940.558 638.041 940.57 637.85L941.033 638.371C941.005 638.535 940.931 638.717 940.81 638.916C940.689 639.115 940.527 639.307 940.324 639.49C940.125 639.67 939.886 639.82 939.609 639.941C939.336 640.059 939.027 640.117 938.683 640.117C938.254 640.117 937.877 640.033 937.552 639.865C937.232 639.697 936.982 639.473 936.802 639.191C936.627 638.906 936.539 638.588 936.539 638.236C936.539 637.896 936.605 637.598 936.738 637.34C936.871 637.078 937.062 636.861 937.312 636.689C937.562 636.514 937.863 636.381 938.214 636.291C938.566 636.201 938.959 636.156 939.392 636.156H940.652ZM947.345 638.318C947.345 638.162 947.31 638.018 947.239 637.885C947.173 637.748 947.034 637.625 946.823 637.516C946.616 637.402 946.304 637.305 945.886 637.223C945.534 637.148 945.216 637.061 944.931 636.959C944.65 636.857 944.409 636.734 944.21 636.59C944.015 636.445 943.864 636.275 943.759 636.08C943.654 635.885 943.601 635.656 943.601 635.395C943.601 635.145 943.655 634.908 943.765 634.686C943.878 634.463 944.036 634.266 944.239 634.094C944.446 633.922 944.695 633.787 944.984 633.689C945.273 633.592 945.595 633.543 945.95 633.543C946.458 633.543 946.892 633.633 947.251 633.812C947.611 633.992 947.886 634.232 948.077 634.533C948.269 634.83 948.364 635.16 948.364 635.523H947.28C947.28 635.348 947.228 635.178 947.122 635.014C947.021 634.846 946.87 634.707 946.671 634.598C946.476 634.488 946.236 634.434 945.95 634.434C945.65 634.434 945.405 634.48 945.218 634.574C945.034 634.664 944.9 634.779 944.814 634.92C944.732 635.061 944.691 635.209 944.691 635.365C944.691 635.482 944.71 635.588 944.749 635.682C944.792 635.771 944.866 635.855 944.972 635.934C945.077 636.008 945.226 636.078 945.417 636.145C945.609 636.211 945.853 636.277 946.15 636.344C946.669 636.461 947.097 636.602 947.433 636.766C947.769 636.93 948.019 637.131 948.183 637.369C948.347 637.607 948.429 637.896 948.429 638.236C948.429 638.514 948.37 638.768 948.253 638.998C948.14 639.229 947.974 639.428 947.755 639.596C947.54 639.76 947.282 639.889 946.982 639.982C946.685 640.072 946.351 640.117 945.98 640.117C945.421 640.117 944.948 640.018 944.562 639.818C944.175 639.619 943.882 639.361 943.683 639.045C943.484 638.729 943.384 638.395 943.384 638.043H944.474C944.489 638.34 944.575 638.576 944.732 638.752C944.888 638.924 945.079 639.047 945.306 639.121C945.532 639.191 945.757 639.227 945.98 639.227C946.277 639.227 946.525 639.188 946.724 639.109C946.927 639.031 947.081 638.924 947.187 638.787C947.292 638.65 947.345 638.494 947.345 638.318ZM953.944 638.318C953.944 638.162 953.909 638.018 953.839 637.885C953.772 637.748 953.634 637.625 953.423 637.516C953.216 637.402 952.903 637.305 952.485 637.223C952.134 637.148 951.815 637.061 951.53 636.959C951.249 636.857 951.009 636.734 950.809 636.59C950.614 636.445 950.464 636.275 950.358 636.08C950.253 635.885 950.2 635.656 950.2 635.395C950.2 635.145 950.255 634.908 950.364 634.686C950.477 634.463 950.636 634.266 950.839 634.094C951.046 633.922 951.294 633.787 951.583 633.689C951.872 633.592 952.194 633.543 952.55 633.543C953.057 633.543 953.491 633.633 953.85 633.812C954.21 633.992 954.485 634.232 954.677 634.533C954.868 634.83 954.964 635.16 954.964 635.523H953.88C953.88 635.348 953.827 635.178 953.721 635.014C953.62 634.846 953.47 634.707 953.27 634.598C953.075 634.488 952.835 634.434 952.55 634.434C952.249 634.434 952.005 634.48 951.817 634.574C951.634 634.664 951.499 634.779 951.413 634.92C951.331 635.061 951.29 635.209 951.29 635.365C951.29 635.482 951.309 635.588 951.348 635.682C951.391 635.771 951.466 635.855 951.571 635.934C951.677 636.008 951.825 636.078 952.016 636.145C952.208 636.211 952.452 636.277 952.749 636.344C953.268 636.461 953.696 636.602 954.032 636.766C954.368 636.93 954.618 637.131 954.782 637.369C954.946 637.607 955.028 637.896 955.028 638.236C955.028 638.514 954.97 638.768 954.852 638.998C954.739 639.229 954.573 639.428 954.354 639.596C954.139 639.76 953.882 639.889 953.581 639.982C953.284 640.072 952.95 640.117 952.579 640.117C952.02 640.117 951.548 640.018 951.161 639.818C950.774 639.619 950.481 639.361 950.282 639.045C950.083 638.729 949.983 638.395 949.983 638.043H951.073C951.089 638.34 951.175 638.576 951.331 638.752C951.487 638.924 951.679 639.047 951.905 639.121C952.132 639.191 952.356 639.227 952.579 639.227C952.876 639.227 953.124 639.188 953.323 639.109C953.526 639.031 953.68 638.924 953.786 638.787C953.891 638.65 953.944 638.494 953.944 638.318ZM958.457 638.875L960.086 633.66H960.801L960.661 634.697L959.002 640H958.305L958.457 638.875ZM957.362 633.66L958.75 638.934L958.85 640H958.118L956.278 633.66H957.362ZM962.36 638.893L963.684 633.66H964.762L962.922 640H962.196L962.36 638.893ZM960.959 633.66L962.553 638.787L962.735 640H962.043L960.338 634.686L960.198 633.66H960.959ZM965.988 636.9V636.766C965.988 636.309 966.055 635.885 966.188 635.494C966.32 635.1 966.512 634.758 966.762 634.469C967.012 634.176 967.314 633.949 967.67 633.789C968.025 633.625 968.424 633.543 968.865 633.543C969.311 633.543 969.711 633.625 970.066 633.789C970.426 633.949 970.73 634.176 970.98 634.469C971.234 634.758 971.428 635.1 971.561 635.494C971.693 635.885 971.76 636.309 971.76 636.766V636.9C971.76 637.357 971.693 637.781 971.561 638.172C971.428 638.562 971.234 638.904 970.98 639.197C970.73 639.486 970.428 639.713 970.072 639.877C969.721 640.037 969.322 640.117 968.877 640.117C968.432 640.117 968.031 640.037 967.676 639.877C967.32 639.713 967.016 639.486 966.762 639.197C966.512 638.904 966.32 638.562 966.188 638.172C966.055 637.781 965.988 637.357 965.988 636.9ZM967.072 636.766V636.9C967.072 637.217 967.109 637.516 967.184 637.797C967.258 638.074 967.369 638.32 967.518 638.535C967.67 638.75 967.859 638.92 968.086 639.045C968.312 639.166 968.576 639.227 968.877 639.227C969.174 639.227 969.434 639.166 969.656 639.045C969.883 638.92 970.07 638.75 970.219 638.535C970.367 638.32 970.479 638.074 970.553 637.797C970.631 637.516 970.67 637.217 970.67 636.9V636.766C970.67 636.453 970.631 636.158 970.553 635.881C970.479 635.6 970.365 635.352 970.213 635.137C970.064 634.918 969.877 634.746 969.65 634.621C969.428 634.496 969.166 634.434 968.865 634.434C968.568 634.434 968.307 634.496 968.08 634.621C967.857 634.746 967.67 634.918 967.518 635.137C967.369 635.352 967.258 635.6 967.184 635.881C967.109 636.158 967.072 636.453 967.072 636.766ZM974.603 634.656V640H973.519V633.66H974.574L974.603 634.656ZM976.584 633.625L976.578 634.633C976.488 634.613 976.402 634.602 976.32 634.598C976.242 634.59 976.152 634.586 976.05 634.586C975.8 634.586 975.58 634.625 975.388 634.703C975.197 634.781 975.035 634.891 974.902 635.031C974.769 635.172 974.664 635.34 974.586 635.535C974.511 635.727 974.463 635.938 974.439 636.168L974.134 636.344C974.134 635.961 974.171 635.602 974.246 635.266C974.324 634.93 974.443 634.633 974.603 634.375C974.763 634.113 974.966 633.91 975.213 633.766C975.463 633.617 975.759 633.543 976.103 633.543C976.181 633.543 976.271 633.553 976.373 633.572C976.474 633.588 976.545 633.605 976.584 633.625ZM981.864 638.77V631H982.954V640H981.958L981.864 638.77ZM977.599 636.9V636.777C977.599 636.293 977.657 635.854 977.775 635.459C977.896 635.061 978.066 634.719 978.284 634.434C978.507 634.148 978.771 633.93 979.075 633.777C979.384 633.621 979.728 633.543 980.107 633.543C980.505 633.543 980.853 633.613 981.15 633.754C981.45 633.891 981.704 634.092 981.911 634.357C982.122 634.619 982.288 634.936 982.409 635.307C982.53 635.678 982.614 636.098 982.661 636.566V637.105C982.618 637.57 982.534 637.988 982.409 638.359C982.288 638.73 982.122 639.047 981.911 639.309C981.704 639.57 981.45 639.771 981.15 639.912C980.849 640.049 980.497 640.117 980.095 640.117C979.724 640.117 979.384 640.037 979.075 639.877C978.771 639.717 978.507 639.492 978.284 639.203C978.066 638.914 977.896 638.574 977.775 638.184C977.657 637.789 977.599 637.361 977.599 636.9ZM978.689 636.777V636.9C978.689 637.217 978.72 637.514 978.782 637.791C978.849 638.068 978.95 638.312 979.087 638.523C979.224 638.734 979.398 638.9 979.609 639.021C979.82 639.139 980.071 639.197 980.364 639.197C980.724 639.197 981.019 639.121 981.249 638.969C981.484 638.816 981.671 638.615 981.812 638.365C981.952 638.115 982.062 637.844 982.14 637.551V636.139C982.093 635.924 982.025 635.717 981.935 635.518C981.849 635.314 981.736 635.135 981.595 634.979C981.458 634.818 981.288 634.691 981.085 634.598C980.886 634.504 980.65 634.457 980.376 634.457C980.079 634.457 979.823 634.52 979.609 634.645C979.398 634.766 979.224 634.934 979.087 635.148C978.95 635.359 978.849 635.605 978.782 635.887C978.72 636.164 978.689 636.461 978.689 636.777Z" fill="#49454F"/>
<path d="M981.636 339V292.455H997.909C1001.15 292.455 1003.83 293.015 1005.93 294.136C1008.04 295.242 1009.61 296.735 1010.64 298.614C1011.67 300.477 1012.18 302.545 1012.18 304.818C1012.18 306.818 1011.83 308.47 1011.11 309.773C1010.42 311.076 1009.49 312.106 1008.34 312.864C1007.2 313.621 1005.97 314.182 1004.64 314.545V315C1006.06 315.091 1007.49 315.591 1008.93 316.5C1010.37 317.409 1011.58 318.712 1012.55 320.409C1013.52 322.106 1014 324.182 1014 326.636C1014 328.97 1013.47 331.068 1012.41 332.932C1011.35 334.795 1009.67 336.273 1007.39 337.364C1005.1 338.455 1002.12 339 998.455 339H981.636ZM987.273 334H998.455C1002.14 334 1004.75 333.288 1006.3 331.864C1007.86 330.424 1008.64 328.682 1008.64 326.636C1008.64 325.061 1008.23 323.606 1007.43 322.273C1006.63 320.924 1005.48 319.848 1004 319.045C1002.52 318.227 1000.76 317.818 998.727 317.818H987.273V334ZM987.273 312.909H997.727C999.424 312.909 1000.95 312.576 1002.32 311.909C1003.7 311.242 1004.79 310.303 1005.59 309.091C1006.41 307.879 1006.82 306.455 1006.82 304.818C1006.82 302.773 1006.11 301.038 1004.68 299.614C1003.26 298.174 1001 297.455 997.909 297.455H987.273V312.909ZM1026.53 304.091L1034.9 318.364L1043.26 304.091H1049.44L1038.17 321.545L1049.44 339H1043.26L1034.9 325.455L1026.53 339H1020.35L1031.44 321.545L1020.35 304.091H1026.53ZM1069.84 339.727C1066.69 339.727 1063.92 338.977 1061.55 337.477C1059.18 335.977 1057.33 333.879 1056 331.182C1054.68 328.485 1054.02 325.333 1054.02 321.727C1054.02 318.091 1054.68 314.917 1056 312.205C1057.33 309.492 1059.18 307.386 1061.55 305.886C1063.92 304.386 1066.69 303.636 1069.84 303.636C1072.99 303.636 1075.75 304.386 1078.11 305.886C1080.49 307.386 1082.34 309.492 1083.66 312.205C1084.99 314.917 1085.66 318.091 1085.66 321.727C1085.66 325.333 1084.99 328.485 1083.66 331.182C1082.34 333.879 1080.49 335.977 1078.11 337.477C1075.75 338.977 1072.99 339.727 1069.84 339.727ZM1069.84 334.909C1072.23 334.909 1074.2 334.295 1075.75 333.068C1077.3 331.841 1078.44 330.227 1079.18 328.227C1079.92 326.227 1080.3 324.061 1080.3 321.727C1080.3 319.394 1079.92 317.22 1079.18 315.205C1078.44 313.189 1077.3 311.561 1075.75 310.318C1074.2 309.076 1072.23 308.455 1069.84 308.455C1067.45 308.455 1065.48 309.076 1063.93 310.318C1062.39 311.561 1061.24 313.189 1060.5 315.205C1059.76 317.22 1059.39 319.394 1059.39 321.727C1059.39 324.061 1059.76 326.227 1060.5 328.227C1061.24 330.227 1062.39 331.841 1063.93 333.068C1065.48 334.295 1067.45 334.909 1069.84 334.909ZM1090.12 349V334H1093.03C1093.74 333.258 1094.35 332.455 1094.87 331.591C1095.38 330.727 1095.83 329.705 1096.21 328.523C1096.6 327.326 1096.94 325.871 1097.21 324.159C1097.48 322.432 1097.73 320.348 1097.94 317.909L1099.12 304.091H1121.3V334H1126.66V349H1121.3V339H1095.48V349H1090.12ZM1099.12 334H1115.94V309.091H1104.12L1103.21 317.909C1102.83 321.561 1102.36 324.75 1101.8 327.477C1101.24 330.205 1100.35 332.379 1099.12 334ZM1151.78 339V304.091H1157.15V319.273H1160.69L1173.24 304.091H1180.15L1166.06 320.909L1180.33 339H1173.42L1161.97 324.273H1157.15V339H1151.78ZM1196.43 339.818C1194.22 339.818 1192.21 339.402 1190.41 338.568C1188.61 337.72 1187.17 336.5 1186.11 334.909C1185.05 333.303 1184.52 331.364 1184.52 329.091C1184.52 327.091 1184.92 325.47 1185.7 324.227C1186.49 322.97 1187.55 321.985 1188.86 321.273C1190.18 320.561 1191.64 320.03 1193.23 319.682C1194.83 319.318 1196.45 319.03 1198.07 318.818C1200.19 318.545 1201.91 318.341 1203.23 318.205C1204.56 318.053 1205.53 317.803 1206.14 317.455C1206.76 317.106 1207.07 316.5 1207.07 315.636V315.455C1207.07 313.212 1206.45 311.47 1205.23 310.227C1204.02 308.985 1202.17 308.364 1199.7 308.364C1197.14 308.364 1195.14 308.924 1193.68 310.045C1192.23 311.167 1191.2 312.364 1190.61 313.636L1185.52 311.818C1186.43 309.697 1187.64 308.045 1189.16 306.864C1190.69 305.667 1192.36 304.833 1194.16 304.364C1195.98 303.879 1197.77 303.636 1199.52 303.636C1200.64 303.636 1201.93 303.773 1203.39 304.045C1204.86 304.303 1206.27 304.841 1207.64 305.659C1209.02 306.477 1210.16 307.712 1211.07 309.364C1211.98 311.015 1212.43 313.227 1212.43 316V339H1207.07V334.273H1206.8C1206.43 335.03 1205.83 335.841 1204.98 336.705C1204.13 337.568 1203 338.303 1201.59 338.909C1200.18 339.515 1198.46 339.818 1196.43 339.818ZM1197.25 335C1199.37 335 1201.16 334.583 1202.61 333.75C1204.08 332.917 1205.19 331.841 1205.93 330.523C1206.69 329.205 1207.07 327.818 1207.07 326.364V321.455C1206.84 321.727 1206.34 321.977 1205.57 322.205C1204.81 322.417 1203.93 322.606 1202.93 322.773C1201.95 322.924 1200.98 323.061 1200.05 323.182C1199.12 323.288 1198.37 323.379 1197.8 323.455C1196.4 323.636 1195.1 323.932 1193.89 324.341C1192.69 324.735 1191.72 325.333 1190.98 326.136C1190.25 326.924 1189.89 328 1189.89 329.364C1189.89 331.227 1190.58 332.636 1191.95 333.591C1193.35 334.53 1195.11 335 1197.25 335ZM1222.22 339V304.091H1227.59V319.273H1231.13L1243.68 304.091H1250.59L1236.49 320.909L1250.77 339H1243.86L1232.4 324.273H1227.59V339H1222.22ZM1284.87 339.818C1282.66 339.818 1280.65 339.402 1278.85 338.568C1277.04 337.72 1275.61 336.5 1274.55 334.909C1273.49 333.303 1272.96 331.364 1272.96 329.091C1272.96 327.091 1273.35 325.47 1274.14 324.227C1274.93 322.97 1275.98 321.985 1277.3 321.273C1278.62 320.561 1280.07 320.03 1281.66 319.682C1283.27 319.318 1284.88 319.03 1286.51 318.818C1288.63 318.545 1290.35 318.341 1291.66 318.205C1293 318.053 1293.97 317.803 1294.57 317.455C1295.2 317.106 1295.51 316.5 1295.51 315.636V315.455C1295.51 313.212 1294.89 311.47 1293.66 310.227C1292.45 308.985 1290.61 308.364 1288.14 308.364C1285.58 308.364 1283.57 308.924 1282.12 310.045C1280.66 311.167 1279.64 312.364 1279.05 313.636L1273.96 311.818C1274.87 309.697 1276.08 308.045 1277.6 306.864C1279.13 305.667 1280.79 304.833 1282.6 304.364C1284.41 303.879 1286.2 303.636 1287.96 303.636C1289.08 303.636 1290.37 303.773 1291.82 304.045C1293.29 304.303 1294.71 304.841 1296.07 305.659C1297.45 306.477 1298.6 307.712 1299.51 309.364C1300.41 311.015 1300.87 313.227 1300.87 316V339H1295.51V334.273H1295.23C1294.87 335.03 1294.26 335.841 1293.41 336.705C1292.57 337.568 1291.44 338.303 1290.03 338.909C1288.62 339.515 1286.9 339.818 1284.87 339.818ZM1285.69 335C1287.81 335 1289.6 334.583 1291.05 333.75C1292.52 332.917 1293.63 331.841 1294.37 330.523C1295.13 329.205 1295.51 327.818 1295.51 326.364V321.455C1295.28 321.727 1294.78 321.977 1294.01 322.205C1293.25 322.417 1292.37 322.606 1291.37 322.773C1290.38 322.924 1289.42 323.061 1288.48 323.182C1287.56 323.288 1286.81 323.379 1286.23 323.455C1284.84 323.636 1283.54 323.932 1282.32 324.341C1281.13 324.735 1280.16 325.333 1279.41 326.136C1278.69 326.924 1278.32 328 1278.32 329.364C1278.32 331.227 1279.01 332.636 1280.39 333.591C1281.79 334.53 1283.55 335 1285.69 335ZM1306.93 349V334H1309.84C1310.55 333.258 1311.17 332.455 1311.68 331.591C1312.2 330.727 1312.64 329.705 1313.02 328.523C1313.42 327.326 1313.75 325.871 1314.02 324.159C1314.3 322.432 1314.54 320.348 1314.75 317.909L1315.93 304.091H1338.11V334H1343.48V349H1338.11V339H1312.3V349H1306.93ZM1315.93 334H1332.75V309.091H1320.93L1320.02 317.909C1319.64 321.561 1319.17 324.75 1318.61 327.477C1318.05 330.205 1317.16 332.379 1315.93 334ZM1369.69 331.727L1381.87 304.091H1386.96L1371.87 339H1367.51L1352.69 304.091H1357.69L1369.69 331.727ZM1355.96 304.091V339H1350.6V304.091H1355.96ZM1383.41 339V304.091H1388.78V339H1383.41ZM1403.96 331.091L1420.78 304.091H1426.96V339H1421.6V312L1404.87 339H1398.6V304.091H1403.96V331.091ZM1460.15 319.091V324.091H1440.88V319.091H1460.15ZM1442.15 304.091V339H1436.78V304.091H1442.15ZM1464.24 304.091V339H1458.88V304.091H1464.24ZM1479.4 331.091L1496.22 304.091H1502.4V339H1497.03V312L1480.31 339H1474.03V304.091H1479.4V331.091ZM1526.4 339.727C1523.13 339.727 1520.31 338.955 1517.95 337.409C1515.59 335.864 1513.77 333.735 1512.49 331.023C1511.22 328.311 1510.59 325.212 1510.59 321.727C1510.59 318.182 1511.24 315.053 1512.54 312.341C1513.86 309.614 1515.69 307.485 1518.04 305.955C1520.4 304.409 1523.16 303.636 1526.31 303.636C1528.77 303.636 1530.98 304.091 1532.95 305C1534.92 305.909 1536.53 307.182 1537.79 308.818C1539.05 310.455 1539.83 312.364 1540.13 314.545H1534.77C1534.36 312.955 1533.45 311.545 1532.04 310.318C1530.65 309.076 1528.77 308.455 1526.4 308.455C1524.31 308.455 1522.48 309 1520.9 310.091C1519.34 311.167 1518.12 312.689 1517.24 314.659C1516.38 316.614 1515.95 318.909 1515.95 321.545C1515.95 324.242 1516.37 326.591 1517.22 328.591C1518.09 330.591 1519.3 332.144 1520.86 333.25C1522.43 334.356 1524.28 334.909 1526.4 334.909C1527.8 334.909 1529.06 334.667 1530.2 334.182C1531.34 333.697 1532.3 333 1533.09 332.091C1533.87 331.182 1534.43 330.091 1534.77 328.818H1540.13C1539.83 330.879 1539.08 332.735 1537.88 334.386C1536.7 336.023 1535.13 337.326 1533.18 338.295C1531.24 339.25 1528.98 339.727 1526.4 339.727ZM1545.22 309.091V304.091H1573.59V309.091H1562.13V339H1556.77V309.091H1545.22ZM1581.41 352.091V304.091H1586.59V309.636H1587.23C1587.62 309.03 1588.17 308.258 1588.86 307.318C1589.58 306.364 1590.59 305.515 1591.91 304.773C1593.24 304.015 1595.05 303.636 1597.32 303.636C1600.26 303.636 1602.85 304.371 1605.09 305.841C1607.33 307.311 1609.08 309.394 1610.34 312.091C1611.6 314.788 1612.23 317.97 1612.23 321.636C1612.23 325.333 1611.6 328.538 1610.34 331.25C1609.08 333.947 1607.34 336.038 1605.11 337.523C1602.89 338.992 1600.32 339.727 1597.41 339.727C1595.17 339.727 1593.37 339.356 1592.02 338.614C1590.67 337.856 1589.64 337 1588.91 336.045C1588.18 335.076 1587.62 334.273 1587.23 333.636H1586.77V352.091H1581.41ZM1586.68 321.545C1586.68 324.182 1587.07 326.508 1587.84 328.523C1588.61 330.523 1589.74 332.091 1591.23 333.227C1592.71 334.348 1594.53 334.909 1596.68 334.909C1598.92 334.909 1600.8 334.318 1602.3 333.136C1603.81 331.939 1604.95 330.333 1605.7 328.318C1606.48 326.288 1606.86 324.03 1606.86 321.545C1606.86 319.091 1606.48 316.879 1605.73 314.909C1604.98 312.924 1603.86 311.356 1602.34 310.205C1600.84 309.038 1598.95 308.455 1596.68 308.455C1594.5 308.455 1592.67 309.008 1591.18 310.114C1589.7 311.205 1588.58 312.735 1587.82 314.705C1587.06 316.659 1586.68 318.939 1586.68 321.545ZM1630.68 339.818C1628.47 339.818 1626.46 339.402 1624.66 338.568C1622.86 337.72 1621.42 336.5 1620.36 334.909C1619.3 333.303 1618.77 331.364 1618.77 329.091C1618.77 327.091 1619.17 325.47 1619.95 324.227C1620.74 322.97 1621.8 321.985 1623.11 321.273C1624.43 320.561 1625.89 320.03 1627.48 319.682C1629.08 319.318 1630.7 319.03 1632.32 318.818C1634.44 318.545 1636.16 318.341 1637.48 318.205C1638.81 318.053 1639.78 317.803 1640.39 317.455C1641.01 317.106 1641.32 316.5 1641.32 315.636V315.455C1641.32 313.212 1640.7 311.47 1639.48 310.227C1638.27 308.985 1636.42 308.364 1633.95 308.364C1631.39 308.364 1629.39 308.924 1627.93 310.045C1626.48 311.167 1625.45 312.364 1624.86 313.636L1619.77 311.818C1620.68 309.697 1621.89 308.045 1623.41 306.864C1624.94 305.667 1626.61 304.833 1628.41 304.364C1630.23 303.879 1632.02 303.636 1633.77 303.636C1634.89 303.636 1636.18 303.773 1637.64 304.045C1639.11 304.303 1640.52 304.841 1641.89 305.659C1643.27 306.477 1644.41 307.712 1645.32 309.364C1646.23 311.015 1646.68 313.227 1646.68 316V339H1641.32V334.273H1641.05C1640.68 335.03 1640.08 335.841 1639.23 336.705C1638.38 337.568 1637.25 338.303 1635.84 338.909C1634.43 339.515 1632.71 339.818 1630.68 339.818ZM1631.5 335C1633.62 335 1635.41 334.583 1636.86 333.75C1638.33 332.917 1639.44 331.841 1640.18 330.523C1640.94 329.205 1641.32 327.818 1641.32 326.364V321.455C1641.09 321.727 1640.59 321.977 1639.82 322.205C1639.06 322.417 1638.18 322.606 1637.18 322.773C1636.2 322.924 1635.23 323.061 1634.3 323.182C1633.37 323.288 1632.62 323.379 1632.05 323.455C1630.65 323.636 1629.35 323.932 1628.14 324.341C1626.94 324.735 1625.97 325.333 1625.23 326.136C1624.5 326.924 1624.14 328 1624.14 329.364C1624.14 331.227 1624.83 332.636 1626.2 333.591C1627.6 334.53 1629.36 335 1631.5 335ZM1651.72 309.091V304.091H1680.09V309.091H1668.63V339H1663.27V309.091H1651.72ZM1700.28 339.727C1697.13 339.727 1694.36 338.977 1691.98 337.477C1689.62 335.977 1687.77 333.879 1686.44 331.182C1685.12 328.485 1684.46 325.333 1684.46 321.727C1684.46 318.091 1685.12 314.917 1686.44 312.205C1687.77 309.492 1689.62 307.386 1691.98 305.886C1694.36 304.386 1697.13 303.636 1700.28 303.636C1703.43 303.636 1706.19 304.386 1708.55 305.886C1710.93 307.386 1712.78 309.492 1714.1 312.205C1715.43 314.917 1716.1 318.091 1716.1 321.727C1716.1 325.333 1715.43 328.485 1714.1 331.182C1712.78 333.879 1710.93 335.977 1708.55 337.477C1706.19 338.977 1703.43 339.727 1700.28 339.727ZM1700.28 334.909C1702.67 334.909 1704.64 334.295 1706.19 333.068C1707.73 331.841 1708.88 330.227 1709.62 328.227C1710.36 326.227 1710.73 324.061 1710.73 321.727C1710.73 319.394 1710.36 317.22 1709.62 315.205C1708.88 313.189 1707.73 311.561 1706.19 310.318C1704.64 309.076 1702.67 308.455 1700.28 308.455C1697.88 308.455 1695.91 309.076 1694.37 310.318C1692.82 311.561 1691.68 313.189 1690.94 315.205C1690.2 317.22 1689.82 319.394 1689.82 321.727C1689.82 324.061 1690.2 326.227 1690.94 328.227C1691.68 330.227 1692.82 331.841 1694.37 333.068C1695.91 334.295 1697.88 334.909 1700.28 334.909ZM1724.28 352.091V304.091H1729.47V309.636H1730.1C1730.5 309.03 1731.04 308.258 1731.74 307.318C1732.45 306.364 1733.47 305.515 1734.78 304.773C1736.12 304.015 1737.92 303.636 1740.19 303.636C1743.13 303.636 1745.72 304.371 1747.97 305.841C1750.21 307.311 1751.96 309.394 1753.22 312.091C1754.47 314.788 1755.1 317.97 1755.1 321.636C1755.1 325.333 1754.47 328.538 1753.22 331.25C1751.96 333.947 1750.22 336.038 1747.99 337.523C1745.76 338.992 1743.19 339.727 1740.28 339.727C1738.04 339.727 1736.25 339.356 1734.9 338.614C1733.55 337.856 1732.51 337 1731.78 336.045C1731.06 335.076 1730.5 334.273 1730.1 333.636H1729.65V352.091H1724.28ZM1729.56 321.545C1729.56 324.182 1729.94 326.508 1730.72 328.523C1731.49 330.523 1732.62 332.091 1734.1 333.227C1735.59 334.348 1737.41 334.909 1739.56 334.909C1741.8 334.909 1743.67 334.318 1745.17 333.136C1746.69 331.939 1747.82 330.333 1748.58 328.318C1749.35 326.288 1749.74 324.03 1749.74 321.545C1749.74 319.091 1749.36 316.879 1748.6 314.909C1747.86 312.924 1746.73 311.356 1745.22 310.205C1743.72 309.038 1741.83 308.455 1739.56 308.455C1737.38 308.455 1735.54 309.008 1734.06 310.114C1732.57 311.205 1731.45 312.735 1730.69 314.705C1729.94 316.659 1729.56 318.939 1729.56 321.545Z" fill="black"/>
<mask id="path-5-inside-1_4_3042" fill="white">
<path d="M929 721C929 716.582 932.582 713 937 713H984C988.418 713 992 716.582 992 721V745C992 749.418 988.418 753 984 753H937C932.582 753 929 749.418 929 745V721Z"/>
</mask>
<path d="M929 721C929 716.582 932.582 713 937 713H984C988.418 713 992 716.582 992 721V745C992 749.418 988.418 753 984 753H937C932.582 753 929 749.418 929 745V721Z" fill="#2C2C2C"/>
<path d="M937 713V714H984V713V712H937V713ZM992 721H991V745H992H993V721H992ZM984 753V752H937V753V754H984V753ZM929 745H930V721H929H928V745H929ZM937 753V752C933.134 752 930 748.866 930 745H929H928C928 749.971 932.029 754 937 754V753ZM992 745H991C991 748.866 987.866 752 984 752V753V754C988.971 754 993 749.971 993 745H992ZM984 713V714C987.866 714 991 717.134 991 721H992H993C993 716.029 988.971 712 984 712V713ZM937 713V712C932.029 712 928 716.029 928 721H929H930C930 717.134 933.134 714 937 714V713Z" fill="#2C2C2C" mask="url(#path-5-inside-1_4_3042)"/>
<path d="M942.409 739V727.364H946.477C947.288 727.364 947.956 727.504 948.483 727.784C949.009 728.061 949.402 728.434 949.659 728.903C949.917 729.369 950.045 729.886 950.045 730.455C950.045 730.955 949.956 731.367 949.778 731.693C949.604 732.019 949.373 732.277 949.085 732.466C948.801 732.655 948.492 732.795 948.159 732.886V733C948.515 733.023 948.873 733.148 949.233 733.375C949.593 733.602 949.894 733.928 950.136 734.352C950.379 734.777 950.5 735.295 950.5 735.909C950.5 736.492 950.367 737.017 950.102 737.483C949.837 737.949 949.419 738.318 948.847 738.591C948.275 738.864 947.53 739 946.614 739H942.409ZM943.818 737.75H946.614C947.534 737.75 948.188 737.572 948.574 737.216C948.964 736.856 949.159 736.42 949.159 735.909C949.159 735.515 949.059 735.152 948.858 734.818C948.657 734.481 948.371 734.212 948 734.011C947.629 733.807 947.189 733.705 946.682 733.705H943.818V737.75ZM943.818 732.477H946.432C946.856 732.477 947.239 732.394 947.58 732.227C947.924 732.061 948.197 731.826 948.398 731.523C948.602 731.22 948.705 730.864 948.705 730.455C948.705 729.943 948.527 729.509 948.17 729.153C947.814 728.794 947.25 728.614 946.477 728.614H943.818V732.477ZM953.634 730.273L955.724 733.841L957.815 730.273H959.361L956.543 734.636L959.361 739H957.815L955.724 735.614L953.634 739H952.088L954.861 734.636L952.088 730.273H953.634ZM964.46 739.182C963.672 739.182 962.981 738.994 962.386 738.619C961.795 738.244 961.333 737.72 961 737.045C960.67 736.371 960.506 735.583 960.506 734.682C960.506 733.773 960.67 732.979 961 732.301C961.333 731.623 961.795 731.097 962.386 730.722C962.981 730.347 963.672 730.159 964.46 730.159C965.248 730.159 965.938 730.347 966.528 730.722C967.123 731.097 967.585 731.623 967.915 732.301C968.248 732.979 968.415 733.773 968.415 734.682C968.415 735.583 968.248 736.371 967.915 737.045C967.585 737.72 967.123 738.244 966.528 738.619C965.938 738.994 965.248 739.182 964.46 739.182ZM964.46 737.977C965.059 737.977 965.551 737.824 965.938 737.517C966.324 737.21 966.61 736.807 966.795 736.307C966.981 735.807 967.074 735.265 967.074 734.682C967.074 734.098 966.981 733.555 966.795 733.051C966.61 732.547 966.324 732.14 965.938 731.83C965.551 731.519 965.059 731.364 964.46 731.364C963.862 731.364 963.369 731.519 962.983 731.83C962.597 732.14 962.311 732.547 962.125 733.051C961.939 733.555 961.847 734.098 961.847 734.682C961.847 735.265 961.939 735.807 962.125 736.307C962.311 736.807 962.597 737.21 962.983 737.517C963.369 737.824 963.862 737.977 964.46 737.977ZM969.53 741.5V737.75H970.257C970.435 737.564 970.589 737.364 970.717 737.148C970.846 736.932 970.958 736.676 971.053 736.381C971.151 736.081 971.234 735.718 971.303 735.29C971.371 734.858 971.431 734.337 971.484 733.727L971.78 730.273H977.325V737.75H978.666V741.5H977.325V739H970.871V741.5H969.53ZM971.78 737.75H975.984V731.523H973.03L972.803 733.727C972.708 734.64 972.59 735.437 972.45 736.119C972.31 736.801 972.087 737.345 971.78 737.75Z" fill="#F5F5F5"/>
<path d="M930 441C930 438.791 931.791 437 934 437H1785C1787.21 437 1789 438.791 1789 441V496H930V441Z" fill="#E6E0E9"/>
<path d="M951.531 467.633L947.766 478H946.227L950.562 466.625H951.555L951.531 467.633ZM954.688 478L950.914 467.633L950.891 466.625H951.883L956.234 478H954.688ZM954.492 473.789V475.023H948.102V473.789H954.492ZM963.367 476.359V466H964.82V478H963.492L963.367 476.359ZM957.68 473.867V473.703C957.68 473.057 957.758 472.471 957.914 471.945C958.076 471.414 958.302 470.958 958.594 470.578C958.891 470.198 959.242 469.906 959.648 469.703C960.06 469.495 960.518 469.391 961.023 469.391C961.555 469.391 962.018 469.484 962.414 469.672C962.815 469.854 963.154 470.122 963.43 470.477C963.711 470.826 963.932 471.247 964.094 471.742C964.255 472.237 964.367 472.797 964.43 473.422V474.141C964.372 474.76 964.26 475.318 964.094 475.812C963.932 476.307 963.711 476.729 963.43 477.078C963.154 477.427 962.815 477.695 962.414 477.883C962.013 478.065 961.544 478.156 961.008 478.156C960.513 478.156 960.06 478.049 959.648 477.836C959.242 477.622 958.891 477.323 958.594 476.938C958.302 476.552 958.076 476.099 957.914 475.578C957.758 475.052 957.68 474.482 957.68 473.867ZM959.133 473.703V473.867C959.133 474.289 959.174 474.685 959.258 475.055C959.346 475.424 959.482 475.75 959.664 476.031C959.846 476.312 960.078 476.534 960.359 476.695C960.641 476.852 960.977 476.93 961.367 476.93C961.846 476.93 962.24 476.828 962.547 476.625C962.859 476.422 963.109 476.154 963.297 475.82C963.484 475.487 963.63 475.125 963.734 474.734V472.852C963.672 472.565 963.581 472.289 963.461 472.023C963.346 471.753 963.195 471.513 963.008 471.305C962.826 471.091 962.599 470.922 962.328 470.797C962.062 470.672 961.747 470.609 961.383 470.609C960.987 470.609 960.646 470.693 960.359 470.859C960.078 471.021 959.846 471.245 959.664 471.531C959.482 471.812 959.346 472.141 959.258 472.516C959.174 472.885 959.133 473.281 959.133 473.703ZM969.008 471.227V478H967.555V469.547H968.93L969.008 471.227ZM968.711 473.453L968.039 473.43C968.044 472.852 968.12 472.318 968.266 471.828C968.411 471.333 968.628 470.904 968.914 470.539C969.201 470.174 969.557 469.893 969.984 469.695C970.411 469.492 970.906 469.391 971.469 469.391C971.865 469.391 972.229 469.448 972.562 469.562C972.896 469.672 973.185 469.846 973.43 470.086C973.674 470.326 973.865 470.633 974 471.008C974.135 471.383 974.203 471.836 974.203 472.367V478H972.758V472.438C972.758 471.995 972.682 471.641 972.531 471.375C972.385 471.109 972.177 470.917 971.906 470.797C971.635 470.672 971.318 470.609 970.953 470.609C970.526 470.609 970.169 470.685 969.883 470.836C969.596 470.987 969.367 471.195 969.195 471.461C969.023 471.727 968.898 472.031 968.82 472.375C968.747 472.714 968.711 473.073 968.711 473.453ZM974.188 472.656L973.219 472.953C973.224 472.49 973.299 472.044 973.445 471.617C973.596 471.19 973.812 470.81 974.094 470.477C974.38 470.143 974.732 469.88 975.148 469.688C975.565 469.49 976.042 469.391 976.578 469.391C977.031 469.391 977.432 469.451 977.781 469.57C978.135 469.69 978.432 469.875 978.672 470.125C978.917 470.37 979.102 470.685 979.227 471.07C979.352 471.456 979.414 471.914 979.414 472.445V478H977.961V472.43C977.961 471.956 977.885 471.589 977.734 471.328C977.589 471.062 977.38 470.878 977.109 470.773C976.844 470.664 976.526 470.609 976.156 470.609C975.839 470.609 975.557 470.664 975.312 470.773C975.068 470.883 974.862 471.034 974.695 471.227C974.529 471.414 974.401 471.63 974.312 471.875C974.229 472.12 974.188 472.38 974.188 472.656ZM983.672 469.547V478H982.219V469.547H983.672ZM982.109 467.305C982.109 467.07 982.18 466.872 982.32 466.711C982.466 466.549 982.68 466.469 982.961 466.469C983.237 466.469 983.448 466.549 983.594 466.711C983.745 466.872 983.82 467.07 983.82 467.305C983.82 467.529 983.745 467.721 983.594 467.883C983.448 468.039 983.237 468.117 982.961 468.117C982.68 468.117 982.466 468.039 982.32 467.883C982.18 467.721 982.109 467.529 982.109 467.305ZM987.938 471.352V478H986.492V469.547H987.859L987.938 471.352ZM987.594 473.453L986.992 473.43C986.997 472.852 987.083 472.318 987.25 471.828C987.417 471.333 987.651 470.904 987.953 470.539C988.255 470.174 988.615 469.893 989.031 469.695C989.453 469.492 989.919 469.391 990.43 469.391C990.846 469.391 991.221 469.448 991.555 469.562C991.888 469.672 992.172 469.849 992.406 470.094C992.646 470.339 992.828 470.656 992.953 471.047C993.078 471.432 993.141 471.904 993.141 472.461V478H991.688V472.445C991.688 472.003 991.622 471.648 991.492 471.383C991.362 471.112 991.172 470.917 990.922 470.797C990.672 470.672 990.365 470.609 990 470.609C989.641 470.609 989.312 470.685 989.016 470.836C988.724 470.987 988.471 471.195 988.258 471.461C988.049 471.727 987.885 472.031 987.766 472.375C987.651 472.714 987.594 473.073 987.594 473.453Z" fill="#1D1B20"/>
<line x1="930" y1="495.5" x2="1789" y2="495.5" stroke="#49454F"/>
<path d="M952.164 511.08V512H947.898V511.08H952.164ZM948.121 503.469V512H946.99V503.469H948.121ZM953.408 508.9V508.766C953.408 508.309 953.474 507.885 953.607 507.494C953.74 507.1 953.931 506.758 954.181 506.469C954.431 506.176 954.734 505.949 955.089 505.789C955.445 505.625 955.843 505.543 956.285 505.543C956.73 505.543 957.13 505.625 957.486 505.789C957.845 505.949 958.15 506.176 958.4 506.469C958.654 506.758 958.847 507.1 958.98 507.494C959.113 507.885 959.179 508.309 959.179 508.766V508.9C959.179 509.357 959.113 509.781 958.98 510.172C958.847 510.562 958.654 510.904 958.4 511.197C958.15 511.486 957.847 511.713 957.492 511.877C957.14 512.037 956.742 512.117 956.296 512.117C955.851 512.117 955.451 512.037 955.095 511.877C954.74 511.713 954.435 511.486 954.181 511.197C953.931 510.904 953.74 510.562 953.607 510.172C953.474 509.781 953.408 509.357 953.408 508.9ZM954.492 508.766V508.9C954.492 509.217 954.529 509.516 954.603 509.797C954.677 510.074 954.789 510.32 954.937 510.535C955.089 510.75 955.279 510.92 955.505 511.045C955.732 511.166 955.996 511.227 956.296 511.227C956.593 511.227 956.853 511.166 957.076 511.045C957.302 510.92 957.49 510.75 957.638 510.535C957.787 510.32 957.898 510.074 957.972 509.797C958.05 509.516 958.089 509.217 958.089 508.9V508.766C958.089 508.453 958.05 508.158 957.972 507.881C957.898 507.6 957.785 507.352 957.632 507.137C957.484 506.918 957.296 506.746 957.07 506.621C956.847 506.496 956.586 506.434 956.285 506.434C955.988 506.434 955.726 506.496 955.5 506.621C955.277 506.746 955.089 506.918 954.937 507.137C954.789 507.352 954.677 507.6 954.603 507.881C954.529 508.158 954.492 508.453 954.492 508.766ZM965.046 505.66H966.03V511.865C966.03 512.424 965.917 512.9 965.691 513.295C965.464 513.689 965.148 513.988 964.741 514.191C964.339 514.398 963.874 514.502 963.347 514.502C963.128 514.502 962.87 514.467 962.573 514.396C962.28 514.33 961.991 514.215 961.706 514.051C961.425 513.891 961.189 513.674 960.997 513.4L961.566 512.756C961.831 513.076 962.109 513.299 962.398 513.424C962.691 513.549 962.98 513.611 963.265 513.611C963.609 513.611 963.905 513.547 964.155 513.418C964.405 513.289 964.599 513.098 964.736 512.844C964.876 512.594 964.946 512.285 964.946 511.918V507.055L965.046 505.66ZM960.681 508.9V508.777C960.681 508.293 960.738 507.854 960.851 507.459C960.968 507.061 961.134 506.719 961.349 506.434C961.568 506.148 961.831 505.93 962.14 505.777C962.448 505.621 962.796 505.543 963.183 505.543C963.581 505.543 963.929 505.613 964.226 505.754C964.527 505.891 964.78 506.092 964.988 506.357C965.198 506.619 965.364 506.936 965.486 507.307C965.607 507.678 965.691 508.098 965.738 508.566V509.105C965.695 509.57 965.611 509.988 965.486 510.359C965.364 510.73 965.198 511.047 964.988 511.309C964.78 511.57 964.527 511.771 964.226 511.912C963.925 512.049 963.573 512.117 963.171 512.117C962.792 512.117 962.448 512.037 962.14 511.877C961.835 511.717 961.573 511.492 961.355 511.203C961.136 510.914 960.968 510.574 960.851 510.184C960.738 509.789 960.681 509.361 960.681 508.9ZM961.765 508.777V508.9C961.765 509.217 961.796 509.514 961.859 509.791C961.925 510.068 962.025 510.312 962.157 510.523C962.294 510.734 962.468 510.9 962.679 511.021C962.89 511.139 963.142 511.197 963.435 511.197C963.794 511.197 964.091 511.121 964.325 510.969C964.56 510.816 964.745 510.615 964.882 510.365C965.023 510.115 965.132 509.844 965.21 509.551V508.139C965.167 507.924 965.101 507.717 965.011 507.518C964.925 507.314 964.812 507.135 964.671 506.979C964.534 506.818 964.364 506.691 964.161 506.598C963.958 506.504 963.72 506.457 963.446 506.457C963.15 506.457 962.894 506.52 962.679 506.645C962.468 506.766 962.294 506.934 962.157 507.148C962.025 507.359 961.925 507.605 961.859 507.887C961.796 508.164 961.765 508.461 961.765 508.777ZM969.255 505.66V512H968.165V505.66H969.255ZM968.083 503.979C968.083 503.803 968.136 503.654 968.241 503.533C968.35 503.412 968.511 503.352 968.721 503.352C968.929 503.352 969.087 503.412 969.196 503.533C969.309 503.654 969.366 503.803 969.366 503.979C969.366 504.146 969.309 504.291 969.196 504.412C969.087 504.529 968.929 504.588 968.721 504.588C968.511 504.588 968.35 504.529 968.241 504.412C968.136 504.291 968.083 504.146 968.083 503.979ZM972.479 507.014V512H971.395V505.66H972.42L972.479 507.014ZM972.221 508.59L971.77 508.572C971.774 508.139 971.838 507.738 971.963 507.371C972.088 507 972.264 506.678 972.491 506.404C972.717 506.131 972.987 505.92 973.299 505.771C973.616 505.619 973.965 505.543 974.348 505.543C974.661 505.543 974.942 505.586 975.192 505.672C975.442 505.754 975.655 505.887 975.83 506.07C976.01 506.254 976.147 506.492 976.241 506.785C976.334 507.074 976.381 507.428 976.381 507.846V512H975.291V507.834C975.291 507.502 975.243 507.236 975.145 507.037C975.047 506.834 974.905 506.688 974.717 506.598C974.53 506.504 974.299 506.457 974.026 506.457C973.756 506.457 973.51 506.514 973.288 506.627C973.069 506.74 972.879 506.896 972.719 507.096C972.563 507.295 972.44 507.523 972.35 507.781C972.264 508.035 972.221 508.305 972.221 508.59Z" fill="#49454F"/>
<path d="M895 599L893 601M893 601L896 604L892.5 607.5L889.5 604.5M893 601L889.5 604.5M885.39 608.61C885.906 609.119 886.317 609.726 886.598 610.395C886.879 611.064 887.025 611.781 887.027 612.507C887.029 613.232 886.888 613.951 886.612 614.621C886.335 615.292 885.929 615.901 885.416 616.414C884.903 616.927 884.294 617.333 883.623 617.61C882.953 617.886 882.234 618.027 881.509 618.025C880.783 618.023 880.066 617.877 879.397 617.596C878.728 617.315 878.121 616.904 877.612 616.388C876.61 615.351 876.056 613.961 876.068 612.519C876.081 611.077 876.659 609.698 877.679 608.678C878.699 607.658 880.078 607.08 881.52 607.067C882.962 607.055 884.352 607.609 885.389 608.611L885.39 608.61ZM885.39 608.61L889.5 604.5" stroke="#1E1E1E" stroke-width="2.5" stroke-linecap="round" stroke-linejoin="round"/>
<path d="M930 578C930 575.791 931.791 574 934 574H1785C1787.21 574 1789 575.791 1789 578V630H930V578Z" fill="#E6E0E9"/>
<path d="M947.008 609.469L948.578 607.312L946.219 606.609L946.586 605.438L948.945 606.305L948.875 603.617H950.062L949.984 606.352L952.312 605.484L952.672 606.68L950.273 607.391L951.812 609.508L950.844 610.234L949.398 607.984L947.984 610.18L947.008 609.469ZM954.398 609.469L955.969 607.312L953.609 606.609L953.977 605.438L956.336 606.305L956.266 603.617H957.453L957.375 606.352L959.703 605.484L960.062 606.68L957.664 607.391L959.203 609.508L958.234 610.234L956.789 607.984L955.375 610.18L954.398 609.469ZM961.789 609.469L963.359 607.312L961 606.609L961.367 605.438L963.727 606.305L963.656 603.617H964.844L964.766 606.352L967.094 605.484L967.453 606.68L965.055 607.391L966.594 609.508L965.625 610.234L964.18 607.984L962.766 610.18L961.789 609.469ZM969.18 609.469L970.75 607.312L968.391 606.609L968.758 605.438L971.117 606.305L971.047 603.617H972.234L972.156 606.352L974.484 605.484L974.844 606.68L972.445 607.391L973.984 609.508L973.016 610.234L971.57 607.984L970.156 610.18L969.18 609.469ZM976.57 609.469L978.141 607.312L975.781 606.609L976.148 605.438L978.508 606.305L978.438 603.617H979.625L979.547 606.352L981.875 605.484L982.234 606.68L979.836 607.391L981.375 609.508L980.406 610.234L978.961 607.984L977.547 610.18L976.57 609.469Z" fill="#1D1B20"/>
<rect x="866" y="447" width="40" height="40" rx="20" fill="#EADDFF"/>
<path fill-rule="evenodd" clip-rule="evenodd" d="M892 463C892 466.314 889.314 469 886 469C882.687 469 880 466.314 880 463C880 459.686 882.687 457 886 457C889.314 457 892 459.686 892 463ZM890 463C890 465.209 888.209 467 886 467C883.791 467 882 465.209 882 463C882 460.791 883.791 459 886 459C888.209 459 890 460.791 890 463Z" fill="#4F378A"/>
<path d="M886 472C879.526 472 874.01 475.828 871.908 481.192C872.42 481.7 872.959 482.181 873.524 482.632C875.088 477.708 879.997 474 886 474C892.004 474 896.912 477.708 898.477 482.632C899.041 482.181 899.58 481.7 900.092 481.192C897.991 475.828 892.475 472 886 472Z" fill="#4F378A"/>
<rect width="731" height="1080" fill="#D9D9D9"/>
<path d="M146.091 467.636V462.364H149C150.121 462.364 151.061 462.144 151.818 461.705C152.591 461.265 153.227 460.697 153.727 460C154.242 459.303 154.667 458.576 155 457.818L155.727 456.091L139.636 420.455H145.727L158.545 449.364L170.273 420.455H176.273L160.182 459.455C159.545 460.909 158.818 462.258 158 463.5C157.197 464.742 156.098 465.742 154.705 466.5C153.326 467.258 151.455 467.636 149.091 467.636H146.091ZM180.284 467V432.091H207.739V467H202.375V437.091H185.648V467H180.284ZM217.534 480.091V432.091H222.716V437.636H223.352C223.746 437.03 224.292 436.258 224.989 435.318C225.701 434.364 226.716 433.515 228.034 432.773C229.367 432.015 231.17 431.636 233.443 431.636C236.383 431.636 238.973 432.371 241.216 433.841C243.458 435.311 245.208 437.394 246.466 440.091C247.723 442.788 248.352 445.97 248.352 449.636C248.352 453.333 247.723 456.538 246.466 459.25C245.208 461.947 243.466 464.038 241.239 465.523C239.011 466.992 236.443 467.727 233.534 467.727C231.292 467.727 229.496 467.356 228.148 466.614C226.799 465.856 225.761 465 225.034 464.045C224.307 463.076 223.746 462.273 223.352 461.636H222.898V480.091H217.534ZM222.807 449.545C222.807 452.182 223.193 454.508 223.966 456.523C224.739 458.523 225.867 460.091 227.352 461.227C228.837 462.348 230.655 462.909 232.807 462.909C235.049 462.909 236.92 462.318 238.42 461.136C239.936 459.939 241.072 458.333 241.83 456.318C242.602 454.288 242.989 452.03 242.989 449.545C242.989 447.091 242.61 444.879 241.852 442.909C241.11 440.924 239.981 439.356 238.466 438.205C236.966 437.038 235.08 436.455 232.807 436.455C230.625 436.455 228.792 437.008 227.307 438.114C225.822 439.205 224.701 440.735 223.943 442.705C223.186 444.659 222.807 446.939 222.807 449.545ZM266.807 467.818C264.595 467.818 262.587 467.402 260.784 466.568C258.981 465.72 257.549 464.5 256.489 462.909C255.428 461.303 254.898 459.364 254.898 457.091C254.898 455.091 255.292 453.47 256.08 452.227C256.867 450.97 257.92 449.985 259.239 449.273C260.557 448.561 262.011 448.03 263.602 447.682C265.208 447.318 266.822 447.03 268.443 446.818C270.564 446.545 272.284 446.341 273.602 446.205C274.936 446.053 275.905 445.803 276.511 445.455C277.133 445.106 277.443 444.5 277.443 443.636V443.455C277.443 441.212 276.83 439.47 275.602 438.227C274.39 436.985 272.549 436.364 270.08 436.364C267.519 436.364 265.511 436.924 264.057 438.045C262.602 439.167 261.58 440.364 260.989 441.636L255.898 439.818C256.807 437.697 258.019 436.045 259.534 434.864C261.064 433.667 262.731 432.833 264.534 432.364C266.352 431.879 268.14 431.636 269.898 431.636C271.019 431.636 272.307 431.773 273.761 432.045C275.231 432.303 276.648 432.841 278.011 433.659C279.39 434.477 280.534 435.712 281.443 437.364C282.352 439.015 282.807 441.227 282.807 444V467H277.443V462.273H277.17C276.807 463.03 276.201 463.841 275.352 464.705C274.504 465.568 273.375 466.303 271.966 466.909C270.557 467.515 268.837 467.818 266.807 467.818ZM267.625 463C269.746 463 271.534 462.583 272.989 461.75C274.458 460.917 275.564 459.841 276.307 458.523C277.064 457.205 277.443 455.818 277.443 454.364V449.455C277.216 449.727 276.716 449.977 275.943 450.205C275.186 450.417 274.307 450.606 273.307 450.773C272.322 450.924 271.36 451.061 270.42 451.182C269.496 451.288 268.746 451.379 268.17 451.455C266.777 451.636 265.473 451.932 264.261 452.341C263.064 452.735 262.095 453.333 261.352 454.136C260.625 454.924 260.261 456 260.261 457.364C260.261 459.227 260.951 460.636 262.33 461.591C263.723 462.53 265.489 463 267.625 463ZM292.597 467V432.091H306.869C310.627 432.091 313.612 432.939 315.824 434.636C318.036 436.333 319.142 438.576 319.142 441.364C319.142 443.485 318.513 445.129 317.256 446.295C315.998 447.447 314.384 448.227 312.415 448.636C313.703 448.818 314.953 449.273 316.165 450C317.392 450.727 318.407 451.727 319.21 453C320.013 454.258 320.415 455.803 320.415 457.636C320.415 459.424 319.96 461.023 319.051 462.432C318.142 463.841 316.839 464.955 315.142 465.773C313.445 466.591 311.415 467 309.051 467H292.597ZM297.688 462.091H309.051C310.9 462.091 312.347 461.652 313.392 460.773C314.438 459.894 314.96 458.697 314.96 457.182C314.96 455.379 314.438 453.962 313.392 452.932C312.347 451.886 310.9 451.364 309.051 451.364H297.688V462.091ZM297.688 446.727H306.869C308.309 446.727 309.544 446.53 310.574 446.136C311.604 445.727 312.392 445.152 312.938 444.409C313.498 443.652 313.778 442.758 313.778 441.727C313.778 440.258 313.165 439.106 311.938 438.273C310.71 437.424 309.021 437 306.869 437H297.688V446.727ZM325.443 467V462H326.716C327.761 462 328.633 461.795 329.33 461.386C330.027 460.962 330.587 460.227 331.011 459.182C331.451 458.121 331.784 456.652 332.011 454.773C332.254 452.879 332.428 450.47 332.534 447.545L333.17 432.091H356.443V467H351.08V437.091H338.261L337.716 449.545C337.595 452.409 337.337 454.932 336.943 457.114C336.564 459.28 335.981 461.098 335.193 462.568C334.42 464.038 333.39 465.144 332.102 465.886C330.814 466.629 329.201 467 327.261 467H325.443ZM380.92 467.727C377.557 467.727 374.655 466.985 372.216 465.5C369.792 464 367.92 461.909 366.602 459.227C365.299 456.53 364.648 453.394 364.648 449.818C364.648 446.242 365.299 443.091 366.602 440.364C367.92 437.621 369.754 435.485 372.102 433.955C374.466 432.409 377.223 431.636 380.375 431.636C382.193 431.636 383.989 431.939 385.761 432.545C387.534 433.152 389.148 434.136 390.602 435.5C392.057 436.848 393.216 438.636 394.08 440.864C394.943 443.091 395.375 445.833 395.375 449.091V451.364H368.466V446.727H389.92C389.92 444.758 389.527 443 388.739 441.455C387.966 439.909 386.86 438.689 385.42 437.795C383.996 436.902 382.314 436.455 380.375 436.455C378.239 436.455 376.39 436.985 374.83 438.045C373.284 439.091 372.095 440.455 371.261 442.136C370.428 443.818 370.011 445.621 370.011 447.545V450.636C370.011 453.273 370.466 455.508 371.375 457.341C372.299 459.159 373.58 460.545 375.216 461.5C376.852 462.439 378.754 462.909 380.92 462.909C382.33 462.909 383.602 462.712 384.739 462.318C385.89 461.909 386.883 461.303 387.716 460.5C388.549 459.682 389.193 458.667 389.648 457.455L394.83 458.909C394.284 460.667 393.367 462.212 392.08 463.545C390.792 464.864 389.201 465.894 387.307 466.636C385.413 467.364 383.284 467.727 380.92 467.727ZM426.898 447.091V452.091H407.625V447.091H426.898ZM408.898 432.091V467H403.534V432.091H408.898ZM430.989 432.091V467H425.625V432.091H430.989ZM446.148 459.091L462.966 432.091H469.148V467H463.784V440L447.057 467H440.784V432.091H446.148V459.091ZM493.608 467.727C490.244 467.727 487.343 466.985 484.903 465.5C482.479 464 480.608 461.909 479.29 459.227C477.987 456.53 477.335 453.394 477.335 449.818C477.335 446.242 477.987 443.091 479.29 440.364C480.608 437.621 482.441 435.485 484.79 433.955C487.153 432.409 489.911 431.636 493.062 431.636C494.881 431.636 496.676 431.939 498.449 432.545C500.222 433.152 501.835 434.136 503.29 435.5C504.744 436.848 505.903 438.636 506.767 440.864C507.631 443.091 508.062 445.833 508.062 449.091V451.364H481.153V446.727H502.608C502.608 444.758 502.214 443 501.426 441.455C500.653 439.909 499.547 438.689 498.108 437.795C496.684 436.902 495.002 436.455 493.062 436.455C490.926 436.455 489.078 436.985 487.517 438.045C485.972 439.091 484.782 440.455 483.949 442.136C483.116 443.818 482.699 445.621 482.699 447.545V450.636C482.699 453.273 483.153 455.508 484.062 457.341C484.987 459.159 486.267 460.545 487.903 461.5C489.54 462.439 491.441 462.909 493.608 462.909C495.017 462.909 496.29 462.712 497.426 462.318C498.578 461.909 499.57 461.303 500.403 460.5C501.237 459.682 501.881 458.667 502.335 457.455L507.517 458.909C506.972 460.667 506.055 462.212 504.767 463.545C503.479 464.864 501.888 465.894 499.994 466.636C498.1 467.364 495.972 467.727 493.608 467.727ZM170.364 509.091V539H175.273V555.273H169.909V544H142.909V509.091H148.273V539H165V509.091H170.364ZM188.898 536.091L205.716 509.091H211.898V544H206.534V517L189.807 544H183.534V509.091H188.898V536.091ZM235.903 555.909V497.455H241.267V555.909H235.903ZM235.903 544.727C233.54 544.727 231.388 544.303 229.449 543.455C227.509 542.591 225.843 541.371 224.449 539.795C223.055 538.205 221.979 536.303 221.222 534.091C220.464 531.879 220.085 529.424 220.085 526.727C220.085 524 220.464 521.53 221.222 519.318C221.979 517.091 223.055 515.182 224.449 513.591C225.843 512 227.509 510.78 229.449 509.932C231.388 509.068 233.54 508.636 235.903 508.636H237.54V544.727H235.903ZM235.903 539.909H236.812V513.455H235.903C234.116 513.455 232.563 513.818 231.244 514.545C229.926 515.258 228.835 516.235 227.972 517.477C227.123 518.705 226.487 520.114 226.062 521.705C225.653 523.295 225.449 524.97 225.449 526.727C225.449 529.061 225.82 531.227 226.562 533.227C227.305 535.227 228.449 536.841 229.994 538.068C231.54 539.295 233.509 539.909 235.903 539.909ZM241.267 544.727H239.631V508.636H241.267C243.631 508.636 245.782 509.068 247.722 509.932C249.661 510.78 251.328 512 252.722 513.591C254.116 515.182 255.191 517.091 255.949 519.318C256.706 521.53 257.085 524 257.085 526.727C257.085 529.424 256.706 531.879 255.949 534.091C255.191 536.303 254.116 538.205 252.722 539.795C251.328 541.371 249.661 542.591 247.722 543.455C245.782 544.303 243.631 544.727 241.267 544.727ZM241.267 539.909C243.07 539.909 244.623 539.561 245.926 538.864C247.244 538.152 248.328 537.182 249.176 535.955C250.04 534.712 250.676 533.303 251.085 531.727C251.509 530.136 251.722 528.47 251.722 526.727C251.722 524.394 251.35 522.22 250.608 520.205C249.866 518.189 248.722 516.561 247.176 515.318C245.631 514.076 243.661 513.455 241.267 513.455H240.358V539.909H241.267ZM265.284 557.091V509.091H270.466V514.636H271.102C271.496 514.03 272.042 513.258 272.739 512.318C273.451 511.364 274.466 510.515 275.784 509.773C277.117 509.015 278.92 508.636 281.193 508.636C284.133 508.636 286.723 509.371 288.966 510.841C291.208 512.311 292.958 514.394 294.216 517.091C295.473 519.788 296.102 522.97 296.102 526.636C296.102 530.333 295.473 533.538 294.216 536.25C292.958 538.947 291.216 541.038 288.989 542.523C286.761 543.992 284.193 544.727 281.284 544.727C279.042 544.727 277.246 544.356 275.898 543.614C274.549 542.856 273.511 542 272.784 541.045C272.057 540.076 271.496 539.273 271.102 538.636H270.648V557.091H265.284ZM270.557 526.545C270.557 529.182 270.943 531.508 271.716 533.523C272.489 535.523 273.617 537.091 275.102 538.227C276.587 539.348 278.405 539.909 280.557 539.909C282.799 539.909 284.67 539.318 286.17 538.136C287.686 536.939 288.822 535.333 289.58 533.318C290.352 531.288 290.739 529.03 290.739 526.545C290.739 524.091 290.36 521.879 289.602 519.909C288.86 517.924 287.731 516.356 286.216 515.205C284.716 514.038 282.83 513.455 280.557 513.455C278.375 513.455 276.542 514.008 275.057 515.114C273.572 516.205 272.451 517.735 271.693 519.705C270.936 521.659 270.557 523.939 270.557 526.545ZM318.466 544.727C315.314 544.727 312.549 543.977 310.17 542.477C307.807 540.977 305.958 538.879 304.625 536.182C303.307 533.485 302.648 530.333 302.648 526.727C302.648 523.091 303.307 519.917 304.625 517.205C305.958 514.492 307.807 512.386 310.17 510.886C312.549 509.386 315.314 508.636 318.466 508.636C321.617 508.636 324.375 509.386 326.739 510.886C329.117 512.386 330.966 514.492 332.284 517.205C333.617 519.917 334.284 523.091 334.284 526.727C334.284 530.333 333.617 533.485 332.284 536.182C330.966 538.879 329.117 540.977 326.739 542.477C324.375 543.977 321.617 544.727 318.466 544.727ZM318.466 539.909C320.86 539.909 322.83 539.295 324.375 538.068C325.92 536.841 327.064 535.227 327.807 533.227C328.549 531.227 328.92 529.061 328.92 526.727C328.92 524.394 328.549 522.22 327.807 520.205C327.064 518.189 325.92 516.561 324.375 515.318C322.83 514.076 320.86 513.455 318.466 513.455C316.072 513.455 314.102 514.076 312.557 515.318C311.011 516.561 309.867 518.189 309.125 520.205C308.383 522.22 308.011 524.394 308.011 526.727C308.011 529.061 308.383 531.227 309.125 533.227C309.867 535.227 311.011 536.841 312.557 538.068C314.102 539.295 316.072 539.909 318.466 539.909ZM342.472 544V509.091H356.744C360.502 509.091 363.487 509.939 365.699 511.636C367.911 513.333 369.017 515.576 369.017 518.364C369.017 520.485 368.388 522.129 367.131 523.295C365.873 524.447 364.259 525.227 362.29 525.636C363.578 525.818 364.828 526.273 366.04 527C367.267 527.727 368.282 528.727 369.085 530C369.888 531.258 370.29 532.803 370.29 534.636C370.29 536.424 369.835 538.023 368.926 539.432C368.017 540.841 366.714 541.955 365.017 542.773C363.32 543.591 361.29 544 358.926 544H342.472ZM347.562 539.091H358.926C360.775 539.091 362.222 538.652 363.267 537.773C364.313 536.894 364.835 535.697 364.835 534.182C364.835 532.379 364.313 530.962 363.267 529.932C362.222 528.886 360.775 528.364 358.926 528.364H347.562V539.091ZM347.562 523.727H356.744C358.184 523.727 359.419 523.53 360.449 523.136C361.479 522.727 362.267 522.152 362.812 521.409C363.373 520.652 363.653 519.758 363.653 518.727C363.653 517.258 363.04 516.106 361.812 515.273C360.585 514.424 358.896 514 356.744 514H347.562V523.727ZM392.591 544.727C389.439 544.727 386.674 543.977 384.295 542.477C381.932 540.977 380.083 538.879 378.75 536.182C377.432 533.485 376.773 530.333 376.773 526.727C376.773 523.091 377.432 519.917 378.75 517.205C380.083 514.492 381.932 512.386 384.295 510.886C386.674 509.386 389.439 508.636 392.591 508.636C395.742 508.636 398.5 509.386 400.864 510.886C403.242 512.386 405.091 514.492 406.409 517.205C407.742 519.917 408.409 523.091 408.409 526.727C408.409 530.333 407.742 533.485 406.409 536.182C405.091 538.879 403.242 540.977 400.864 542.477C398.5 543.977 395.742 544.727 392.591 544.727ZM392.591 539.909C394.985 539.909 396.955 539.295 398.5 538.068C400.045 536.841 401.189 535.227 401.932 533.227C402.674 531.227 403.045 529.061 403.045 526.727C403.045 524.394 402.674 522.22 401.932 520.205C401.189 518.189 400.045 516.561 398.5 515.318C396.955 514.076 394.985 513.455 392.591 513.455C390.197 513.455 388.227 514.076 386.682 515.318C385.136 516.561 383.992 518.189 383.25 520.205C382.508 522.22 382.136 524.394 382.136 526.727C382.136 529.061 382.508 531.227 383.25 533.227C383.992 535.227 385.136 536.841 386.682 538.068C388.227 539.295 390.197 539.909 392.591 539.909ZM421.96 536.091L438.778 509.091H444.96V544H439.597V517L422.869 544H416.597V509.091H421.96V536.091ZM435.233 497.455H440.233C440.233 499.909 439.384 501.917 437.688 503.477C435.991 505.038 433.688 505.818 430.778 505.818C427.915 505.818 425.634 505.038 423.938 503.477C422.256 501.917 421.415 499.909 421.415 497.455H426.415C426.415 498.636 426.741 499.674 427.392 500.568C428.059 501.462 429.188 501.909 430.778 501.909C432.369 501.909 433.506 501.462 434.188 500.568C434.884 499.674 435.233 498.636 435.233 497.455ZM168.818 573L171.545 576.273C170.485 577.303 169.258 578.023 167.864 578.432C166.47 578.841 164.894 579.091 163.136 579.182C161.379 579.273 159.424 579.364 157.273 579.455C154.848 579.545 152.841 580.136 151.25 581.227C149.659 582.318 148.432 583.894 147.568 585.955C146.705 588.015 146.152 590.545 145.909 593.545H146.364C147.545 591.364 149.182 589.758 151.273 588.727C153.364 587.697 155.606 587.182 158 587.182C160.727 587.182 163.182 587.818 165.364 589.091C167.545 590.364 169.273 592.25 170.545 594.75C171.818 597.25 172.455 600.333 172.455 604C172.455 607.652 171.803 610.803 170.5 613.455C169.212 616.106 167.402 618.152 165.068 619.591C162.75 621.015 160.03 621.727 156.909 621.727C153.788 621.727 151.053 620.992 148.705 619.523C146.356 618.038 144.53 615.841 143.227 612.932C141.924 610.008 141.273 606.394 141.273 602.091V598.364C141.273 590.591 142.591 584.697 145.227 580.682C147.879 576.667 151.864 574.591 157.182 574.455C159.061 574.394 160.735 574.379 162.205 574.409C163.674 574.439 164.955 574.371 166.045 574.205C167.136 574.038 168.061 573.636 168.818 573ZM156.909 616.909C159.015 616.909 160.826 616.379 162.341 615.318C163.871 614.258 165.045 612.765 165.864 610.841C166.682 608.902 167.091 606.621 167.091 604C167.091 601.455 166.674 599.288 165.841 597.5C165.023 595.712 163.848 594.348 162.318 593.409C160.788 592.47 158.955 592 156.818 592C155.258 592 153.856 592.265 152.614 592.795C151.371 593.326 150.311 594.106 149.432 595.136C148.553 596.167 147.871 597.424 147.386 598.909C146.917 600.394 146.667 602.091 146.636 604C146.636 607.909 147.553 611.038 149.386 613.386C151.22 615.735 153.727 616.909 156.909 616.909ZM186.023 613.091L202.841 586.091H209.023V621H203.659V594L186.932 621H180.659V586.091H186.023V613.091ZM244.756 573L247.483 576.273C246.422 577.303 245.195 578.023 243.801 578.432C242.407 578.841 240.831 579.091 239.074 579.182C237.316 579.273 235.362 579.364 233.21 579.455C230.786 579.545 228.778 580.136 227.188 581.227C225.597 582.318 224.369 583.894 223.506 585.955C222.642 588.015 222.089 590.545 221.847 593.545H222.301C223.483 591.364 225.119 589.758 227.21 588.727C229.301 587.697 231.544 587.182 233.938 587.182C236.665 587.182 239.119 587.818 241.301 589.091C243.483 590.364 245.21 592.25 246.483 594.75C247.756 597.25 248.392 600.333 248.392 604C248.392 607.652 247.741 610.803 246.438 613.455C245.15 616.106 243.339 618.152 241.006 619.591C238.688 621.015 235.968 621.727 232.847 621.727C229.725 621.727 226.991 620.992 224.642 619.523C222.294 618.038 220.468 615.841 219.165 612.932C217.862 610.008 217.21 606.394 217.21 602.091V598.364C217.21 590.591 218.528 584.697 221.165 580.682C223.816 576.667 227.801 574.591 233.119 574.455C234.998 574.394 236.672 574.379 238.142 574.409C239.612 574.439 240.892 574.371 241.983 574.205C243.074 574.038 243.998 573.636 244.756 573ZM232.847 616.909C234.953 616.909 236.763 616.379 238.278 615.318C239.809 614.258 240.983 612.765 241.801 610.841C242.619 608.902 243.028 606.621 243.028 604C243.028 601.455 242.612 599.288 241.778 597.5C240.96 595.712 239.786 594.348 238.256 593.409C236.725 592.47 234.892 592 232.756 592C231.195 592 229.794 592.265 228.551 592.795C227.309 593.326 226.248 594.106 225.369 595.136C224.491 596.167 223.809 597.424 223.324 598.909C222.854 600.394 222.604 602.091 222.574 604C222.574 607.909 223.491 611.038 225.324 613.386C227.157 615.735 229.665 616.909 232.847 616.909ZM253.506 621V616H254.778C255.824 616 256.695 615.795 257.392 615.386C258.089 614.962 258.65 614.227 259.074 613.182C259.513 612.121 259.847 610.652 260.074 608.773C260.316 606.879 260.491 604.47 260.597 601.545L261.233 586.091H284.506V621H279.142V591.091H266.324L265.778 603.545C265.657 606.409 265.4 608.932 265.006 611.114C264.627 613.28 264.044 615.098 263.256 616.568C262.483 618.038 261.453 619.144 260.165 619.886C258.877 620.629 257.263 621 255.324 621H253.506ZM299.71 613.091L316.528 586.091H322.71V621H317.347V594L300.619 621H294.347V586.091H299.71V613.091ZM346.716 621.727C343.564 621.727 340.799 620.977 338.42 619.477C336.057 617.977 334.208 615.879 332.875 613.182C331.557 610.485 330.898 607.333 330.898 603.727C330.898 600.091 331.557 596.917 332.875 594.205C334.208 591.492 336.057 589.386 338.42 587.886C340.799 586.386 343.564 585.636 346.716 585.636C349.867 585.636 352.625 586.386 354.989 587.886C357.367 589.386 359.216 591.492 360.534 594.205C361.867 596.917 362.534 600.091 362.534 603.727C362.534 607.333 361.867 610.485 360.534 613.182C359.216 615.879 357.367 617.977 354.989 619.477C352.625 620.977 349.867 621.727 346.716 621.727ZM346.716 616.909C349.11 616.909 351.08 616.295 352.625 615.068C354.17 613.841 355.314 612.227 356.057 610.227C356.799 608.227 357.17 606.061 357.17 603.727C357.17 601.394 356.799 599.22 356.057 597.205C355.314 595.189 354.17 593.561 352.625 592.318C351.08 591.076 349.11 590.455 346.716 590.455C344.322 590.455 342.352 591.076 340.807 592.318C339.261 593.561 338.117 595.189 337.375 597.205C336.633 599.22 336.261 601.394 336.261 603.727C336.261 606.061 336.633 608.227 337.375 610.227C338.117 612.227 339.261 613.841 340.807 615.068C342.352 616.295 344.322 616.909 346.716 616.909ZM366.159 591.091V586.091H394.523V591.091H383.068V621H377.705V591.091H366.159ZM415.17 621.727C411.807 621.727 408.905 620.985 406.466 619.5C404.042 618 402.17 615.909 400.852 613.227C399.549 610.53 398.898 607.394 398.898 603.818C398.898 600.242 399.549 597.091 400.852 594.364C402.17 591.621 404.004 589.485 406.352 587.955C408.716 586.409 411.473 585.636 414.625 585.636C416.443 585.636 418.239 585.939 420.011 586.545C421.784 587.152 423.398 588.136 424.852 589.5C426.307 590.848 427.466 592.636 428.33 594.864C429.193 597.091 429.625 599.833 429.625 603.091V605.364H402.716V600.727H424.17C424.17 598.758 423.777 597 422.989 595.455C422.216 593.909 421.11 592.689 419.67 591.795C418.246 590.902 416.564 590.455 414.625 590.455C412.489 590.455 410.64 590.985 409.08 592.045C407.534 593.091 406.345 594.455 405.511 596.136C404.678 597.818 404.261 599.621 404.261 601.545V604.636C404.261 607.273 404.716 609.508 405.625 611.341C406.549 613.159 407.83 614.545 409.466 615.5C411.102 616.439 413.004 616.909 415.17 616.909C416.58 616.909 417.852 616.712 418.989 616.318C420.14 615.909 421.133 615.303 421.966 614.5C422.799 613.682 423.443 612.667 423.898 611.455L429.08 612.909C428.534 614.667 427.617 616.212 426.33 617.545C425.042 618.864 423.451 619.894 421.557 620.636C419.663 621.364 417.534 621.727 415.17 621.727ZM437.784 621V586.091H443.148V601.273H446.693L459.239 586.091H466.148L452.057 602.909L466.33 621H459.42L447.966 606.273H443.148V621H437.784ZM484.903 621.727C481.752 621.727 478.987 620.977 476.608 619.477C474.244 617.977 472.396 615.879 471.062 613.182C469.744 610.485 469.085 607.333 469.085 603.727C469.085 600.091 469.744 596.917 471.062 594.205C472.396 591.492 474.244 589.386 476.608 587.886C478.987 586.386 481.752 585.636 484.903 585.636C488.055 585.636 490.813 586.386 493.176 587.886C495.555 589.386 497.403 591.492 498.722 594.205C500.055 596.917 500.722 600.091 500.722 603.727C500.722 607.333 500.055 610.485 498.722 613.182C497.403 615.879 495.555 617.977 493.176 619.477C490.813 620.977 488.055 621.727 484.903 621.727ZM484.903 616.909C487.297 616.909 489.267 616.295 490.812 615.068C492.358 613.841 493.502 612.227 494.244 610.227C494.987 608.227 495.358 606.061 495.358 603.727C495.358 601.394 494.987 599.22 494.244 597.205C493.502 595.189 492.358 593.561 490.812 592.318C489.267 591.076 487.297 590.455 484.903 590.455C482.509 590.455 480.54 591.076 478.994 592.318C477.449 593.561 476.305 595.189 475.562 597.205C474.82 599.22 474.449 601.394 474.449 603.727C474.449 606.061 474.82 608.227 475.562 610.227C476.305 612.227 477.449 613.841 478.994 615.068C480.54 616.295 482.509 616.909 484.903 616.909ZM514.273 613.091L531.091 586.091H537.273V621H531.909V594L515.182 621H508.909V586.091H514.273V613.091ZM527.545 574.455H532.545C532.545 576.909 531.697 578.917 530 580.477C528.303 582.038 526 582.818 523.091 582.818C520.227 582.818 517.947 582.038 516.25 580.477C514.568 578.917 513.727 576.909 513.727 574.455H518.727C518.727 575.636 519.053 576.674 519.705 577.568C520.371 578.462 521.5 578.909 523.091 578.909C524.682 578.909 525.818 578.462 526.5 577.568C527.197 576.674 527.545 575.636 527.545 574.455Z" fill="black"/>
<mask id="path-22-inside-2_4_3042" fill="white">
<path d="M1710 720C1710 715.582 1713.58 712 1718 712H1774C1778.42 712 1782 715.582 1782 720V744C1782 748.418 1778.42 752 1774 752H1718C1713.58 752 1710 748.418 1710 744V720Z"/>
</mask>
<path d="M1710 720C1710 715.582 1713.58 712 1718 712H1774C1778.42 712 1782 715.582 1782 720V744C1782 748.418 1778.42 752 1774 752H1718C1713.58 752 1710 748.418 1710 744V720Z" fill="#2C2C2C"/>
<path d="M1718 712V713H1774V712V711H1718V712ZM1782 720H1781V744H1782H1783V720H1782ZM1774 752V751H1718V752V753H1774V752ZM1710 744H1711V720H1710H1709V744H1710ZM1718 752V751C1714.13 751 1711 747.866 1711 744H1710H1709C1709 748.971 1713.03 753 1718 753V752ZM1782 744H1781C1781 747.866 1777.87 751 1774 751V752V753C1778.97 753 1783 748.971 1783 744H1782ZM1774 712V713C1777.87 713 1781 716.134 1781 720H1782H1783C1783 715.029 1778.97 711 1774 711V712ZM1718 712V711C1713.03 711 1709 715.029 1709 720H1710H1711C1711 716.134 1714.13 713 1718 713V712Z" fill="#2C2C2C" mask="url(#path-22-inside-2_4_3042)"/>
<path d="M1723.41 738V726.364H1724.82V731.545H1731.02V726.364H1732.43V738H1731.02V732.795H1724.82V738H1723.41ZM1737.64 738.205C1737.09 738.205 1736.58 738.1 1736.13 737.892C1735.68 737.68 1735.32 737.375 1735.06 736.977C1734.79 736.576 1734.66 736.091 1734.66 735.523C1734.66 735.023 1734.76 734.617 1734.96 734.307C1735.15 733.992 1735.42 733.746 1735.75 733.568C1736.08 733.39 1736.44 733.258 1736.84 733.17C1737.24 733.08 1737.64 733.008 1738.05 732.955C1738.58 732.886 1739.01 732.835 1739.34 732.801C1739.67 732.763 1739.91 732.701 1740.07 732.614C1740.22 732.527 1740.3 732.375 1740.3 732.159V732.114C1740.3 731.553 1740.14 731.117 1739.84 730.807C1739.54 730.496 1739.07 730.341 1738.46 730.341C1737.82 730.341 1737.32 730.481 1736.95 730.761C1736.59 731.042 1736.33 731.341 1736.18 731.659L1734.91 731.205C1735.14 730.674 1735.44 730.261 1735.82 729.966C1736.2 729.667 1736.62 729.458 1737.07 729.341C1737.53 729.22 1737.97 729.159 1738.41 729.159C1738.69 729.159 1739.01 729.193 1739.38 729.261C1739.75 729.326 1740.1 729.46 1740.44 729.665C1740.79 729.869 1741.07 730.178 1741.3 730.591C1741.53 731.004 1741.64 731.557 1741.64 732.25V738H1740.3V736.818H1740.23C1740.14 737.008 1739.99 737.21 1739.78 737.426C1739.56 737.642 1739.28 737.826 1738.93 737.977C1738.58 738.129 1738.15 738.205 1737.64 738.205ZM1737.84 737C1738.37 737 1738.82 736.896 1739.18 736.688C1739.55 736.479 1739.83 736.21 1740.01 735.881C1740.2 735.551 1740.3 735.205 1740.3 734.841V733.614C1740.24 733.682 1740.12 733.744 1739.92 733.801C1739.73 733.854 1739.51 733.902 1739.26 733.943C1739.02 733.981 1738.78 734.015 1738.54 734.045C1738.31 734.072 1738.12 734.095 1737.98 734.114C1737.63 734.159 1737.31 734.233 1737 734.335C1736.7 734.434 1736.46 734.583 1736.28 734.784C1736.09 734.981 1736 735.25 1736 735.591C1736 736.057 1736.18 736.409 1736.52 736.648C1736.87 736.883 1737.31 737 1737.84 737ZM1743.54 735.773H1744.97C1745 736.167 1745.18 736.466 1745.51 736.67C1745.84 736.875 1746.26 736.977 1746.79 736.977C1747.33 736.977 1747.79 736.867 1748.17 736.648C1748.55 736.424 1748.75 736.064 1748.75 735.568C1748.75 735.277 1748.67 735.023 1748.53 734.807C1748.39 734.587 1748.18 734.417 1747.92 734.295C1747.66 734.174 1747.35 734.114 1747 734.114H1745.5V732.909H1747C1747.53 732.909 1747.92 732.788 1748.18 732.545C1748.44 732.303 1748.56 732 1748.56 731.636C1748.56 731.246 1748.43 730.934 1748.15 730.699C1747.87 730.46 1747.48 730.341 1746.97 730.341C1746.46 730.341 1746.04 730.456 1745.69 730.688C1745.35 730.915 1745.17 731.208 1745.15 731.568H1743.75C1743.76 731.098 1743.9 730.684 1744.18 730.324C1744.45 729.96 1744.82 729.676 1745.29 729.472C1745.76 729.263 1746.3 729.159 1746.9 729.159C1747.52 729.159 1748.05 729.267 1748.5 729.483C1748.96 729.695 1749.31 729.985 1749.55 730.352C1749.8 730.716 1749.93 731.129 1749.93 731.591C1749.93 732.083 1749.79 732.481 1749.51 732.784C1749.24 733.087 1748.89 733.303 1748.47 733.432V733.523C1748.8 733.545 1749.09 733.652 1749.33 733.841C1749.58 734.027 1749.77 734.271 1749.9 734.574C1750.04 734.873 1750.11 735.205 1750.11 735.568C1750.11 736.098 1749.97 736.561 1749.68 736.955C1749.4 737.345 1749.01 737.648 1748.51 737.864C1748.02 738.076 1747.45 738.182 1746.81 738.182C1746.2 738.182 1745.64 738.081 1745.15 737.881C1744.67 737.676 1744.28 737.394 1743.99 737.034C1743.71 736.67 1743.56 736.25 1743.54 735.773ZM1754.56 738.205C1754.01 738.205 1753.51 738.1 1753.06 737.892C1752.6 737.68 1752.25 737.375 1751.98 736.977C1751.72 736.576 1751.58 736.091 1751.58 735.523C1751.58 735.023 1751.68 734.617 1751.88 734.307C1752.08 733.992 1752.34 733.746 1752.67 733.568C1753 733.39 1753.36 733.258 1753.76 733.17C1754.16 733.08 1754.56 733.008 1754.97 732.955C1755.5 732.886 1755.93 732.835 1756.26 732.801C1756.59 732.763 1756.84 732.701 1756.99 732.614C1757.14 732.527 1757.22 732.375 1757.22 732.159V732.114C1757.22 731.553 1757.07 731.117 1756.76 730.807C1756.46 730.496 1756 730.341 1755.38 730.341C1754.74 730.341 1754.24 730.481 1753.87 730.761C1753.51 731.042 1753.25 731.341 1753.11 731.659L1751.83 731.205C1752.06 730.674 1752.36 730.261 1752.74 729.966C1753.13 729.667 1753.54 729.458 1753.99 729.341C1754.45 729.22 1754.89 729.159 1755.33 729.159C1755.61 729.159 1755.94 729.193 1756.3 729.261C1756.67 729.326 1757.02 729.46 1757.36 729.665C1757.71 729.869 1757.99 730.178 1758.22 730.591C1758.45 731.004 1758.56 731.557 1758.56 732.25V738H1757.22V736.818H1757.15C1757.06 737.008 1756.91 737.21 1756.7 737.426C1756.49 737.642 1756.2 737.826 1755.85 737.977C1755.5 738.129 1755.07 738.205 1754.56 738.205ZM1754.77 737C1755.3 737 1755.74 736.896 1756.11 736.688C1756.47 736.479 1756.75 736.21 1756.94 735.881C1757.13 735.551 1757.22 735.205 1757.22 734.841V733.614C1757.16 733.682 1757.04 733.744 1756.85 733.801C1756.66 733.854 1756.44 733.902 1756.19 733.943C1755.94 733.981 1755.7 734.015 1755.46 734.045C1755.23 734.072 1755.05 734.095 1754.9 734.114C1754.55 734.159 1754.23 734.233 1753.92 734.335C1753.63 734.434 1753.38 734.583 1753.2 734.784C1753.02 734.981 1752.92 735.25 1752.92 735.591C1752.92 736.057 1753.1 736.409 1753.44 736.648C1753.79 736.883 1754.23 737 1754.77 737ZM1760.08 740.5V736.75H1760.8C1760.98 736.564 1761.14 736.364 1761.26 736.148C1761.39 735.932 1761.5 735.676 1761.6 735.381C1761.7 735.081 1761.78 734.718 1761.85 734.29C1761.92 733.858 1761.98 733.337 1762.03 732.727L1762.33 729.273H1767.87V736.75H1769.21V740.5H1767.87V738H1761.42V740.5H1760.08ZM1762.33 736.75H1766.53V730.523H1763.58L1763.35 732.727C1763.25 733.64 1763.14 734.437 1763 735.119C1762.86 735.801 1762.63 736.345 1762.33 736.75Z" fill="#F5F5F5"/>
</svg>
