<svg width="1920" height="1080" viewBox="0 0 1920 1080" fill="none" xmlns="http://www.w3.org/2000/svg">
<rect width="1920" height="1080" fill="white"/>
<rect x="414" y="196" width="1092" height="884" rx="61" fill="#D9D9D9"/>
<rect x="1469" y="16" width="398" height="69" rx="18" fill="#958383"/>
<path d="M1623.2 37.8182V41.2188H1610.83V64H1606.88V37.8182H1623.2ZM1625.8 64L1625.79 60.6889H1626.49C1627.04 60.6889 1627.49 60.5739 1627.86 60.3438C1628.23 60.1051 1628.54 59.7045 1628.78 59.142C1629.02 58.5795 1629.2 57.804 1629.33 56.8153C1629.46 55.8182 1629.55 54.5653 1629.61 53.0568L1629.95 44.3636H1643.66V64H1639.91V47.6619H1633.5L1633.19 54.3352C1633.11 55.9545 1632.95 57.3693 1632.69 58.5795C1632.44 59.7898 1632.08 60.7997 1631.6 61.6094C1631.13 62.4105 1630.51 63.0114 1629.76 63.4119C1629.01 63.804 1628.1 64 1627.03 64H1625.8ZM1654.47 64.4347C1653.23 64.4347 1652.1 64.2045 1651.1 63.7443C1650.09 63.2756 1649.29 62.598 1648.71 61.7116C1648.13 60.8253 1647.84 59.7386 1647.84 58.4517C1647.84 57.3437 1648.05 56.4318 1648.48 55.7159C1648.9 55 1649.48 54.4332 1650.2 54.0156C1650.93 53.598 1651.74 53.2827 1652.63 53.0696C1653.53 52.8565 1654.44 52.6946 1655.37 52.5838C1656.54 52.4474 1657.5 52.3366 1658.23 52.2514C1658.96 52.1577 1659.5 52.0085 1659.83 51.804C1660.16 51.5994 1660.33 51.267 1660.33 50.8068V50.7173C1660.33 49.6009 1660.01 48.7358 1659.38 48.1222C1658.76 47.5085 1657.83 47.2017 1656.59 47.2017C1655.31 47.2017 1654.29 47.4872 1653.55 48.0582C1652.82 48.6207 1652.31 49.2472 1652.03 49.9375L1648.44 49.1193C1648.86 47.9261 1649.49 46.9631 1650.3 46.2301C1651.13 45.4886 1652.08 44.9517 1653.15 44.6193C1654.23 44.2784 1655.36 44.108 1656.54 44.108C1657.33 44.108 1658.16 44.2017 1659.04 44.3892C1659.92 44.5682 1660.75 44.9006 1661.52 45.3864C1662.29 45.8722 1662.93 46.5668 1663.42 47.4702C1663.91 48.3651 1664.16 49.5284 1664.16 50.9602V64H1660.43V61.3153H1660.28C1660.03 61.8097 1659.66 62.2955 1659.16 62.7727C1658.67 63.25 1658.03 63.6463 1657.26 63.9616C1656.48 64.277 1655.55 64.4347 1654.47 64.4347ZM1655.3 61.3665C1656.36 61.3665 1657.26 61.1577 1658.01 60.7401C1658.77 60.3224 1659.35 59.777 1659.74 59.1037C1660.14 58.4219 1660.34 57.6932 1660.34 56.9176V54.3864C1660.2 54.5227 1659.94 54.6506 1659.55 54.7699C1659.16 54.8807 1658.72 54.9787 1658.23 55.0639C1657.74 55.1406 1657.25 55.2131 1656.79 55.2812C1656.32 55.3409 1655.92 55.392 1655.61 55.4347C1654.87 55.5284 1654.19 55.6861 1653.58 55.9077C1652.97 56.1293 1652.49 56.4489 1652.12 56.8665C1651.76 57.2756 1651.58 57.821 1651.58 58.5028C1651.58 59.4489 1651.93 60.1648 1652.63 60.6506C1653.33 61.1278 1654.22 61.3665 1655.3 61.3665ZM1669.25 64V44.3636H1677.4C1679.61 44.3636 1681.37 44.8366 1682.66 45.7827C1683.96 46.7202 1684.61 47.9943 1684.61 49.6051C1684.61 50.7557 1684.24 51.6676 1683.51 52.3409C1682.77 53.0142 1681.8 53.4659 1680.59 53.696C1681.47 53.7983 1682.28 54.0625 1683.01 54.4886C1683.74 54.9062 1684.33 55.4687 1684.77 56.1761C1685.22 56.8835 1685.45 57.7273 1685.45 58.7074C1685.45 59.7472 1685.18 60.6676 1684.65 61.4688C1684.11 62.2614 1683.33 62.8835 1682.31 63.3352C1681.29 63.7784 1680.07 64 1678.64 64H1669.25ZM1672.85 60.804H1678.64C1679.58 60.804 1680.32 60.5781 1680.86 60.1264C1681.4 59.6747 1681.67 59.0611 1681.67 58.2855C1681.67 57.3736 1681.4 56.6577 1680.86 56.1378C1680.32 55.6094 1679.58 55.3452 1678.64 55.3452H1672.85V60.804ZM1672.85 52.5455H1677.44C1678.15 52.5455 1678.76 52.4432 1679.28 52.2386C1679.8 52.0341 1680.19 51.7443 1680.46 51.3693C1680.75 50.9858 1680.89 50.5341 1680.89 50.0142C1680.89 49.2557 1680.58 48.6634 1679.95 48.2372C1679.33 47.8111 1678.48 47.598 1677.4 47.598H1672.85V52.5455ZM1702.95 52.5327V55.8438H1692.32V52.5327H1702.95ZM1693.39 44.3636V64H1689.64V44.3636H1693.39ZM1705.62 44.3636V64H1701.89V44.3636H1705.62ZM1716.45 64.4347C1715.21 64.4347 1714.08 64.2045 1713.08 63.7443C1712.07 63.2756 1711.27 62.598 1710.69 61.7116C1710.11 60.8253 1709.82 59.7386 1709.82 58.4517C1709.82 57.3437 1710.03 56.4318 1710.46 55.7159C1710.88 55 1711.46 54.4332 1712.18 54.0156C1712.91 53.598 1713.72 53.2827 1714.61 53.0696C1715.51 52.8565 1716.42 52.6946 1717.35 52.5838C1718.52 52.4474 1719.48 52.3366 1720.21 52.2514C1720.94 52.1577 1721.48 52.0085 1721.81 51.804C1722.14 51.5994 1722.31 51.267 1722.31 50.8068V50.7173C1722.31 49.6009 1721.99 48.7358 1721.36 48.1222C1720.74 47.5085 1719.81 47.2017 1718.57 47.2017C1717.29 47.2017 1716.27 47.4872 1715.53 48.0582C1714.8 48.6207 1714.29 49.2472 1714.01 49.9375L1710.42 49.1193C1710.84 47.9261 1711.47 46.9631 1712.28 46.2301C1713.11 45.4886 1714.06 44.9517 1715.14 44.6193C1716.21 44.2784 1717.34 44.108 1718.52 44.108C1719.31 44.108 1720.14 44.2017 1721.02 44.3892C1721.9 44.5682 1722.73 44.9006 1723.5 45.3864C1724.27 45.8722 1724.91 46.5668 1725.4 47.4702C1725.9 48.3651 1726.14 49.5284 1726.14 50.9602V64H1722.41V61.3153H1722.26C1722.01 61.8097 1721.64 62.2955 1721.14 62.7727C1720.65 63.25 1720.01 63.6463 1719.24 63.9616C1718.46 64.277 1717.53 64.4347 1716.45 64.4347ZM1717.28 61.3665C1718.34 61.3665 1719.24 61.1577 1719.99 60.7401C1720.75 60.3224 1721.33 59.777 1721.72 59.1037C1722.12 58.4219 1722.32 57.6932 1722.32 56.9176V54.3864C1722.18 54.5227 1721.92 54.6506 1721.53 54.7699C1721.14 54.8807 1720.7 54.9787 1720.21 55.0639C1719.72 55.1406 1719.23 55.2131 1718.77 55.2812C1718.3 55.3409 1717.91 55.392 1717.59 55.4347C1716.85 55.5284 1716.17 55.6861 1715.56 55.9077C1714.95 56.1293 1714.47 56.4489 1714.1 56.8665C1713.74 57.2756 1713.56 57.821 1713.56 58.5028C1713.56 59.4489 1713.91 60.1648 1714.61 60.6506C1715.31 61.1278 1716.2 61.3665 1717.28 61.3665ZM1742.94 64V47.6236H1738.24C1737.12 47.6236 1736.25 47.8835 1735.63 48.4034C1735.01 48.9233 1734.7 49.6051 1734.7 50.4489C1734.7 51.2841 1734.98 51.9574 1735.55 52.4688C1736.13 52.9716 1736.94 53.223 1737.98 53.223H1744.06V56.3168H1737.98C1736.53 56.3168 1735.28 56.0781 1734.23 55.6009C1733.18 55.1151 1732.37 54.429 1731.8 53.5426C1731.23 52.6562 1730.95 51.608 1730.95 50.3977C1730.95 49.1619 1731.24 48.0966 1731.82 47.2017C1732.41 46.2983 1733.25 45.5994 1734.34 45.1051C1735.44 44.6108 1736.74 44.3636 1738.24 44.3636H1746.54V64H1742.94ZM1730.06 64L1735.59 54.0795H1739.5L1733.97 64H1730.06Z" fill="white"/>
<path d="M615.386 132.875V107.068H619.989C621.557 105.75 623.023 103.875 624.386 101.443C625.75 99.0114 626.909 95.7273 627.864 91.5909C628.818 87.4545 629.477 82.1477 629.841 75.6705L631.477 46.1818H674.534V107.068H682.443V132.773H672.352V116H625.477V132.875H615.386ZM632.398 107.068H664.443V55.25H641.023L639.932 75.6705C639.636 80.6023 639.148 85.0341 638.466 88.9659C637.807 92.8977 636.955 96.375 635.909 99.3977C634.886 102.398 633.716 104.955 632.398 107.068ZM715.222 117.057C710.313 117.057 706.028 115.932 702.369 113.682C698.71 111.432 695.869 108.284 693.847 104.239C691.824 100.193 690.812 95.4659 690.812 90.0568C690.812 84.625 691.824 79.875 693.847 75.8068C695.869 71.7386 698.71 68.5795 702.369 66.3295C706.028 64.0795 710.313 62.9545 715.222 62.9545C720.131 62.9545 724.415 64.0795 728.074 66.3295C731.733 68.5795 734.574 71.7386 736.597 75.8068C738.619 79.875 739.631 84.625 739.631 90.0568C739.631 95.4659 738.619 100.193 736.597 104.239C734.574 108.284 731.733 111.432 728.074 113.682C724.415 115.932 720.131 117.057 715.222 117.057ZM715.256 108.5C718.438 108.5 721.074 107.659 723.165 105.977C725.256 104.295 726.801 102.057 727.801 99.2614C728.824 96.4659 729.335 93.3864 729.335 90.0227C729.335 86.6818 728.824 83.6136 727.801 80.8182C726.801 78 725.256 75.7386 723.165 74.0341C721.074 72.3295 718.438 71.4773 715.256 71.4773C712.051 71.4773 709.392 72.3295 707.278 74.0341C705.188 75.7386 703.631 78 702.608 80.8182C701.608 83.6136 701.108 86.6818 701.108 90.0227C701.108 93.3864 701.608 96.4659 702.608 99.2614C703.631 102.057 705.188 104.295 707.278 105.977C709.392 107.659 712.051 108.5 715.256 108.5ZM791.406 44.1364L795.634 50.5795C794.065 52.0114 792.281 53.0341 790.281 53.6477C788.304 54.2386 786.02 54.6136 783.429 54.7727C780.838 54.9091 777.872 55.0341 774.531 55.1477C770.759 55.2614 767.656 56.0795 765.224 57.6023C762.793 59.1023 760.918 61.3295 759.599 64.2841C758.304 67.2159 757.463 70.8977 757.077 75.3295H757.724C759.429 72.0795 761.793 69.6477 764.815 68.0341C767.861 66.4205 771.281 65.6136 775.077 65.6136C779.304 65.6136 783.065 66.5795 786.361 68.5114C789.656 70.4432 792.247 73.2727 794.134 77C796.043 80.7045 796.997 85.2386 796.997 90.6023C796.997 96.0341 795.997 100.727 793.997 104.682C792.02 108.636 789.224 111.693 785.611 113.852C782.02 115.989 777.781 117.057 772.895 117.057C768.009 117.057 763.747 115.955 760.111 113.75C756.497 111.523 753.69 108.227 751.69 103.864C749.713 99.5 748.724 94.1136 748.724 87.7045V82.5227C748.724 70.5455 750.861 61.5341 755.134 55.4886C759.406 49.4432 765.793 46.3409 774.293 46.1818C777.043 46.1136 779.497 46.1023 781.656 46.1477C783.815 46.1705 785.702 46.0682 787.315 45.8409C788.952 45.5909 790.315 45.0227 791.406 44.1364ZM772.929 108.5C775.77 108.5 778.213 107.784 780.259 106.352C782.327 104.898 783.918 102.841 785.031 100.182C786.145 97.5227 786.702 94.3864 786.702 90.7727C786.702 87.2273 786.145 84.2159 785.031 81.7386C783.918 79.2614 782.327 77.375 780.259 76.0795C778.19 74.7614 775.713 74.1023 772.827 74.1023C770.69 74.1023 768.781 74.4773 767.099 75.2273C765.418 75.9545 763.974 77.0341 762.77 78.4659C761.588 79.8977 760.668 81.6477 760.009 83.7159C759.372 85.7614 759.031 88.1136 758.986 90.7727C758.986 96.1818 760.224 100.489 762.702 103.693C765.202 106.898 768.611 108.5 772.929 108.5ZM823.622 117.159C820.304 117.159 817.304 116.545 814.622 115.318C811.94 114.068 809.815 112.261 808.247 109.898C806.702 107.534 805.929 104.636 805.929 101.205C805.929 98.25 806.497 95.8182 807.634 93.9091C808.77 92 810.304 90.4886 812.236 89.375C814.168 88.2614 816.327 87.4205 818.713 86.8523C821.099 86.2841 823.531 85.8523 826.009 85.5568C829.145 85.1932 831.69 84.8977 833.645 84.6705C835.599 84.4205 837.02 84.0227 837.906 83.4773C838.793 82.9318 839.236 82.0455 839.236 80.8182V80.5795C839.236 77.6023 838.395 75.2955 836.713 73.6591C835.054 72.0227 832.577 71.2045 829.281 71.2045C825.849 71.2045 823.145 71.9659 821.168 73.4886C819.213 74.9886 817.861 76.6591 817.111 78.5L807.531 76.3182C808.668 73.1364 810.327 70.5682 812.509 68.6136C814.713 66.6364 817.247 65.2045 820.111 64.3182C822.974 63.4091 825.986 62.9545 829.145 62.9545C831.236 62.9545 833.452 63.2045 835.793 63.7045C838.156 64.1818 840.361 65.0682 842.406 66.3636C844.474 67.6591 846.168 69.5114 847.486 71.9205C848.804 74.3068 849.463 77.4091 849.463 81.2273V116H839.509V108.841H839.099C838.44 110.159 837.452 111.455 836.134 112.727C834.815 114 833.122 115.057 831.054 115.898C828.986 116.739 826.509 117.159 823.622 117.159ZM825.838 108.977C828.656 108.977 831.065 108.42 833.065 107.307C835.088 106.193 836.622 104.739 837.668 102.943C838.736 101.125 839.27 99.1818 839.27 97.1136V90.3636C838.906 90.7273 838.202 91.0682 837.156 91.3864C836.134 91.6818 834.963 91.9432 833.645 92.1705C832.327 92.375 831.043 92.5682 829.793 92.75C828.543 92.9091 827.497 93.0455 826.656 93.1591C824.679 93.4091 822.872 93.8295 821.236 94.4205C819.622 95.0114 818.327 95.8636 817.349 96.9773C816.395 98.0682 815.918 99.5227 815.918 101.341C815.918 103.864 816.849 105.773 818.713 107.068C820.577 108.341 822.952 108.977 825.838 108.977ZM863.04 116V63.6364H884.756C890.665 63.6364 895.347 64.8977 898.801 67.4205C902.256 69.9205 903.983 73.3182 903.983 77.6136C903.983 80.6818 903.006 83.1136 901.051 84.9091C899.097 86.7045 896.506 87.9091 893.278 88.5227C895.619 88.7955 897.767 89.5 899.722 90.6364C901.676 91.75 903.244 93.25 904.426 95.1364C905.631 97.0227 906.233 99.2727 906.233 101.886C906.233 104.659 905.517 107.114 904.085 109.25C902.653 111.364 900.574 113.023 897.847 114.227C895.142 115.409 891.881 116 888.062 116H863.04ZM872.619 107.477H888.062C890.585 107.477 892.563 106.875 893.994 105.67C895.426 104.466 896.142 102.83 896.142 100.761C896.142 98.3295 895.426 96.4205 893.994 95.0341C892.563 93.625 890.585 92.9205 888.062 92.9205H872.619V107.477ZM872.619 85.4545H884.858C886.767 85.4545 888.403 85.1818 889.767 84.6364C891.153 84.0909 892.21 83.3182 892.938 82.3182C893.688 81.2955 894.062 80.0909 894.062 78.7045C894.062 76.6818 893.233 75.1023 891.574 73.9659C889.915 72.8295 887.642 72.2614 884.756 72.2614H872.619V85.4545ZM927.403 101.716L950.483 63.6364H961.46V116H951.472V77.8864L928.494 116H917.415V63.6364H927.403V101.716ZM968.67 72.4318V63.6364H1012.85V72.4318H995.773V116H985.818V72.4318H968.67ZM1031.3 81.6364H1046.51C1052.92 81.6364 1057.85 83.2273 1061.3 86.4091C1064.76 89.5909 1066.49 93.6932 1066.49 98.7159C1066.49 101.989 1065.71 104.932 1064.17 107.545C1062.62 110.159 1060.36 112.227 1057.38 113.75C1054.41 115.25 1050.78 116 1046.51 116H1023.63V63.6364H1033.62V107.205H1046.51C1049.44 107.205 1051.85 106.443 1053.74 104.92C1055.62 103.375 1056.57 101.409 1056.57 99.0227C1056.57 96.5 1055.62 94.4432 1053.74 92.8523C1051.85 91.2386 1049.44 90.4318 1046.51 90.4318H1031.3V81.6364ZM1077.91 116V63.6364H1088.11V85.5909H1093.02L1110.3 63.6364H1122.91L1102.63 89.1023L1123.15 116H1110.51L1094.72 95.0682H1088.11V116H1077.91ZM1166.56 85.4205V94.25H1138.2V85.4205H1166.56ZM1141.06 63.6364V116H1131.07V63.6364H1141.06ZM1173.68 63.6364V116H1163.73V63.6364H1173.68ZM1197.31 101.716L1220.39 63.6364H1231.37V116H1221.38V77.8864L1198.4 116H1187.32V63.6364H1197.31V101.716ZM1278.55 63.6364V72.4318H1255.13V116H1245.07V63.6364H1278.55ZM1295.76 135.636C1294.24 135.636 1292.86 135.511 1291.61 135.261C1290.36 135.034 1289.42 134.784 1288.81 134.511L1291.26 126.159C1293.13 126.659 1294.79 126.875 1296.24 126.807C1297.7 126.739 1298.98 126.193 1300.09 125.17C1301.23 124.148 1302.23 122.477 1303.09 120.159L1304.36 116.682L1285.2 63.6364H1296.11L1309.37 104.273H1309.91L1323.17 63.6364H1334.12L1312.54 122.989C1311.54 125.716 1310.26 128.023 1308.72 129.909C1307.17 131.818 1305.33 133.25 1303.2 134.205C1301.06 135.159 1298.58 135.636 1295.76 135.636Z" fill="black"/>
<path d="M775.835 279V244.091H781.102V259.261H798.506V244.091H803.79V279H798.506V263.778H781.102V279H775.835ZM818.67 279.58C817.011 279.58 815.511 279.273 814.17 278.659C812.83 278.034 811.767 277.131 810.983 275.949C810.21 274.767 809.824 273.318 809.824 271.602C809.824 270.125 810.108 268.909 810.676 267.955C811.244 267 812.011 266.244 812.977 265.688C813.943 265.131 815.023 264.71 816.216 264.426C817.409 264.142 818.625 263.926 819.864 263.778C821.432 263.597 822.705 263.449 823.682 263.335C824.659 263.21 825.369 263.011 825.812 262.739C826.256 262.466 826.477 262.023 826.477 261.409V261.29C826.477 259.801 826.057 258.648 825.216 257.83C824.386 257.011 823.148 256.602 821.5 256.602C819.784 256.602 818.432 256.983 817.443 257.744C816.466 258.494 815.79 259.33 815.415 260.25L810.625 259.159C811.193 257.568 812.023 256.284 813.114 255.307C814.216 254.318 815.483 253.602 816.915 253.159C818.347 252.705 819.852 252.477 821.432 252.477C822.477 252.477 823.585 252.602 824.756 252.852C825.938 253.091 827.04 253.534 828.062 254.182C829.097 254.83 829.943 255.756 830.602 256.96C831.261 258.153 831.591 259.705 831.591 261.614V279H826.614V275.42H826.409C826.08 276.08 825.585 276.727 824.926 277.364C824.267 278 823.42 278.528 822.386 278.949C821.352 279.369 820.114 279.58 818.67 279.58ZM819.778 275.489C821.188 275.489 822.392 275.21 823.392 274.653C824.403 274.097 825.17 273.369 825.693 272.472C826.227 271.562 826.494 270.591 826.494 269.557V266.182C826.313 266.364 825.96 266.534 825.438 266.693C824.926 266.841 824.341 266.972 823.682 267.085C823.023 267.187 822.381 267.284 821.756 267.375C821.131 267.455 820.608 267.523 820.188 267.58C819.199 267.705 818.295 267.915 817.477 268.21C816.67 268.506 816.023 268.932 815.534 269.489C815.057 270.034 814.818 270.761 814.818 271.67C814.818 272.932 815.284 273.886 816.216 274.534C817.148 275.17 818.335 275.489 819.778 275.489ZM836.828 272.08H842.044C842.112 273.148 842.595 273.972 843.493 274.551C844.402 275.131 845.578 275.42 847.021 275.42C848.487 275.42 849.737 275.108 850.771 274.483C851.805 273.847 852.322 272.864 852.322 271.534C852.322 270.739 852.124 270.045 851.726 269.455C851.339 268.852 850.788 268.386 850.072 268.057C849.368 267.727 848.533 267.562 847.567 267.562H843.305V263.557H847.567C849.01 263.557 850.089 263.227 850.805 262.568C851.521 261.909 851.879 261.085 851.879 260.097C851.879 259.028 851.493 258.17 850.72 257.523C849.959 256.864 848.896 256.534 847.533 256.534C846.146 256.534 844.993 256.847 844.072 257.472C843.152 258.085 842.669 258.881 842.624 259.858H837.476C837.51 258.392 837.953 257.108 838.805 256.006C839.669 254.892 840.828 254.028 842.283 253.415C843.749 252.79 845.413 252.477 847.277 252.477C849.22 252.477 850.902 252.79 852.322 253.415C853.743 254.04 854.839 254.903 855.612 256.006C856.396 257.108 856.788 258.375 856.788 259.807C856.788 261.25 856.357 262.432 855.493 263.352C854.641 264.261 853.527 264.915 852.152 265.312V265.585C853.163 265.653 854.061 265.96 854.845 266.506C855.629 267.051 856.243 267.773 856.686 268.67C857.129 269.568 857.351 270.585 857.351 271.722C857.351 273.324 856.908 274.71 856.021 275.881C855.146 277.051 853.93 277.955 852.374 278.591C850.828 279.216 849.061 279.528 847.072 279.528C845.141 279.528 843.408 279.227 841.874 278.625C840.351 278.011 839.141 277.148 838.243 276.034C837.357 274.92 836.885 273.602 836.828 272.08ZM862.614 279V252.818H873.472C876.426 252.818 878.767 253.449 880.494 254.71C882.222 255.96 883.085 257.659 883.085 259.807C883.085 261.341 882.597 262.557 881.619 263.455C880.642 264.352 879.347 264.955 877.733 265.261C878.903 265.398 879.977 265.75 880.955 266.318C881.932 266.875 882.716 267.625 883.307 268.568C883.909 269.511 884.21 270.636 884.21 271.943C884.21 273.33 883.852 274.557 883.136 275.625C882.42 276.682 881.381 277.511 880.017 278.114C878.665 278.705 877.034 279 875.125 279H862.614ZM867.403 274.739H875.125C876.386 274.739 877.375 274.437 878.091 273.835C878.807 273.233 879.165 272.415 879.165 271.381C879.165 270.165 878.807 269.21 878.091 268.517C877.375 267.812 876.386 267.46 875.125 267.46H867.403V274.739ZM867.403 263.727H873.523C874.477 263.727 875.295 263.591 875.977 263.318C876.67 263.045 877.199 262.659 877.562 262.159C877.938 261.648 878.125 261.045 878.125 260.352C878.125 259.341 877.71 258.551 876.881 257.983C876.051 257.415 874.915 257.131 873.472 257.131H867.403V263.727ZM897.42 279.58C895.761 279.58 894.261 279.273 892.92 278.659C891.58 278.034 890.517 277.131 889.733 275.949C888.96 274.767 888.574 273.318 888.574 271.602C888.574 270.125 888.858 268.909 889.426 267.955C889.994 267 890.761 266.244 891.727 265.688C892.693 265.131 893.773 264.71 894.966 264.426C896.159 264.142 897.375 263.926 898.614 263.778C900.182 263.597 901.455 263.449 902.432 263.335C903.409 263.21 904.119 263.011 904.562 262.739C905.006 262.466 905.227 262.023 905.227 261.409V261.29C905.227 259.801 904.807 258.648 903.966 257.83C903.136 257.011 901.898 256.602 900.25 256.602C898.534 256.602 897.182 256.983 896.193 257.744C895.216 258.494 894.54 259.33 894.165 260.25L889.375 259.159C889.943 257.568 890.773 256.284 891.864 255.307C892.966 254.318 894.233 253.602 895.665 253.159C897.097 252.705 898.602 252.477 900.182 252.477C901.227 252.477 902.335 252.602 903.506 252.852C904.688 253.091 905.79 253.534 906.812 254.182C907.847 254.83 908.693 255.756 909.352 256.96C910.011 258.153 910.341 259.705 910.341 261.614V279H905.364V275.42H905.159C904.83 276.08 904.335 276.727 903.676 277.364C903.017 278 902.17 278.528 901.136 278.949C900.102 279.369 898.864 279.58 897.42 279.58ZM898.528 275.489C899.938 275.489 901.142 275.21 902.142 274.653C903.153 274.097 903.92 273.369 904.443 272.472C904.977 271.562 905.244 270.591 905.244 269.557V266.182C905.063 266.364 904.71 266.534 904.188 266.693C903.676 266.841 903.091 266.972 902.432 267.085C901.773 267.187 901.131 267.284 900.506 267.375C899.881 267.455 899.358 267.523 898.938 267.58C897.949 267.705 897.045 267.915 896.227 268.21C895.42 268.506 894.773 268.932 894.284 269.489C893.807 270.034 893.568 270.761 893.568 271.67C893.568 272.932 894.034 273.886 894.966 274.534C895.898 275.17 897.085 275.489 898.528 275.489ZM934.874 263.71V268.125H920.692V263.71H934.874ZM922.124 252.818V279H917.129V252.818H922.124ZM938.436 252.818V279H933.459V252.818H938.436ZM950.249 271.858L961.788 252.818H967.277V279H962.283V259.943L950.794 279H945.254V252.818H950.249V271.858ZM985.413 279.528C982.834 279.528 980.612 278.977 978.749 277.875C976.896 276.761 975.464 275.199 974.453 273.188C973.453 271.165 972.953 268.795 972.953 266.08C972.953 263.398 973.453 261.034 974.453 258.989C975.464 256.943 976.874 255.347 978.68 254.199C980.499 253.051 982.624 252.477 985.055 252.477C986.533 252.477 987.964 252.722 989.351 253.21C990.737 253.699 991.982 254.466 993.084 255.511C994.186 256.557 995.055 257.915 995.692 259.585C996.328 261.244 996.646 263.261 996.646 265.636V267.443H975.834V263.625H991.652C991.652 262.284 991.379 261.097 990.834 260.062C990.288 259.017 989.521 258.193 988.533 257.591C987.555 256.989 986.408 256.688 985.089 256.688C983.658 256.688 982.408 257.04 981.339 257.744C980.283 258.437 979.464 259.347 978.885 260.472C978.317 261.585 978.033 262.795 978.033 264.102V267.085C978.033 268.835 978.339 270.324 978.953 271.551C979.578 272.778 980.447 273.716 981.561 274.364C982.675 275 983.976 275.318 985.464 275.318C986.43 275.318 987.311 275.182 988.107 274.909C988.902 274.625 989.589 274.205 990.169 273.648C990.749 273.091 991.192 272.403 991.499 271.585L996.322 272.455C995.936 273.875 995.243 275.119 994.243 276.188C993.254 277.244 992.01 278.068 990.51 278.659C989.021 279.239 987.322 279.528 985.413 279.528ZM1015 279V252.818H1020.1V263.795H1022.56L1031.2 252.818H1037.5L1027.36 265.551L1037.62 279H1031.3L1023.41 268.534H1020.1V279H1015ZM1059.33 263.71V268.125H1045.14V263.71H1059.33ZM1046.58 252.818V279H1041.58V252.818H1046.58ZM1062.89 252.818V279H1057.91V252.818H1062.89ZM1074.7 271.858L1086.24 252.818H1091.73V279H1086.74V259.943L1075.25 279H1069.71V252.818H1074.7V271.858ZM1115.32 252.818V257.216H1103.61V279H1098.58V252.818H1115.32ZM1125.7 271.858L1137.24 252.818H1142.73V279H1137.74V259.943L1126.25 279H1120.71V252.818H1125.7V271.858Z" fill="black"/>
<path d="M902.045 466.58C900.386 466.58 898.886 466.273 897.545 465.659C896.205 465.034 895.142 464.131 894.358 462.949C893.585 461.767 893.199 460.318 893.199 458.602C893.199 457.125 893.483 455.909 894.051 454.955C894.619 454 895.386 453.244 896.352 452.688C897.318 452.131 898.398 451.71 899.591 451.426C900.784 451.142 902 450.926 903.239 450.778C904.807 450.597 906.08 450.449 907.057 450.335C908.034 450.21 908.744 450.011 909.188 449.739C909.631 449.466 909.852 449.023 909.852 448.409V448.29C909.852 446.801 909.432 445.648 908.591 444.83C907.761 444.011 906.523 443.602 904.875 443.602C903.159 443.602 901.807 443.983 900.818 444.744C899.841 445.494 899.165 446.33 898.79 447.25L894 446.159C894.568 444.568 895.398 443.284 896.489 442.307C897.591 441.318 898.858 440.602 900.29 440.159C901.722 439.705 903.227 439.477 904.807 439.477C905.852 439.477 906.96 439.602 908.131 439.852C909.313 440.091 910.415 440.534 911.438 441.182C912.472 441.83 913.318 442.756 913.977 443.96C914.636 445.153 914.966 446.705 914.966 448.614V466H909.989V462.42H909.784C909.455 463.08 908.96 463.727 908.301 464.364C907.642 465 906.795 465.528 905.761 465.949C904.727 466.369 903.489 466.58 902.045 466.58ZM903.153 462.489C904.563 462.489 905.767 462.21 906.767 461.653C907.778 461.097 908.545 460.369 909.068 459.472C909.602 458.562 909.869 457.591 909.869 456.557V453.182C909.688 453.364 909.335 453.534 908.812 453.693C908.301 453.841 907.716 453.972 907.057 454.085C906.398 454.187 905.756 454.284 905.131 454.375C904.506 454.455 903.983 454.523 903.562 454.58C902.574 454.705 901.67 454.915 900.852 455.21C900.045 455.506 899.398 455.932 898.909 456.489C898.432 457.034 898.193 457.761 898.193 458.67C898.193 459.932 898.659 460.886 899.591 461.534C900.523 462.17 901.71 462.489 903.153 462.489ZM921.754 466V439.818H932.612C935.567 439.818 937.908 440.449 939.635 441.71C941.362 442.96 942.226 444.659 942.226 446.807C942.226 448.341 941.737 449.557 940.76 450.455C939.783 451.352 938.487 451.955 936.874 452.261C938.044 452.398 939.118 452.75 940.095 453.318C941.072 453.875 941.857 454.625 942.447 455.568C943.05 456.511 943.351 457.636 943.351 458.943C943.351 460.33 942.993 461.557 942.277 462.625C941.561 463.682 940.521 464.511 939.158 465.114C937.805 465.705 936.175 466 934.266 466H921.754ZM926.544 461.739H934.266C935.527 461.739 936.516 461.437 937.232 460.835C937.947 460.233 938.305 459.415 938.305 458.381C938.305 457.165 937.947 456.21 937.232 455.517C936.516 454.812 935.527 454.46 934.266 454.46H926.544V461.739ZM926.544 450.727H932.663C933.618 450.727 934.436 450.591 935.118 450.318C935.811 450.045 936.339 449.659 936.703 449.159C937.078 448.648 937.266 448.045 937.266 447.352C937.266 446.341 936.851 445.551 936.021 444.983C935.192 444.415 934.055 444.131 932.612 444.131H926.544V450.727ZM947.476 444.216V439.818H969.567V444.216H961.027V466H956.05V444.216H947.476ZM984.767 466.528C982.313 466.528 980.17 465.966 978.341 464.841C976.511 463.716 975.091 462.142 974.08 460.119C973.068 458.097 972.562 455.733 972.562 453.028C972.562 450.312 973.068 447.937 974.08 445.903C975.091 443.869 976.511 442.29 978.341 441.165C980.17 440.04 982.313 439.477 984.767 439.477C987.222 439.477 989.364 440.04 991.193 441.165C993.023 442.29 994.443 443.869 995.455 445.903C996.466 447.937 996.972 450.312 996.972 453.028C996.972 455.733 996.466 458.097 995.455 460.119C994.443 462.142 993.023 463.716 991.193 464.841C989.364 465.966 987.222 466.528 984.767 466.528ZM984.784 462.25C986.375 462.25 987.693 461.83 988.739 460.989C989.784 460.148 990.557 459.028 991.057 457.631C991.568 456.233 991.824 454.693 991.824 453.011C991.824 451.341 991.568 449.807 991.057 448.409C990.557 447 989.784 445.869 988.739 445.017C987.693 444.165 986.375 443.739 984.784 443.739C983.182 443.739 981.852 444.165 980.795 445.017C979.75 445.869 978.972 447 978.46 448.409C977.96 449.807 977.71 451.341 977.71 453.011C977.71 454.693 977.96 456.233 978.46 457.631C978.972 459.028 979.75 460.148 980.795 460.989C981.852 461.83 983.182 462.25 984.784 462.25ZM1002.66 475.818V439.818H1007.64V444.062H1008.06C1008.36 443.517 1008.79 442.886 1009.34 442.17C1009.9 441.455 1010.67 440.83 1011.66 440.295C1012.65 439.75 1013.96 439.477 1015.58 439.477C1017.69 439.477 1019.58 440.011 1021.24 441.08C1022.9 442.148 1024.2 443.687 1025.14 445.699C1026.1 447.71 1026.58 450.131 1026.58 452.96C1026.58 455.79 1026.1 458.216 1025.16 460.239C1024.22 462.25 1022.92 463.801 1021.27 464.892C1019.63 465.972 1017.75 466.511 1015.63 466.511C1014.04 466.511 1012.74 466.244 1011.73 465.71C1010.73 465.176 1009.94 464.551 1009.38 463.835C1008.81 463.119 1008.37 462.483 1008.06 461.926H1007.76V475.818H1002.66ZM1007.65 452.909C1007.65 454.75 1007.92 456.364 1008.46 457.75C1008.99 459.136 1009.76 460.222 1010.77 461.006C1011.79 461.778 1013.02 462.165 1014.49 462.165C1016.01 462.165 1017.29 461.761 1018.31 460.955C1019.33 460.136 1020.1 459.028 1020.63 457.631C1021.16 456.233 1021.43 454.659 1021.43 452.909C1021.43 451.182 1021.17 449.631 1020.64 448.256C1020.13 446.881 1019.36 445.795 1018.33 445C1017.3 444.205 1016.02 443.807 1014.49 443.807C1013.01 443.807 1011.76 444.187 1010.74 444.949C1009.73 445.71 1008.96 446.773 1008.44 448.136C1007.92 449.5 1007.65 451.091 1007.65 452.909Z" fill="black"/>
<path d="M842.426 631V604.818H847.523V615.795H849.977L858.619 604.818H864.926L854.784 617.551L865.045 631H858.722L850.83 620.534H847.523V631H842.426ZM876.624 631.58C874.964 631.58 873.464 631.273 872.124 630.659C870.783 630.034 869.72 629.131 868.936 627.949C868.163 626.767 867.777 625.318 867.777 623.602C867.777 622.125 868.061 620.909 868.629 619.955C869.197 619 869.964 618.244 870.93 617.688C871.896 617.131 872.976 616.71 874.169 616.426C875.362 616.142 876.578 615.926 877.817 615.778C879.385 615.597 880.658 615.449 881.635 615.335C882.612 615.21 883.322 615.011 883.766 614.739C884.209 614.466 884.43 614.023 884.43 613.409V613.29C884.43 611.801 884.01 610.648 883.169 609.83C882.339 609.011 881.101 608.602 879.453 608.602C877.737 608.602 876.385 608.983 875.396 609.744C874.419 610.494 873.743 611.33 873.368 612.25L868.578 611.159C869.146 609.568 869.976 608.284 871.067 607.307C872.169 606.318 873.436 605.602 874.868 605.159C876.3 604.705 877.805 604.477 879.385 604.477C880.43 604.477 881.538 604.602 882.709 604.852C883.891 605.091 884.993 605.534 886.016 606.182C887.05 606.83 887.896 607.756 888.555 608.96C889.214 610.153 889.544 611.705 889.544 613.614V631H884.567V627.42H884.362C884.033 628.08 883.538 628.727 882.879 629.364C882.22 630 881.374 630.528 880.339 630.949C879.305 631.369 878.067 631.58 876.624 631.58ZM877.732 627.489C879.141 627.489 880.345 627.21 881.345 626.653C882.357 626.097 883.124 625.369 883.646 624.472C884.18 623.562 884.447 622.591 884.447 621.557V618.182C884.266 618.364 883.913 618.534 883.391 618.693C882.879 618.841 882.294 618.972 881.635 619.085C880.976 619.187 880.334 619.284 879.709 619.375C879.084 619.455 878.561 619.523 878.141 619.58C877.152 619.705 876.249 619.915 875.43 620.21C874.624 620.506 873.976 620.932 873.487 621.489C873.01 622.034 872.771 622.761 872.771 623.67C872.771 624.932 873.237 625.886 874.169 626.534C875.101 627.17 876.288 627.489 877.732 627.489ZM893.085 609.216V604.818H915.176V609.216H906.636V631H901.659V609.216H893.085ZM930.632 631.528C928.053 631.528 925.831 630.977 923.967 629.875C922.115 628.761 920.683 627.199 919.672 625.188C918.672 623.165 918.172 620.795 918.172 618.08C918.172 615.398 918.672 613.034 919.672 610.989C920.683 608.943 922.092 607.347 923.899 606.199C925.717 605.051 927.842 604.477 930.274 604.477C931.751 604.477 933.183 604.722 934.57 605.21C935.956 605.699 937.2 606.466 938.303 607.511C939.405 608.557 940.274 609.915 940.911 611.585C941.547 613.244 941.865 615.261 941.865 617.636V619.443H921.053V615.625H936.871C936.871 614.284 936.598 613.097 936.053 612.062C935.507 611.017 934.74 610.193 933.751 609.591C932.774 608.989 931.626 608.688 930.308 608.688C928.876 608.688 927.626 609.04 926.558 609.744C925.501 610.437 924.683 611.347 924.104 612.472C923.536 613.585 923.251 614.795 923.251 616.102V619.085C923.251 620.835 923.558 622.324 924.172 623.551C924.797 624.778 925.666 625.716 926.78 626.364C927.893 627 929.195 627.318 930.683 627.318C931.649 627.318 932.53 627.182 933.325 626.909C934.121 626.625 934.808 626.205 935.388 625.648C935.967 625.091 936.411 624.403 936.717 623.585L941.541 624.455C941.155 625.875 940.462 627.119 939.462 628.188C938.473 629.244 937.229 630.068 935.729 630.659C934.24 631.239 932.541 631.528 930.632 631.528ZM964.259 604.818V609.216H952.548V631H947.52V604.818H964.259ZM979.455 631.528C977 631.528 974.858 630.966 973.028 629.841C971.199 628.716 969.778 627.142 968.767 625.119C967.756 623.097 967.25 620.733 967.25 618.028C967.25 615.312 967.756 612.937 968.767 610.903C969.778 608.869 971.199 607.29 973.028 606.165C974.858 605.04 977 604.477 979.455 604.477C981.909 604.477 984.051 605.04 985.881 606.165C987.71 607.29 989.131 608.869 990.142 610.903C991.153 612.937 991.659 615.312 991.659 618.028C991.659 620.733 991.153 623.097 990.142 625.119C989.131 627.142 987.71 628.716 985.881 629.841C984.051 630.966 981.909 631.528 979.455 631.528ZM979.472 627.25C981.063 627.25 982.381 626.83 983.426 625.989C984.472 625.148 985.244 624.028 985.744 622.631C986.256 621.233 986.511 619.693 986.511 618.011C986.511 616.341 986.256 614.807 985.744 613.409C985.244 612 984.472 610.869 983.426 610.017C982.381 609.165 981.063 608.739 979.472 608.739C977.869 608.739 976.54 609.165 975.483 610.017C974.438 610.869 973.659 612 973.148 613.409C972.648 614.807 972.398 616.341 972.398 618.011C972.398 619.693 972.648 621.233 973.148 622.631C973.659 624.028 974.438 625.148 975.483 625.989C976.54 626.83 977.869 627.25 979.472 627.25ZM997.348 640.818V604.818H1002.33V609.062H1002.75C1003.05 608.517 1003.47 607.886 1004.03 607.17C1004.59 606.455 1005.36 605.83 1006.35 605.295C1007.34 604.75 1008.64 604.477 1010.27 604.477C1012.38 604.477 1014.27 605.011 1015.93 606.08C1017.59 607.148 1018.89 608.687 1019.83 610.699C1020.79 612.71 1021.26 615.131 1021.26 617.96C1021.26 620.79 1020.79 623.216 1019.85 625.239C1018.9 627.25 1017.61 628.801 1015.96 629.892C1014.31 630.972 1012.43 631.511 1010.32 631.511C1008.73 631.511 1007.43 631.244 1006.42 630.71C1005.42 630.176 1004.63 629.551 1004.06 628.835C1003.5 628.119 1003.06 627.483 1002.75 626.926H1002.44V640.818H997.348ZM1002.34 617.909C1002.34 619.75 1002.61 621.364 1003.14 622.75C1003.68 624.136 1004.45 625.222 1005.46 626.006C1006.47 626.778 1007.71 627.165 1009.18 627.165C1010.7 627.165 1011.97 626.761 1013 625.955C1014.02 625.136 1014.79 624.028 1015.31 622.631C1015.85 621.233 1016.12 619.659 1016.12 617.909C1016.12 616.182 1015.85 614.631 1015.33 613.256C1014.82 611.881 1014.05 610.795 1013.01 610C1011.99 609.205 1010.71 608.807 1009.18 608.807C1007.7 608.807 1006.45 609.187 1005.43 609.949C1004.42 610.71 1003.65 611.773 1003.13 613.136C1002.6 614.5 1002.34 616.091 1002.34 617.909ZM1031.97 623.858L1043.51 604.818H1049V631H1044V611.943L1032.51 631H1026.97V604.818H1031.97V623.858ZM1071.46 631V609.165H1065.19C1063.7 609.165 1062.54 609.511 1061.71 610.205C1060.88 610.898 1060.47 611.807 1060.47 612.932C1060.47 614.045 1060.85 614.943 1061.61 615.625C1062.38 616.295 1063.46 616.631 1064.85 616.631H1072.94V620.756H1064.85C1062.92 620.756 1061.25 620.437 1059.84 619.801C1058.44 619.153 1057.36 618.239 1056.6 617.057C1055.85 615.875 1055.47 614.477 1055.47 612.864C1055.47 611.216 1055.86 609.795 1056.63 608.602C1057.42 607.398 1058.54 606.466 1059.99 605.807C1061.46 605.148 1063.19 604.818 1065.19 604.818H1076.25V631H1071.46ZM1054.28 631L1061.66 617.773H1066.88L1059.5 631H1054.28Z" fill="black"/>
<path d="M755.193 826.438V813.534H757.494C758.278 812.875 759.011 811.937 759.693 810.722C760.375 809.506 760.955 807.864 761.432 805.795C761.909 803.727 762.239 801.074 762.42 797.835L763.239 783.091H784.767V813.534H788.722V826.386H783.676V818H760.239V826.438H755.193ZM763.699 813.534H779.722V787.625H768.011L767.466 797.835C767.318 800.301 767.074 802.517 766.733 804.483C766.403 806.449 765.977 808.187 765.455 809.699C764.943 811.199 764.358 812.477 763.699 813.534ZM801.702 818.58C800.043 818.58 798.543 818.273 797.202 817.659C795.861 817.034 794.798 816.131 794.014 814.949C793.241 813.767 792.855 812.318 792.855 810.602C792.855 809.125 793.139 807.909 793.707 806.955C794.276 806 795.043 805.244 796.009 804.688C796.974 804.131 798.054 803.71 799.247 803.426C800.44 803.142 801.656 802.926 802.895 802.778C804.463 802.597 805.736 802.449 806.713 802.335C807.69 802.21 808.401 802.011 808.844 801.739C809.287 801.466 809.509 801.023 809.509 800.409V800.29C809.509 798.801 809.088 797.648 808.247 796.83C807.418 796.011 806.179 795.602 804.531 795.602C802.815 795.602 801.463 795.983 800.474 796.744C799.497 797.494 798.821 798.33 798.446 799.25L793.656 798.159C794.224 796.568 795.054 795.284 796.145 794.307C797.247 793.318 798.514 792.602 799.946 792.159C801.378 791.705 802.884 791.477 804.463 791.477C805.509 791.477 806.616 791.602 807.787 791.852C808.969 792.091 810.071 792.534 811.094 793.182C812.128 793.83 812.974 794.756 813.634 795.96C814.293 797.153 814.622 798.705 814.622 800.614V818H809.645V814.42H809.44C809.111 815.08 808.616 815.727 807.957 816.364C807.298 817 806.452 817.528 805.418 817.949C804.384 818.369 803.145 818.58 801.702 818.58ZM802.81 814.489C804.219 814.489 805.423 814.21 806.423 813.653C807.435 813.097 808.202 812.369 808.724 811.472C809.259 810.562 809.526 809.591 809.526 808.557V805.182C809.344 805.364 808.991 805.534 808.469 805.693C807.957 805.841 807.372 805.972 806.713 806.085C806.054 806.187 805.412 806.284 804.787 806.375C804.162 806.455 803.639 806.523 803.219 806.58C802.23 806.705 801.327 806.915 800.509 807.21C799.702 807.506 799.054 807.932 798.565 808.489C798.088 809.034 797.849 809.761 797.849 810.67C797.849 811.932 798.315 812.886 799.247 813.534C800.179 814.17 801.366 814.489 802.81 814.489ZM818.163 796.216V791.818H840.254V796.216H831.714V818H826.737V796.216H818.163ZM852.045 818.58C850.386 818.58 848.886 818.273 847.545 817.659C846.205 817.034 845.142 816.131 844.358 814.949C843.585 813.767 843.199 812.318 843.199 810.602C843.199 809.125 843.483 807.909 844.051 806.955C844.619 806 845.386 805.244 846.352 804.688C847.318 804.131 848.398 803.71 849.591 803.426C850.784 803.142 852 802.926 853.239 802.778C854.807 802.597 856.08 802.449 857.057 802.335C858.034 802.21 858.744 802.011 859.188 801.739C859.631 801.466 859.852 801.023 859.852 800.409V800.29C859.852 798.801 859.432 797.648 858.591 796.83C857.761 796.011 856.523 795.602 854.875 795.602C853.159 795.602 851.807 795.983 850.818 796.744C849.841 797.494 849.165 798.33 848.79 799.25L844 798.159C844.568 796.568 845.398 795.284 846.489 794.307C847.591 793.318 848.858 792.602 850.29 792.159C851.722 791.705 853.227 791.477 854.807 791.477C855.852 791.477 856.96 791.602 858.131 791.852C859.313 792.091 860.415 792.534 861.438 793.182C862.472 793.83 863.318 794.756 863.977 795.96C864.636 797.153 864.966 798.705 864.966 800.614V818H859.989V814.42H859.784C859.455 815.08 858.96 815.727 858.301 816.364C857.642 817 856.795 817.528 855.761 817.949C854.727 818.369 853.489 818.58 852.045 818.58ZM853.153 814.489C854.563 814.489 855.767 814.21 856.767 813.653C857.778 813.097 858.545 812.369 859.068 811.472C859.602 810.562 859.869 809.591 859.869 808.557V805.182C859.688 805.364 859.335 805.534 858.812 805.693C858.301 805.841 857.716 805.972 857.057 806.085C856.398 806.187 855.756 806.284 855.131 806.375C854.506 806.455 853.983 806.523 853.562 806.58C852.574 806.705 851.67 806.915 850.852 807.21C850.045 807.506 849.398 807.932 848.909 808.489C848.432 809.034 848.193 809.761 848.193 810.67C848.193 811.932 848.659 812.886 849.591 813.534C850.523 814.17 851.71 814.489 853.153 814.489ZM884.457 818V791.818H905.815V818H900.821V796.216H889.418V818H884.457ZM914.913 827.818C914.152 827.818 913.459 827.756 912.834 827.631C912.209 827.517 911.743 827.392 911.436 827.256L912.663 823.08C913.595 823.33 914.425 823.438 915.152 823.403C915.879 823.369 916.521 823.097 917.078 822.585C917.646 822.074 918.146 821.239 918.578 820.08L919.209 818.341L909.629 791.818H915.084L921.714 812.136H921.987L928.618 791.818H934.089L923.3 821.494C922.8 822.858 922.163 824.011 921.391 824.955C920.618 825.909 919.697 826.625 918.629 827.102C917.561 827.58 916.322 827.818 914.913 827.818ZM959.078 782.068L961.192 785.29C960.408 786.006 959.516 786.517 958.516 786.824C957.527 787.119 956.385 787.307 955.089 787.386C953.794 787.455 952.311 787.517 950.641 787.574C948.754 787.631 947.203 788.04 945.987 788.801C944.771 789.551 943.834 790.665 943.175 792.142C942.527 793.608 942.107 795.449 941.913 797.665H942.237C943.089 796.04 944.271 794.824 945.783 794.017C947.305 793.21 949.016 792.807 950.913 792.807C953.027 792.807 954.908 793.29 956.555 794.256C958.203 795.222 959.499 796.636 960.442 798.5C961.396 800.352 961.874 802.619 961.874 805.301C961.874 808.017 961.374 810.364 960.374 812.341C959.385 814.318 957.987 815.847 956.18 816.926C954.385 817.994 952.266 818.528 949.822 818.528C947.379 818.528 945.249 817.977 943.43 816.875C941.624 815.761 940.22 814.114 939.22 811.932C938.232 809.75 937.737 807.057 937.737 803.852V801.261C937.737 795.273 938.805 790.767 940.942 787.744C943.078 784.722 946.271 783.17 950.521 783.091C951.896 783.057 953.124 783.051 954.203 783.074C955.283 783.085 956.226 783.034 957.033 782.92C957.851 782.795 958.533 782.511 959.078 782.068ZM949.839 814.25C951.26 814.25 952.482 813.892 953.504 813.176C954.538 812.449 955.334 811.42 955.891 810.091C956.447 808.761 956.726 807.193 956.726 805.386C956.726 803.614 956.447 802.108 955.891 800.869C955.334 799.631 954.538 798.687 953.504 798.04C952.47 797.381 951.232 797.051 949.788 797.051C948.72 797.051 947.766 797.239 946.925 797.614C946.084 797.977 945.362 798.517 944.76 799.233C944.169 799.949 943.709 800.824 943.379 801.858C943.061 802.881 942.891 804.057 942.868 805.386C942.868 808.091 943.487 810.244 944.726 811.847C945.976 813.449 947.68 814.25 949.839 814.25ZM965.504 818L965.487 813.585H966.425C967.152 813.585 967.76 813.432 968.249 813.125C968.749 812.807 969.158 812.273 969.476 811.523C969.794 810.773 970.038 809.739 970.209 808.42C970.379 807.091 970.504 805.42 970.584 803.409L971.044 791.818H989.317V818H984.322V796.216H975.766L975.357 805.114C975.254 807.273 975.033 809.159 974.692 810.773C974.362 812.386 973.879 813.733 973.243 814.812C972.607 815.881 971.788 816.682 970.788 817.216C969.788 817.739 968.572 818 967.141 818H965.504ZM1001.11 810.858L1012.65 791.818H1018.14V818H1013.14V798.943L1001.65 818H996.114V791.818H1001.11V810.858ZM1024.99 818V791.818H1030.09V802.795H1032.54L1041.18 791.818H1047.49L1037.35 804.551L1047.61 818H1041.28L1033.39 807.534H1030.09V818H1024.99ZM1059.19 818.58C1057.53 818.58 1056.03 818.273 1054.69 817.659C1053.35 817.034 1052.28 816.131 1051.5 814.949C1050.73 813.767 1050.34 812.318 1050.34 810.602C1050.34 809.125 1050.62 807.909 1051.19 806.955C1051.76 806 1052.53 805.244 1053.49 804.688C1054.46 804.131 1055.54 803.71 1056.73 803.426C1057.92 803.142 1059.14 802.926 1060.38 802.778C1061.95 802.597 1063.22 802.449 1064.2 802.335C1065.17 802.21 1065.88 802.011 1066.33 801.739C1066.77 801.466 1066.99 801.023 1066.99 800.409V800.29C1066.99 798.801 1066.57 797.648 1065.73 796.83C1064.9 796.011 1063.66 795.602 1062.02 795.602C1060.3 795.602 1058.95 795.983 1057.96 796.744C1056.98 797.494 1056.31 798.33 1055.93 799.25L1051.14 798.159C1051.71 796.568 1052.54 795.284 1053.63 794.307C1054.73 793.318 1056 792.602 1057.43 792.159C1058.86 791.705 1060.37 791.477 1061.95 791.477C1062.99 791.477 1064.1 791.602 1065.27 791.852C1066.45 792.091 1067.56 792.534 1068.58 793.182C1069.61 793.83 1070.46 794.756 1071.12 795.96C1071.78 797.153 1072.11 798.705 1072.11 800.614V818H1067.13V814.42H1066.92C1066.6 815.08 1066.1 815.727 1065.44 816.364C1064.78 817 1063.94 817.528 1062.9 817.949C1061.87 818.369 1060.63 818.58 1059.19 818.58ZM1060.29 814.489C1061.7 814.489 1062.91 814.21 1063.91 813.653C1064.92 813.097 1065.69 812.369 1066.21 811.472C1066.74 810.562 1067.01 809.591 1067.01 808.557V805.182C1066.83 805.364 1066.48 805.534 1065.95 805.693C1065.44 805.841 1064.86 805.972 1064.2 806.085C1063.54 806.187 1062.9 806.284 1062.27 806.375C1061.65 806.455 1061.12 806.523 1060.7 806.58C1059.71 806.705 1058.81 806.915 1057.99 807.21C1057.19 807.506 1056.54 807.932 1056.05 808.489C1055.57 809.034 1055.33 809.761 1055.33 810.67C1055.33 811.932 1055.8 812.886 1056.73 813.534C1057.66 814.17 1058.85 814.489 1060.29 814.489ZM1100.25 791.818V813.824H1104.09V826.438H1099.06V818H1078.89V791.818H1083.89V813.602H1095.28V791.818H1100.25ZM1114.73 810.858L1126.27 791.818H1131.76V818H1126.77V798.943L1115.28 818H1109.74V791.818H1114.73V810.858ZM1143.61 810.858L1155.15 791.818H1160.64V818H1155.64V798.943L1144.15 818H1138.61V791.818H1143.61V810.858Z" fill="black"/>
<path d="M600 318C600 313.582 603.582 310 608 310H1312C1316.42 310 1320 313.582 1320 318V382C1320 386.418 1316.42 390 1312 390H608C603.582 390 600 386.418 600 382V318Z" fill="white"/>
<path d="M608 310V310.5H1312V310V309.5H608V310ZM1320 318H1319.5V382H1320H1320.5V318H1320ZM1312 390V389.5H608V390V390.5H1312V390ZM600 382H600.5V318H600H599.5V382H600ZM608 390V389.5C603.858 389.5 600.5 386.142 600.5 382H600H599.5C599.5 386.694 603.306 390.5 608 390.5V390ZM1320 382H1319.5C1319.5 386.142 1316.14 389.5 1312 389.5V390V390.5C1316.69 390.5 1320.5 386.694 1320.5 382H1320ZM1312 310V310.5C1316.14 310.5 1319.5 313.858 1319.5 318H1320H1320.5C1320.5 313.306 1316.69 309.5 1312 309.5V310ZM608 310V309.5C603.306 309.5 599.5 313.306 599.5 318H600H600.5C600.5 313.858 603.858 310.5 608 310.5V310Z" fill="#D9D9D9"/>
<path d="M617.409 339V327.364H618.818V332.545H625.023V327.364H626.432V339H625.023V333.795H618.818V339H617.409ZM631.639 339.205C631.086 339.205 630.584 339.1 630.134 338.892C629.683 338.68 629.325 338.375 629.06 337.977C628.795 337.576 628.662 337.091 628.662 336.523C628.662 336.023 628.76 335.617 628.957 335.307C629.154 334.992 629.418 334.746 629.747 334.568C630.077 334.39 630.44 334.258 630.838 334.17C631.24 334.08 631.643 334.008 632.048 333.955C632.579 333.886 633.009 333.835 633.338 333.801C633.671 333.763 633.914 333.701 634.065 333.614C634.221 333.527 634.298 333.375 634.298 333.159V333.114C634.298 332.553 634.145 332.117 633.838 331.807C633.535 331.496 633.075 331.341 632.457 331.341C631.817 331.341 631.315 331.481 630.952 331.761C630.588 332.042 630.332 332.341 630.185 332.659L628.912 332.205C629.139 331.674 629.442 331.261 629.821 330.966C630.204 330.667 630.62 330.458 631.071 330.341C631.526 330.22 631.973 330.159 632.412 330.159C632.692 330.159 633.014 330.193 633.378 330.261C633.745 330.326 634.099 330.46 634.44 330.665C634.785 330.869 635.071 331.178 635.298 331.591C635.526 332.004 635.639 332.557 635.639 333.25V339H634.298V337.818H634.23C634.139 338.008 633.988 338.21 633.776 338.426C633.563 338.642 633.281 338.826 632.929 338.977C632.577 339.129 632.147 339.205 631.639 339.205ZM631.844 338C632.374 338 632.821 337.896 633.185 337.688C633.552 337.479 633.829 337.21 634.014 336.881C634.204 336.551 634.298 336.205 634.298 335.841V334.614C634.241 334.682 634.116 334.744 633.923 334.801C633.734 334.854 633.514 334.902 633.264 334.943C633.018 334.981 632.777 335.015 632.543 335.045C632.312 335.072 632.124 335.095 631.98 335.114C631.632 335.159 631.306 335.233 631.003 335.335C630.704 335.434 630.461 335.583 630.276 335.784C630.094 335.981 630.003 336.25 630.003 336.591C630.003 337.057 630.175 337.409 630.52 337.648C630.868 337.883 631.31 338 631.844 338ZM637.541 336.773H638.973C639.003 337.167 639.181 337.466 639.507 337.67C639.837 337.875 640.265 337.977 640.791 337.977C641.329 337.977 641.789 337.867 642.172 337.648C642.554 337.424 642.746 337.064 642.746 336.568C642.746 336.277 642.674 336.023 642.53 335.807C642.386 335.587 642.183 335.417 641.922 335.295C641.661 335.174 641.352 335.114 640.996 335.114H639.496V333.909H640.996C641.53 333.909 641.924 333.788 642.178 333.545C642.435 333.303 642.564 333 642.564 332.636C642.564 332.246 642.426 331.934 642.149 331.699C641.873 331.46 641.481 331.341 640.973 331.341C640.462 331.341 640.036 331.456 639.695 331.688C639.354 331.915 639.174 332.208 639.155 332.568H637.746C637.761 332.098 637.905 331.684 638.178 331.324C638.45 330.96 638.821 330.676 639.291 330.472C639.761 330.263 640.299 330.159 640.905 330.159C641.518 330.159 642.051 330.267 642.501 330.483C642.956 330.695 643.306 330.985 643.553 331.352C643.803 331.716 643.928 332.129 643.928 332.591C643.928 333.083 643.789 333.481 643.513 333.784C643.236 334.087 642.89 334.303 642.473 334.432V334.523C642.803 334.545 643.089 334.652 643.331 334.841C643.577 335.027 643.768 335.271 643.905 335.574C644.041 335.873 644.109 336.205 644.109 336.568C644.109 337.098 643.967 337.561 643.683 337.955C643.399 338.345 643.009 338.648 642.513 338.864C642.017 339.076 641.45 339.182 640.814 339.182C640.196 339.182 639.643 339.081 639.155 338.881C638.666 338.676 638.278 338.394 637.99 338.034C637.706 337.67 637.556 337.25 637.541 336.773ZM645.993 339V330.273H649.561C650.5 330.273 651.247 330.485 651.8 330.909C652.353 331.333 652.629 331.894 652.629 332.591C652.629 333.121 652.472 333.532 652.158 333.824C651.843 334.112 651.44 334.307 650.947 334.409C651.269 334.455 651.582 334.568 651.885 334.75C652.192 334.932 652.446 335.182 652.646 335.5C652.847 335.814 652.947 336.201 652.947 336.659C652.947 337.106 652.834 337.506 652.607 337.858C652.379 338.21 652.054 338.489 651.629 338.693C651.205 338.898 650.697 339 650.107 339H645.993ZM647.266 337.773H650.107C650.569 337.773 650.93 337.663 651.192 337.443C651.453 337.223 651.584 336.924 651.584 336.545C651.584 336.095 651.453 335.741 651.192 335.483C650.93 335.222 650.569 335.091 650.107 335.091H647.266V337.773ZM647.266 333.932H649.561C649.921 333.932 650.23 333.883 650.487 333.784C650.745 333.682 650.942 333.538 651.078 333.352C651.218 333.163 651.288 332.939 651.288 332.682C651.288 332.314 651.135 332.027 650.828 331.818C650.521 331.606 650.099 331.5 649.561 331.5H647.266V333.932ZM657.545 339.205C656.992 339.205 656.491 339.1 656.04 338.892C655.589 338.68 655.231 338.375 654.966 337.977C654.701 337.576 654.568 337.091 654.568 336.523C654.568 336.023 654.667 335.617 654.864 335.307C655.061 334.992 655.324 334.746 655.653 334.568C655.983 334.39 656.347 334.258 656.744 334.17C657.146 334.08 657.549 334.008 657.955 333.955C658.485 333.886 658.915 333.835 659.244 333.801C659.578 333.763 659.82 333.701 659.972 333.614C660.127 333.527 660.205 333.375 660.205 333.159V333.114C660.205 332.553 660.051 332.117 659.744 331.807C659.441 331.496 658.981 331.341 658.364 331.341C657.723 331.341 657.222 331.481 656.858 331.761C656.494 332.042 656.239 332.341 656.091 332.659L654.818 332.205C655.045 331.674 655.348 331.261 655.727 330.966C656.11 330.667 656.527 330.458 656.977 330.341C657.432 330.22 657.879 330.159 658.318 330.159C658.598 330.159 658.92 330.193 659.284 330.261C659.652 330.326 660.006 330.46 660.347 330.665C660.691 330.869 660.977 331.178 661.205 331.591C661.432 332.004 661.545 332.557 661.545 333.25V339H660.205V337.818H660.136C660.045 338.008 659.894 338.21 659.682 338.426C659.47 338.642 659.188 338.826 658.835 338.977C658.483 339.129 658.053 339.205 657.545 339.205ZM657.75 338C658.28 338 658.727 337.896 659.091 337.688C659.458 337.479 659.735 337.21 659.92 336.881C660.11 336.551 660.205 336.205 660.205 335.841V334.614C660.148 334.682 660.023 334.744 659.83 334.801C659.64 334.854 659.42 334.902 659.17 334.943C658.924 334.981 658.684 335.015 658.449 335.045C658.218 335.072 658.03 335.095 657.886 335.114C657.538 335.159 657.212 335.233 656.909 335.335C656.61 335.434 656.367 335.583 656.182 335.784C656 335.981 655.909 336.25 655.909 336.591C655.909 337.057 656.081 337.409 656.426 337.648C656.775 337.883 657.216 338 657.75 338ZM669.834 334.023V335.273H665.016V334.023H669.834ZM665.334 330.273V339H663.993V330.273H665.334ZM670.857 330.273V339H669.516V330.273H670.857ZM674.646 337.023L678.851 330.273H680.396V339H679.055V332.25L674.874 339H673.305V330.273H674.646V337.023ZM686.511 339.182C685.67 339.182 684.945 338.996 684.335 338.625C683.729 338.25 683.261 337.727 682.932 337.057C682.606 336.383 682.443 335.598 682.443 334.705C682.443 333.811 682.606 333.023 682.932 332.341C683.261 331.655 683.72 331.121 684.307 330.739C684.898 330.352 685.587 330.159 686.375 330.159C686.83 330.159 687.278 330.235 687.722 330.386C688.165 330.538 688.568 330.784 688.932 331.125C689.295 331.462 689.585 331.909 689.801 332.466C690.017 333.023 690.125 333.708 690.125 334.523V335.091H683.398V333.932H688.761C688.761 333.439 688.663 333 688.466 332.614C688.273 332.227 687.996 331.922 687.636 331.699C687.28 331.475 686.86 331.364 686.375 331.364C685.841 331.364 685.379 331.496 684.989 331.761C684.602 332.023 684.305 332.364 684.097 332.784C683.888 333.205 683.784 333.655 683.784 334.136V334.909C683.784 335.568 683.898 336.127 684.125 336.585C684.356 337.04 684.676 337.386 685.085 337.625C685.494 337.86 685.97 337.977 686.511 337.977C686.864 337.977 687.182 337.928 687.466 337.83C687.754 337.727 688.002 337.576 688.21 337.375C688.419 337.17 688.58 336.917 688.693 336.614L689.989 336.977C689.852 337.417 689.623 337.803 689.301 338.136C688.979 338.466 688.581 338.723 688.108 338.909C687.634 339.091 687.102 339.182 686.511 339.182Z" fill="#1E1E1E"/>
<path d="M1314.52 377.354L1308.35 383.523M1314.98 380.896L1311.9 383.981" stroke="#B3B3B3"/>
<path d="M600 870C600 865.582 603.582 862 608 862H1312C1316.42 862 1320 865.582 1320 870V934C1320 938.418 1316.42 942 1312 942H608C603.582 942 600 938.418 600 934V870Z" fill="white"/>
<path d="M608 862V862.5H1312V862V861.5H608V862ZM1320 870H1319.5V934H1320H1320.5V870H1320ZM1312 942V941.5H608V942V942.5H1312V942ZM600 934H600.5V870H600H599.5V934H600ZM608 942V941.5C603.858 941.5 600.5 938.142 600.5 934H600H599.5C599.5 938.694 603.306 942.5 608 942.5V942ZM1320 934H1319.5C1319.5 938.142 1316.14 941.5 1312 941.5V942V942.5C1316.69 942.5 1320.5 938.694 1320.5 934H1320ZM1312 862V862.5C1316.14 862.5 1319.5 865.858 1319.5 870H1320H1320.5C1320.5 865.306 1316.69 861.5 1312 861.5V862ZM608 862V861.5C603.306 861.5 599.5 865.306 599.5 870H600H600.5C600.5 865.858 603.858 862.5 608 862.5V862Z" fill="#D9D9D9"/>
<path d="M616.409 893.818V889.75H617.159C617.417 889.515 617.659 889.184 617.886 888.756C618.117 888.324 618.312 887.748 618.472 887.028C618.634 886.305 618.742 885.386 618.795 884.273L619.045 879.364H625.955V889.75H627.295V893.795H625.955V891H617.75V893.818H616.409ZM618.841 889.75H624.614V880.614H620.318L620.136 884.273C620.091 885.121 620.011 885.89 619.898 886.58C619.784 887.265 619.638 887.873 619.46 888.403C619.282 888.93 619.076 889.379 618.841 889.75ZM631.811 891.205C631.258 891.205 630.756 891.1 630.305 890.892C629.855 890.68 629.497 890.375 629.232 889.977C628.966 889.576 628.834 889.091 628.834 888.523C628.834 888.023 628.932 887.617 629.129 887.307C629.326 886.992 629.589 886.746 629.919 886.568C630.249 886.39 630.612 886.258 631.01 886.17C631.411 886.08 631.815 886.008 632.22 885.955C632.75 885.886 633.18 885.835 633.51 885.801C633.843 885.763 634.086 885.701 634.237 885.614C634.393 885.527 634.47 885.375 634.47 885.159V885.114C634.47 884.553 634.317 884.117 634.01 883.807C633.707 883.496 633.247 883.341 632.629 883.341C631.989 883.341 631.487 883.481 631.124 883.761C630.76 884.042 630.504 884.341 630.357 884.659L629.084 884.205C629.311 883.674 629.614 883.261 629.993 882.966C630.375 882.667 630.792 882.458 631.243 882.341C631.697 882.22 632.144 882.159 632.584 882.159C632.864 882.159 633.186 882.193 633.55 882.261C633.917 882.326 634.271 882.46 634.612 882.665C634.957 882.869 635.243 883.178 635.47 883.591C635.697 884.004 635.811 884.557 635.811 885.25V891H634.47V889.818H634.402C634.311 890.008 634.16 890.21 633.947 890.426C633.735 890.642 633.453 890.826 633.101 890.977C632.749 891.129 632.319 891.205 631.811 891.205ZM632.016 890C632.546 890 632.993 889.896 633.357 889.688C633.724 889.479 634 889.21 634.186 888.881C634.375 888.551 634.47 888.205 634.47 887.841V886.614C634.413 886.682 634.288 886.744 634.095 886.801C633.906 886.854 633.686 886.902 633.436 886.943C633.19 886.981 632.949 887.015 632.714 887.045C632.483 887.072 632.296 887.095 632.152 887.114C631.804 887.159 631.478 887.233 631.175 887.335C630.875 887.434 630.633 887.583 630.447 887.784C630.266 887.981 630.175 888.25 630.175 888.591C630.175 889.057 630.347 889.409 630.692 889.648C631.04 889.883 631.482 890 632.016 890ZM637.071 883.523V882.273H644.162V883.523H641.298V891H639.957V883.523H637.071ZM648.233 891.205C647.68 891.205 647.178 891.1 646.727 890.892C646.277 890.68 645.919 890.375 645.653 889.977C645.388 889.576 645.256 889.091 645.256 888.523C645.256 888.023 645.354 887.617 645.551 887.307C645.748 886.992 646.011 886.746 646.341 886.568C646.67 886.39 647.034 886.258 647.432 886.17C647.833 886.08 648.237 886.008 648.642 885.955C649.172 885.886 649.602 885.835 649.932 885.801C650.265 885.763 650.508 885.701 650.659 885.614C650.814 885.527 650.892 885.375 650.892 885.159V885.114C650.892 884.553 650.739 884.117 650.432 883.807C650.129 883.496 649.669 883.341 649.051 883.341C648.411 883.341 647.909 883.481 647.545 883.761C647.182 884.042 646.926 884.341 646.778 884.659L645.506 884.205C645.733 883.674 646.036 883.261 646.415 882.966C646.797 882.667 647.214 882.458 647.665 882.341C648.119 882.22 648.566 882.159 649.006 882.159C649.286 882.159 649.608 882.193 649.972 882.261C650.339 882.326 650.693 882.46 651.034 882.665C651.379 882.869 651.665 883.178 651.892 883.591C652.119 884.004 652.233 884.557 652.233 885.25V891H650.892V889.818H650.824C650.733 890.008 650.581 890.21 650.369 890.426C650.157 890.642 649.875 890.826 649.523 890.977C649.17 891.129 648.741 891.205 648.233 891.205ZM648.438 890C648.968 890 649.415 889.896 649.778 889.688C650.146 889.479 650.422 889.21 650.608 888.881C650.797 888.551 650.892 888.205 650.892 887.841V886.614C650.835 886.682 650.71 886.744 650.517 886.801C650.328 886.854 650.108 886.902 649.858 886.943C649.612 886.981 649.371 887.015 649.136 887.045C648.905 887.072 648.718 887.095 648.574 887.114C648.225 887.159 647.9 887.233 647.597 887.335C647.297 887.434 647.055 887.583 646.869 887.784C646.688 887.981 646.597 888.25 646.597 888.591C646.597 889.057 646.769 889.409 647.114 889.648C647.462 889.883 647.903 890 648.438 890ZM659.18 891V882.273H666.044V891H664.703V883.523H660.521V891H659.18ZM669.044 894.273C668.817 894.273 668.614 894.254 668.436 894.216C668.258 894.182 668.135 894.148 668.067 894.114L668.408 892.932C668.733 893.015 669.021 893.045 669.271 893.023C669.521 893 669.743 892.888 669.936 892.688C670.133 892.491 670.313 892.17 670.476 891.727L670.726 891.045L667.499 882.273H668.953L671.362 889.227H671.453L673.862 882.273H675.317L671.612 892.273C671.446 892.723 671.239 893.097 670.993 893.392C670.747 893.691 670.461 893.913 670.135 894.057C669.813 894.201 669.449 894.273 669.044 894.273ZM683.564 879L684.246 879.818C683.981 880.076 683.674 880.256 683.325 880.358C682.977 880.46 682.583 880.523 682.143 880.545C681.704 880.568 681.215 880.591 680.678 880.614C680.071 880.636 679.57 880.784 679.172 881.057C678.774 881.33 678.467 881.723 678.251 882.239C678.036 882.754 677.897 883.386 677.837 884.136H677.95C678.246 883.591 678.655 883.189 679.178 882.932C679.7 882.674 680.261 882.545 680.859 882.545C681.541 882.545 682.155 882.705 682.7 883.023C683.246 883.341 683.678 883.812 683.996 884.438C684.314 885.062 684.473 885.833 684.473 886.75C684.473 887.663 684.31 888.451 683.984 889.114C683.662 889.777 683.21 890.288 682.626 890.648C682.047 891.004 681.367 891.182 680.587 891.182C679.806 891.182 679.123 890.998 678.536 890.631C677.948 890.259 677.492 889.71 677.166 888.983C676.84 888.252 676.678 887.348 676.678 886.273V885.341C676.678 883.398 677.007 881.924 677.666 880.92C678.329 879.917 679.325 879.398 680.655 879.364C681.125 879.348 681.543 879.345 681.911 879.352C682.278 879.36 682.598 879.343 682.871 879.301C683.143 879.259 683.375 879.159 683.564 879ZM680.587 889.977C681.113 889.977 681.566 889.845 681.945 889.58C682.327 889.314 682.621 888.941 682.825 888.46C683.03 887.975 683.132 887.405 683.132 886.75C683.132 886.114 683.028 885.572 682.82 885.125C682.615 884.678 682.321 884.337 681.939 884.102C681.556 883.867 681.098 883.75 680.564 883.75C680.174 883.75 679.823 883.816 679.513 883.949C679.202 884.081 678.937 884.277 678.717 884.534C678.498 884.792 678.327 885.106 678.206 885.477C678.089 885.848 678.026 886.273 678.018 886.75C678.018 887.727 678.248 888.509 678.706 889.097C679.164 889.684 679.791 889.977 680.587 889.977ZM685.751 891V889.75H686.07C686.331 889.75 686.549 889.699 686.723 889.597C686.897 889.491 687.037 889.307 687.143 889.045C687.253 888.78 687.337 888.413 687.393 887.943C687.454 887.47 687.498 886.867 687.524 886.136L687.683 882.273H693.501V891H692.161V883.523H688.956L688.82 886.636C688.789 887.352 688.725 887.983 688.626 888.528C688.532 889.07 688.386 889.525 688.189 889.892C687.996 890.259 687.738 890.536 687.416 890.722C687.094 890.907 686.691 891 686.206 891H685.751ZM697.303 889.023L701.507 882.273H703.053V891H701.712V884.25L697.53 891H695.962V882.273H697.303V889.023ZM705.509 891V882.273H706.849V886.068H707.736L710.872 882.273H712.599L709.077 886.477L712.645 891H710.918L708.054 887.318H706.849V891H705.509ZM716.67 891.205C716.117 891.205 715.616 891.1 715.165 890.892C714.714 890.68 714.356 890.375 714.091 889.977C713.826 889.576 713.693 889.091 713.693 888.523C713.693 888.023 713.792 887.617 713.989 887.307C714.186 886.992 714.449 886.746 714.778 886.568C715.108 886.39 715.472 886.258 715.869 886.17C716.271 886.08 716.674 886.008 717.08 885.955C717.61 885.886 718.04 885.835 718.369 885.801C718.703 885.763 718.945 885.701 719.097 885.614C719.252 885.527 719.33 885.375 719.33 885.159V885.114C719.33 884.553 719.176 884.117 718.869 883.807C718.566 883.496 718.106 883.341 717.489 883.341C716.848 883.341 716.347 883.481 715.983 883.761C715.619 884.042 715.364 884.341 715.216 884.659L713.943 884.205C714.17 883.674 714.473 883.261 714.852 882.966C715.235 882.667 715.652 882.458 716.102 882.341C716.557 882.22 717.004 882.159 717.443 882.159C717.723 882.159 718.045 882.193 718.409 882.261C718.777 882.326 719.131 882.46 719.472 882.665C719.816 882.869 720.102 883.178 720.33 883.591C720.557 884.004 720.67 884.557 720.67 885.25V891H719.33V889.818H719.261C719.17 890.008 719.019 890.21 718.807 890.426C718.595 890.642 718.313 890.826 717.96 890.977C717.608 891.129 717.178 891.205 716.67 891.205ZM716.875 890C717.405 890 717.852 889.896 718.216 889.688C718.583 889.479 718.86 889.21 719.045 888.881C719.235 888.551 719.33 888.205 719.33 887.841V886.614C719.273 886.682 719.148 886.744 718.955 886.801C718.765 886.854 718.545 886.902 718.295 886.943C718.049 886.981 717.809 887.015 717.574 887.045C717.343 887.072 717.155 887.095 717.011 887.114C716.663 887.159 716.337 887.233 716.034 887.335C715.735 887.434 715.492 887.583 715.307 887.784C715.125 887.981 715.034 888.25 715.034 888.591C715.034 889.057 715.206 889.409 715.551 889.648C715.9 889.883 716.341 890 716.875 890ZM729.982 882.273V889.75H731.209V893.818H729.868V891H723.118V882.273H724.459V889.75H728.641V882.273H729.982ZM734.615 889.023L738.82 882.273H740.365V891H739.024V884.25L734.842 891H733.274V882.273H734.615V889.023ZM744.162 889.023L748.366 882.273H749.912V891H748.571V884.25L744.389 891H742.821V882.273H744.162V889.023Z" fill="#1E1E1E"/>
<path d="M1314.52 929.354L1308.35 935.523M1314.98 932.896L1311.9 935.981" stroke="#B3B3B3"/>
<path d="M600 686C600 681.582 603.582 678 608 678H1312C1316.42 678 1320 681.582 1320 686V750C1320 754.418 1316.42 758 1312 758H608C603.582 758 600 754.418 600 750V686Z" fill="white"/>
<path d="M608 678V678.5H1312V678V677.5H608V678ZM1320 686H1319.5V750H1320H1320.5V686H1320ZM1312 758V757.5H608V758V758.5H1312V758ZM600 750H600.5V686H600H599.5V750H600ZM608 758V757.5C603.858 757.5 600.5 754.142 600.5 750H600H599.5C599.5 754.694 603.306 758.5 608 758.5V758ZM1320 750H1319.5C1319.5 754.142 1316.14 757.5 1312 757.5V758V758.5C1316.69 758.5 1320.5 754.694 1320.5 750H1320ZM1312 678V678.5C1316.14 678.5 1319.5 681.858 1319.5 686H1320H1320.5C1320.5 681.306 1316.69 677.5 1312 677.5V678ZM608 678V677.5C603.306 677.5 599.5 681.306 599.5 686H600H600.5C600.5 681.858 603.858 678.5 608 678.5V678Z" fill="#D9D9D9"/>
<path d="M624.25 707L620.25 701.659H618.818V707H617.409V695.364H618.818V700.409H619.432L624.091 695.364H625.773L621.068 700.477L625.932 707H624.25ZM630.139 707.205C629.586 707.205 629.084 707.1 628.634 706.892C628.183 706.68 627.825 706.375 627.56 705.977C627.295 705.576 627.162 705.091 627.162 704.523C627.162 704.023 627.26 703.617 627.457 703.307C627.654 702.992 627.918 702.746 628.247 702.568C628.577 702.39 628.94 702.258 629.338 702.17C629.74 702.08 630.143 702.008 630.548 701.955C631.079 701.886 631.509 701.835 631.838 701.801C632.171 701.763 632.414 701.701 632.565 701.614C632.721 701.527 632.798 701.375 632.798 701.159V701.114C632.798 700.553 632.645 700.117 632.338 699.807C632.035 699.496 631.575 699.341 630.957 699.341C630.317 699.341 629.815 699.481 629.452 699.761C629.088 700.042 628.832 700.341 628.685 700.659L627.412 700.205C627.639 699.674 627.942 699.261 628.321 698.966C628.704 698.667 629.12 698.458 629.571 698.341C630.026 698.22 630.473 698.159 630.912 698.159C631.192 698.159 631.514 698.193 631.878 698.261C632.245 698.326 632.599 698.46 632.94 698.665C633.285 698.869 633.571 699.178 633.798 699.591C634.026 700.004 634.139 700.557 634.139 701.25V707H632.798V705.818H632.73C632.639 706.008 632.488 706.21 632.276 706.426C632.063 706.642 631.781 706.826 631.429 706.977C631.077 707.129 630.647 707.205 630.139 707.205ZM630.344 706C630.874 706 631.321 705.896 631.685 705.688C632.052 705.479 632.329 705.21 632.514 704.881C632.704 704.551 632.798 704.205 632.798 703.841V702.614C632.741 702.682 632.616 702.744 632.423 702.801C632.234 702.854 632.014 702.902 631.764 702.943C631.518 702.981 631.277 703.015 631.043 703.045C630.812 703.072 630.624 703.095 630.48 703.114C630.132 703.159 629.806 703.233 629.503 703.335C629.204 703.434 628.961 703.583 628.776 703.784C628.594 703.981 628.503 704.25 628.503 704.591C628.503 705.057 628.675 705.409 629.02 705.648C629.368 705.883 629.81 706 630.344 706ZM635.399 699.523V698.273H642.49V699.523H639.626V707H638.286V699.523H635.399ZM647.652 707.182C646.811 707.182 646.086 706.996 645.476 706.625C644.87 706.25 644.402 705.727 644.072 705.057C643.747 704.383 643.584 703.598 643.584 702.705C643.584 701.811 643.747 701.023 644.072 700.341C644.402 699.655 644.86 699.121 645.447 698.739C646.038 698.352 646.728 698.159 647.516 698.159C647.97 698.159 648.419 698.235 648.862 698.386C649.305 698.538 649.709 698.784 650.072 699.125C650.436 699.462 650.726 699.909 650.942 700.466C651.158 701.023 651.266 701.708 651.266 702.523V703.091H644.538V701.932H649.902C649.902 701.439 649.804 701 649.607 700.614C649.413 700.227 649.137 699.922 648.777 699.699C648.421 699.475 648 699.364 647.516 699.364C646.982 699.364 646.519 699.496 646.129 699.761C645.743 700.023 645.446 700.364 645.237 700.784C645.029 701.205 644.925 701.655 644.925 702.136V702.909C644.925 703.568 645.038 704.127 645.266 704.585C645.497 705.04 645.817 705.386 646.226 705.625C646.635 705.86 647.11 705.977 647.652 705.977C648.004 705.977 648.322 705.928 648.607 705.83C648.894 705.727 649.143 705.576 649.351 705.375C649.559 705.17 649.72 704.917 649.834 704.614L651.129 704.977C650.993 705.417 650.764 705.803 650.442 706.136C650.12 706.466 649.722 706.723 649.249 706.909C648.775 707.091 648.243 707.182 647.652 707.182ZM658.692 698.273V699.523H654.646V707H653.305V698.273H658.692ZM663.741 707.182C662.954 707.182 662.262 706.994 661.668 706.619C661.077 706.244 660.615 705.72 660.281 705.045C659.952 704.371 659.787 703.583 659.787 702.682C659.787 701.773 659.952 700.979 660.281 700.301C660.615 699.623 661.077 699.097 661.668 698.722C662.262 698.347 662.954 698.159 663.741 698.159C664.529 698.159 665.219 698.347 665.81 698.722C666.404 699.097 666.866 699.623 667.196 700.301C667.529 700.979 667.696 701.773 667.696 702.682C667.696 703.583 667.529 704.371 667.196 705.045C666.866 705.72 666.404 706.244 665.81 706.619C665.219 706.994 664.529 707.182 663.741 707.182ZM663.741 705.977C664.34 705.977 664.832 705.824 665.219 705.517C665.605 705.21 665.891 704.807 666.077 704.307C666.262 703.807 666.355 703.265 666.355 702.682C666.355 702.098 666.262 701.555 666.077 701.051C665.891 700.547 665.605 700.14 665.219 699.83C664.832 699.519 664.34 699.364 663.741 699.364C663.143 699.364 662.651 699.519 662.264 699.83C661.878 700.14 661.592 700.547 661.406 701.051C661.221 701.555 661.128 702.098 661.128 702.682C661.128 703.265 661.221 703.807 661.406 704.307C661.592 704.807 661.878 705.21 662.264 705.517C662.651 705.824 663.143 705.977 663.741 705.977ZM669.743 710.273V698.273H671.038V699.659H671.197C671.296 699.508 671.432 699.314 671.607 699.08C671.785 698.841 672.038 698.629 672.368 698.443C672.701 698.254 673.152 698.159 673.72 698.159C674.455 698.159 675.103 698.343 675.663 698.71C676.224 699.078 676.661 699.598 676.976 700.273C677.29 700.947 677.447 701.742 677.447 702.659C677.447 703.583 677.29 704.384 676.976 705.062C676.661 705.737 676.226 706.259 675.669 706.631C675.112 706.998 674.47 707.182 673.743 707.182C673.182 707.182 672.733 707.089 672.396 706.903C672.059 706.714 671.8 706.5 671.618 706.261C671.436 706.019 671.296 705.818 671.197 705.659H671.084V710.273H669.743ZM671.061 702.636C671.061 703.295 671.158 703.877 671.351 704.381C671.544 704.881 671.826 705.273 672.197 705.557C672.569 705.837 673.023 705.977 673.561 705.977C674.122 705.977 674.589 705.83 674.964 705.534C675.343 705.235 675.627 704.833 675.817 704.33C676.01 703.822 676.107 703.258 676.107 702.636C676.107 702.023 676.012 701.47 675.822 700.977C675.637 700.481 675.355 700.089 674.976 699.801C674.601 699.509 674.129 699.364 673.561 699.364C673.016 699.364 672.557 699.502 672.186 699.778C671.815 700.051 671.535 700.434 671.345 700.926C671.156 701.415 671.061 701.985 671.061 702.636ZM680.834 705.023L685.038 698.273H686.584V707H685.243V700.25L681.061 707H679.493V698.273H680.834V705.023ZM694.29 707V699.5H691.972C691.449 699.5 691.038 699.621 690.739 699.864C690.439 700.106 690.29 700.439 690.29 700.864C690.29 701.28 690.424 701.608 690.693 701.847C690.966 702.085 691.339 702.205 691.812 702.205H694.631V703.455H691.812C691.222 703.455 690.712 703.35 690.284 703.142C689.856 702.934 689.527 702.636 689.295 702.25C689.064 701.86 688.949 701.398 688.949 700.864C688.949 700.326 689.07 699.864 689.312 699.477C689.555 699.091 689.902 698.794 690.352 698.585C690.807 698.377 691.347 698.273 691.972 698.273H695.562V707H694.29ZM688.472 707L690.949 702.659H692.403L689.926 707H688.472Z" fill="#1E1E1E"/>
<path d="M1314.52 745.354L1308.35 751.523M1314.98 748.896L1311.9 751.981" stroke="#B3B3B3"/>
<path d="M600 502C600 497.582 603.582 494 608 494H1312C1316.42 494 1320 497.582 1320 502V566C1320 570.418 1316.42 574 1312 574H608C603.582 574 600 570.418 600 566V502Z" fill="white"/>
<path d="M608 494V494.5H1312V494V493.5H608V494ZM1320 502H1319.5V566H1320H1320.5V502H1320ZM1312 574V573.5H608V574V574.5H1312V574ZM600 566H600.5V502H600H599.5V566H600ZM608 574V573.5C603.858 573.5 600.5 570.142 600.5 566H600H599.5C599.5 570.694 603.306 574.5 608 574.5V574ZM1320 566H1319.5C1319.5 570.142 1316.14 573.5 1312 573.5V574V574.5C1316.69 574.5 1320.5 570.694 1320.5 566H1320ZM1312 494V494.5C1316.14 494.5 1319.5 497.858 1319.5 502H1320H1320.5C1320.5 497.306 1316.69 493.5 1312 493.5V494ZM608 494V493.5C603.306 493.5 599.5 497.306 599.5 502H600H600.5C600.5 497.858 603.858 494.5 608 494.5V494Z" fill="#D9D9D9"/>
<path d="M617.886 523H616.409L620.682 511.364H622.136L626.409 523H624.932L621.455 513.205H621.364L617.886 523ZM618.432 518.455H624.386V519.705H618.432V518.455ZM628.04 523V514.273H631.608C632.547 514.273 633.294 514.485 633.847 514.909C634.4 515.333 634.676 515.894 634.676 516.591C634.676 517.121 634.519 517.532 634.205 517.824C633.89 518.112 633.487 518.307 632.994 518.409C633.316 518.455 633.629 518.568 633.932 518.75C634.239 518.932 634.492 519.182 634.693 519.5C634.894 519.814 634.994 520.201 634.994 520.659C634.994 521.106 634.881 521.506 634.653 521.858C634.426 522.21 634.1 522.489 633.676 522.693C633.252 522.898 632.744 523 632.153 523H628.04ZM629.312 521.773H632.153C632.616 521.773 632.977 521.663 633.239 521.443C633.5 521.223 633.631 520.924 633.631 520.545C633.631 520.095 633.5 519.741 633.239 519.483C632.977 519.222 632.616 519.091 632.153 519.091H629.312V521.773ZM629.312 517.932H631.608C631.968 517.932 632.277 517.883 632.534 517.784C632.792 517.682 632.989 517.538 633.125 517.352C633.265 517.163 633.335 516.939 633.335 516.682C633.335 516.314 633.182 516.027 632.875 515.818C632.568 515.606 632.146 515.5 631.608 515.5H629.312V517.932ZM636.524 515.523V514.273H643.615V515.523H640.751V523H639.411V515.523H636.524ZM648.663 523.182C647.875 523.182 647.184 522.994 646.589 522.619C645.999 522.244 645.536 521.72 645.203 521.045C644.874 520.371 644.709 519.583 644.709 518.682C644.709 517.773 644.874 516.979 645.203 516.301C645.536 515.623 645.999 515.097 646.589 514.722C647.184 514.347 647.875 514.159 648.663 514.159C649.451 514.159 650.141 514.347 650.732 514.722C651.326 515.097 651.788 515.623 652.118 516.301C652.451 516.979 652.618 517.773 652.618 518.682C652.618 519.583 652.451 520.371 652.118 521.045C651.788 521.72 651.326 522.244 650.732 522.619C650.141 522.994 649.451 523.182 648.663 523.182ZM648.663 521.977C649.262 521.977 649.754 521.824 650.141 521.517C650.527 521.21 650.813 520.807 650.999 520.307C651.184 519.807 651.277 519.265 651.277 518.682C651.277 518.098 651.184 517.555 650.999 517.051C650.813 516.547 650.527 516.14 650.141 515.83C649.754 515.519 649.262 515.364 648.663 515.364C648.065 515.364 647.572 515.519 647.186 515.83C646.8 516.14 646.514 516.547 646.328 517.051C646.143 517.555 646.05 518.098 646.05 518.682C646.05 519.265 646.143 519.807 646.328 520.307C646.514 520.807 646.8 521.21 647.186 521.517C647.572 521.824 648.065 521.977 648.663 521.977ZM654.665 526.273V514.273H655.96V515.659H656.119C656.218 515.508 656.354 515.314 656.528 515.08C656.706 514.841 656.96 514.629 657.29 514.443C657.623 514.254 658.074 514.159 658.642 514.159C659.377 514.159 660.025 514.343 660.585 514.71C661.146 515.078 661.583 515.598 661.898 516.273C662.212 516.947 662.369 517.742 662.369 518.659C662.369 519.583 662.212 520.384 661.898 521.062C661.583 521.737 661.148 522.259 660.591 522.631C660.034 522.998 659.392 523.182 658.665 523.182C658.104 523.182 657.655 523.089 657.318 522.903C656.981 522.714 656.722 522.5 656.54 522.261C656.358 522.019 656.218 521.818 656.119 521.659H656.006V526.273H654.665ZM655.983 518.636C655.983 519.295 656.08 519.877 656.273 520.381C656.466 520.881 656.748 521.273 657.119 521.557C657.491 521.837 657.945 521.977 658.483 521.977C659.044 521.977 659.511 521.83 659.886 521.534C660.265 521.235 660.549 520.833 660.739 520.33C660.932 519.822 661.028 519.258 661.028 518.636C661.028 518.023 660.934 517.47 660.744 516.977C660.559 516.481 660.277 516.089 659.898 515.801C659.523 515.509 659.051 515.364 658.483 515.364C657.938 515.364 657.479 515.502 657.108 515.778C656.737 516.051 656.456 516.434 656.267 516.926C656.078 517.415 655.983 517.985 655.983 518.636Z" fill="#1E1E1E"/>
<path d="M1314.52 561.354L1308.35 567.523M1314.98 564.896L1311.9 567.981" stroke="#B3B3B3"/>
<rect x="754" y="995" width="353" height="62" rx="20" fill="#474747"/>
<path d="M817.193 1049.44V1036.53H819.494C820.278 1035.87 821.011 1034.94 821.693 1033.72C822.375 1032.51 822.955 1030.86 823.432 1028.8C823.909 1026.73 824.239 1024.07 824.42 1020.84L825.239 1006.09H846.767V1036.53H850.722V1049.39H845.676V1041H822.239V1049.44H817.193ZM825.699 1036.53H841.722V1010.62H830.011L829.466 1020.84C829.318 1023.3 829.074 1025.52 828.733 1027.48C828.403 1029.45 827.977 1031.19 827.455 1032.7C826.943 1034.2 826.358 1035.48 825.699 1036.53ZM867.111 1041.53C864.656 1041.53 862.514 1040.97 860.685 1039.84C858.855 1038.72 857.435 1037.14 856.423 1035.12C855.412 1033.1 854.906 1030.73 854.906 1028.03C854.906 1025.31 855.412 1022.94 856.423 1020.9C857.435 1018.87 858.855 1017.29 860.685 1016.16C862.514 1015.04 864.656 1014.48 867.111 1014.48C869.565 1014.48 871.707 1015.04 873.537 1016.16C875.366 1017.29 876.787 1018.87 877.798 1020.9C878.81 1022.94 879.315 1025.31 879.315 1028.03C879.315 1030.73 878.81 1033.1 877.798 1035.12C876.787 1037.14 875.366 1038.72 873.537 1039.84C871.707 1040.97 869.565 1041.53 867.111 1041.53ZM867.128 1037.25C868.719 1037.25 870.037 1036.83 871.082 1035.99C872.128 1035.15 872.901 1034.03 873.401 1032.63C873.912 1031.23 874.168 1029.69 874.168 1028.01C874.168 1026.34 873.912 1024.81 873.401 1023.41C872.901 1022 872.128 1020.87 871.082 1020.02C870.037 1019.16 868.719 1018.74 867.128 1018.74C865.526 1018.74 864.196 1019.16 863.139 1020.02C862.094 1020.87 861.315 1022 860.804 1023.41C860.304 1024.81 860.054 1026.34 860.054 1028.01C860.054 1029.69 860.304 1031.23 860.804 1032.63C861.315 1034.03 862.094 1035.15 863.139 1035.99C864.196 1036.83 865.526 1037.25 867.128 1037.25ZM905.203 1005.07L907.317 1008.29C906.533 1009.01 905.641 1009.52 904.641 1009.82C903.652 1010.12 902.51 1010.31 901.214 1010.39C899.919 1010.45 898.436 1010.52 896.766 1010.57C894.879 1010.63 893.328 1011.04 892.112 1011.8C890.896 1012.55 889.959 1013.66 889.3 1015.14C888.652 1016.61 888.232 1018.45 888.038 1020.66H888.362C889.214 1019.04 890.396 1017.82 891.908 1017.02C893.43 1016.21 895.141 1015.81 897.038 1015.81C899.152 1015.81 901.033 1016.29 902.68 1017.26C904.328 1018.22 905.624 1019.64 906.567 1021.5C907.521 1023.35 907.999 1025.62 907.999 1028.3C907.999 1031.02 907.499 1033.36 906.499 1035.34C905.51 1037.32 904.112 1038.85 902.305 1039.93C900.51 1040.99 898.391 1041.53 895.947 1041.53C893.504 1041.53 891.374 1040.98 889.555 1039.88C887.749 1038.76 886.345 1037.11 885.345 1034.93C884.357 1032.75 883.862 1030.06 883.862 1026.85V1024.26C883.862 1018.27 884.93 1013.77 887.067 1010.74C889.203 1007.72 892.396 1006.17 896.646 1006.09C898.021 1006.06 899.249 1006.05 900.328 1006.07C901.408 1006.09 902.351 1006.03 903.158 1005.92C903.976 1005.8 904.658 1005.51 905.203 1005.07ZM895.964 1037.25C897.385 1037.25 898.607 1036.89 899.629 1036.18C900.663 1035.45 901.459 1034.42 902.016 1033.09C902.572 1031.76 902.851 1030.19 902.851 1028.39C902.851 1026.61 902.572 1025.11 902.016 1023.87C901.459 1022.63 900.663 1021.69 899.629 1021.04C898.595 1020.38 897.357 1020.05 895.913 1020.05C894.845 1020.05 893.891 1020.24 893.05 1020.61C892.209 1020.98 891.487 1021.52 890.885 1022.23C890.294 1022.95 889.834 1023.82 889.504 1024.86C889.186 1025.88 889.016 1027.06 888.993 1028.39C888.993 1031.09 889.612 1033.24 890.851 1034.85C892.101 1036.45 893.805 1037.25 895.964 1037.25ZM921.311 1041.58C919.652 1041.58 918.152 1041.27 916.811 1040.66C915.47 1040.03 914.408 1039.13 913.624 1037.95C912.851 1036.77 912.464 1035.32 912.464 1033.6C912.464 1032.12 912.749 1030.91 913.317 1029.95C913.885 1029 914.652 1028.24 915.618 1027.69C916.584 1027.13 917.663 1026.71 918.857 1026.43C920.05 1026.14 921.266 1025.93 922.504 1025.78C924.072 1025.6 925.345 1025.45 926.322 1025.34C927.3 1025.21 928.01 1025.01 928.453 1024.74C928.896 1024.47 929.118 1024.02 929.118 1023.41V1023.29C929.118 1021.8 928.697 1020.65 927.857 1019.83C927.027 1019.01 925.788 1018.6 924.141 1018.6C922.425 1018.6 921.072 1018.98 920.084 1019.74C919.107 1020.49 918.43 1021.33 918.055 1022.25L913.266 1021.16C913.834 1019.57 914.663 1018.28 915.754 1017.31C916.857 1016.32 918.124 1015.6 919.555 1015.16C920.987 1014.7 922.493 1014.48 924.072 1014.48C925.118 1014.48 926.226 1014.6 927.396 1014.85C928.578 1015.09 929.68 1015.53 930.703 1016.18C931.737 1016.83 932.584 1017.76 933.243 1018.96C933.902 1020.15 934.232 1021.7 934.232 1023.61V1041H929.254V1037.42H929.05C928.72 1038.08 928.226 1038.73 927.567 1039.36C926.908 1040 926.061 1040.53 925.027 1040.95C923.993 1041.37 922.754 1041.58 921.311 1041.58ZM922.419 1037.49C923.828 1037.49 925.033 1037.21 926.033 1036.65C927.044 1036.1 927.811 1035.37 928.334 1034.47C928.868 1033.56 929.135 1032.59 929.135 1031.56V1028.18C928.953 1028.36 928.601 1028.53 928.078 1028.69C927.567 1028.84 926.982 1028.97 926.322 1029.09C925.663 1029.19 925.021 1029.28 924.396 1029.38C923.771 1029.45 923.249 1029.52 922.828 1029.58C921.839 1029.7 920.936 1029.91 920.118 1030.21C919.311 1030.51 918.663 1030.93 918.175 1031.49C917.697 1032.03 917.459 1032.76 917.459 1033.67C917.459 1034.93 917.925 1035.89 918.857 1036.53C919.788 1037.17 920.976 1037.49 922.419 1037.49ZM941.02 1041V1014.82H951.878C954.832 1014.82 957.173 1015.45 958.901 1016.71C960.628 1017.96 961.491 1019.66 961.491 1021.81C961.491 1023.34 961.003 1024.56 960.026 1025.45C959.048 1026.35 957.753 1026.95 956.139 1027.26C957.31 1027.4 958.384 1027.75 959.361 1028.32C960.338 1028.87 961.122 1029.62 961.713 1030.57C962.315 1031.51 962.616 1032.64 962.616 1033.94C962.616 1035.33 962.259 1036.56 961.543 1037.62C960.827 1038.68 959.787 1039.51 958.423 1040.11C957.071 1040.7 955.44 1041 953.531 1041H941.02ZM945.81 1036.74H953.531C954.793 1036.74 955.781 1036.44 956.497 1035.84C957.213 1035.23 957.571 1034.41 957.571 1033.38C957.571 1032.16 957.213 1031.21 956.497 1030.52C955.781 1029.81 954.793 1029.46 953.531 1029.46H945.81V1036.74ZM945.81 1025.73H951.929C952.884 1025.73 953.702 1025.59 954.384 1025.32C955.077 1025.05 955.605 1024.66 955.969 1024.16C956.344 1023.65 956.531 1023.05 956.531 1022.35C956.531 1021.34 956.116 1020.55 955.287 1019.98C954.457 1019.41 953.321 1019.13 951.878 1019.13H945.81V1025.73ZM973.202 1033.86L984.741 1014.82H990.23V1041H985.236V1021.94L973.747 1041H968.207V1014.82H973.202V1033.86ZM993.835 1019.22V1014.82H1015.93V1019.22H1007.39V1041H1002.41V1019.22H993.835ZM1025.15 1023.82H1032.75C1035.96 1023.82 1038.42 1024.61 1040.15 1026.2C1041.88 1027.8 1042.74 1029.85 1042.74 1032.36C1042.74 1033.99 1042.36 1035.47 1041.58 1036.77C1040.81 1038.08 1039.68 1039.11 1038.19 1039.88C1036.7 1040.62 1034.89 1041 1032.75 1041H1021.32V1014.82H1026.31V1036.6H1032.75C1034.22 1036.6 1035.42 1036.22 1036.37 1035.46C1037.31 1034.69 1037.78 1033.7 1037.78 1032.51C1037.78 1031.25 1037.31 1030.22 1036.37 1029.43C1035.42 1028.62 1034.22 1028.22 1032.75 1028.22H1025.15V1023.82Z" fill="white"/>
</svg>
