<svg width="1920" height="1080" viewBox="0 0 1920 1080" fill="none" xmlns="http://www.w3.org/2000/svg">
<rect width="1920" height="1080" fill="white"/>
<rect x="1469" y="16" width="398" height="69" rx="18" fill="#958383"/>
<path d="M1623.2 37.8182V41.2188H1610.83V64H1606.88V37.8182H1623.2ZM1625.8 64L1625.79 60.6889H1626.49C1627.04 60.6889 1627.49 60.5739 1627.86 60.3438C1628.23 60.1051 1628.54 59.7045 1628.78 59.142C1629.02 58.5795 1629.2 57.804 1629.33 56.8153C1629.46 55.8182 1629.55 54.5653 1629.61 53.0568L1629.95 44.3636H1643.66V64H1639.91V47.6619H1633.5L1633.19 54.3352C1633.11 55.9545 1632.95 57.3693 1632.69 58.5795C1632.44 59.7898 1632.08 60.7997 1631.6 61.6094C1631.13 62.4105 1630.51 63.0114 1629.76 63.4119C1629.01 63.804 1628.1 64 1627.03 64H1625.8ZM1654.47 64.4347C1653.23 64.4347 1652.1 64.2045 1651.1 63.7443C1650.09 63.2756 1649.29 62.598 1648.71 61.7116C1648.13 60.8253 1647.84 59.7386 1647.84 58.4517C1647.84 57.3437 1648.05 56.4318 1648.48 55.7159C1648.9 55 1649.48 54.4332 1650.2 54.0156C1650.93 53.598 1651.74 53.2827 1652.63 53.0696C1653.53 52.8565 1654.44 52.6946 1655.37 52.5838C1656.54 52.4474 1657.5 52.3366 1658.23 52.2514C1658.96 52.1577 1659.5 52.0085 1659.83 51.804C1660.16 51.5994 1660.33 51.267 1660.33 50.8068V50.7173C1660.33 49.6009 1660.01 48.7358 1659.38 48.1222C1658.76 47.5085 1657.83 47.2017 1656.59 47.2017C1655.31 47.2017 1654.29 47.4872 1653.55 48.0582C1652.82 48.6207 1652.31 49.2472 1652.03 49.9375L1648.44 49.1193C1648.86 47.9261 1649.49 46.9631 1650.3 46.2301C1651.13 45.4886 1652.08 44.9517 1653.15 44.6193C1654.23 44.2784 1655.36 44.108 1656.54 44.108C1657.33 44.108 1658.16 44.2017 1659.04 44.3892C1659.92 44.5682 1660.75 44.9006 1661.52 45.3864C1662.29 45.8722 1662.93 46.5668 1663.42 47.4702C1663.91 48.3651 1664.16 49.5284 1664.16 50.9602V64H1660.43V61.3153H1660.28C1660.03 61.8097 1659.66 62.2955 1659.16 62.7727C1658.67 63.25 1658.03 63.6463 1657.26 63.9616C1656.48 64.277 1655.55 64.4347 1654.47 64.4347ZM1655.3 61.3665C1656.36 61.3665 1657.26 61.1577 1658.01 60.7401C1658.77 60.3224 1659.35 59.777 1659.74 59.1037C1660.14 58.4219 1660.34 57.6932 1660.34 56.9176V54.3864C1660.2 54.5227 1659.94 54.6506 1659.55 54.7699C1659.16 54.8807 1658.72 54.9787 1658.23 55.0639C1657.74 55.1406 1657.25 55.2131 1656.79 55.2812C1656.32 55.3409 1655.92 55.392 1655.61 55.4347C1654.87 55.5284 1654.19 55.6861 1653.58 55.9077C1652.97 56.1293 1652.49 56.4489 1652.12 56.8665C1651.76 57.2756 1651.58 57.821 1651.58 58.5028C1651.58 59.4489 1651.93 60.1648 1652.63 60.6506C1653.33 61.1278 1654.22 61.3665 1655.3 61.3665ZM1669.25 64V44.3636H1677.4C1679.61 44.3636 1681.37 44.8366 1682.66 45.7827C1683.96 46.7202 1684.61 47.9943 1684.61 49.6051C1684.61 50.7557 1684.24 51.6676 1683.51 52.3409C1682.77 53.0142 1681.8 53.4659 1680.59 53.696C1681.47 53.7983 1682.28 54.0625 1683.01 54.4886C1683.74 54.9062 1684.33 55.4687 1684.77 56.1761C1685.22 56.8835 1685.45 57.7273 1685.45 58.7074C1685.45 59.7472 1685.18 60.6676 1684.65 61.4688C1684.11 62.2614 1683.33 62.8835 1682.31 63.3352C1681.29 63.7784 1680.07 64 1678.64 64H1669.25ZM1672.85 60.804H1678.64C1679.58 60.804 1680.32 60.5781 1680.86 60.1264C1681.4 59.6747 1681.67 59.0611 1681.67 58.2855C1681.67 57.3736 1681.4 56.6577 1680.86 56.1378C1680.32 55.6094 1679.58 55.3452 1678.64 55.3452H1672.85V60.804ZM1672.85 52.5455H1677.44C1678.15 52.5455 1678.76 52.4432 1679.28 52.2386C1679.8 52.0341 1680.19 51.7443 1680.46 51.3693C1680.75 50.9858 1680.89 50.5341 1680.89 50.0142C1680.89 49.2557 1680.58 48.6634 1679.95 48.2372C1679.33 47.8111 1678.48 47.598 1677.4 47.598H1672.85V52.5455ZM1702.95 52.5327V55.8438H1692.32V52.5327H1702.95ZM1693.39 44.3636V64H1689.64V44.3636H1693.39ZM1705.62 44.3636V64H1701.89V44.3636H1705.62ZM1716.45 64.4347C1715.21 64.4347 1714.08 64.2045 1713.08 63.7443C1712.07 63.2756 1711.27 62.598 1710.69 61.7116C1710.11 60.8253 1709.82 59.7386 1709.82 58.4517C1709.82 57.3437 1710.03 56.4318 1710.46 55.7159C1710.88 55 1711.46 54.4332 1712.18 54.0156C1712.91 53.598 1713.72 53.2827 1714.61 53.0696C1715.51 52.8565 1716.42 52.6946 1717.35 52.5838C1718.52 52.4474 1719.48 52.3366 1720.21 52.2514C1720.94 52.1577 1721.48 52.0085 1721.81 51.804C1722.14 51.5994 1722.31 51.267 1722.31 50.8068V50.7173C1722.31 49.6009 1721.99 48.7358 1721.36 48.1222C1720.74 47.5085 1719.81 47.2017 1718.57 47.2017C1717.29 47.2017 1716.27 47.4872 1715.53 48.0582C1714.8 48.6207 1714.29 49.2472 1714.01 49.9375L1710.42 49.1193C1710.84 47.9261 1711.47 46.9631 1712.28 46.2301C1713.11 45.4886 1714.06 44.9517 1715.14 44.6193C1716.21 44.2784 1717.34 44.108 1718.52 44.108C1719.31 44.108 1720.14 44.2017 1721.02 44.3892C1721.9 44.5682 1722.73 44.9006 1723.5 45.3864C1724.27 45.8722 1724.91 46.5668 1725.4 47.4702C1725.9 48.3651 1726.14 49.5284 1726.14 50.9602V64H1722.41V61.3153H1722.26C1722.01 61.8097 1721.64 62.2955 1721.14 62.7727C1720.65 63.25 1720.01 63.6463 1719.24 63.9616C1718.46 64.277 1717.53 64.4347 1716.45 64.4347ZM1717.28 61.3665C1718.34 61.3665 1719.24 61.1577 1719.99 60.7401C1720.75 60.3224 1721.33 59.777 1721.72 59.1037C1722.12 58.4219 1722.32 57.6932 1722.32 56.9176V54.3864C1722.18 54.5227 1721.92 54.6506 1721.53 54.7699C1721.14 54.8807 1720.7 54.9787 1720.21 55.0639C1719.72 55.1406 1719.23 55.2131 1718.77 55.2812C1718.3 55.3409 1717.91 55.392 1717.59 55.4347C1716.85 55.5284 1716.17 55.6861 1715.56 55.9077C1714.95 56.1293 1714.47 56.4489 1714.1 56.8665C1713.74 57.2756 1713.56 57.821 1713.56 58.5028C1713.56 59.4489 1713.91 60.1648 1714.61 60.6506C1715.31 61.1278 1716.2 61.3665 1717.28 61.3665ZM1742.94 64V47.6236H1738.24C1737.12 47.6236 1736.25 47.8835 1735.63 48.4034C1735.01 48.9233 1734.7 49.6051 1734.7 50.4489C1734.7 51.2841 1734.98 51.9574 1735.55 52.4688C1736.13 52.9716 1736.94 53.223 1737.98 53.223H1744.06V56.3168H1737.98C1736.53 56.3168 1735.28 56.0781 1734.23 55.6009C1733.18 55.1151 1732.37 54.429 1731.8 53.5426C1731.23 52.6562 1730.95 51.608 1730.95 50.3977C1730.95 49.1619 1731.24 48.0966 1731.82 47.2017C1732.41 46.2983 1733.25 45.5994 1734.34 45.1051C1735.44 44.6108 1736.74 44.3636 1738.24 44.3636H1746.54V64H1742.94ZM1730.06 64L1735.59 54.0795H1739.5L1733.97 64H1730.06Z" fill="white"/>
<path d="M497.794 129V85.3636H513.774C516.871 85.3636 519.435 85.875 521.466 86.8977C523.497 87.9062 525.017 89.277 526.026 91.0099C527.034 92.7287 527.538 94.6676 527.538 96.8267C527.538 98.6449 527.205 100.179 526.537 101.429C525.869 102.665 524.974 103.659 523.852 104.412C522.744 105.151 521.523 105.69 520.188 106.031V106.457C521.636 106.528 523.05 106.997 524.428 107.864C525.82 108.716 526.97 109.93 527.879 111.507C528.788 113.084 529.243 115.001 529.243 117.26C529.243 119.49 528.717 121.493 527.666 123.268C526.629 125.03 525.024 126.429 522.851 127.466C520.678 128.489 517.901 129 514.52 129H497.794ZM504.378 123.354H513.881C517.034 123.354 519.293 122.743 520.656 121.521C522.02 120.3 522.702 118.773 522.702 116.94C522.702 115.562 522.354 114.298 521.658 113.148C520.962 111.997 519.967 111.081 518.675 110.399C517.396 109.717 515.876 109.376 514.115 109.376H504.378V123.354ZM504.378 104.241H513.199C514.676 104.241 516.004 103.957 517.183 103.389C518.376 102.821 519.321 102.026 520.017 101.003C520.727 99.9659 521.082 98.7443 521.082 97.3381C521.082 95.5341 520.45 94.0213 519.186 92.7997C517.922 91.5781 515.983 90.9673 513.369 90.9673H504.378V104.241ZM541.335 107.523H550.837C554.843 107.523 557.925 108.517 560.085 110.506C562.244 112.494 563.323 115.058 563.323 118.197C563.323 120.243 562.84 122.082 561.874 123.716C560.908 125.349 559.495 126.642 557.634 127.594C555.773 128.531 553.508 129 550.837 129H536.54V96.2727H542.783V123.503H550.837C552.67 123.503 554.175 123.027 555.354 122.075C556.533 121.109 557.123 119.881 557.123 118.389C557.123 116.812 556.533 115.527 555.354 114.533C554.175 113.524 552.67 113.02 550.837 113.02H541.335V107.523ZM567.968 129V96.2727H574.339V129H567.968ZM608.137 84.0852L610.779 88.1122C609.799 89.0071 608.684 89.6463 607.434 90.0298C606.198 90.3991 604.77 90.6335 603.151 90.733C601.532 90.8182 599.678 90.8963 597.59 90.9673C595.232 91.0384 593.293 91.5497 591.773 92.5014C590.253 93.4389 589.081 94.831 588.257 96.6776C587.448 98.5099 586.922 100.811 586.681 103.581H587.086C588.151 101.55 589.628 100.03 591.517 99.0213C593.421 98.0128 595.559 97.5085 597.931 97.5085C600.573 97.5085 602.924 98.1122 604.983 99.3196C607.043 100.527 608.662 102.295 609.841 104.625C611.034 106.94 611.631 109.774 611.631 113.126C611.631 116.521 611.006 119.455 609.756 121.926C608.52 124.398 606.773 126.308 604.515 127.658C602.27 128.993 599.621 129.661 596.567 129.661C593.513 129.661 590.85 128.972 588.577 127.594C586.319 126.202 584.564 124.142 583.314 121.415C582.078 118.687 581.461 115.321 581.461 111.315V108.077C581.461 100.591 582.796 94.9588 585.466 91.1804C588.137 87.402 592.128 85.4631 597.441 85.3636C599.159 85.321 600.694 85.3139 602.043 85.3423C603.392 85.3565 604.571 85.2926 605.58 85.1506C606.603 84.9943 607.455 84.6392 608.137 84.0852ZM596.588 124.312C598.364 124.312 599.891 123.865 601.169 122.97C602.462 122.061 603.456 120.776 604.152 119.114C604.848 117.452 605.196 115.491 605.196 113.233C605.196 111.017 604.848 109.135 604.152 107.587C603.456 106.038 602.462 104.859 601.169 104.05C599.877 103.226 598.328 102.814 596.525 102.814C595.189 102.814 593.996 103.048 592.945 103.517C591.894 103.972 590.992 104.646 590.239 105.541C589.5 106.436 588.925 107.53 588.513 108.822C588.115 110.101 587.902 111.571 587.874 113.233C587.874 116.614 588.648 119.305 590.196 121.308C591.759 123.311 593.89 124.312 596.588 124.312ZM632.853 129.661C629.628 129.661 626.851 128.972 624.522 127.594C622.206 126.202 620.417 124.249 619.152 121.734C617.902 119.206 617.277 116.244 617.277 112.849C617.277 109.497 617.902 106.543 619.152 103.986C620.417 101.429 622.178 99.4332 624.436 97.9986C626.709 96.5639 629.365 95.8466 632.405 95.8466C634.252 95.8466 636.042 96.152 637.775 96.7628C639.507 97.3736 641.063 98.3324 642.441 99.6392C643.819 100.946 644.905 102.643 645.701 104.732C646.496 106.805 646.894 109.327 646.894 112.295V114.554H620.878V109.781H640.651C640.651 108.105 640.31 106.621 639.628 105.328C638.946 104.021 637.988 102.991 636.752 102.239C635.53 101.486 634.096 101.109 632.448 101.109C630.658 101.109 629.096 101.55 627.76 102.43C626.439 103.297 625.417 104.433 624.692 105.839C623.982 107.232 623.627 108.744 623.627 110.378V114.107C623.627 116.294 624.01 118.155 624.777 119.689C625.559 121.223 626.645 122.395 628.037 123.205C629.429 124 631.056 124.398 632.917 124.398C634.124 124.398 635.225 124.227 636.219 123.886C637.213 123.531 638.073 123.006 638.797 122.31C639.522 121.614 640.076 120.754 640.459 119.732L646.489 120.818C646.006 122.594 645.14 124.149 643.89 125.484C642.654 126.805 641.098 127.835 639.223 128.574C637.363 129.298 635.239 129.661 632.853 129.661ZM653.962 141.273V96.2727H660.184V101.578H660.717C661.086 100.896 661.619 100.108 662.315 99.2131C663.011 98.3182 663.977 97.5369 665.212 96.8693C666.448 96.1875 668.082 95.8466 670.113 95.8466C672.755 95.8466 675.113 96.5142 677.187 97.8494C679.261 99.1847 680.887 101.109 682.066 103.624C683.259 106.138 683.856 109.163 683.856 112.7C683.856 116.237 683.266 119.27 682.087 121.798C680.908 124.312 679.289 126.251 677.229 127.615C675.17 128.964 672.819 129.639 670.177 129.639C668.188 129.639 666.562 129.305 665.298 128.638C664.048 127.97 663.067 127.189 662.357 126.294C661.647 125.399 661.1 124.604 660.717 123.908H660.333V141.273H653.962ZM660.205 112.636C660.205 114.937 660.539 116.955 661.207 118.688C661.874 120.42 662.84 121.777 664.104 122.757C665.369 123.723 666.917 124.206 668.749 124.206C670.653 124.206 672.244 123.702 673.522 122.693C674.8 121.67 675.766 120.286 676.42 118.538C677.087 116.791 677.421 114.824 677.421 112.636C677.421 110.477 677.094 108.538 676.441 106.82C675.802 105.101 674.836 103.744 673.543 102.75C672.265 101.756 670.667 101.259 668.749 101.259C666.903 101.259 665.34 101.734 664.062 102.686C662.798 103.638 661.839 104.966 661.185 106.67C660.532 108.375 660.205 110.364 660.205 112.636ZM697.237 120.072L711.661 96.2727H718.522V129H712.279V105.179L697.918 129H690.994V96.2727H697.237V120.072ZM723.028 101.77V96.2727H750.642V101.77H739.967V129H733.746V101.77H723.028ZM769.962 129.661C766.738 129.661 763.961 128.972 761.631 127.594C759.316 126.202 757.526 124.249 756.262 121.734C755.012 119.206 754.387 116.244 754.387 112.849C754.387 109.497 755.012 106.543 756.262 103.986C757.526 101.429 759.287 99.4332 761.546 97.9986C763.819 96.5639 766.475 95.8466 769.515 95.8466C771.361 95.8466 773.151 96.152 774.884 96.7628C776.617 97.3736 778.172 98.3324 779.55 99.6392C780.928 100.946 782.015 102.643 782.81 104.732C783.605 106.805 784.003 109.327 784.003 112.295V114.554H757.988V109.781H777.76C777.76 108.105 777.419 106.621 776.738 105.328C776.056 104.021 775.097 102.991 773.861 102.239C772.64 101.486 771.205 101.109 769.557 101.109C767.767 101.109 766.205 101.55 764.87 102.43C763.549 103.297 762.526 104.433 761.801 105.839C761.091 107.232 760.736 108.744 760.736 110.378V114.107C760.736 116.294 761.12 118.155 761.887 119.689C762.668 121.223 763.755 122.395 765.147 123.205C766.539 124 768.165 124.398 770.026 124.398C771.233 124.398 772.334 124.227 773.328 123.886C774.323 123.531 775.182 123.006 775.907 122.31C776.631 121.614 777.185 120.754 777.569 119.732L783.598 120.818C783.115 122.594 782.249 124.149 780.999 125.484C779.763 126.805 778.208 127.835 776.333 128.574C774.472 129.298 772.348 129.661 769.962 129.661ZM806.951 129V96.2727H813.321V109.994H816.39L827.192 96.2727H835.076L822.398 112.189L835.225 129H827.32L817.455 115.918H813.321V129H806.951ZM862.354 109.888V115.406H844.626V109.888H862.354ZM846.416 96.2727V129H840.173V96.2727H846.416ZM866.807 96.2727V129H860.585V96.2727H866.807ZM881.572 120.072L895.997 96.2727H902.858V129H896.615V105.179L882.254 129H875.33V96.2727H881.572V120.072ZM932.347 96.2727V101.77H917.709V129H911.423V96.2727H932.347ZM943.107 141.273C942.155 141.273 941.288 141.195 940.507 141.038C939.726 140.896 939.143 140.74 938.76 140.57L940.294 135.349C941.459 135.662 942.496 135.797 943.405 135.754C944.314 135.712 945.116 135.371 945.812 134.732C946.523 134.092 947.148 133.048 947.688 131.599L948.476 129.426L936.501 96.2727H943.32L951.608 121.67H951.949L960.237 96.2727H967.077L953.589 133.368C952.964 135.072 952.169 136.514 951.203 137.693C950.237 138.886 949.087 139.781 947.751 140.378C946.416 140.974 944.868 141.273 943.107 141.273ZM985.747 138.439V123.482H988.41C989.092 122.857 989.667 122.111 990.136 121.244C990.619 120.378 991.024 119.348 991.35 118.155C991.691 116.962 991.975 115.57 992.203 113.979C992.43 112.374 992.629 110.541 992.799 108.482L993.822 96.2727H1016.07V123.482H1021.09V138.439H1014.87V129H992.054V138.439H985.747ZM995.228 123.482H1009.84V101.727H999.532L998.85 108.482C998.524 111.919 998.112 114.902 997.615 117.43C997.118 119.945 996.322 121.962 995.228 123.482ZM1024.74 129L1024.72 123.482H1025.89C1026.8 123.482 1027.56 123.29 1028.17 122.906C1028.8 122.509 1029.31 121.841 1029.71 120.903C1030.11 119.966 1030.41 118.673 1030.62 117.026C1030.84 115.364 1030.99 113.276 1031.09 110.761L1031.67 96.2727H1054.51V129H1048.27V101.77H1037.57L1037.06 112.892C1036.93 115.591 1036.65 117.949 1036.23 119.966C1035.82 121.983 1035.21 123.666 1034.42 125.016C1033.62 126.351 1032.6 127.352 1031.35 128.02C1030.1 128.673 1028.58 129 1026.79 129H1024.74ZM1082.52 129V101.706H1074.68C1072.82 101.706 1071.37 102.139 1070.33 103.006C1069.3 103.872 1068.78 105.009 1068.78 106.415C1068.78 107.807 1069.26 108.929 1070.21 109.781C1071.17 110.619 1072.52 111.038 1074.26 111.038H1084.38V116.195H1074.26C1071.84 116.195 1069.75 115.797 1067.99 115.001C1066.24 114.192 1064.89 113.048 1063.94 111.571C1063.01 110.094 1062.54 108.347 1062.54 106.33C1062.54 104.27 1063.02 102.494 1063.99 101.003C1064.97 99.4972 1066.36 98.3324 1068.18 97.5085C1070.02 96.6847 1072.18 96.2727 1074.68 96.2727H1088.51V129H1082.52ZM1061.05 129L1070.27 112.466H1076.79L1067.56 129H1061.05ZM1116.9 141.273C1115.94 141.273 1115.08 141.195 1114.3 141.038C1113.51 140.896 1112.93 140.74 1112.55 140.57L1114.08 135.349C1115.25 135.662 1116.28 135.797 1117.19 135.754C1118.1 135.712 1118.91 135.371 1119.6 134.732C1120.31 134.092 1120.94 133.048 1121.48 131.599L1122.26 129.426L1110.29 96.2727H1117.11L1125.4 121.67H1125.74L1134.03 96.2727H1140.87L1127.38 133.368C1126.75 135.072 1125.96 136.514 1124.99 137.693C1124.03 138.886 1122.88 139.781 1121.54 140.378C1120.21 140.974 1118.66 141.273 1116.9 141.273ZM1140.96 138.439V123.482H1143.62C1144.31 122.857 1144.88 122.111 1145.35 121.244C1145.83 120.378 1146.24 119.348 1146.57 118.155C1146.91 116.962 1147.19 115.57 1147.42 113.979C1147.64 112.374 1147.84 110.541 1148.01 108.482L1149.04 96.2727H1171.28V123.482H1176.31V138.439H1170.09V129H1147.27V138.439H1140.96ZM1150.44 123.482H1165.06V101.727H1154.75L1154.07 108.482C1153.74 111.919 1153.33 114.902 1152.83 117.43C1152.33 119.945 1151.54 121.962 1150.44 123.482ZM1192.06 129.724C1189.99 129.724 1188.11 129.341 1186.44 128.574C1184.76 127.793 1183.43 126.663 1182.45 125.186C1181.49 123.709 1181 121.898 1181 119.753C1181 117.906 1181.36 116.386 1182.07 115.193C1182.78 114 1183.74 113.055 1184.94 112.359C1186.15 111.663 1187.5 111.138 1188.99 110.783C1190.48 110.428 1192 110.158 1193.55 109.973C1195.51 109.746 1197.1 109.561 1198.32 109.419C1199.55 109.263 1200.43 109.014 1200.99 108.673C1201.54 108.332 1201.82 107.778 1201.82 107.011V106.862C1201.82 105.001 1201.29 103.56 1200.24 102.537C1199.21 101.514 1197.66 101.003 1195.6 101.003C1193.45 101.003 1191.76 101.479 1190.53 102.43C1189.31 103.368 1188.46 104.412 1187.99 105.562L1182 104.199C1182.71 102.21 1183.75 100.605 1185.11 99.3835C1186.49 98.1477 1188.08 97.2528 1189.87 96.6989C1191.66 96.1307 1193.54 95.8466 1195.51 95.8466C1196.82 95.8466 1198.2 96.0028 1199.67 96.3153C1201.14 96.6136 1202.52 97.1676 1203.8 97.9773C1205.09 98.7869 1206.15 99.9446 1206.98 101.45C1207.8 102.942 1208.21 104.881 1208.21 107.267V129H1201.99V124.526H1201.73C1201.32 125.349 1200.7 126.159 1199.88 126.955C1199.06 127.75 1198 128.411 1196.71 128.936C1195.41 129.462 1193.86 129.724 1192.06 129.724ZM1193.45 124.611C1195.21 124.611 1196.71 124.263 1197.96 123.567C1199.23 122.871 1200.19 121.962 1200.84 120.839C1201.51 119.703 1201.84 118.489 1201.84 117.196V112.977C1201.61 113.205 1201.17 113.418 1200.52 113.616C1199.88 113.801 1199.15 113.964 1198.32 114.107C1197.5 114.234 1196.7 114.355 1195.92 114.469C1195.14 114.568 1194.48 114.653 1193.96 114.724C1192.72 114.881 1191.59 115.143 1190.57 115.513C1189.56 115.882 1188.75 116.415 1188.14 117.111C1187.54 117.793 1187.25 118.702 1187.25 119.838C1187.25 121.415 1187.83 122.608 1188.99 123.418C1190.16 124.213 1191.64 124.611 1193.45 124.611ZM1214.12 129L1214.1 123.482H1215.27C1216.18 123.482 1216.94 123.29 1217.55 122.906C1218.17 122.509 1218.69 121.841 1219.08 120.903C1219.48 119.966 1219.79 118.673 1220 117.026C1220.21 115.364 1220.37 113.276 1220.47 110.761L1221.04 96.2727H1243.88V129H1237.64V101.77H1226.95L1226.43 112.892C1226.31 115.591 1226.03 117.949 1225.6 119.966C1225.19 121.983 1224.59 123.666 1223.79 125.016C1223 126.351 1221.97 127.352 1220.72 128.02C1219.47 128.673 1217.95 129 1216.16 129H1214.12ZM1266.49 129.661C1263.26 129.661 1260.48 128.972 1258.15 127.594C1255.84 126.202 1254.05 124.249 1252.79 121.734C1251.54 119.206 1250.91 116.244 1250.91 112.849C1250.91 109.497 1251.54 106.543 1252.79 103.986C1254.05 101.429 1255.81 99.4332 1258.07 97.9986C1260.34 96.5639 1263 95.8466 1266.04 95.8466C1267.88 95.8466 1269.67 96.152 1271.41 96.7628C1273.14 97.3736 1274.7 98.3324 1276.07 99.6392C1277.45 100.946 1278.54 102.643 1279.33 104.732C1280.13 106.805 1280.53 109.327 1280.53 112.295V114.554H1254.51V109.781H1274.28C1274.28 108.105 1273.94 106.621 1273.26 105.328C1272.58 104.021 1271.62 102.991 1270.38 102.239C1269.16 101.486 1267.73 101.109 1266.08 101.109C1264.29 101.109 1262.73 101.55 1261.39 102.43C1260.07 103.297 1259.05 104.433 1258.32 105.839C1257.61 107.232 1257.26 108.744 1257.26 110.378V114.107C1257.26 116.294 1257.64 118.155 1258.41 119.689C1259.19 121.223 1260.28 122.395 1261.67 123.205C1263.06 124 1264.69 124.398 1266.55 124.398C1267.76 124.398 1268.86 124.227 1269.85 123.886C1270.85 123.531 1271.71 123.006 1272.43 122.31C1273.15 121.614 1273.71 120.754 1274.09 119.732L1280.12 120.818C1279.64 122.594 1278.77 124.149 1277.52 125.484C1276.29 126.805 1274.73 127.835 1272.86 128.574C1271 129.298 1268.87 129.661 1266.49 129.661ZM1309.78 109.888V115.406H1292.05V109.888H1309.78ZM1293.84 96.2727V129H1287.6V96.2727H1293.84ZM1314.23 96.2727V129H1308.01V96.2727H1314.23ZM1328.99 120.072L1343.42 96.2727H1350.28V129H1344.04V105.179L1329.68 129H1322.75V96.2727H1328.99V120.072ZM1378.36 129V101.706H1370.52C1368.66 101.706 1367.21 102.139 1366.17 103.006C1365.14 103.872 1364.62 105.009 1364.62 106.415C1364.62 107.807 1365.1 108.929 1366.05 109.781C1367.01 110.619 1368.36 111.038 1370.1 111.038H1380.22V116.195H1370.1C1367.68 116.195 1365.59 115.797 1363.83 115.001C1362.08 114.192 1360.73 113.048 1359.78 111.571C1358.85 110.094 1358.38 108.347 1358.38 106.33C1358.38 104.27 1358.86 102.494 1359.83 101.003C1360.81 99.4972 1362.2 98.3324 1364.02 97.5085C1365.86 96.6847 1368.02 96.2727 1370.52 96.2727H1384.35V129H1378.36ZM1356.88 129L1366.11 112.466H1372.63L1363.4 129H1356.88Z" fill="black"/>
<rect x="222" y="214" width="1421" height="665" rx="61" fill="#D9D9D9"/>
<ellipse cx="946" cy="879" rx="53" ry="51" fill="#D9D9D9"/>
<path d="M945.293 914.707C945.683 915.098 946.317 915.098 946.707 914.707L953.071 908.343C953.462 907.953 953.462 907.319 953.071 906.929C952.681 906.538 952.047 906.538 951.657 906.929L946 912.586L940.343 906.929C939.953 906.538 939.319 906.538 938.929 906.929C938.538 907.319 938.538 907.953 938.929 908.343L945.293 914.707ZM946 845H945V914H946H947V845H946Z" fill="black"/>
<line x1="229" y1="337.5" x2="1643" y2="337.5" stroke="black"/>
<line x1="229" y1="490.5" x2="1643" y2="490.5" stroke="black"/>
<line x1="225" y1="630.5" x2="1643" y2="630.5" stroke="black"/>
<line x1="222" y1="798.5" x2="1643" y2="798.5" stroke="black"/>
<line x1="589.5" y1="221" x2="589.5" y2="879" stroke="black"/>
<line x1="957.5" y1="221" x2="957.5" y2="879" stroke="black"/>
<line x1="1285.5" y1="221" x2="1285.5" y2="879" stroke="black"/>
<path d="M317.864 284H313.544V268.016H295.976V284H291.656V249.728H295.976V264.224H313.544V249.728H317.864V284ZM336.402 257.84C339.538 257.84 341.858 258.528 343.362 259.904C344.866 261.28 345.618 263.472 345.618 266.48V284H342.546L341.73 280.352H341.538C340.802 281.28 340.034 282.064 339.234 282.704C338.466 283.312 337.57 283.76 336.546 284.048C335.554 284.336 334.338 284.48 332.898 284.48C331.362 284.48 329.97 284.208 328.722 283.664C327.506 283.12 326.546 282.288 325.842 281.168C325.138 280.016 324.786 278.576 324.786 276.848C324.786 274.288 325.794 272.32 327.81 270.944C329.826 269.536 332.93 268.768 337.122 268.64L341.49 268.496V266.96C341.49 264.816 341.026 263.328 340.098 262.496C339.17 261.664 337.858 261.248 336.162 261.248C334.818 261.248 333.538 261.456 332.322 261.872C331.106 262.256 329.97 262.704 328.914 263.216L327.618 260.048C328.738 259.44 330.066 258.928 331.602 258.512C333.138 258.064 334.738 257.84 336.402 257.84ZM337.65 271.568C334.45 271.696 332.226 272.208 330.978 273.104C329.762 274 329.154 275.264 329.154 276.896C329.154 278.336 329.586 279.392 330.45 280.064C331.346 280.736 332.482 281.072 333.858 281.072C336.034 281.072 337.842 280.48 339.282 279.296C340.722 278.08 341.442 276.224 341.442 273.728V271.424L337.65 271.568ZM360.332 257.792C362.284 257.792 363.98 258.064 365.42 258.608C366.86 259.12 367.98 259.888 368.78 260.912C369.58 261.904 369.98 263.12 369.98 264.56C369.98 266.128 369.548 267.376 368.684 268.304C367.82 269.2 366.636 269.856 365.132 270.272V270.464C366.156 270.752 367.1 271.152 367.964 271.664C368.828 272.176 369.516 272.848 370.028 273.68C370.572 274.512 370.844 275.584 370.844 276.896C370.844 278.304 370.444 279.584 369.644 280.736C368.876 281.888 367.676 282.8 366.044 283.472C364.444 284.144 362.38 284.48 359.852 284.48C358.636 284.48 357.468 284.416 356.348 284.288C355.26 284.16 354.268 283.968 353.372 283.712C352.508 283.456 351.74 283.152 351.068 282.8V279.008C352.156 279.52 353.436 279.984 354.908 280.4C356.412 280.816 358.044 281.024 359.804 281.024C361.084 281.024 362.236 280.88 363.26 280.592C364.316 280.304 365.148 279.856 365.756 279.248C366.364 278.608 366.668 277.744 366.668 276.656C366.668 275.664 366.396 274.864 365.852 274.256C365.308 273.616 364.492 273.136 363.404 272.816C362.348 272.496 360.988 272.336 359.324 272.336H355.868V268.88H358.652C360.86 268.88 362.62 268.592 363.932 268.016C365.276 267.408 365.948 266.384 365.948 264.944C365.948 263.728 365.436 262.816 364.412 262.208C363.42 261.6 361.98 261.296 360.092 261.296C358.684 261.296 357.436 261.44 356.348 261.728C355.292 261.984 354.124 262.384 352.844 262.928L351.356 259.568C352.732 258.96 354.172 258.512 355.676 258.224C357.18 257.936 358.732 257.792 360.332 257.792ZM397.784 264.752C397.784 266.352 397.304 267.6 396.344 268.496C395.384 269.392 394.152 270 392.648 270.32V270.512C394.248 270.736 395.64 271.312 396.824 272.24C398.008 273.136 398.6 274.544 398.6 276.464C398.6 277.552 398.392 278.56 397.976 279.488C397.592 280.416 396.984 281.216 396.152 281.888C395.32 282.56 394.248 283.088 392.936 283.472C391.624 283.824 390.04 284 388.184 284H377.096V258.272H388.136C389.96 258.272 391.592 258.48 393.032 258.896C394.504 259.28 395.656 259.952 396.488 260.912C397.352 261.84 397.784 263.12 397.784 264.752ZM394.232 276.464C394.232 274.992 393.672 273.936 392.552 273.296C391.432 272.656 389.784 272.336 387.608 272.336H381.32V280.592H387.704C389.816 280.592 391.432 280.288 392.552 279.68C393.672 279.04 394.232 277.968 394.232 276.464ZM393.512 265.28C393.512 264.064 393.064 263.184 392.168 262.64C391.304 262.064 389.88 261.776 387.896 261.776H381.32V268.832H387.128C389.208 268.832 390.792 268.544 391.88 267.968C392.968 267.392 393.512 266.496 393.512 265.28ZM414.496 257.84C417.632 257.84 419.952 258.528 421.456 259.904C422.96 261.28 423.712 263.472 423.712 266.48V284H420.64L419.824 280.352H419.632C418.896 281.28 418.128 282.064 417.328 282.704C416.56 283.312 415.664 283.76 414.64 284.048C413.648 284.336 412.432 284.48 410.992 284.48C409.456 284.48 408.064 284.208 406.816 283.664C405.6 283.12 404.64 282.288 403.936 281.168C403.232 280.016 402.88 278.576 402.88 276.848C402.88 274.288 403.888 272.32 405.904 270.944C407.92 269.536 411.024 268.768 415.216 268.64L419.584 268.496V266.96C419.584 264.816 419.12 263.328 418.192 262.496C417.264 261.664 415.952 261.248 414.256 261.248C412.912 261.248 411.632 261.456 410.416 261.872C409.2 262.256 408.064 262.704 407.008 263.216L405.712 260.048C406.832 259.44 408.16 258.928 409.696 258.512C411.232 258.064 412.832 257.84 414.496 257.84ZM415.744 271.568C412.544 271.696 410.32 272.208 409.072 273.104C407.856 274 407.248 275.264 407.248 276.896C407.248 278.336 407.68 279.392 408.544 280.064C409.44 280.736 410.576 281.072 411.952 281.072C414.128 281.072 415.936 280.48 417.376 279.296C418.816 278.08 419.536 276.224 419.536 273.728V271.424L415.744 271.568ZM435.882 258.272V268.976H449.85V258.272H454.074V284H449.85V272.528H435.882V284H431.658V258.272H435.882ZM466.205 273.968C466.205 274.256 466.189 274.672 466.157 275.216C466.157 275.728 466.141 276.288 466.109 276.896C466.077 277.472 466.045 278.032 466.013 278.576C465.981 279.088 465.949 279.504 465.917 279.824L479.693 258.272H484.877V284H480.941V268.832C480.941 268.32 480.941 267.648 480.941 266.816C480.973 265.984 481.005 265.168 481.037 264.368C481.069 263.536 481.101 262.912 481.133 262.496L467.453 284H462.221V258.272H466.205V273.968ZM503 257.792C505.208 257.792 507.096 258.272 508.664 259.232C510.264 260.192 511.48 261.552 512.312 263.312C513.176 265.04 513.608 267.072 513.608 269.408V271.952H495.992C496.056 274.864 496.792 277.088 498.2 278.624C499.64 280.128 501.64 280.88 504.2 280.88C505.832 280.88 507.272 280.736 508.52 280.448C509.8 280.128 511.112 279.68 512.456 279.104V282.8C511.144 283.376 509.848 283.792 508.568 284.048C507.288 284.336 505.768 284.48 504.008 284.48C501.576 284.48 499.416 283.984 497.528 282.992C495.672 282 494.216 280.528 493.16 278.576C492.136 276.592 491.624 274.176 491.624 271.328C491.624 268.512 492.088 266.096 493.016 264.08C493.976 262.064 495.304 260.512 497 259.424C498.728 258.336 500.728 257.792 503 257.792ZM502.952 261.248C500.936 261.248 499.336 261.904 498.152 263.216C497 264.496 496.312 266.288 496.088 268.592H509.192C509.192 267.12 508.968 265.84 508.52 264.752C508.072 263.664 507.384 262.816 506.456 262.208C505.56 261.568 504.392 261.248 502.952 261.248Z" fill="black"/>
<path d="M729.16 284L725.032 273.392H711.448L707.368 284H703L716.392 249.584H720.28L733.624 284H729.16ZM719.896 259.184C719.8 258.928 719.64 258.464 719.416 257.792C719.192 257.12 718.968 256.432 718.744 255.728C718.552 254.992 718.392 254.432 718.264 254.048C718.104 254.688 717.928 255.344 717.736 256.016C717.576 256.656 717.4 257.248 717.208 257.792C717.048 258.336 716.904 258.8 716.776 259.184L712.888 269.552H723.736L719.896 259.184ZM758.424 264.752C758.424 266.352 757.944 267.6 756.984 268.496C756.024 269.392 754.792 270 753.288 270.32V270.512C754.888 270.736 756.28 271.312 757.464 272.24C758.648 273.136 759.24 274.544 759.24 276.464C759.24 277.552 759.032 278.56 758.616 279.488C758.232 280.416 757.624 281.216 756.792 281.888C755.96 282.56 754.888 283.088 753.576 283.472C752.264 283.824 750.68 284 748.824 284H737.736V258.272H748.776C750.6 258.272 752.232 258.48 753.672 258.896C755.144 259.28 756.296 259.952 757.128 260.912C757.992 261.84 758.424 263.12 758.424 264.752ZM754.872 276.464C754.872 274.992 754.312 273.936 753.192 273.296C752.072 272.656 750.424 272.336 748.248 272.336H741.96V280.592H748.344C750.456 280.592 752.072 280.288 753.192 279.68C754.312 279.04 754.872 277.968 754.872 276.464ZM754.152 265.28C754.152 264.064 753.704 263.184 752.808 262.64C751.944 262.064 750.52 261.776 748.536 261.776H741.96V268.832H747.768C749.848 268.832 751.432 268.544 752.52 267.968C753.608 267.392 754.152 266.496 754.152 265.28ZM783.153 261.824H774.753V284H770.577V261.824H762.273V258.272H783.153V261.824ZM810.12 271.088C810.12 273.232 809.832 275.136 809.256 276.8C808.712 278.432 807.912 279.824 806.856 280.976C805.832 282.128 804.568 283.008 803.064 283.616C801.592 284.192 799.944 284.48 798.12 284.48C796.424 284.48 794.856 284.192 793.416 283.616C791.976 283.008 790.728 282.128 789.672 280.976C788.616 279.824 787.784 278.432 787.176 276.8C786.6 275.136 786.312 273.232 786.312 271.088C786.312 268.24 786.792 265.84 787.752 263.888C788.712 261.904 790.088 260.4 791.88 259.376C793.672 258.32 795.8 257.792 798.264 257.792C800.6 257.792 802.648 258.32 804.408 259.376C806.2 260.4 807.592 261.904 808.584 263.888C809.608 265.84 810.12 268.24 810.12 271.088ZM790.68 271.088C790.68 273.104 790.936 274.864 791.448 276.368C791.992 277.84 792.824 278.976 793.944 279.776C795.064 280.576 796.488 280.976 798.216 280.976C799.944 280.976 801.368 280.576 802.488 279.776C803.608 278.976 804.424 277.84 804.936 276.368C805.48 274.864 805.752 273.104 805.752 271.088C805.752 269.04 805.48 267.296 804.936 265.856C804.392 264.416 803.56 263.312 802.44 262.544C801.352 261.744 799.928 261.344 798.168 261.344C795.544 261.344 793.64 262.208 792.456 263.936C791.272 265.664 790.68 268.048 790.68 271.088ZM829.054 257.792C832.222 257.792 834.766 258.896 836.686 261.104C838.638 263.312 839.614 266.64 839.614 271.088C839.614 274 839.166 276.464 838.27 278.48C837.406 280.464 836.174 281.968 834.574 282.992C833.006 283.984 831.15 284.48 829.006 284.48C827.694 284.48 826.526 284.304 825.502 283.952C824.478 283.6 823.598 283.152 822.862 282.608C822.158 282.032 821.55 281.408 821.038 280.736H820.75C820.814 281.28 820.878 281.968 820.942 282.8C821.006 283.632 821.038 284.352 821.038 284.96V295.52H816.814V258.272H820.27L820.846 261.776H821.038C821.55 261.04 822.158 260.368 822.862 259.76C823.598 259.152 824.462 258.672 825.454 258.32C826.478 257.968 827.678 257.792 829.054 257.792ZM828.286 261.344C826.558 261.344 825.166 261.68 824.11 262.352C823.054 262.992 822.286 263.968 821.806 265.28C821.326 266.592 821.07 268.256 821.038 270.272V271.088C821.038 273.2 821.262 274.992 821.71 276.464C822.158 277.936 822.91 279.056 823.966 279.824C825.054 280.592 826.526 280.976 828.382 280.976C829.95 280.976 831.23 280.544 832.222 279.68C833.246 278.816 833.998 277.648 834.478 276.176C834.99 274.672 835.246 272.96 835.246 271.04C835.246 268.096 834.67 265.744 833.518 263.984C832.398 262.224 830.654 261.344 828.286 261.344Z" fill="black"/>
<path d="M1028.66 296H1023.48L1007.98 278.624V296H1003.66V261.728H1007.98V278.336L1023.1 261.728H1027.99L1013.11 278.384L1028.66 296ZM1042.5 269.84C1045.63 269.84 1047.95 270.528 1049.46 271.904C1050.96 273.28 1051.71 275.472 1051.71 278.48V296H1048.64L1047.82 292.352H1047.63C1046.9 293.28 1046.13 294.064 1045.33 294.704C1044.56 295.312 1043.66 295.76 1042.64 296.048C1041.65 296.336 1040.43 296.48 1038.99 296.48C1037.46 296.48 1036.06 296.208 1034.82 295.664C1033.6 295.12 1032.64 294.288 1031.94 293.168C1031.23 292.016 1030.88 290.576 1030.88 288.848C1030.88 286.288 1031.89 284.32 1033.9 282.944C1035.92 281.536 1039.02 280.768 1043.22 280.64L1047.58 280.496V278.96C1047.58 276.816 1047.12 275.328 1046.19 274.496C1045.26 273.664 1043.95 273.248 1042.26 273.248C1040.91 273.248 1039.63 273.456 1038.42 273.872C1037.2 274.256 1036.06 274.704 1035.01 275.216L1033.71 272.048C1034.83 271.44 1036.16 270.928 1037.7 270.512C1039.23 270.064 1040.83 269.84 1042.5 269.84ZM1043.74 283.568C1040.54 283.696 1038.32 284.208 1037.07 285.104C1035.86 286 1035.25 287.264 1035.25 288.896C1035.25 290.336 1035.68 291.392 1036.54 292.064C1037.44 292.736 1038.58 293.072 1039.95 293.072C1042.13 293.072 1043.94 292.48 1045.38 291.296C1046.82 290.08 1047.54 288.224 1047.54 285.728V283.424L1043.74 283.568ZM1077.42 273.824H1069.02V296H1064.84V273.824H1056.54V270.272H1077.42V273.824ZM1091.95 269.792C1094.16 269.792 1096.05 270.272 1097.62 271.232C1099.22 272.192 1100.43 273.552 1101.27 275.312C1102.13 277.04 1102.56 279.072 1102.56 281.408V283.952H1084.95C1085.01 286.864 1085.75 289.088 1087.15 290.624C1088.59 292.128 1090.59 292.88 1093.15 292.88C1094.79 292.88 1096.23 292.736 1097.47 292.448C1098.75 292.128 1100.07 291.68 1101.41 291.104V294.8C1100.1 295.376 1098.8 295.792 1097.52 296.048C1096.24 296.336 1094.72 296.48 1092.96 296.48C1090.53 296.48 1088.37 295.984 1086.48 294.992C1084.63 294 1083.17 292.528 1082.11 290.576C1081.09 288.592 1080.58 286.176 1080.58 283.328C1080.58 280.512 1081.04 278.096 1081.97 276.08C1082.93 274.064 1084.26 272.512 1085.95 271.424C1087.68 270.336 1089.68 269.792 1091.95 269.792ZM1091.91 273.248C1089.89 273.248 1088.29 273.904 1087.11 275.216C1085.95 276.496 1085.27 278.288 1085.04 280.592H1098.15C1098.15 279.12 1097.92 277.84 1097.47 276.752C1097.03 275.664 1096.34 274.816 1095.41 274.208C1094.51 273.568 1093.35 273.248 1091.91 273.248ZM1124.81 270.272V273.824H1113.34V296H1109.11V270.272H1124.81ZM1151.78 283.088C1151.78 285.232 1151.49 287.136 1150.91 288.8C1150.37 290.432 1149.57 291.824 1148.51 292.976C1147.49 294.128 1146.22 295.008 1144.72 295.616C1143.25 296.192 1141.6 296.48 1139.78 296.48C1138.08 296.48 1136.51 296.192 1135.07 295.616C1133.63 295.008 1132.38 294.128 1131.33 292.976C1130.27 291.824 1129.44 290.432 1128.83 288.8C1128.26 287.136 1127.97 285.232 1127.97 283.088C1127.97 280.24 1128.45 277.84 1129.41 275.888C1130.37 273.904 1131.74 272.4 1133.54 271.376C1135.33 270.32 1137.46 269.792 1139.92 269.792C1142.26 269.792 1144.3 270.32 1146.06 271.376C1147.86 272.4 1149.25 273.904 1150.24 275.888C1151.26 277.84 1151.78 280.24 1151.78 283.088ZM1132.34 283.088C1132.34 285.104 1132.59 286.864 1133.1 288.368C1133.65 289.84 1134.48 290.976 1135.6 291.776C1136.72 292.576 1138.14 292.976 1139.87 292.976C1141.6 292.976 1143.02 292.576 1144.14 291.776C1145.26 290.976 1146.08 289.84 1146.59 288.368C1147.14 286.864 1147.41 285.104 1147.41 283.088C1147.41 281.04 1147.14 279.296 1146.59 277.856C1146.05 276.416 1145.22 275.312 1144.1 274.544C1143.01 273.744 1141.58 273.344 1139.82 273.344C1137.2 273.344 1135.3 274.208 1134.11 275.936C1132.93 277.664 1132.34 280.048 1132.34 283.088ZM1170.71 269.792C1173.88 269.792 1176.42 270.896 1178.34 273.104C1180.29 275.312 1181.27 278.64 1181.27 283.088C1181.27 286 1180.82 288.464 1179.93 290.48C1179.06 292.464 1177.83 293.968 1176.23 294.992C1174.66 295.984 1172.81 296.48 1170.66 296.48C1169.35 296.48 1168.18 296.304 1167.16 295.952C1166.13 295.6 1165.25 295.152 1164.52 294.608C1163.81 294.032 1163.21 293.408 1162.69 292.736H1162.41C1162.47 293.28 1162.53 293.968 1162.6 294.8C1162.66 295.632 1162.69 296.352 1162.69 296.96V307.52H1158.47V270.272H1161.93L1162.5 273.776H1162.69C1163.21 273.04 1163.81 272.368 1164.52 271.76C1165.25 271.152 1166.12 270.672 1167.11 270.32C1168.13 269.968 1169.33 269.792 1170.71 269.792ZM1169.94 273.344C1168.21 273.344 1166.82 273.68 1165.77 274.352C1164.71 274.992 1163.94 275.968 1163.46 277.28C1162.98 278.592 1162.73 280.256 1162.69 282.272V283.088C1162.69 285.2 1162.92 286.992 1163.37 288.464C1163.81 289.936 1164.57 291.056 1165.62 291.824C1166.71 292.592 1168.18 292.976 1170.04 292.976C1171.61 292.976 1172.89 292.544 1173.88 291.68C1174.9 290.816 1175.65 289.648 1176.13 288.176C1176.65 286.672 1176.9 284.96 1176.9 283.04C1176.9 280.096 1176.33 277.744 1175.17 275.984C1174.05 274.224 1172.31 273.344 1169.94 273.344ZM1191.99 285.968C1191.99 286.256 1191.97 286.672 1191.94 287.216C1191.94 287.728 1191.92 288.288 1191.89 288.896C1191.86 289.472 1191.83 290.032 1191.79 290.576C1191.76 291.088 1191.73 291.504 1191.7 291.824L1205.47 270.272H1210.66V296H1206.72V280.832C1206.72 280.32 1206.72 279.648 1206.72 278.816C1206.75 277.984 1206.79 277.168 1206.82 276.368C1206.85 275.536 1206.88 274.912 1206.91 274.496L1193.23 296H1188V270.272H1191.99V285.968ZM1220.43 296H1215.53L1222.88 285.2C1221.89 284.944 1220.93 284.544 1220 284C1219.07 283.424 1218.32 282.64 1217.74 281.648C1217.17 280.624 1216.88 279.36 1216.88 277.856C1216.88 275.392 1217.71 273.52 1219.37 272.24C1221.04 270.928 1223.25 270.272 1226 270.272H1237.52V296H1233.29V285.776H1227.05L1220.43 296ZM1220.96 277.904C1220.96 279.376 1221.5 280.48 1222.59 281.216C1223.71 281.92 1225.26 282.272 1227.25 282.272H1233.29V273.776H1226.43C1224.48 273.776 1223.07 274.16 1222.21 274.928C1221.37 275.696 1220.96 276.688 1220.96 277.904Z" fill="black"/>
<path d="M1356.74 232.728V263.16H1361.11V276.024H1356.98V267H1333.42V276.024H1329.29V263.16H1331.93C1333.08 261.176 1334.17 258.952 1335.19 256.488C1336.25 254.024 1337.18 251.448 1337.98 248.76C1338.78 246.04 1339.43 243.32 1339.94 240.6C1340.46 237.88 1340.78 235.256 1340.9 232.728H1356.74ZM1344.7 236.616C1344.57 238.472 1344.25 240.568 1343.74 242.904C1343.26 245.24 1342.63 247.64 1341.86 250.104C1341.13 252.536 1340.3 254.888 1339.37 257.16C1338.47 259.432 1337.51 261.432 1336.49 263.16H1352.47V236.616H1344.7ZM1376.01 240.84C1379.15 240.84 1381.47 241.528 1382.97 242.904C1384.48 244.28 1385.23 246.472 1385.23 249.48V267H1382.16L1381.34 263.352H1381.15C1380.41 264.28 1379.64 265.064 1378.84 265.704C1378.08 266.312 1377.18 266.76 1376.16 267.048C1375.16 267.336 1373.95 267.48 1372.51 267.48C1370.97 267.48 1369.58 267.208 1368.33 266.664C1367.12 266.12 1366.16 265.288 1365.45 264.168C1364.75 263.016 1364.4 261.576 1364.4 259.848C1364.4 257.288 1365.4 255.32 1367.42 253.944C1369.44 252.536 1372.54 251.768 1376.73 251.64L1381.1 251.496V249.96C1381.1 247.816 1380.64 246.328 1379.71 245.496C1378.78 244.664 1377.47 244.248 1375.77 244.248C1374.43 244.248 1373.15 244.456 1371.93 244.872C1370.72 245.256 1369.58 245.704 1368.52 246.216L1367.23 243.048C1368.35 242.44 1369.68 241.928 1371.21 241.512C1372.75 241.064 1374.35 240.84 1376.01 240.84ZM1377.26 254.568C1374.06 254.696 1371.84 255.208 1370.59 256.104C1369.37 257 1368.76 258.264 1368.76 259.896C1368.76 261.336 1369.2 262.392 1370.06 263.064C1370.96 263.736 1372.09 264.072 1373.47 264.072C1375.64 264.072 1377.45 263.48 1378.89 262.296C1380.33 261.08 1381.05 259.224 1381.05 256.728V254.424L1377.26 254.568ZM1410.93 244.824H1402.53V267H1398.36V244.824H1390.05V241.272H1410.93V244.824ZM1425.75 240.84C1428.88 240.84 1431.2 241.528 1432.71 242.904C1434.21 244.28 1434.96 246.472 1434.96 249.48V267H1431.89L1431.07 263.352H1430.88C1430.15 264.28 1429.38 265.064 1428.58 265.704C1427.81 266.312 1426.91 266.76 1425.89 267.048C1424.9 267.336 1423.68 267.48 1422.24 267.48C1420.71 267.48 1419.31 267.208 1418.07 266.664C1416.85 266.12 1415.89 265.288 1415.19 264.168C1414.48 263.016 1414.13 261.576 1414.13 259.848C1414.13 257.288 1415.14 255.32 1417.15 253.944C1419.17 252.536 1422.27 251.768 1426.47 251.64L1430.83 251.496V249.96C1430.83 247.816 1430.37 246.328 1429.44 245.496C1428.51 244.664 1427.2 244.248 1425.51 244.248C1424.16 244.248 1422.88 244.456 1421.67 244.872C1420.45 245.256 1419.31 245.704 1418.26 246.216L1416.96 243.048C1418.08 242.44 1419.41 241.928 1420.95 241.512C1422.48 241.064 1424.08 240.84 1425.75 240.84ZM1426.99 254.568C1423.79 254.696 1421.57 255.208 1420.32 256.104C1419.11 257 1418.5 258.264 1418.5 259.896C1418.5 261.336 1418.93 262.392 1419.79 263.064C1420.69 263.736 1421.83 264.072 1423.2 264.072C1425.38 264.072 1427.19 263.48 1428.63 262.296C1430.07 261.08 1430.79 259.224 1430.79 256.728V254.424L1426.99 254.568ZM1354.82 299.272V325H1350.6V302.872H1337.3V325H1333.08V299.272H1354.82ZM1359 299.272H1363.51L1369.08 313.912C1369.4 314.776 1369.69 315.608 1369.95 316.408C1370.23 317.208 1370.49 317.992 1370.71 318.76C1370.94 319.496 1371.11 320.216 1371.24 320.92H1371.43C1371.63 320.12 1371.93 319.08 1372.35 317.8C1372.76 316.488 1373.19 315.176 1373.64 313.864L1378.87 299.272H1383.43L1372.35 328.552C1371.74 330.152 1371.02 331.544 1370.19 332.728C1369.39 333.944 1368.39 334.872 1367.21 335.512C1366.06 336.184 1364.65 336.52 1362.99 336.52C1362.22 336.52 1361.55 336.472 1360.97 336.376C1360.39 336.312 1359.9 336.232 1359.48 336.136V332.776C1359.83 332.84 1360.25 332.904 1360.73 332.968C1361.24 333.032 1361.77 333.064 1362.31 333.064C1363.31 333.064 1364.15 332.872 1364.86 332.488C1365.59 332.136 1366.22 331.608 1366.73 330.904C1367.24 330.232 1367.67 329.432 1368.03 328.504L1369.37 325.096L1359 299.272ZM1386.16 309.544C1386.16 305.8 1386.53 302.616 1387.26 299.992C1388.03 297.336 1389.2 295.224 1390.77 293.656C1392.37 292.056 1394.41 290.984 1396.91 290.44C1398.99 289.992 1401.02 289.592 1403.01 289.24C1404.99 288.888 1406.85 288.568 1408.57 288.28L1409.29 291.976C1408.46 292.104 1407.53 292.264 1406.51 292.456C1405.49 292.616 1404.45 292.792 1403.39 292.984C1402.33 293.144 1401.31 293.32 1400.32 293.512C1399.36 293.672 1398.51 293.832 1397.77 293.992C1396.72 294.216 1395.77 294.6 1394.94 295.144C1394.11 295.656 1393.39 296.36 1392.78 297.256C1392.21 298.152 1391.74 299.256 1391.39 300.568C1391.04 301.88 1390.83 303.432 1390.77 305.224H1391.05C1391.5 304.616 1392.11 303.992 1392.88 303.352C1393.68 302.712 1394.62 302.168 1395.71 301.72C1396.83 301.272 1398.09 301.048 1399.5 301.048C1401.74 301.048 1403.6 301.544 1405.07 302.536C1406.57 303.496 1407.69 304.84 1408.43 306.568C1409.2 308.296 1409.58 310.312 1409.58 312.616C1409.58 315.464 1409.09 317.848 1408.09 319.768C1407.1 321.688 1405.73 323.128 1403.97 324.088C1402.21 325.016 1400.16 325.48 1397.82 325.48C1396.06 325.48 1394.46 325.144 1393.02 324.472C1391.58 323.768 1390.35 322.744 1389.33 321.4C1388.3 320.056 1387.52 318.392 1386.97 316.408C1386.43 314.424 1386.16 312.136 1386.16 309.544ZM1398.16 321.976C1399.57 321.976 1400.78 321.688 1401.81 321.112C1402.86 320.536 1403.68 319.592 1404.25 318.28C1404.83 316.968 1405.12 315.224 1405.12 313.048C1405.12 310.424 1404.62 308.36 1403.63 306.856C1402.67 305.32 1401.07 304.552 1398.83 304.552C1397.42 304.552 1396.14 304.872 1394.99 305.512C1393.84 306.12 1392.88 306.824 1392.11 307.624C1391.34 308.424 1390.8 309.096 1390.48 309.64C1390.48 311.208 1390.59 312.728 1390.81 314.2C1391.04 315.672 1391.42 317 1391.97 318.184C1392.54 319.336 1393.33 320.264 1394.32 320.968C1395.34 321.64 1396.62 321.976 1398.16 321.976ZM1435.82 325H1431.55V302.776H1423.96C1423.64 306.84 1423.24 310.312 1422.76 313.192C1422.28 316.04 1421.68 318.36 1420.94 320.152C1420.2 321.944 1419.32 323.256 1418.3 324.088C1417.28 324.92 1416.08 325.336 1414.7 325.336C1414.28 325.336 1413.87 325.304 1413.45 325.24C1413.07 325.208 1412.75 325.128 1412.49 325V321.832C1412.68 321.896 1412.89 321.944 1413.12 321.976C1413.34 322.008 1413.56 322.024 1413.79 322.024C1414.49 322.024 1415.13 321.736 1415.71 321.16C1416.28 320.584 1416.8 319.704 1417.24 318.52C1417.72 317.336 1418.16 315.848 1418.54 314.056C1418.92 312.232 1419.26 310.088 1419.55 307.624C1419.84 305.16 1420.09 302.376 1420.32 299.272H1435.82V325ZM1447.97 314.968C1447.97 315.256 1447.95 315.672 1447.92 316.216C1447.92 316.728 1447.91 317.288 1447.87 317.896C1447.84 318.472 1447.81 319.032 1447.78 319.576C1447.75 320.088 1447.71 320.504 1447.68 320.824L1461.46 299.272H1466.64V325H1462.71V309.832C1462.71 309.32 1462.71 308.648 1462.71 307.816C1462.74 306.984 1462.77 306.168 1462.8 305.368C1462.83 304.536 1462.87 303.912 1462.9 303.496L1449.22 325H1443.99V299.272H1447.97V314.968ZM1490.05 299.272H1494.65L1483.66 311.656L1495.57 325H1490.67L1479.05 311.944V325H1474.83V299.272H1479.05V311.752L1490.05 299.272ZM1509.98 298.84C1513.12 298.84 1515.44 299.528 1516.94 300.904C1518.44 302.28 1519.2 304.472 1519.2 307.48V325H1516.12L1515.31 321.352H1515.12C1514.38 322.28 1513.61 323.064 1512.81 323.704C1512.04 324.312 1511.15 324.76 1510.12 325.048C1509.13 325.336 1507.92 325.48 1506.48 325.48C1504.94 325.48 1503.55 325.208 1502.3 324.664C1501.08 324.12 1500.12 323.288 1499.42 322.168C1498.72 321.016 1498.36 319.576 1498.36 317.848C1498.36 315.288 1499.37 313.32 1501.39 311.944C1503.4 310.536 1506.51 309.768 1510.7 309.64L1515.07 309.496V307.96C1515.07 305.816 1514.6 304.328 1513.68 303.496C1512.75 302.664 1511.44 302.248 1509.74 302.248C1508.4 302.248 1507.12 302.456 1505.9 302.872C1504.68 303.256 1503.55 303.704 1502.49 304.216L1501.2 301.048C1502.32 300.44 1503.64 299.928 1505.18 299.512C1506.72 299.064 1508.32 298.84 1509.98 298.84ZM1511.23 312.568C1508.03 312.696 1505.8 313.208 1504.56 314.104C1503.34 315 1502.73 316.264 1502.73 317.896C1502.73 319.336 1503.16 320.392 1504.03 321.064C1504.92 321.736 1506.06 322.072 1507.44 322.072C1509.61 322.072 1511.42 321.48 1512.86 320.296C1514.3 319.08 1515.02 317.224 1515.02 314.728V312.424L1511.23 312.568ZM1552.53 333.928H1548.41V325H1527.14V299.272H1531.37V321.448H1544.66V299.272H1548.89V321.496H1552.53V333.928ZM1561.45 314.968C1561.45 315.256 1561.44 315.672 1561.41 316.216C1561.41 316.728 1561.39 317.288 1561.36 317.896C1561.33 318.472 1561.29 319.032 1561.26 319.576C1561.23 320.088 1561.2 320.504 1561.17 320.824L1574.94 299.272H1580.13V325H1576.19V309.832C1576.19 309.32 1576.19 308.648 1576.19 307.816C1576.22 306.984 1576.25 306.168 1576.29 305.368C1576.32 304.536 1576.35 303.912 1576.38 303.496L1562.7 325H1557.47V299.272H1561.45V314.968ZM1592.3 314.968C1592.3 315.256 1592.28 315.672 1592.25 316.216C1592.25 316.728 1592.23 317.288 1592.2 317.896C1592.17 318.472 1592.14 319.032 1592.11 319.576C1592.07 320.088 1592.04 320.504 1592.01 320.824L1605.79 299.272H1610.97V325H1607.03V309.832C1607.03 309.32 1607.03 308.648 1607.03 307.816C1607.07 306.984 1607.1 306.168 1607.13 305.368C1607.16 304.536 1607.19 303.912 1607.23 303.496L1593.55 325H1588.31V299.272H1592.3V314.968Z" fill="black"/>
<rect x="744" y="976" width="461" height="62" rx="20" fill="#474747"/>
<path d="M864.307 1022.48V1017.84H866.403C867.278 1017.84 868 1017.69 868.568 1017.4C869.148 1017.1 869.619 1016.7 869.983 1016.2C870.358 1015.69 870.67 1015.14 870.92 1014.53L871.415 1013.29L859.142 987.091H864.733L873.886 1007.27L882.034 987.091H887.557L875.489 1015.95C874.977 1017.11 874.386 1018.18 873.716 1019.17C873.057 1020.16 872.176 1020.96 871.074 1021.57C869.972 1022.18 868.511 1022.48 866.693 1022.48H864.307ZM889.572 1029.55V1017.59H891.703C892.249 1017.09 892.709 1016.49 893.084 1015.8C893.47 1015.1 893.794 1014.28 894.055 1013.32C894.328 1012.37 894.555 1011.26 894.737 1009.98C894.919 1008.7 895.078 1007.23 895.214 1005.59L896.033 995.818H913.828V1017.59H917.851V1029.55H912.874V1022H894.618V1029.55H889.572ZM897.158 1017.59H908.851V1000.18H900.601L900.055 1005.59C899.794 1008.34 899.464 1010.72 899.067 1012.74C898.669 1014.76 898.033 1016.37 897.158 1017.59ZM930.452 1022.58C928.793 1022.58 927.293 1022.27 925.952 1021.66C924.611 1021.03 923.548 1020.13 922.764 1018.95C921.991 1017.77 921.605 1016.32 921.605 1014.6C921.605 1013.12 921.889 1011.91 922.457 1010.95C923.026 1010 923.793 1009.24 924.759 1008.69C925.724 1008.13 926.804 1007.71 927.997 1007.43C929.19 1007.14 930.406 1006.93 931.645 1006.78C933.213 1006.6 934.486 1006.45 935.463 1006.34C936.44 1006.21 937.151 1006.01 937.594 1005.74C938.037 1005.47 938.259 1005.02 938.259 1004.41V1004.29C938.259 1002.8 937.838 1001.65 936.997 1000.83C936.168 1000.01 934.929 999.602 933.281 999.602C931.565 999.602 930.213 999.983 929.224 1000.74C928.247 1001.49 927.571 1002.33 927.196 1003.25L922.406 1002.16C922.974 1000.57 923.804 999.284 924.895 998.307C925.997 997.318 927.264 996.602 928.696 996.159C930.128 995.705 931.634 995.477 933.213 995.477C934.259 995.477 935.366 995.602 936.537 995.852C937.719 996.091 938.821 996.534 939.844 997.182C940.878 997.83 941.724 998.756 942.384 999.96C943.043 1001.15 943.372 1002.7 943.372 1004.61V1022H938.395V1018.42H938.19C937.861 1019.08 937.366 1019.73 936.707 1020.36C936.048 1021 935.202 1021.53 934.168 1021.95C933.134 1022.37 931.895 1022.58 930.452 1022.58ZM931.56 1018.49C932.969 1018.49 934.173 1018.21 935.173 1017.65C936.185 1017.1 936.952 1016.37 937.474 1015.47C938.009 1014.56 938.276 1013.59 938.276 1012.56V1009.18C938.094 1009.36 937.741 1009.53 937.219 1009.69C936.707 1009.84 936.122 1009.97 935.463 1010.09C934.804 1010.19 934.162 1010.28 933.537 1010.38C932.912 1010.45 932.389 1010.52 931.969 1010.58C930.98 1010.7 930.077 1010.91 929.259 1011.21C928.452 1011.51 927.804 1011.93 927.315 1012.49C926.838 1013.03 926.599 1013.76 926.599 1014.67C926.599 1015.93 927.065 1016.89 927.997 1017.53C928.929 1018.17 930.116 1018.49 931.56 1018.49ZM948.098 1022L948.081 1017.59H949.018C949.746 1017.59 950.354 1017.43 950.842 1017.12C951.342 1016.81 951.751 1016.27 952.07 1015.52C952.388 1014.77 952.632 1013.74 952.803 1012.42C952.973 1011.09 953.098 1009.42 953.178 1007.41L953.638 995.818H971.911V1022H966.916V1000.22H958.359L957.95 1009.11C957.848 1011.27 957.626 1013.16 957.286 1014.77C956.956 1016.39 956.473 1017.73 955.837 1018.81C955.2 1019.88 954.382 1020.68 953.382 1021.22C952.382 1021.74 951.166 1022 949.734 1022H948.098ZM983.702 1014.86L995.241 995.818H1000.73V1022H995.736V1002.94L984.247 1022H978.707V995.818H983.702V1014.86ZM1004.34 1000.22V995.818H1026.43V1000.22H1017.89V1022H1012.91V1000.22H1004.34ZM1035.65 1004.82H1043.25C1046.46 1004.82 1048.92 1005.61 1050.65 1007.2C1052.38 1008.8 1053.24 1010.85 1053.24 1013.36C1053.24 1014.99 1052.86 1016.47 1052.08 1017.77C1051.31 1019.08 1050.18 1020.11 1048.69 1020.88C1047.2 1021.62 1045.39 1022 1043.25 1022H1031.82V995.818H1036.81V1017.6H1043.25C1044.72 1017.6 1045.92 1017.22 1046.87 1016.46C1047.81 1015.69 1048.28 1014.7 1048.28 1013.51C1048.28 1012.25 1047.81 1011.22 1046.87 1010.43C1045.92 1009.62 1044.72 1009.22 1043.25 1009.22H1035.65V1004.82Z" fill="white"/>
</svg>
