<svg width="1920" height="1080" viewBox="0 0 1920 1080" fill="none" xmlns="http://www.w3.org/2000/svg">
<g clip-path="url(#clip0_4_3376)">
<rect width="1920" height="1080" fill="white"/>
<rect x="23" y="263" width="1421" height="665" rx="61" fill="#D9D9D9"/>
<rect x="1469" y="16" width="398" height="69" rx="18" fill="#958383"/>
<path d="M205.659 96.8864H195.023C194.614 94.6136 193.852 92.6136 192.739 90.8864C191.625 89.1591 190.261 87.6932 188.648 86.4886C187.034 85.2841 185.227 84.375 183.227 83.7614C181.25 83.1477 179.148 82.8409 176.92 82.8409C172.898 82.8409 169.295 83.8523 166.114 85.875C162.955 87.8977 160.455 90.8636 158.614 94.7727C156.795 98.6818 155.886 103.455 155.886 109.091C155.886 114.773 156.795 119.568 158.614 123.477C160.455 127.386 162.966 130.341 166.148 132.341C169.33 134.341 172.909 135.341 176.886 135.341C179.091 135.341 181.182 135.045 183.159 134.455C185.159 133.841 186.966 132.943 188.58 131.761C190.193 130.58 191.557 129.136 192.67 127.432C193.807 125.705 194.591 123.727 195.023 121.5L205.659 121.534C205.091 124.966 203.989 128.125 202.352 131.011C200.739 133.875 198.659 136.352 196.114 138.443C193.591 140.511 190.705 142.114 187.455 143.25C184.205 144.386 180.659 144.955 176.818 144.955C170.773 144.955 165.386 143.523 160.659 140.659C155.932 137.773 152.205 133.648 149.477 128.284C146.773 122.92 145.42 116.523 145.42 109.091C145.42 101.636 146.784 95.2386 149.511 89.8977C152.239 84.5341 155.966 80.4205 160.693 77.5568C165.42 74.6705 170.795 73.2273 176.818 73.2273C180.523 73.2273 183.977 73.7614 187.182 74.8295C190.409 75.875 193.307 77.4205 195.875 79.4659C198.443 81.4886 200.568 83.9659 202.25 86.8977C203.932 89.8068 205.068 93.1364 205.659 96.8864ZM217.446 144V91.6364H260.162V144H250.173V100.432H227.366V144H217.446ZM283.778 129.716L306.858 91.6364H317.835V144H307.847V105.886L284.869 144H273.79V91.6364H283.778V129.716ZM353.597 145.057C348.528 145.057 344.165 143.909 340.506 141.614C336.869 139.295 334.074 136.102 332.119 132.034C330.165 127.966 329.188 123.307 329.188 118.057C329.188 112.739 330.188 108.045 332.188 103.977C334.188 99.8864 337.006 96.6932 340.642 94.3977C344.278 92.1023 348.563 90.9545 353.494 90.9545C357.472 90.9545 361.017 91.6932 364.131 93.1705C367.244 94.625 369.756 96.6705 371.665 99.3068C373.597 101.943 374.744 105.023 375.108 108.545H365.188C364.642 106.091 363.392 103.977 361.438 102.205C359.506 100.432 356.915 99.5455 353.665 99.5455C350.824 99.5455 348.335 100.295 346.199 101.795C344.085 103.273 342.438 105.386 341.256 108.136C340.074 110.864 339.483 114.091 339.483 117.818C339.483 121.636 340.063 124.932 341.222 127.705C342.381 130.477 344.017 132.625 346.131 134.148C348.267 135.67 350.778 136.432 353.665 136.432C355.597 136.432 357.347 136.08 358.915 135.375C360.506 134.648 361.835 133.614 362.903 132.273C363.994 130.932 364.756 129.318 365.188 127.432H375.108C374.744 130.818 373.642 133.841 371.801 136.5C369.96 139.159 367.494 141.25 364.403 142.773C361.335 144.295 357.733 145.057 353.597 145.057ZM408.065 145.057C403.156 145.057 398.872 143.932 395.213 141.682C391.554 139.432 388.713 136.284 386.69 132.239C384.668 128.193 383.656 123.466 383.656 118.057C383.656 112.625 384.668 107.875 386.69 103.807C388.713 99.7386 391.554 96.5795 395.213 94.3295C398.872 92.0795 403.156 90.9545 408.065 90.9545C412.974 90.9545 417.259 92.0795 420.918 94.3295C424.577 96.5795 427.418 99.7386 429.44 103.807C431.463 107.875 432.474 112.625 432.474 118.057C432.474 123.466 431.463 128.193 429.44 132.239C427.418 136.284 424.577 139.432 420.918 141.682C417.259 143.932 412.974 145.057 408.065 145.057ZM408.099 136.5C411.281 136.5 413.918 135.659 416.009 133.977C418.099 132.295 419.645 130.057 420.645 127.261C421.668 124.466 422.179 121.386 422.179 118.023C422.179 114.682 421.668 111.614 420.645 108.818C419.645 106 418.099 103.739 416.009 102.034C413.918 100.33 411.281 99.4773 408.099 99.4773C404.895 99.4773 402.236 100.33 400.122 102.034C398.031 103.739 396.474 106 395.452 108.818C394.452 111.614 393.952 114.682 393.952 118.023C393.952 121.386 394.452 124.466 395.452 127.261C396.474 130.057 398.031 132.295 400.122 133.977C402.236 135.659 404.895 136.5 408.099 136.5ZM443.852 144V91.6364H454.045V113.591H458.955L476.239 91.6364H488.852L468.568 117.102L489.091 144H476.443L460.659 123.068H454.045V144H443.852ZM522.415 144V91.6364H532.608V113.591H537.517L554.801 91.6364H567.415L547.131 117.102L567.653 144H555.006L539.222 123.068H532.608V144H522.415ZM611.06 113.42V122.25H582.696V113.42H611.06ZM585.56 91.6364V144H575.571V91.6364H585.56ZM618.185 91.6364V144H608.23V91.6364H618.185ZM641.81 129.716L664.889 91.6364H675.866V144H665.878V105.886L642.901 144H631.821V91.6364H641.81V129.716ZM723.048 91.6364V100.432H699.628V144H689.571V91.6364H723.048Z" fill="black"/>
<path d="M1623.2 37.8182V41.2188H1610.83V64H1606.88V37.8182H1623.2ZM1625.8 64L1625.79 60.6889H1626.49C1627.04 60.6889 1627.49 60.5739 1627.86 60.3438C1628.23 60.1051 1628.54 59.7045 1628.78 59.142C1629.02 58.5795 1629.2 57.804 1629.33 56.8153C1629.46 55.8182 1629.55 54.5653 1629.61 53.0568L1629.95 44.3636H1643.66V64H1639.91V47.6619H1633.5L1633.19 54.3352C1633.11 55.9545 1632.95 57.3693 1632.69 58.5795C1632.44 59.7898 1632.08 60.7997 1631.6 61.6094C1631.13 62.4105 1630.51 63.0114 1629.76 63.4119C1629.01 63.804 1628.1 64 1627.03 64H1625.8ZM1654.47 64.4347C1653.23 64.4347 1652.1 64.2045 1651.1 63.7443C1650.09 63.2756 1649.29 62.598 1648.71 61.7116C1648.13 60.8253 1647.84 59.7386 1647.84 58.4517C1647.84 57.3437 1648.05 56.4318 1648.48 55.7159C1648.9 55 1649.48 54.4332 1650.2 54.0156C1650.93 53.598 1651.74 53.2827 1652.63 53.0696C1653.53 52.8565 1654.44 52.6946 1655.37 52.5838C1656.54 52.4474 1657.5 52.3366 1658.23 52.2514C1658.96 52.1577 1659.5 52.0085 1659.83 51.804C1660.16 51.5994 1660.33 51.267 1660.33 50.8068V50.7173C1660.33 49.6009 1660.01 48.7358 1659.38 48.1222C1658.76 47.5085 1657.83 47.2017 1656.59 47.2017C1655.31 47.2017 1654.29 47.4872 1653.55 48.0582C1652.82 48.6207 1652.31 49.2472 1652.03 49.9375L1648.44 49.1193C1648.86 47.9261 1649.49 46.9631 1650.3 46.2301C1651.13 45.4886 1652.08 44.9517 1653.15 44.6193C1654.23 44.2784 1655.36 44.108 1656.54 44.108C1657.33 44.108 1658.16 44.2017 1659.04 44.3892C1659.92 44.5682 1660.75 44.9006 1661.52 45.3864C1662.29 45.8722 1662.93 46.5668 1663.42 47.4702C1663.91 48.3651 1664.16 49.5284 1664.16 50.9602V64H1660.43V61.3153H1660.28C1660.03 61.8097 1659.66 62.2955 1659.16 62.7727C1658.67 63.25 1658.03 63.6463 1657.26 63.9616C1656.48 64.277 1655.55 64.4347 1654.47 64.4347ZM1655.3 61.3665C1656.36 61.3665 1657.26 61.1577 1658.01 60.7401C1658.77 60.3224 1659.35 59.777 1659.74 59.1037C1660.14 58.4219 1660.34 57.6932 1660.34 56.9176V54.3864C1660.2 54.5227 1659.94 54.6506 1659.55 54.7699C1659.16 54.8807 1658.72 54.9787 1658.23 55.0639C1657.74 55.1406 1657.25 55.2131 1656.79 55.2812C1656.32 55.3409 1655.92 55.392 1655.61 55.4347C1654.87 55.5284 1654.19 55.6861 1653.58 55.9077C1652.97 56.1293 1652.49 56.4489 1652.12 56.8665C1651.76 57.2756 1651.58 57.821 1651.58 58.5028C1651.58 59.4489 1651.93 60.1648 1652.63 60.6506C1653.33 61.1278 1654.22 61.3665 1655.3 61.3665ZM1669.25 64V44.3636H1677.4C1679.61 44.3636 1681.37 44.8366 1682.66 45.7827C1683.96 46.7202 1684.61 47.9943 1684.61 49.6051C1684.61 50.7557 1684.24 51.6676 1683.51 52.3409C1682.77 53.0142 1681.8 53.4659 1680.59 53.696C1681.47 53.7983 1682.28 54.0625 1683.01 54.4886C1683.74 54.9062 1684.33 55.4687 1684.77 56.1761C1685.22 56.8835 1685.45 57.7273 1685.45 58.7074C1685.45 59.7472 1685.18 60.6676 1684.65 61.4688C1684.11 62.2614 1683.33 62.8835 1682.31 63.3352C1681.29 63.7784 1680.07 64 1678.64 64H1669.25ZM1672.85 60.804H1678.64C1679.58 60.804 1680.32 60.5781 1680.86 60.1264C1681.4 59.6747 1681.67 59.0611 1681.67 58.2855C1681.67 57.3736 1681.4 56.6577 1680.86 56.1378C1680.32 55.6094 1679.58 55.3452 1678.64 55.3452H1672.85V60.804ZM1672.85 52.5455H1677.44C1678.15 52.5455 1678.76 52.4432 1679.28 52.2386C1679.8 52.0341 1680.19 51.7443 1680.46 51.3693C1680.75 50.9858 1680.89 50.5341 1680.89 50.0142C1680.89 49.2557 1680.58 48.6634 1679.95 48.2372C1679.33 47.8111 1678.48 47.598 1677.4 47.598H1672.85V52.5455ZM1702.95 52.5327V55.8438H1692.32V52.5327H1702.95ZM1693.39 44.3636V64H1689.64V44.3636H1693.39ZM1705.62 44.3636V64H1701.89V44.3636H1705.62ZM1716.45 64.4347C1715.21 64.4347 1714.08 64.2045 1713.08 63.7443C1712.07 63.2756 1711.27 62.598 1710.69 61.7116C1710.11 60.8253 1709.82 59.7386 1709.82 58.4517C1709.82 57.3437 1710.03 56.4318 1710.46 55.7159C1710.88 55 1711.46 54.4332 1712.18 54.0156C1712.91 53.598 1713.72 53.2827 1714.61 53.0696C1715.51 52.8565 1716.42 52.6946 1717.35 52.5838C1718.52 52.4474 1719.48 52.3366 1720.21 52.2514C1720.94 52.1577 1721.48 52.0085 1721.81 51.804C1722.14 51.5994 1722.31 51.267 1722.31 50.8068V50.7173C1722.31 49.6009 1721.99 48.7358 1721.36 48.1222C1720.74 47.5085 1719.81 47.2017 1718.57 47.2017C1717.29 47.2017 1716.27 47.4872 1715.53 48.0582C1714.8 48.6207 1714.29 49.2472 1714.01 49.9375L1710.42 49.1193C1710.84 47.9261 1711.47 46.9631 1712.28 46.2301C1713.11 45.4886 1714.06 44.9517 1715.14 44.6193C1716.21 44.2784 1717.34 44.108 1718.52 44.108C1719.31 44.108 1720.14 44.2017 1721.02 44.3892C1721.9 44.5682 1722.73 44.9006 1723.5 45.3864C1724.27 45.8722 1724.91 46.5668 1725.4 47.4702C1725.9 48.3651 1726.14 49.5284 1726.14 50.9602V64H1722.41V61.3153H1722.26C1722.01 61.8097 1721.64 62.2955 1721.14 62.7727C1720.65 63.25 1720.01 63.6463 1719.24 63.9616C1718.46 64.277 1717.53 64.4347 1716.45 64.4347ZM1717.28 61.3665C1718.34 61.3665 1719.24 61.1577 1719.99 60.7401C1720.75 60.3224 1721.33 59.777 1721.72 59.1037C1722.12 58.4219 1722.32 57.6932 1722.32 56.9176V54.3864C1722.18 54.5227 1721.92 54.6506 1721.53 54.7699C1721.14 54.8807 1720.7 54.9787 1720.21 55.0639C1719.72 55.1406 1719.23 55.2131 1718.77 55.2812C1718.3 55.3409 1717.91 55.392 1717.59 55.4347C1716.85 55.5284 1716.17 55.6861 1715.56 55.9077C1714.95 56.1293 1714.47 56.4489 1714.1 56.8665C1713.74 57.2756 1713.56 57.821 1713.56 58.5028C1713.56 59.4489 1713.91 60.1648 1714.61 60.6506C1715.31 61.1278 1716.2 61.3665 1717.28 61.3665ZM1742.94 64V47.6236H1738.24C1737.12 47.6236 1736.25 47.8835 1735.63 48.4034C1735.01 48.9233 1734.7 49.6051 1734.7 50.4489C1734.7 51.2841 1734.98 51.9574 1735.55 52.4688C1736.13 52.9716 1736.94 53.223 1737.98 53.223H1744.06V56.3168H1737.98C1736.53 56.3168 1735.28 56.0781 1734.23 55.6009C1733.18 55.1151 1732.37 54.429 1731.8 53.5426C1731.23 52.6562 1730.95 51.608 1730.95 50.3977C1730.95 49.1619 1731.24 48.0966 1731.82 47.2017C1732.41 46.2983 1733.25 45.5994 1734.34 45.1051C1735.44 44.6108 1736.74 44.3636 1738.24 44.3636H1746.54V64H1742.94ZM1730.06 64L1735.59 54.0795H1739.5L1733.97 64H1730.06Z" fill="white"/>
<rect x="1496" y="434" width="572" height="69" rx="18" fill="#656161"/>
<rect x="1498" y="564" width="461" height="69" rx="18" fill="#656161"/>
<path d="M1532.84 480V445.091H1545.28C1547.99 445.091 1550.24 445.585 1552.03 446.574C1553.81 447.562 1555.15 448.915 1556.03 450.631C1556.92 452.335 1557.36 454.256 1557.36 456.392C1557.36 458.54 1556.91 460.472 1556.02 462.188C1555.13 463.892 1553.79 465.244 1551.99 466.244C1550.21 467.233 1547.97 467.727 1545.26 467.727H1536.7V463.261H1544.78C1546.5 463.261 1547.89 462.966 1548.96 462.375C1550.03 461.773 1550.81 460.955 1551.31 459.92C1551.81 458.886 1552.06 457.71 1552.06 456.392C1552.06 455.074 1551.81 453.903 1551.31 452.881C1550.81 451.858 1550.02 451.057 1548.94 450.477C1547.88 449.898 1546.47 449.608 1544.72 449.608H1538.1V480H1532.84ZM1574.09 480.528C1571.51 480.528 1569.28 479.977 1567.42 478.875C1565.57 477.761 1564.14 476.199 1563.12 474.188C1562.12 472.165 1561.62 469.795 1561.62 467.08C1561.62 464.398 1562.12 462.034 1563.12 459.989C1564.14 457.943 1565.55 456.347 1567.35 455.199C1569.17 454.051 1571.3 453.477 1573.73 453.477C1575.2 453.477 1576.64 453.722 1578.02 454.21C1579.41 454.699 1580.65 455.466 1581.76 456.511C1582.86 457.557 1583.73 458.915 1584.36 460.585C1585 462.244 1585.32 464.261 1585.32 466.636V468.443H1564.51V464.625H1580.32C1580.32 463.284 1580.05 462.097 1579.51 461.062C1578.96 460.017 1578.19 459.193 1577.2 458.591C1576.23 457.989 1575.08 457.688 1573.76 457.688C1572.33 457.688 1571.08 458.04 1570.01 458.744C1568.95 459.437 1568.14 460.347 1567.56 461.472C1566.99 462.585 1566.7 463.795 1566.7 465.102V468.085C1566.7 469.835 1567.01 471.324 1567.62 472.551C1568.25 473.778 1569.12 474.716 1570.23 475.364C1571.35 476 1572.65 476.318 1574.14 476.318C1575.1 476.318 1575.98 476.182 1576.78 475.909C1577.57 475.625 1578.26 475.205 1578.84 474.648C1579.42 474.091 1579.86 473.403 1580.17 472.585L1584.99 473.455C1584.61 474.875 1583.91 476.119 1582.91 477.188C1581.93 478.244 1580.68 479.068 1579.18 479.659C1577.69 480.239 1575.99 480.528 1574.09 480.528ZM1588.42 487.551V475.585H1590.55C1591.09 475.085 1591.55 474.489 1591.93 473.795C1592.31 473.102 1592.64 472.278 1592.9 471.324C1593.17 470.369 1593.4 469.256 1593.58 467.983C1593.76 466.699 1593.92 465.233 1594.06 463.585L1594.88 453.818H1612.67V475.585H1616.69V487.551H1611.72V480H1593.46V487.551H1588.42ZM1596 475.585H1607.69V458.182H1599.44L1598.9 463.585C1598.64 466.335 1598.31 468.722 1597.91 470.744C1597.51 472.756 1596.88 474.369 1596 475.585ZM1629.3 480.58C1627.64 480.58 1626.14 480.273 1624.8 479.659C1623.45 479.034 1622.39 478.131 1621.61 476.949C1620.84 475.767 1620.45 474.318 1620.45 472.602C1620.45 471.125 1620.73 469.909 1621.3 468.955C1621.87 468 1622.64 467.244 1623.6 466.688C1624.57 466.131 1625.65 465.71 1626.84 465.426C1628.03 465.142 1629.25 464.926 1630.49 464.778C1632.06 464.597 1633.33 464.449 1634.31 464.335C1635.28 464.21 1635.99 464.011 1636.44 463.739C1636.88 463.466 1637.1 463.023 1637.1 462.409V462.29C1637.1 460.801 1636.68 459.648 1635.84 458.83C1635.01 458.011 1633.77 457.602 1632.12 457.602C1630.41 457.602 1629.06 457.983 1628.07 458.744C1627.09 459.494 1626.41 460.33 1626.04 461.25L1621.25 460.159C1621.82 458.568 1622.65 457.284 1623.74 456.307C1624.84 455.318 1626.11 454.602 1627.54 454.159C1628.97 453.705 1630.48 453.477 1632.06 453.477C1633.1 453.477 1634.21 453.602 1635.38 453.852C1636.56 454.091 1637.66 454.534 1638.69 455.182C1639.72 455.83 1640.57 456.756 1641.23 457.96C1641.89 459.153 1642.22 460.705 1642.22 462.614V480H1637.24V476.42H1637.03C1636.7 477.08 1636.21 477.727 1635.55 478.364C1634.89 479 1634.05 479.528 1633.01 479.949C1631.98 480.369 1630.74 480.58 1629.3 480.58ZM1630.4 476.489C1631.81 476.489 1633.02 476.21 1634.02 475.653C1635.03 475.097 1635.8 474.369 1636.32 473.472C1636.85 472.562 1637.12 471.591 1637.12 470.557V467.182C1636.94 467.364 1636.59 467.534 1636.06 467.693C1635.55 467.841 1634.97 467.972 1634.31 468.085C1633.65 468.187 1633.01 468.284 1632.38 468.375C1631.76 468.455 1631.23 468.523 1630.81 468.58C1629.82 468.705 1628.92 468.915 1628.1 469.21C1627.3 469.506 1626.65 469.932 1626.16 470.489C1625.68 471.034 1625.44 471.761 1625.44 472.67C1625.44 473.932 1625.91 474.886 1626.84 475.534C1627.77 476.17 1628.96 476.489 1630.4 476.489ZM1649 480V453.818H1654.1V464.795H1656.56L1665.2 453.818H1671.5L1661.36 466.551L1671.62 480H1665.3L1657.41 469.534H1654.1V480H1649ZM1674.12 458.216V453.818H1696.21V458.216H1687.67V480H1682.69V458.216H1674.12ZM1706.59 472.858L1718.13 453.818H1723.62V480H1718.63V460.943L1707.14 480H1701.6V453.818H1706.59V472.858ZM1730.47 489.818V453.818H1735.45V458.062H1735.88C1736.17 457.517 1736.6 456.886 1737.15 456.17C1737.71 455.455 1738.48 454.83 1739.47 454.295C1740.46 453.75 1741.77 453.477 1743.39 453.477C1745.51 453.477 1747.39 454.011 1749.05 455.08C1750.71 456.148 1752.01 457.687 1752.96 459.699C1753.91 461.71 1754.39 464.131 1754.39 466.96C1754.39 469.79 1753.92 472.216 1752.97 474.239C1752.03 476.25 1750.73 477.801 1749.09 478.892C1747.44 479.972 1745.56 480.511 1743.44 480.511C1741.85 480.511 1740.55 480.244 1739.54 479.71C1738.54 479.176 1737.76 478.551 1737.19 477.835C1736.62 477.119 1736.18 476.483 1735.88 475.926H1735.57V489.818H1730.47ZM1735.47 466.909C1735.47 468.75 1735.73 470.364 1736.27 471.75C1736.8 473.136 1737.58 474.222 1738.59 475.006C1739.6 475.778 1740.84 476.165 1742.3 476.165C1743.83 476.165 1745.1 475.761 1746.12 474.955C1747.14 474.136 1747.92 473.028 1748.44 471.631C1748.97 470.233 1749.24 468.659 1749.24 466.909C1749.24 465.182 1748.98 463.631 1748.46 462.256C1747.94 460.881 1747.17 459.795 1746.14 459C1745.12 458.205 1743.84 457.807 1742.3 457.807C1740.83 457.807 1739.58 458.187 1738.55 458.949C1737.54 459.71 1736.77 460.773 1736.25 462.136C1735.73 463.5 1735.47 465.091 1735.47 466.909ZM1771.13 480.528C1768.67 480.528 1766.53 479.966 1764.7 478.841C1762.87 477.716 1761.45 476.142 1760.44 474.119C1759.43 472.097 1758.92 469.733 1758.92 467.028C1758.92 464.312 1759.43 461.937 1760.44 459.903C1761.45 457.869 1762.87 456.29 1764.7 455.165C1766.53 454.04 1768.67 453.477 1771.13 453.477C1773.58 453.477 1775.72 454.04 1777.55 455.165C1779.38 456.29 1780.8 457.869 1781.81 459.903C1782.83 461.937 1783.33 464.312 1783.33 467.028C1783.33 469.733 1782.83 472.097 1781.81 474.119C1780.8 476.142 1779.38 477.716 1777.55 478.841C1775.72 479.966 1773.58 480.528 1771.13 480.528ZM1771.14 476.25C1772.73 476.25 1774.05 475.83 1775.1 474.989C1776.14 474.148 1776.92 473.028 1777.42 471.631C1777.93 470.233 1778.18 468.693 1778.18 467.011C1778.18 465.341 1777.93 463.807 1777.42 462.409C1776.92 461 1776.14 459.869 1775.1 459.017C1774.05 458.165 1772.73 457.739 1771.14 457.739C1769.54 457.739 1768.21 458.165 1767.15 459.017C1766.11 459.869 1765.33 461 1764.82 462.409C1764.32 463.807 1764.07 465.341 1764.07 467.011C1764.07 468.693 1764.32 470.233 1764.82 471.631C1765.33 473.028 1766.11 474.148 1767.15 474.989C1768.21 475.83 1769.54 476.25 1771.14 476.25ZM1789.02 480V453.818H1799.88C1802.83 453.818 1805.17 454.449 1806.9 455.71C1808.63 456.96 1809.49 458.659 1809.49 460.807C1809.49 462.341 1809 463.557 1808.03 464.455C1807.05 465.352 1805.75 465.955 1804.14 466.261C1805.31 466.398 1806.38 466.75 1807.36 467.318C1808.34 467.875 1809.12 468.625 1809.71 469.568C1810.32 470.511 1810.62 471.636 1810.62 472.943C1810.62 474.33 1810.26 475.557 1809.54 476.625C1808.83 477.682 1807.79 478.511 1806.42 479.114C1805.07 479.705 1803.44 480 1801.53 480H1789.02ZM1793.81 475.739H1801.53C1802.79 475.739 1803.78 475.437 1804.5 474.835C1805.21 474.233 1805.57 473.415 1805.57 472.381C1805.57 471.165 1805.21 470.21 1804.5 469.517C1803.78 468.812 1802.79 468.46 1801.53 468.46H1793.81V475.739ZM1793.81 464.727H1799.93C1800.88 464.727 1801.7 464.591 1802.38 464.318C1803.08 464.045 1803.61 463.659 1803.97 463.159C1804.34 462.648 1804.53 462.045 1804.53 461.352C1804.53 460.341 1804.12 459.551 1803.29 458.983C1802.46 458.415 1801.32 458.131 1799.88 458.131H1793.81V464.727ZM1823.83 480.58C1822.17 480.58 1820.67 480.273 1819.33 479.659C1817.99 479.034 1816.92 478.131 1816.14 476.949C1815.37 475.767 1814.98 474.318 1814.98 472.602C1814.98 471.125 1815.26 469.909 1815.83 468.955C1816.4 468 1817.17 467.244 1818.13 466.688C1819.1 466.131 1820.18 465.71 1821.37 465.426C1822.57 465.142 1823.78 464.926 1825.02 464.778C1826.59 464.597 1827.86 464.449 1828.84 464.335C1829.82 464.21 1830.53 464.011 1830.97 463.739C1831.41 463.466 1831.63 463.023 1831.63 462.409V462.29C1831.63 460.801 1831.21 459.648 1830.37 458.83C1829.54 458.011 1828.3 457.602 1826.66 457.602C1824.94 457.602 1823.59 457.983 1822.6 458.744C1821.62 459.494 1820.95 460.33 1820.57 461.25L1815.78 460.159C1816.35 458.568 1817.18 457.284 1818.27 456.307C1819.37 455.318 1820.64 454.602 1822.07 454.159C1823.5 453.705 1825.01 453.477 1826.59 453.477C1827.63 453.477 1828.74 453.602 1829.91 453.852C1831.09 454.091 1832.2 454.534 1833.22 455.182C1834.25 455.83 1835.1 456.756 1835.76 457.96C1836.42 459.153 1836.75 460.705 1836.75 462.614V480H1831.77V476.42H1831.57C1831.24 477.08 1830.74 477.727 1830.08 478.364C1829.42 479 1828.58 479.528 1827.54 479.949C1826.51 480.369 1825.27 480.58 1823.83 480.58ZM1824.93 476.489C1826.34 476.489 1827.55 476.21 1828.55 475.653C1829.56 475.097 1830.33 474.369 1830.85 473.472C1831.38 472.562 1831.65 471.591 1831.65 470.557V467.182C1831.47 467.364 1831.12 467.534 1830.59 467.693C1830.08 467.841 1829.5 467.972 1828.84 468.085C1828.18 468.187 1827.54 468.284 1826.91 468.375C1826.29 468.455 1825.76 468.523 1825.34 468.58C1824.36 468.705 1823.45 468.915 1822.63 469.21C1821.83 469.506 1821.18 469.932 1820.69 470.489C1820.21 471.034 1819.97 471.761 1819.97 472.67C1819.97 473.932 1820.44 474.886 1821.37 475.534C1822.3 476.17 1823.49 476.489 1824.93 476.489ZM1840.29 458.216V453.818H1862.38V458.216H1853.84V480H1848.86V458.216H1840.29ZM1871.61 462.818H1879.21C1882.41 462.818 1884.88 463.614 1886.61 465.205C1888.33 466.795 1889.2 468.847 1889.2 471.358C1889.2 472.994 1888.81 474.466 1888.04 475.773C1887.26 477.08 1886.13 478.114 1884.64 478.875C1883.16 479.625 1881.34 480 1879.21 480H1867.77V453.818H1872.76V475.602H1879.21C1880.67 475.602 1881.88 475.222 1882.82 474.46C1883.76 473.688 1884.24 472.705 1884.24 471.511C1884.24 470.25 1883.76 469.222 1882.82 468.426C1881.88 467.619 1880.67 467.216 1879.21 467.216H1871.61V462.818Z" fill="white"/>
<path d="M1617.31 613.477V608.841H1619.4C1620.28 608.841 1621 608.693 1621.57 608.398C1622.15 608.102 1622.62 607.705 1622.98 607.205C1623.36 606.693 1623.67 606.136 1623.92 605.534L1624.41 604.29L1612.14 578.091H1617.73L1626.89 598.273L1635.03 578.091H1640.56L1628.49 606.949C1627.98 608.108 1627.39 609.182 1626.72 610.17C1626.06 611.159 1625.18 611.96 1624.07 612.574C1622.97 613.176 1621.51 613.477 1619.69 613.477H1617.31ZM1642.57 620.551V608.585H1644.7C1645.25 608.085 1645.71 607.489 1646.08 606.795C1646.47 606.102 1646.79 605.278 1647.06 604.324C1647.33 603.369 1647.56 602.256 1647.74 600.983C1647.92 599.699 1648.08 598.233 1648.21 596.585L1649.03 586.818H1666.83V608.585H1670.85V620.551H1665.87V613H1647.62V620.551H1642.57ZM1650.16 608.585H1661.85V591.182H1653.6L1653.06 596.585C1652.79 599.335 1652.46 601.722 1652.07 603.744C1651.67 605.756 1651.03 607.369 1650.16 608.585ZM1683.45 613.58C1681.79 613.58 1680.29 613.273 1678.95 612.659C1677.61 612.034 1676.55 611.131 1675.76 609.949C1674.99 608.767 1674.61 607.318 1674.61 605.602C1674.61 604.125 1674.89 602.909 1675.46 601.955C1676.03 601 1676.79 600.244 1677.76 599.688C1678.72 599.131 1679.8 598.71 1681 598.426C1682.19 598.142 1683.41 597.926 1684.64 597.778C1686.21 597.597 1687.49 597.449 1688.46 597.335C1689.44 597.21 1690.15 597.011 1690.59 596.739C1691.04 596.466 1691.26 596.023 1691.26 595.409V595.29C1691.26 593.801 1690.84 592.648 1690 591.83C1689.17 591.011 1687.93 590.602 1686.28 590.602C1684.57 590.602 1683.21 590.983 1682.22 591.744C1681.25 592.494 1680.57 593.33 1680.2 594.25L1675.41 593.159C1675.97 591.568 1676.8 590.284 1677.89 589.307C1679 588.318 1680.26 587.602 1681.7 587.159C1683.13 586.705 1684.63 586.477 1686.21 586.477C1687.26 586.477 1688.37 586.602 1689.54 586.852C1690.72 587.091 1691.82 587.534 1692.84 588.182C1693.88 588.83 1694.72 589.756 1695.38 590.96C1696.04 592.153 1696.37 593.705 1696.37 595.614V613H1691.39V609.42H1691.19C1690.86 610.08 1690.37 610.727 1689.71 611.364C1689.05 612 1688.2 612.528 1687.17 612.949C1686.13 613.369 1684.89 613.58 1683.45 613.58ZM1684.56 609.489C1685.97 609.489 1687.17 609.21 1688.17 608.653C1689.18 608.097 1689.95 607.369 1690.47 606.472C1691.01 605.562 1691.28 604.591 1691.28 603.557V600.182C1691.09 600.364 1690.74 600.534 1690.22 600.693C1689.71 600.841 1689.12 600.972 1688.46 601.085C1687.8 601.187 1687.16 601.284 1686.54 601.375C1685.91 601.455 1685.39 601.523 1684.97 601.58C1683.98 601.705 1683.08 601.915 1682.26 602.21C1681.45 602.506 1680.8 602.932 1680.32 603.489C1679.84 604.034 1679.6 604.761 1679.6 605.67C1679.6 606.932 1680.07 607.886 1681 608.534C1681.93 609.17 1683.12 609.489 1684.56 609.489ZM1701.1 613L1701.08 608.585H1702.02C1702.75 608.585 1703.35 608.432 1703.84 608.125C1704.34 607.807 1704.75 607.273 1705.07 606.523C1705.39 605.773 1705.63 604.739 1705.8 603.42C1705.97 602.091 1706.1 600.42 1706.18 598.409L1706.64 586.818H1724.91V613H1719.92V591.216H1711.36L1710.95 600.114C1710.85 602.273 1710.63 604.159 1710.29 605.773C1709.96 607.386 1709.47 608.733 1708.84 609.812C1708.2 610.881 1707.38 611.682 1706.38 612.216C1705.38 612.739 1704.17 613 1702.73 613H1701.1ZM1736.7 605.858L1748.24 586.818H1753.73V613H1748.74V593.943L1737.25 613H1731.71V586.818H1736.7V605.858ZM1757.34 591.216V586.818H1779.43V591.216H1770.89V613H1765.91V591.216H1757.34ZM1788.65 595.818H1796.25C1799.46 595.818 1801.92 596.614 1803.65 598.205C1805.38 599.795 1806.24 601.847 1806.24 604.358C1806.24 605.994 1805.86 607.466 1805.08 608.773C1804.31 610.08 1803.18 611.114 1801.69 611.875C1800.2 612.625 1798.39 613 1796.25 613H1784.82V586.818H1789.81V608.602H1796.25C1797.72 608.602 1798.92 608.222 1799.87 607.46C1800.81 606.688 1801.28 605.705 1801.28 604.511C1801.28 603.25 1800.81 602.222 1799.87 601.426C1798.92 600.619 1797.72 600.216 1796.25 600.216H1788.65V595.818Z" fill="white"/>
<ellipse cx="787" cy="928" rx="53" ry="51" fill="#D9D9D9"/>
<path d="M786.293 963.707C786.683 964.098 787.317 964.098 787.707 963.707L794.071 957.343C794.462 956.953 794.462 956.319 794.071 955.929C793.681 955.538 793.047 955.538 792.657 955.929L787 961.586L781.343 955.929C780.953 955.538 780.319 955.538 779.929 955.929C779.538 956.319 779.538 956.953 779.929 957.343L786.293 963.707ZM787 894H786V963H787H788V894H787Z" fill="black"/>
<line x1="30" y1="386.5" x2="1444" y2="386.5" stroke="black"/>
<line x1="30" y1="539.5" x2="1444" y2="539.5" stroke="black"/>
<line x1="26" y1="679.5" x2="1444" y2="679.5" stroke="black"/>
<line x1="23" y1="847.5" x2="1444" y2="847.5" stroke="black"/>
<line x1="390.5" y1="270" x2="390.5" y2="928" stroke="black"/>
<line x1="758.5" y1="270" x2="758.5" y2="928" stroke="black"/>
<line x1="1086.5" y1="270" x2="1086.5" y2="928" stroke="black"/>
<path d="M118.864 333H114.544V317.016H96.976V333H92.656V298.728H96.976V313.224H114.544V298.728H118.864V333ZM137.402 306.84C140.538 306.84 142.858 307.528 144.362 308.904C145.866 310.28 146.618 312.472 146.618 315.48V333H143.546L142.73 329.352H142.538C141.802 330.28 141.034 331.064 140.234 331.704C139.466 332.312 138.57 332.76 137.546 333.048C136.554 333.336 135.338 333.48 133.898 333.48C132.362 333.48 130.97 333.208 129.722 332.664C128.506 332.12 127.546 331.288 126.842 330.168C126.138 329.016 125.786 327.576 125.786 325.848C125.786 323.288 126.794 321.32 128.81 319.944C130.826 318.536 133.93 317.768 138.122 317.64L142.49 317.496V315.96C142.49 313.816 142.026 312.328 141.098 311.496C140.17 310.664 138.858 310.248 137.162 310.248C135.818 310.248 134.538 310.456 133.322 310.872C132.106 311.256 130.97 311.704 129.914 312.216L128.618 309.048C129.738 308.44 131.066 307.928 132.602 307.512C134.138 307.064 135.738 306.84 137.402 306.84ZM138.65 320.568C135.45 320.696 133.226 321.208 131.978 322.104C130.762 323 130.154 324.264 130.154 325.896C130.154 327.336 130.586 328.392 131.45 329.064C132.346 329.736 133.482 330.072 134.858 330.072C137.034 330.072 138.842 329.48 140.282 328.296C141.722 327.08 142.442 325.224 142.442 322.728V320.424L138.65 320.568ZM161.332 306.792C163.284 306.792 164.98 307.064 166.42 307.608C167.86 308.12 168.98 308.888 169.78 309.912C170.58 310.904 170.98 312.12 170.98 313.56C170.98 315.128 170.548 316.376 169.684 317.304C168.82 318.2 167.636 318.856 166.132 319.272V319.464C167.156 319.752 168.1 320.152 168.964 320.664C169.828 321.176 170.516 321.848 171.028 322.68C171.572 323.512 171.844 324.584 171.844 325.896C171.844 327.304 171.444 328.584 170.644 329.736C169.876 330.888 168.676 331.8 167.044 332.472C165.444 333.144 163.38 333.48 160.852 333.48C159.636 333.48 158.468 333.416 157.348 333.288C156.26 333.16 155.268 332.968 154.372 332.712C153.508 332.456 152.74 332.152 152.068 331.8V328.008C153.156 328.52 154.436 328.984 155.908 329.4C157.412 329.816 159.044 330.024 160.804 330.024C162.084 330.024 163.236 329.88 164.26 329.592C165.316 329.304 166.148 328.856 166.756 328.248C167.364 327.608 167.668 326.744 167.668 325.656C167.668 324.664 167.396 323.864 166.852 323.256C166.308 322.616 165.492 322.136 164.404 321.816C163.348 321.496 161.988 321.336 160.324 321.336H156.868V317.88H159.652C161.86 317.88 163.62 317.592 164.932 317.016C166.276 316.408 166.948 315.384 166.948 313.944C166.948 312.728 166.436 311.816 165.412 311.208C164.42 310.6 162.98 310.296 161.092 310.296C159.684 310.296 158.436 310.44 157.348 310.728C156.292 310.984 155.124 311.384 153.844 311.928L152.356 308.568C153.732 307.96 155.172 307.512 156.676 307.224C158.18 306.936 159.732 306.792 161.332 306.792ZM198.784 313.752C198.784 315.352 198.304 316.6 197.344 317.496C196.384 318.392 195.152 319 193.648 319.32V319.512C195.248 319.736 196.64 320.312 197.824 321.24C199.008 322.136 199.6 323.544 199.6 325.464C199.6 326.552 199.392 327.56 198.976 328.488C198.592 329.416 197.984 330.216 197.152 330.888C196.32 331.56 195.248 332.088 193.936 332.472C192.624 332.824 191.04 333 189.184 333H178.096V307.272H189.136C190.96 307.272 192.592 307.48 194.032 307.896C195.504 308.28 196.656 308.952 197.488 309.912C198.352 310.84 198.784 312.12 198.784 313.752ZM195.232 325.464C195.232 323.992 194.672 322.936 193.552 322.296C192.432 321.656 190.784 321.336 188.608 321.336H182.32V329.592H188.704C190.816 329.592 192.432 329.288 193.552 328.68C194.672 328.04 195.232 326.968 195.232 325.464ZM194.512 314.28C194.512 313.064 194.064 312.184 193.168 311.64C192.304 311.064 190.88 310.776 188.896 310.776H182.32V317.832H188.128C190.208 317.832 191.792 317.544 192.88 316.968C193.968 316.392 194.512 315.496 194.512 314.28ZM215.496 306.84C218.632 306.84 220.952 307.528 222.456 308.904C223.96 310.28 224.712 312.472 224.712 315.48V333H221.64L220.824 329.352H220.632C219.896 330.28 219.128 331.064 218.328 331.704C217.56 332.312 216.664 332.76 215.64 333.048C214.648 333.336 213.432 333.48 211.992 333.48C210.456 333.48 209.064 333.208 207.816 332.664C206.6 332.12 205.64 331.288 204.936 330.168C204.232 329.016 203.88 327.576 203.88 325.848C203.88 323.288 204.888 321.32 206.904 319.944C208.92 318.536 212.024 317.768 216.216 317.64L220.584 317.496V315.96C220.584 313.816 220.12 312.328 219.192 311.496C218.264 310.664 216.952 310.248 215.256 310.248C213.912 310.248 212.632 310.456 211.416 310.872C210.2 311.256 209.064 311.704 208.008 312.216L206.712 309.048C207.832 308.44 209.16 307.928 210.696 307.512C212.232 307.064 213.832 306.84 215.496 306.84ZM216.744 320.568C213.544 320.696 211.32 321.208 210.072 322.104C208.856 323 208.248 324.264 208.248 325.896C208.248 327.336 208.68 328.392 209.544 329.064C210.44 329.736 211.576 330.072 212.952 330.072C215.128 330.072 216.936 329.48 218.376 328.296C219.816 327.08 220.536 325.224 220.536 322.728V320.424L216.744 320.568ZM236.882 307.272V317.976H250.85V307.272H255.074V333H250.85V321.528H236.882V333H232.658V307.272H236.882ZM267.205 322.968C267.205 323.256 267.189 323.672 267.157 324.216C267.157 324.728 267.141 325.288 267.109 325.896C267.077 326.472 267.045 327.032 267.013 327.576C266.981 328.088 266.949 328.504 266.917 328.824L280.693 307.272H285.877V333H281.941V317.832C281.941 317.32 281.941 316.648 281.941 315.816C281.973 314.984 282.005 314.168 282.037 313.368C282.069 312.536 282.101 311.912 282.133 311.496L268.453 333H263.221V307.272H267.205V322.968ZM304 306.792C306.208 306.792 308.096 307.272 309.664 308.232C311.264 309.192 312.48 310.552 313.312 312.312C314.176 314.04 314.608 316.072 314.608 318.408V320.952H296.992C297.056 323.864 297.792 326.088 299.2 327.624C300.64 329.128 302.64 329.88 305.2 329.88C306.832 329.88 308.272 329.736 309.52 329.448C310.8 329.128 312.112 328.68 313.456 328.104V331.8C312.144 332.376 310.848 332.792 309.568 333.048C308.288 333.336 306.768 333.48 305.008 333.48C302.576 333.48 300.416 332.984 298.528 331.992C296.672 331 295.216 329.528 294.16 327.576C293.136 325.592 292.624 323.176 292.624 320.328C292.624 317.512 293.088 315.096 294.016 313.08C294.976 311.064 296.304 309.512 298 308.424C299.728 307.336 301.728 306.792 304 306.792ZM303.952 310.248C301.936 310.248 300.336 310.904 299.152 312.216C298 313.496 297.312 315.288 297.088 317.592H310.192C310.192 316.12 309.968 314.84 309.52 313.752C309.072 312.664 308.384 311.816 307.456 311.208C306.56 310.568 305.392 310.248 303.952 310.248Z" fill="black"/>
<path d="M530.16 333L526.032 322.392H512.448L508.368 333H504L517.392 298.584H521.28L534.624 333H530.16ZM520.896 308.184C520.8 307.928 520.64 307.464 520.416 306.792C520.192 306.12 519.968 305.432 519.744 304.728C519.552 303.992 519.392 303.432 519.264 303.048C519.104 303.688 518.928 304.344 518.736 305.016C518.576 305.656 518.4 306.248 518.208 306.792C518.048 307.336 517.904 307.8 517.776 308.184L513.888 318.552H524.736L520.896 308.184ZM559.424 313.752C559.424 315.352 558.944 316.6 557.984 317.496C557.024 318.392 555.792 319 554.288 319.32V319.512C555.888 319.736 557.28 320.312 558.464 321.24C559.648 322.136 560.24 323.544 560.24 325.464C560.24 326.552 560.032 327.56 559.616 328.488C559.232 329.416 558.624 330.216 557.792 330.888C556.96 331.56 555.888 332.088 554.576 332.472C553.264 332.824 551.68 333 549.824 333H538.736V307.272H549.776C551.6 307.272 553.232 307.48 554.672 307.896C556.144 308.28 557.296 308.952 558.128 309.912C558.992 310.84 559.424 312.12 559.424 313.752ZM555.872 325.464C555.872 323.992 555.312 322.936 554.192 322.296C553.072 321.656 551.424 321.336 549.248 321.336H542.96V329.592H549.344C551.456 329.592 553.072 329.288 554.192 328.68C555.312 328.04 555.872 326.968 555.872 325.464ZM555.152 314.28C555.152 313.064 554.704 312.184 553.808 311.64C552.944 311.064 551.52 310.776 549.536 310.776H542.96V317.832H548.768C550.848 317.832 552.432 317.544 553.52 316.968C554.608 316.392 555.152 315.496 555.152 314.28ZM584.153 310.824H575.753V333H571.577V310.824H563.273V307.272H584.153V310.824ZM611.12 320.088C611.12 322.232 610.832 324.136 610.256 325.8C609.712 327.432 608.912 328.824 607.856 329.976C606.832 331.128 605.568 332.008 604.064 332.616C602.592 333.192 600.944 333.48 599.12 333.48C597.424 333.48 595.856 333.192 594.416 332.616C592.976 332.008 591.728 331.128 590.672 329.976C589.616 328.824 588.784 327.432 588.176 325.8C587.6 324.136 587.312 322.232 587.312 320.088C587.312 317.24 587.792 314.84 588.752 312.888C589.712 310.904 591.088 309.4 592.88 308.376C594.672 307.32 596.8 306.792 599.264 306.792C601.6 306.792 603.648 307.32 605.408 308.376C607.2 309.4 608.592 310.904 609.584 312.888C610.608 314.84 611.12 317.24 611.12 320.088ZM591.68 320.088C591.68 322.104 591.936 323.864 592.448 325.368C592.992 326.84 593.824 327.976 594.944 328.776C596.064 329.576 597.488 329.976 599.216 329.976C600.944 329.976 602.368 329.576 603.488 328.776C604.608 327.976 605.424 326.84 605.936 325.368C606.48 323.864 606.752 322.104 606.752 320.088C606.752 318.04 606.48 316.296 605.936 314.856C605.392 313.416 604.56 312.312 603.44 311.544C602.352 310.744 600.928 310.344 599.168 310.344C596.544 310.344 594.64 311.208 593.456 312.936C592.272 314.664 591.68 317.048 591.68 320.088ZM630.054 306.792C633.222 306.792 635.766 307.896 637.686 310.104C639.638 312.312 640.614 315.64 640.614 320.088C640.614 323 640.166 325.464 639.27 327.48C638.406 329.464 637.174 330.968 635.574 331.992C634.006 332.984 632.15 333.48 630.006 333.48C628.694 333.48 627.526 333.304 626.502 332.952C625.478 332.6 624.598 332.152 623.862 331.608C623.158 331.032 622.55 330.408 622.038 329.736H621.75C621.814 330.28 621.878 330.968 621.942 331.8C622.006 332.632 622.038 333.352 622.038 333.96V344.52H617.814V307.272H621.27L621.846 310.776H622.038C622.55 310.04 623.158 309.368 623.862 308.76C624.598 308.152 625.462 307.672 626.454 307.32C627.478 306.968 628.678 306.792 630.054 306.792ZM629.286 310.344C627.558 310.344 626.166 310.68 625.11 311.352C624.054 311.992 623.286 312.968 622.806 314.28C622.326 315.592 622.07 317.256 622.038 319.272V320.088C622.038 322.2 622.262 323.992 622.71 325.464C623.158 326.936 623.91 328.056 624.966 328.824C626.054 329.592 627.526 329.976 629.382 329.976C630.95 329.976 632.23 329.544 633.222 328.68C634.246 327.816 634.998 326.648 635.478 325.176C635.99 323.672 636.246 321.96 636.246 320.04C636.246 317.096 635.67 314.744 634.518 312.984C633.398 311.224 631.654 310.344 629.286 310.344Z" fill="black"/>
<path d="M829.664 345H824.48L808.976 327.624V345H804.656V310.728H808.976V327.336L824.096 310.728H828.992L814.112 327.384L829.664 345ZM843.496 318.84C846.632 318.84 848.952 319.528 850.456 320.904C851.96 322.28 852.712 324.472 852.712 327.48V345H849.64L848.824 341.352H848.632C847.896 342.28 847.128 343.064 846.328 343.704C845.56 344.312 844.664 344.76 843.64 345.048C842.648 345.336 841.432 345.48 839.992 345.48C838.456 345.48 837.064 345.208 835.816 344.664C834.6 344.12 833.64 343.288 832.936 342.168C832.232 341.016 831.88 339.576 831.88 337.848C831.88 335.288 832.888 333.32 834.904 331.944C836.92 330.536 840.024 329.768 844.216 329.64L848.584 329.496V327.96C848.584 325.816 848.12 324.328 847.192 323.496C846.264 322.664 844.952 322.248 843.256 322.248C841.912 322.248 840.632 322.456 839.416 322.872C838.2 323.256 837.064 323.704 836.008 324.216L834.712 321.048C835.832 320.44 837.16 319.928 838.696 319.512C840.232 319.064 841.832 318.84 843.496 318.84ZM844.744 332.568C841.544 332.696 839.32 333.208 838.072 334.104C836.856 335 836.248 336.264 836.248 337.896C836.248 339.336 836.68 340.392 837.544 341.064C838.44 341.736 839.576 342.072 840.952 342.072C843.128 342.072 844.936 341.48 846.376 340.296C847.816 339.08 848.536 337.224 848.536 334.728V332.424L844.744 332.568ZM878.418 322.824H870.018V345H865.842V322.824H857.538V319.272H878.418V322.824ZM892.954 318.792C895.162 318.792 897.05 319.272 898.618 320.232C900.218 321.192 901.434 322.552 902.266 324.312C903.13 326.04 903.562 328.072 903.562 330.408V332.952H885.946C886.01 335.864 886.746 338.088 888.154 339.624C889.594 341.128 891.594 341.88 894.154 341.88C895.786 341.88 897.226 341.736 898.474 341.448C899.754 341.128 901.066 340.68 902.41 340.104V343.8C901.098 344.376 899.802 344.792 898.522 345.048C897.242 345.336 895.722 345.48 893.962 345.48C891.53 345.48 889.37 344.984 887.482 343.992C885.626 343 884.17 341.528 883.114 339.576C882.09 337.592 881.578 335.176 881.578 332.328C881.578 329.512 882.042 327.096 882.97 325.08C883.93 323.064 885.258 321.512 886.954 320.424C888.682 319.336 890.682 318.792 892.954 318.792ZM892.906 322.248C890.89 322.248 889.29 322.904 888.106 324.216C886.954 325.496 886.266 327.288 886.042 329.592H899.146C899.146 328.12 898.922 326.84 898.474 325.752C898.026 324.664 897.338 323.816 896.41 323.208C895.514 322.568 894.346 322.248 892.906 322.248ZM925.807 319.272V322.824H914.335V345H910.111V319.272H925.807ZM952.776 332.088C952.776 334.232 952.488 336.136 951.912 337.8C951.368 339.432 950.568 340.824 949.512 341.976C948.488 343.128 947.224 344.008 945.72 344.616C944.248 345.192 942.6 345.48 940.776 345.48C939.08 345.48 937.512 345.192 936.072 344.616C934.632 344.008 933.384 343.128 932.328 341.976C931.272 340.824 930.44 339.432 929.832 337.8C929.256 336.136 928.968 334.232 928.968 332.088C928.968 329.24 929.448 326.84 930.408 324.888C931.368 322.904 932.744 321.4 934.536 320.376C936.328 319.32 938.456 318.792 940.92 318.792C943.256 318.792 945.304 319.32 947.064 320.376C948.856 321.4 950.248 322.904 951.24 324.888C952.264 326.84 952.776 329.24 952.776 332.088ZM933.336 332.088C933.336 334.104 933.592 335.864 934.104 337.368C934.648 338.84 935.48 339.976 936.6 340.776C937.72 341.576 939.144 341.976 940.872 341.976C942.6 341.976 944.024 341.576 945.144 340.776C946.264 339.976 947.08 338.84 947.592 337.368C948.136 335.864 948.408 334.104 948.408 332.088C948.408 330.04 948.136 328.296 947.592 326.856C947.048 325.416 946.216 324.312 945.096 323.544C944.008 322.744 942.584 322.344 940.824 322.344C938.2 322.344 936.296 323.208 935.112 324.936C933.928 326.664 933.336 329.048 933.336 332.088ZM971.711 318.792C974.879 318.792 977.423 319.896 979.343 322.104C981.295 324.312 982.271 327.64 982.271 332.088C982.271 335 981.823 337.464 980.927 339.48C980.063 341.464 978.831 342.968 977.231 343.992C975.663 344.984 973.807 345.48 971.663 345.48C970.351 345.48 969.183 345.304 968.159 344.952C967.135 344.6 966.255 344.152 965.519 343.608C964.815 343.032 964.207 342.408 963.695 341.736H963.407C963.471 342.28 963.535 342.968 963.599 343.8C963.663 344.632 963.695 345.352 963.695 345.96V356.52H959.471V319.272H962.927L963.503 322.776H963.695C964.207 322.04 964.815 321.368 965.519 320.76C966.255 320.152 967.119 319.672 968.111 319.32C969.135 318.968 970.335 318.792 971.711 318.792ZM970.943 322.344C969.215 322.344 967.823 322.68 966.767 323.352C965.711 323.992 964.943 324.968 964.463 326.28C963.983 327.592 963.727 329.256 963.695 331.272V332.088C963.695 334.2 963.919 335.992 964.367 337.464C964.815 338.936 965.567 340.056 966.623 340.824C967.711 341.592 969.183 341.976 971.039 341.976C972.607 341.976 973.887 341.544 974.879 340.68C975.903 339.816 976.655 338.648 977.135 337.176C977.647 335.672 977.903 333.96 977.903 332.04C977.903 329.096 977.327 326.744 976.175 324.984C975.055 323.224 973.311 322.344 970.943 322.344ZM992.986 334.968C992.986 335.256 992.97 335.672 992.938 336.216C992.938 336.728 992.922 337.288 992.89 337.896C992.858 338.472 992.826 339.032 992.794 339.576C992.762 340.088 992.73 340.504 992.698 340.824L1006.47 319.272H1011.66V345H1007.72V329.832C1007.72 329.32 1007.72 328.648 1007.72 327.816C1007.75 326.984 1007.79 326.168 1007.82 325.368C1007.85 324.536 1007.88 323.912 1007.91 323.496L994.234 345H989.002V319.272H992.986V334.968ZM1021.43 345H1016.53L1023.88 334.2C1022.89 333.944 1021.93 333.544 1021 333C1020.07 332.424 1019.32 331.64 1018.74 330.648C1018.17 329.624 1017.88 328.36 1017.88 326.856C1017.88 324.392 1018.71 322.52 1020.37 321.24C1022.04 319.928 1024.25 319.272 1027 319.272H1038.52V345H1034.29V334.776H1028.05L1021.43 345ZM1021.96 326.904C1021.96 328.376 1022.5 329.48 1023.59 330.216C1024.71 330.92 1026.26 331.272 1028.25 331.272H1034.29V322.776H1027.43C1025.48 322.776 1024.07 323.16 1023.21 323.928C1022.37 324.696 1021.96 325.688 1021.96 326.904Z" fill="black"/>
<path d="M1157.74 281.728V312.16H1162.11V325.024H1157.98V316H1134.42V325.024H1130.29V312.16H1132.93C1134.08 310.176 1135.17 307.952 1136.19 305.488C1137.25 303.024 1138.18 300.448 1138.98 297.76C1139.78 295.04 1140.43 292.32 1140.94 289.6C1141.46 286.88 1141.78 284.256 1141.9 281.728H1157.74ZM1145.7 285.616C1145.57 287.472 1145.25 289.568 1144.74 291.904C1144.26 294.24 1143.63 296.64 1142.86 299.104C1142.13 301.536 1141.3 303.888 1140.37 306.16C1139.47 308.432 1138.51 310.432 1137.49 312.16H1153.47V285.616H1145.7ZM1177.01 289.84C1180.15 289.84 1182.47 290.528 1183.97 291.904C1185.48 293.28 1186.23 295.472 1186.23 298.48V316H1183.16L1182.34 312.352H1182.15C1181.41 313.28 1180.64 314.064 1179.84 314.704C1179.08 315.312 1178.18 315.76 1177.16 316.048C1176.16 316.336 1174.95 316.48 1173.51 316.48C1171.97 316.48 1170.58 316.208 1169.33 315.664C1168.12 315.12 1167.16 314.288 1166.45 313.168C1165.75 312.016 1165.4 310.576 1165.4 308.848C1165.4 306.288 1166.4 304.32 1168.42 302.944C1170.44 301.536 1173.54 300.768 1177.73 300.64L1182.1 300.496V298.96C1182.1 296.816 1181.64 295.328 1180.71 294.496C1179.78 293.664 1178.47 293.248 1176.77 293.248C1175.43 293.248 1174.15 293.456 1172.93 293.872C1171.72 294.256 1170.58 294.704 1169.52 295.216L1168.23 292.048C1169.35 291.44 1170.68 290.928 1172.21 290.512C1173.75 290.064 1175.35 289.84 1177.01 289.84ZM1178.26 303.568C1175.06 303.696 1172.84 304.208 1171.59 305.104C1170.37 306 1169.76 307.264 1169.76 308.896C1169.76 310.336 1170.2 311.392 1171.06 312.064C1171.96 312.736 1173.09 313.072 1174.47 313.072C1176.64 313.072 1178.45 312.48 1179.89 311.296C1181.33 310.08 1182.05 308.224 1182.05 305.728V303.424L1178.26 303.568ZM1211.93 293.824H1203.53V316H1199.36V293.824H1191.05V290.272H1211.93V293.824ZM1226.75 289.84C1229.88 289.84 1232.2 290.528 1233.71 291.904C1235.21 293.28 1235.96 295.472 1235.96 298.48V316H1232.89L1232.07 312.352H1231.88C1231.15 313.28 1230.38 314.064 1229.58 314.704C1228.81 315.312 1227.91 315.76 1226.89 316.048C1225.9 316.336 1224.68 316.48 1223.24 316.48C1221.71 316.48 1220.31 316.208 1219.07 315.664C1217.85 315.12 1216.89 314.288 1216.19 313.168C1215.48 312.016 1215.13 310.576 1215.13 308.848C1215.13 306.288 1216.14 304.32 1218.15 302.944C1220.17 301.536 1223.27 300.768 1227.47 300.64L1231.83 300.496V298.96C1231.83 296.816 1231.37 295.328 1230.44 294.496C1229.51 293.664 1228.2 293.248 1226.51 293.248C1225.16 293.248 1223.88 293.456 1222.67 293.872C1221.45 294.256 1220.31 294.704 1219.26 295.216L1217.96 292.048C1219.08 291.44 1220.41 290.928 1221.95 290.512C1223.48 290.064 1225.08 289.84 1226.75 289.84ZM1227.99 303.568C1224.79 303.696 1222.57 304.208 1221.32 305.104C1220.11 306 1219.5 307.264 1219.5 308.896C1219.5 310.336 1219.93 311.392 1220.79 312.064C1221.69 312.736 1222.83 313.072 1224.2 313.072C1226.38 313.072 1228.19 312.48 1229.63 311.296C1231.07 310.08 1231.79 308.224 1231.79 305.728V303.424L1227.99 303.568ZM1155.82 348.272V374H1151.6V351.872H1138.3V374H1134.08V348.272H1155.82ZM1160 348.272H1164.51L1170.08 362.912C1170.4 363.776 1170.69 364.608 1170.95 365.408C1171.23 366.208 1171.49 366.992 1171.71 367.76C1171.94 368.496 1172.11 369.216 1172.24 369.92H1172.43C1172.63 369.12 1172.93 368.08 1173.35 366.8C1173.76 365.488 1174.19 364.176 1174.64 362.864L1179.87 348.272H1184.43L1173.35 377.552C1172.74 379.152 1172.02 380.544 1171.19 381.728C1170.39 382.944 1169.39 383.872 1168.21 384.512C1167.06 385.184 1165.65 385.52 1163.99 385.52C1163.22 385.52 1162.55 385.472 1161.97 385.376C1161.39 385.312 1160.9 385.232 1160.48 385.136V381.776C1160.83 381.84 1161.25 381.904 1161.73 381.968C1162.24 382.032 1162.77 382.064 1163.31 382.064C1164.31 382.064 1165.15 381.872 1165.86 381.488C1166.59 381.136 1167.22 380.608 1167.73 379.904C1168.24 379.232 1168.67 378.432 1169.03 377.504L1170.37 374.096L1160 348.272ZM1187.16 358.544C1187.16 354.8 1187.53 351.616 1188.26 348.992C1189.03 346.336 1190.2 344.224 1191.77 342.656C1193.37 341.056 1195.41 339.984 1197.91 339.44C1199.99 338.992 1202.02 338.592 1204.01 338.24C1205.99 337.888 1207.85 337.568 1209.57 337.28L1210.29 340.976C1209.46 341.104 1208.53 341.264 1207.51 341.456C1206.49 341.616 1205.45 341.792 1204.39 341.984C1203.33 342.144 1202.31 342.32 1201.32 342.512C1200.36 342.672 1199.51 342.832 1198.77 342.992C1197.72 343.216 1196.77 343.6 1195.94 344.144C1195.11 344.656 1194.39 345.36 1193.78 346.256C1193.21 347.152 1192.74 348.256 1192.39 349.568C1192.04 350.88 1191.83 352.432 1191.77 354.224H1192.05C1192.5 353.616 1193.11 352.992 1193.88 352.352C1194.68 351.712 1195.62 351.168 1196.71 350.72C1197.83 350.272 1199.09 350.048 1200.5 350.048C1202.74 350.048 1204.6 350.544 1206.07 351.536C1207.57 352.496 1208.69 353.84 1209.43 355.568C1210.2 357.296 1210.58 359.312 1210.58 361.616C1210.58 364.464 1210.09 366.848 1209.09 368.768C1208.1 370.688 1206.73 372.128 1204.97 373.088C1203.21 374.016 1201.16 374.48 1198.82 374.48C1197.06 374.48 1195.46 374.144 1194.02 373.472C1192.58 372.768 1191.35 371.744 1190.33 370.4C1189.3 369.056 1188.52 367.392 1187.97 365.408C1187.43 363.424 1187.16 361.136 1187.16 358.544ZM1199.16 370.976C1200.57 370.976 1201.78 370.688 1202.81 370.112C1203.86 369.536 1204.68 368.592 1205.25 367.28C1205.83 365.968 1206.12 364.224 1206.12 362.048C1206.12 359.424 1205.62 357.36 1204.63 355.856C1203.67 354.32 1202.07 353.552 1199.83 353.552C1198.42 353.552 1197.14 353.872 1195.99 354.512C1194.84 355.12 1193.88 355.824 1193.11 356.624C1192.34 357.424 1191.8 358.096 1191.48 358.64C1191.48 360.208 1191.59 361.728 1191.81 363.2C1192.04 364.672 1192.42 366 1192.97 367.184C1193.54 368.336 1194.33 369.264 1195.32 369.968C1196.34 370.64 1197.62 370.976 1199.16 370.976ZM1236.82 374H1232.55V351.776H1224.96C1224.64 355.84 1224.24 359.312 1223.76 362.192C1223.28 365.04 1222.68 367.36 1221.94 369.152C1221.2 370.944 1220.32 372.256 1219.3 373.088C1218.28 373.92 1217.08 374.336 1215.7 374.336C1215.28 374.336 1214.87 374.304 1214.45 374.24C1214.07 374.208 1213.75 374.128 1213.49 374V370.832C1213.68 370.896 1213.89 370.944 1214.12 370.976C1214.34 371.008 1214.56 371.024 1214.79 371.024C1215.49 371.024 1216.13 370.736 1216.71 370.16C1217.28 369.584 1217.8 368.704 1218.24 367.52C1218.72 366.336 1219.16 364.848 1219.54 363.056C1219.92 361.232 1220.26 359.088 1220.55 356.624C1220.84 354.16 1221.09 351.376 1221.32 348.272H1236.82V374ZM1248.97 363.968C1248.97 364.256 1248.95 364.672 1248.92 365.216C1248.92 365.728 1248.91 366.288 1248.87 366.896C1248.84 367.472 1248.81 368.032 1248.78 368.576C1248.75 369.088 1248.71 369.504 1248.68 369.824L1262.46 348.272H1267.64V374H1263.71V358.832C1263.71 358.32 1263.71 357.648 1263.71 356.816C1263.74 355.984 1263.77 355.168 1263.8 354.368C1263.83 353.536 1263.87 352.912 1263.9 352.496L1250.22 374H1244.99V348.272H1248.97V363.968ZM1291.05 348.272H1295.65L1284.66 360.656L1296.57 374H1291.67L1280.05 360.944V374H1275.83V348.272H1280.05V360.752L1291.05 348.272ZM1310.98 347.84C1314.12 347.84 1316.44 348.528 1317.94 349.904C1319.44 351.28 1320.2 353.472 1320.2 356.48V374H1317.12L1316.31 370.352H1316.12C1315.38 371.28 1314.61 372.064 1313.81 372.704C1313.04 373.312 1312.15 373.76 1311.12 374.048C1310.13 374.336 1308.92 374.48 1307.48 374.48C1305.94 374.48 1304.55 374.208 1303.3 373.664C1302.08 373.12 1301.12 372.288 1300.42 371.168C1299.72 370.016 1299.36 368.576 1299.36 366.848C1299.36 364.288 1300.37 362.32 1302.39 360.944C1304.4 359.536 1307.51 358.768 1311.7 358.64L1316.07 358.496V356.96C1316.07 354.816 1315.6 353.328 1314.68 352.496C1313.75 351.664 1312.44 351.248 1310.74 351.248C1309.4 351.248 1308.12 351.456 1306.9 351.872C1305.68 352.256 1304.55 352.704 1303.49 353.216L1302.2 350.048C1303.32 349.44 1304.64 348.928 1306.18 348.512C1307.72 348.064 1309.32 347.84 1310.98 347.84ZM1312.23 361.568C1309.03 361.696 1306.8 362.208 1305.56 363.104C1304.34 364 1303.73 365.264 1303.73 366.896C1303.73 368.336 1304.16 369.392 1305.03 370.064C1305.92 370.736 1307.06 371.072 1308.44 371.072C1310.61 371.072 1312.42 370.48 1313.86 369.296C1315.3 368.08 1316.02 366.224 1316.02 363.728V361.424L1312.23 361.568ZM1353.53 382.928H1349.41V374H1328.14V348.272H1332.37V370.448H1345.66V348.272H1349.89V370.496H1353.53V382.928ZM1362.45 363.968C1362.45 364.256 1362.44 364.672 1362.41 365.216C1362.41 365.728 1362.39 366.288 1362.36 366.896C1362.33 367.472 1362.29 368.032 1362.26 368.576C1362.23 369.088 1362.2 369.504 1362.17 369.824L1375.94 348.272H1381.13V374H1377.19V358.832C1377.19 358.32 1377.19 357.648 1377.19 356.816C1377.22 355.984 1377.25 355.168 1377.29 354.368C1377.32 353.536 1377.35 352.912 1377.38 352.496L1363.7 374H1358.47V348.272H1362.45V363.968ZM1393.3 363.968C1393.3 364.256 1393.28 364.672 1393.25 365.216C1393.25 365.728 1393.23 366.288 1393.2 366.896C1393.17 367.472 1393.14 368.032 1393.11 368.576C1393.07 369.088 1393.04 369.504 1393.01 369.824L1406.79 348.272H1411.97V374H1408.03V358.832C1408.03 358.32 1408.03 357.648 1408.03 356.816C1408.07 355.984 1408.1 355.168 1408.13 354.368C1408.16 353.536 1408.19 352.912 1408.23 352.496L1394.55 374H1389.31V348.272H1393.3V363.968Z" fill="black"/>
<rect x="1496" y="293" width="463" height="69" rx="18" fill="#656161"/>
<path d="M1605.19 347.438V334.534H1607.49C1608.28 333.875 1609.01 332.937 1609.69 331.722C1610.38 330.506 1610.95 328.864 1611.43 326.795C1611.91 324.727 1612.24 322.074 1612.42 318.835L1613.24 304.091H1634.77V334.534H1638.72V347.386H1633.68V339H1610.24V347.438H1605.19ZM1613.7 334.534H1629.72V308.625H1618.01L1617.47 318.835C1617.32 321.301 1617.07 323.517 1616.73 325.483C1616.4 327.449 1615.98 329.187 1615.45 330.699C1614.94 332.199 1614.36 333.477 1613.7 334.534ZM1655.11 339.528C1652.66 339.528 1650.51 338.966 1648.68 337.841C1646.86 336.716 1645.43 335.142 1644.42 333.119C1643.41 331.097 1642.91 328.733 1642.91 326.028C1642.91 323.312 1643.41 320.937 1644.42 318.903C1645.43 316.869 1646.86 315.29 1648.68 314.165C1650.51 313.04 1652.66 312.477 1655.11 312.477C1657.57 312.477 1659.71 313.04 1661.54 314.165C1663.37 315.29 1664.79 316.869 1665.8 318.903C1666.81 320.937 1667.32 323.312 1667.32 326.028C1667.32 328.733 1666.81 331.097 1665.8 333.119C1664.79 335.142 1663.37 336.716 1661.54 337.841C1659.71 338.966 1657.57 339.528 1655.11 339.528ZM1655.13 335.25C1656.72 335.25 1658.04 334.83 1659.08 333.989C1660.13 333.148 1660.9 332.028 1661.4 330.631C1661.91 329.233 1662.17 327.693 1662.17 326.011C1662.17 324.341 1661.91 322.807 1661.4 321.409C1660.9 320 1660.13 318.869 1659.08 318.017C1658.04 317.165 1656.72 316.739 1655.13 316.739C1653.53 316.739 1652.2 317.165 1651.14 318.017C1650.09 318.869 1649.32 320 1648.8 321.409C1648.3 322.807 1648.05 324.341 1648.05 326.011C1648.05 327.693 1648.3 329.233 1648.8 330.631C1649.32 332.028 1650.09 333.148 1651.14 333.989C1652.2 334.83 1653.53 335.25 1655.13 335.25ZM1693.2 303.068L1695.32 306.29C1694.53 307.006 1693.64 307.517 1692.64 307.824C1691.65 308.119 1690.51 308.307 1689.21 308.386C1687.92 308.455 1686.44 308.517 1684.77 308.574C1682.88 308.631 1681.33 309.04 1680.11 309.801C1678.9 310.551 1677.96 311.665 1677.3 313.142C1676.65 314.608 1676.23 316.449 1676.04 318.665H1676.36C1677.21 317.04 1678.4 315.824 1679.91 315.017C1681.43 314.21 1683.14 313.807 1685.04 313.807C1687.15 313.807 1689.03 314.29 1690.68 315.256C1692.33 316.222 1693.62 317.636 1694.57 319.5C1695.52 321.352 1696 323.619 1696 326.301C1696 329.017 1695.5 331.364 1694.5 333.341C1693.51 335.318 1692.11 336.847 1690.31 337.926C1688.51 338.994 1686.39 339.528 1683.95 339.528C1681.5 339.528 1679.37 338.977 1677.56 337.875C1675.75 336.761 1674.35 335.114 1673.35 332.932C1672.36 330.75 1671.86 328.057 1671.86 324.852V322.261C1671.86 316.273 1672.93 311.767 1675.07 308.744C1677.2 305.722 1680.4 304.17 1684.65 304.091C1686.02 304.057 1687.25 304.051 1688.33 304.074C1689.41 304.085 1690.35 304.034 1691.16 303.92C1691.98 303.795 1692.66 303.511 1693.2 303.068ZM1683.96 335.25C1685.38 335.25 1686.61 334.892 1687.63 334.176C1688.66 333.449 1689.46 332.42 1690.02 331.091C1690.57 329.761 1690.85 328.193 1690.85 326.386C1690.85 324.614 1690.57 323.108 1690.02 321.869C1689.46 320.631 1688.66 319.687 1687.63 319.04C1686.6 318.381 1685.36 318.051 1683.91 318.051C1682.85 318.051 1681.89 318.239 1681.05 318.614C1680.21 318.977 1679.49 319.517 1678.88 320.233C1678.29 320.949 1677.83 321.824 1677.5 322.858C1677.19 323.881 1677.02 325.057 1676.99 326.386C1676.99 329.091 1677.61 331.244 1678.85 332.847C1680.1 334.449 1681.81 335.25 1683.96 335.25ZM1709.31 339.58C1707.65 339.58 1706.15 339.273 1704.81 338.659C1703.47 338.034 1702.41 337.131 1701.62 335.949C1700.85 334.767 1700.46 333.318 1700.46 331.602C1700.46 330.125 1700.75 328.909 1701.32 327.955C1701.88 327 1702.65 326.244 1703.62 325.688C1704.58 325.131 1705.66 324.71 1706.86 324.426C1708.05 324.142 1709.27 323.926 1710.5 323.778C1712.07 323.597 1713.35 323.449 1714.32 323.335C1715.3 323.21 1716.01 323.011 1716.45 322.739C1716.9 322.466 1717.12 322.023 1717.12 321.409V321.29C1717.12 319.801 1716.7 318.648 1715.86 317.83C1715.03 317.011 1713.79 316.602 1712.14 316.602C1710.42 316.602 1709.07 316.983 1708.08 317.744C1707.11 318.494 1706.43 319.33 1706.06 320.25L1701.27 319.159C1701.83 317.568 1702.66 316.284 1703.75 315.307C1704.86 314.318 1706.12 313.602 1707.56 313.159C1708.99 312.705 1710.49 312.477 1712.07 312.477C1713.12 312.477 1714.23 312.602 1715.4 312.852C1716.58 313.091 1717.68 313.534 1718.7 314.182C1719.74 314.83 1720.58 315.756 1721.24 316.96C1721.9 318.153 1722.23 319.705 1722.23 321.614V339H1717.25V335.42H1717.05C1716.72 336.08 1716.23 336.727 1715.57 337.364C1714.91 338 1714.06 338.528 1713.03 338.949C1711.99 339.369 1710.75 339.58 1709.31 339.58ZM1710.42 335.489C1711.83 335.489 1713.03 335.21 1714.03 334.653C1715.04 334.097 1715.81 333.369 1716.33 332.472C1716.87 331.562 1717.13 330.591 1717.13 329.557V326.182C1716.95 326.364 1716.6 326.534 1716.08 326.693C1715.57 326.841 1714.98 326.972 1714.32 327.085C1713.66 327.187 1713.02 327.284 1712.4 327.375C1711.77 327.455 1711.25 327.523 1710.83 327.58C1709.84 327.705 1708.94 327.915 1708.12 328.21C1707.31 328.506 1706.66 328.932 1706.17 329.489C1705.7 330.034 1705.46 330.761 1705.46 331.67C1705.46 332.932 1705.92 333.886 1706.86 334.534C1707.79 335.17 1708.98 335.489 1710.42 335.489ZM1729.02 339V312.818H1739.88C1742.83 312.818 1745.17 313.449 1746.9 314.71C1748.63 315.96 1749.49 317.659 1749.49 319.807C1749.49 321.341 1749 322.557 1748.03 323.455C1747.05 324.352 1745.75 324.955 1744.14 325.261C1745.31 325.398 1746.38 325.75 1747.36 326.318C1748.34 326.875 1749.12 327.625 1749.71 328.568C1750.32 329.511 1750.62 330.636 1750.62 331.943C1750.62 333.33 1750.26 334.557 1749.54 335.625C1748.83 336.682 1747.79 337.511 1746.42 338.114C1745.07 338.705 1743.44 339 1741.53 339H1729.02ZM1733.81 334.739H1741.53C1742.79 334.739 1743.78 334.437 1744.5 333.835C1745.21 333.233 1745.57 332.415 1745.57 331.381C1745.57 330.165 1745.21 329.21 1744.5 328.517C1743.78 327.812 1742.79 327.46 1741.53 327.46H1733.81V334.739ZM1733.81 323.727H1739.93C1740.88 323.727 1741.7 323.591 1742.38 323.318C1743.08 323.045 1743.61 322.659 1743.97 322.159C1744.34 321.648 1744.53 321.045 1744.53 320.352C1744.53 319.341 1744.12 318.551 1743.29 317.983C1742.46 317.415 1741.32 317.131 1739.88 317.131H1733.81V323.727ZM1761.2 331.858L1772.74 312.818H1778.23V339H1773.24V319.943L1761.75 339H1756.21V312.818H1761.2V331.858ZM1781.84 317.216V312.818H1803.93V317.216H1795.39V339H1790.41V317.216H1781.84ZM1813.15 321.818H1820.75C1823.96 321.818 1826.42 322.614 1828.15 324.205C1829.88 325.795 1830.74 327.847 1830.74 330.358C1830.74 331.994 1830.36 333.466 1829.58 334.773C1828.81 336.08 1827.68 337.114 1826.19 337.875C1824.7 338.625 1822.89 339 1820.75 339H1809.32V312.818H1814.31V334.602H1820.75C1822.22 334.602 1823.42 334.222 1824.37 333.46C1825.31 332.688 1825.78 331.705 1825.78 330.511C1825.78 329.25 1825.31 328.222 1824.37 327.426C1823.42 326.619 1822.22 326.216 1820.75 326.216H1813.15V321.818Z" fill="white"/>
</g>
<defs>
<clipPath id="clip0_4_3376">
<rect width="1920" height="1080" fill="white"/>
</clipPath>
</defs>
</svg>
