<svg width="1920" height="1080" viewBox="0 0 1920 1080" fill="none" xmlns="http://www.w3.org/2000/svg">
<rect width="1920" height="1080" fill="white"/>
<rect x="1469" y="16" width="398" height="69" rx="18" fill="#958383"/>
<path d="M1623.2 37.8182V41.2188H1610.83V64H1606.88V37.8182H1623.2ZM1625.8 64L1625.79 60.6889H1626.49C1627.04 60.6889 1627.49 60.5739 1627.86 60.3438C1628.23 60.1051 1628.54 59.7045 1628.78 59.142C1629.02 58.5795 1629.2 57.804 1629.33 56.8153C1629.46 55.8182 1629.55 54.5653 1629.61 53.0568L1629.95 44.3636H1643.66V64H1639.91V47.6619H1633.5L1633.19 54.3352C1633.11 55.9545 1632.95 57.3693 1632.69 58.5795C1632.44 59.7898 1632.08 60.7997 1631.6 61.6094C1631.13 62.4105 1630.51 63.0114 1629.76 63.4119C1629.01 63.804 1628.1 64 1627.03 64H1625.8ZM1654.47 64.4347C1653.23 64.4347 1652.1 64.2045 1651.1 63.7443C1650.09 63.2756 1649.29 62.598 1648.71 61.7116C1648.13 60.8253 1647.84 59.7386 1647.84 58.4517C1647.84 57.3437 1648.05 56.4318 1648.48 55.7159C1648.9 55 1649.48 54.4332 1650.2 54.0156C1650.93 53.598 1651.74 53.2827 1652.63 53.0696C1653.53 52.8565 1654.44 52.6946 1655.37 52.5838C1656.54 52.4474 1657.5 52.3366 1658.23 52.2514C1658.96 52.1577 1659.5 52.0085 1659.83 51.804C1660.16 51.5994 1660.33 51.267 1660.33 50.8068V50.7173C1660.33 49.6009 1660.01 48.7358 1659.38 48.1222C1658.76 47.5085 1657.83 47.2017 1656.59 47.2017C1655.31 47.2017 1654.29 47.4872 1653.55 48.0582C1652.82 48.6207 1652.31 49.2472 1652.03 49.9375L1648.44 49.1193C1648.86 47.9261 1649.49 46.9631 1650.3 46.2301C1651.13 45.4886 1652.08 44.9517 1653.15 44.6193C1654.23 44.2784 1655.36 44.108 1656.54 44.108C1657.33 44.108 1658.16 44.2017 1659.04 44.3892C1659.92 44.5682 1660.75 44.9006 1661.52 45.3864C1662.29 45.8722 1662.93 46.5668 1663.42 47.4702C1663.91 48.3651 1664.16 49.5284 1664.16 50.9602V64H1660.43V61.3153H1660.28C1660.03 61.8097 1659.66 62.2955 1659.16 62.7727C1658.67 63.25 1658.03 63.6463 1657.26 63.9616C1656.48 64.277 1655.55 64.4347 1654.47 64.4347ZM1655.3 61.3665C1656.36 61.3665 1657.26 61.1577 1658.01 60.7401C1658.77 60.3224 1659.35 59.777 1659.74 59.1037C1660.14 58.4219 1660.34 57.6932 1660.34 56.9176V54.3864C1660.2 54.5227 1659.94 54.6506 1659.55 54.7699C1659.16 54.8807 1658.72 54.9787 1658.23 55.0639C1657.74 55.1406 1657.25 55.2131 1656.79 55.2812C1656.32 55.3409 1655.92 55.392 1655.61 55.4347C1654.87 55.5284 1654.19 55.6861 1653.58 55.9077C1652.97 56.1293 1652.49 56.4489 1652.12 56.8665C1651.76 57.2756 1651.58 57.821 1651.58 58.5028C1651.58 59.4489 1651.93 60.1648 1652.63 60.6506C1653.33 61.1278 1654.22 61.3665 1655.3 61.3665ZM1669.25 64V44.3636H1677.4C1679.61 44.3636 1681.37 44.8366 1682.66 45.7827C1683.96 46.7202 1684.61 47.9943 1684.61 49.6051C1684.61 50.7557 1684.24 51.6676 1683.51 52.3409C1682.77 53.0142 1681.8 53.4659 1680.59 53.696C1681.47 53.7983 1682.28 54.0625 1683.01 54.4886C1683.74 54.9062 1684.33 55.4687 1684.77 56.1761C1685.22 56.8835 1685.45 57.7273 1685.45 58.7074C1685.45 59.7472 1685.18 60.6676 1684.65 61.4688C1684.11 62.2614 1683.33 62.8835 1682.31 63.3352C1681.29 63.7784 1680.07 64 1678.64 64H1669.25ZM1672.85 60.804H1678.64C1679.58 60.804 1680.32 60.5781 1680.86 60.1264C1681.4 59.6747 1681.67 59.0611 1681.67 58.2855C1681.67 57.3736 1681.4 56.6577 1680.86 56.1378C1680.32 55.6094 1679.58 55.3452 1678.64 55.3452H1672.85V60.804ZM1672.85 52.5455H1677.44C1678.15 52.5455 1678.76 52.4432 1679.28 52.2386C1679.8 52.0341 1680.19 51.7443 1680.46 51.3693C1680.75 50.9858 1680.89 50.5341 1680.89 50.0142C1680.89 49.2557 1680.58 48.6634 1679.95 48.2372C1679.33 47.8111 1678.48 47.598 1677.4 47.598H1672.85V52.5455ZM1702.95 52.5327V55.8438H1692.32V52.5327H1702.95ZM1693.39 44.3636V64H1689.64V44.3636H1693.39ZM1705.62 44.3636V64H1701.89V44.3636H1705.62ZM1716.45 64.4347C1715.21 64.4347 1714.08 64.2045 1713.08 63.7443C1712.07 63.2756 1711.27 62.598 1710.69 61.7116C1710.11 60.8253 1709.82 59.7386 1709.82 58.4517C1709.82 57.3437 1710.03 56.4318 1710.46 55.7159C1710.88 55 1711.46 54.4332 1712.18 54.0156C1712.91 53.598 1713.72 53.2827 1714.61 53.0696C1715.51 52.8565 1716.42 52.6946 1717.35 52.5838C1718.52 52.4474 1719.48 52.3366 1720.21 52.2514C1720.94 52.1577 1721.48 52.0085 1721.81 51.804C1722.14 51.5994 1722.31 51.267 1722.31 50.8068V50.7173C1722.31 49.6009 1721.99 48.7358 1721.36 48.1222C1720.74 47.5085 1719.81 47.2017 1718.57 47.2017C1717.29 47.2017 1716.27 47.4872 1715.53 48.0582C1714.8 48.6207 1714.29 49.2472 1714.01 49.9375L1710.42 49.1193C1710.84 47.9261 1711.47 46.9631 1712.28 46.2301C1713.11 45.4886 1714.06 44.9517 1715.14 44.6193C1716.21 44.2784 1717.34 44.108 1718.52 44.108C1719.31 44.108 1720.14 44.2017 1721.02 44.3892C1721.9 44.5682 1722.73 44.9006 1723.5 45.3864C1724.27 45.8722 1724.91 46.5668 1725.4 47.4702C1725.9 48.3651 1726.14 49.5284 1726.14 50.9602V64H1722.41V61.3153H1722.26C1722.01 61.8097 1721.64 62.2955 1721.14 62.7727C1720.65 63.25 1720.01 63.6463 1719.24 63.9616C1718.46 64.277 1717.53 64.4347 1716.45 64.4347ZM1717.28 61.3665C1718.34 61.3665 1719.24 61.1577 1719.99 60.7401C1720.75 60.3224 1721.33 59.777 1721.72 59.1037C1722.12 58.4219 1722.32 57.6932 1722.32 56.9176V54.3864C1722.18 54.5227 1721.92 54.6506 1721.53 54.7699C1721.14 54.8807 1720.7 54.9787 1720.21 55.0639C1719.72 55.1406 1719.23 55.2131 1718.77 55.2812C1718.3 55.3409 1717.91 55.392 1717.59 55.4347C1716.85 55.5284 1716.17 55.6861 1715.56 55.9077C1714.95 56.1293 1714.47 56.4489 1714.1 56.8665C1713.74 57.2756 1713.56 57.821 1713.56 58.5028C1713.56 59.4489 1713.91 60.1648 1714.61 60.6506C1715.31 61.1278 1716.2 61.3665 1717.28 61.3665ZM1742.94 64V47.6236H1738.24C1737.12 47.6236 1736.25 47.8835 1735.63 48.4034C1735.01 48.9233 1734.7 49.6051 1734.7 50.4489C1734.7 51.2841 1734.98 51.9574 1735.55 52.4688C1736.13 52.9716 1736.94 53.223 1737.98 53.223H1744.06V56.3168H1737.98C1736.53 56.3168 1735.28 56.0781 1734.23 55.6009C1733.18 55.1151 1732.37 54.429 1731.8 53.5426C1731.23 52.6562 1730.95 51.608 1730.95 50.3977C1730.95 49.1619 1731.24 48.0966 1731.82 47.2017C1732.41 46.2983 1733.25 45.5994 1734.34 45.1051C1735.44 44.6108 1736.74 44.3636 1738.24 44.3636H1746.54V64H1742.94ZM1730.06 64L1735.59 54.0795H1739.5L1733.97 64H1730.06Z" fill="white"/>
<path d="M566.67 122V52.1818H592.239C597.193 52.1818 601.295 53 604.545 54.6364C607.795 56.25 610.227 58.4432 611.841 61.2159C613.455 63.9659 614.261 67.0682 614.261 70.5227C614.261 73.4318 613.727 75.8864 612.659 77.8864C611.591 79.8636 610.159 81.4545 608.364 82.6591C606.591 83.8409 604.636 84.7045 602.5 85.25V85.9318C604.818 86.0455 607.08 86.7955 609.284 88.1818C611.511 89.5455 613.352 91.4886 614.807 94.0114C616.261 96.5341 616.989 99.6023 616.989 103.216C616.989 106.784 616.148 109.989 614.466 112.83C612.807 115.648 610.239 117.886 606.761 119.545C603.284 121.182 598.841 122 593.432 122H566.67ZM577.205 112.966H592.409C597.455 112.966 601.068 111.989 603.25 110.034C605.432 108.08 606.523 105.636 606.523 102.705C606.523 100.5 605.966 98.4773 604.852 96.6364C603.739 94.7955 602.148 93.3295 600.08 92.2386C598.034 91.1477 595.602 90.6023 592.784 90.6023H577.205V112.966ZM577.205 82.3864H591.318C593.682 82.3864 595.807 81.9318 597.693 81.0227C599.602 80.1136 601.114 78.8409 602.227 77.2045C603.364 75.5455 603.932 73.5909 603.932 71.3409C603.932 68.4545 602.92 66.0341 600.898 64.0795C598.875 62.125 595.773 61.1477 591.591 61.1477H577.205V82.3864ZM636.335 87.6364H651.54C657.949 87.6364 662.881 89.2273 666.335 92.4091C669.79 95.5909 671.517 99.6932 671.517 104.716C671.517 107.989 670.744 110.932 669.199 113.545C667.653 116.159 665.392 118.227 662.415 119.75C659.438 121.25 655.813 122 651.54 122H628.665V69.6364H638.653V113.205H651.54C654.472 113.205 656.881 112.443 658.767 110.92C660.653 109.375 661.597 107.409 661.597 105.023C661.597 102.5 660.653 100.443 658.767 98.8523C656.881 97.2386 654.472 96.4318 651.54 96.4318H636.335V87.6364ZM678.949 122V69.6364H689.142V122H678.949ZM743.219 50.1364L747.446 56.5795C745.878 58.0114 744.094 59.0341 742.094 59.6477C740.116 60.2386 737.832 60.6136 735.241 60.7727C732.651 60.9091 729.685 61.0341 726.344 61.1477C722.571 61.2614 719.469 62.0795 717.037 63.6023C714.605 65.1023 712.73 67.3295 711.412 70.2841C710.116 73.2159 709.276 76.8977 708.889 81.3295H709.537C711.241 78.0795 713.605 75.6477 716.628 74.0341C719.673 72.4205 723.094 71.6136 726.889 71.6136C731.116 71.6136 734.878 72.5795 738.173 74.5114C741.469 76.4432 744.06 79.2727 745.946 83C747.855 86.7045 748.81 91.2386 748.81 96.6023C748.81 102.034 747.81 106.727 745.81 110.682C743.832 114.636 741.037 117.693 737.423 119.852C733.832 121.989 729.594 123.057 724.707 123.057C719.821 123.057 715.56 121.955 711.923 119.75C708.31 117.523 705.503 114.227 703.503 109.864C701.526 105.5 700.537 100.114 700.537 93.7045V88.5227C700.537 76.5455 702.673 67.5341 706.946 61.4886C711.219 55.4432 717.605 52.3409 726.105 52.1818C728.855 52.1136 731.31 52.1023 733.469 52.1477C735.628 52.1705 737.514 52.0682 739.128 51.8409C740.764 51.5909 742.128 51.0227 743.219 50.1364ZM724.741 114.5C727.582 114.5 730.026 113.784 732.071 112.352C734.139 110.898 735.73 108.841 736.844 106.182C737.957 103.523 738.514 100.386 738.514 96.7727C738.514 93.2273 737.957 90.2159 736.844 87.7386C735.73 85.2614 734.139 83.375 732.071 82.0795C730.003 80.7614 727.526 80.1023 724.639 80.1023C722.503 80.1023 720.594 80.4773 718.912 81.2273C717.23 81.9545 715.787 83.0341 714.582 84.4659C713.401 85.8977 712.48 87.6477 711.821 89.7159C711.185 91.7614 710.844 94.1136 710.798 96.7727C710.798 102.182 712.037 106.489 714.514 109.693C717.014 112.898 720.423 114.5 724.741 114.5ZM782.764 123.057C777.605 123.057 773.162 121.955 769.435 119.75C765.73 117.523 762.866 114.398 760.844 110.375C758.844 106.33 757.844 101.591 757.844 96.1591C757.844 90.7955 758.844 86.0682 760.844 81.9773C762.866 77.8864 765.685 74.6932 769.298 72.3977C772.935 70.1023 777.185 68.9545 782.048 68.9545C785.003 68.9545 787.866 69.4432 790.639 70.4205C793.412 71.3977 795.901 72.9318 798.105 75.0227C800.31 77.1136 802.048 79.8295 803.321 83.1705C804.594 86.4886 805.23 90.5227 805.23 95.2727V98.8864H763.605V91.25H795.241C795.241 88.5682 794.696 86.1932 793.605 84.125C792.514 82.0341 790.98 80.3864 789.003 79.1818C787.048 77.9773 784.753 77.375 782.116 77.375C779.253 77.375 776.753 78.0795 774.616 79.4886C772.503 80.875 770.866 82.6932 769.707 84.9432C768.571 87.1705 768.003 89.5909 768.003 92.2045V98.1705C768.003 101.67 768.616 104.648 769.844 107.102C771.094 109.557 772.832 111.432 775.06 112.727C777.287 114 779.889 114.636 782.866 114.636C784.798 114.636 786.56 114.364 788.151 113.818C789.741 113.25 791.116 112.409 792.276 111.295C793.435 110.182 794.321 108.807 794.935 107.17L804.582 108.909C803.81 111.75 802.423 114.239 800.423 116.375C798.446 118.489 795.957 120.136 792.957 121.318C789.98 122.477 786.582 123.057 782.764 123.057ZM816.54 141.636V69.6364H826.494V78.125H827.347C827.938 77.0341 828.79 75.7727 829.903 74.3409C831.017 72.9091 832.563 71.6591 834.54 70.5909C836.517 69.5 839.131 68.9545 842.381 68.9545C846.608 68.9545 850.381 70.0227 853.699 72.1591C857.017 74.2955 859.619 77.375 861.506 81.3977C863.415 85.4205 864.369 90.2614 864.369 95.9205C864.369 101.58 863.426 106.432 861.54 110.477C859.653 114.5 857.063 117.602 853.767 119.784C850.472 121.943 846.71 123.023 842.483 123.023C839.301 123.023 836.699 122.489 834.676 121.42C832.676 120.352 831.108 119.102 829.972 117.67C828.835 116.239 827.96 114.966 827.347 113.852H826.733V141.636H816.54ZM826.528 95.8182C826.528 99.5 827.063 102.727 828.131 105.5C829.199 108.273 830.744 110.443 832.767 112.011C834.79 113.557 837.267 114.33 840.199 114.33C843.244 114.33 845.79 113.523 847.835 111.909C849.881 110.273 851.426 108.057 852.472 105.261C853.54 102.466 854.074 99.3182 854.074 95.8182C854.074 92.3636 853.551 89.2614 852.506 86.5114C851.483 83.7614 849.938 81.5909 847.869 80C845.824 78.4091 843.267 77.6136 840.199 77.6136C837.244 77.6136 834.744 78.375 832.699 79.8977C830.676 81.4205 829.142 83.5455 828.097 86.2727C827.051 89 826.528 92.1818 826.528 95.8182ZM885.778 107.716L908.858 69.6364H919.835V122H909.847V83.8864L886.869 122H875.79V69.6364H885.778V107.716ZM927.045 78.4318V69.6364H971.227V78.4318H954.148V122H944.193V78.4318H927.045ZM1002.14 123.057C996.98 123.057 992.537 121.955 988.81 119.75C985.105 117.523 982.241 114.398 980.219 110.375C978.219 106.33 977.219 101.591 977.219 96.1591C977.219 90.7955 978.219 86.0682 980.219 81.9773C982.241 77.8864 985.06 74.6932 988.673 72.3977C992.31 70.1023 996.56 68.9545 1001.42 68.9545C1004.38 68.9545 1007.24 69.4432 1010.01 70.4205C1012.79 71.3977 1015.28 72.9318 1017.48 75.0227C1019.68 77.1136 1021.42 79.8295 1022.7 83.1705C1023.97 86.4886 1024.61 90.5227 1024.61 95.2727V98.8864H982.98V91.25H1014.62C1014.62 88.5682 1014.07 86.1932 1012.98 84.125C1011.89 82.0341 1010.36 80.3864 1008.38 79.1818C1006.42 77.9773 1004.13 77.375 1001.49 77.375C998.628 77.375 996.128 78.0795 993.991 79.4886C991.878 80.875 990.241 82.6932 989.082 84.9432C987.946 87.1705 987.378 89.5909 987.378 92.2045V98.1705C987.378 101.67 987.991 104.648 989.219 107.102C990.469 109.557 992.207 111.432 994.435 112.727C996.662 114 999.264 114.636 1002.24 114.636C1004.17 114.636 1005.93 114.364 1007.53 113.818C1009.12 113.25 1010.49 112.409 1011.65 111.295C1012.81 110.182 1013.7 108.807 1014.31 107.17L1023.96 108.909C1023.18 111.75 1021.8 114.239 1019.8 116.375C1017.82 118.489 1015.33 120.136 1012.33 121.318C1009.36 122.477 1005.96 123.057 1002.14 123.057ZM1061.32 122V69.6364H1071.51V91.5909H1076.42L1093.71 69.6364H1106.32L1086.04 95.1023L1106.56 122H1093.91L1078.13 101.068H1071.51V122H1061.32ZM1149.97 91.4205V100.25H1121.6V91.4205H1149.97ZM1124.47 69.6364V122H1114.48V69.6364H1124.47ZM1157.09 69.6364V122H1147.14V69.6364H1157.09ZM1180.72 107.716L1203.8 69.6364H1214.77V122H1204.78V83.8864L1181.81 122H1170.73V69.6364H1180.72V107.716ZM1261.95 69.6364V78.4318H1238.53V122H1228.48V69.6364H1261.95ZM1279.17 141.636C1277.65 141.636 1276.26 141.511 1275.01 141.261C1273.76 141.034 1272.83 140.784 1272.22 140.511L1274.67 132.159C1276.53 132.659 1278.19 132.875 1279.65 132.807C1281.1 132.739 1282.39 132.193 1283.5 131.17C1284.64 130.148 1285.64 128.477 1286.5 126.159L1287.76 122.682L1268.6 69.6364H1279.51L1292.77 110.273H1293.32L1306.58 69.6364H1317.52L1295.94 128.989C1294.94 131.716 1293.67 134.023 1292.12 135.909C1290.58 137.818 1288.74 139.25 1286.6 140.205C1284.47 141.159 1281.99 141.636 1279.17 141.636Z" fill="black"/>
<rect x="222" y="214" width="1421" height="665" rx="61" fill="#D9D9D9"/>
<ellipse cx="986" cy="879" rx="53" ry="51" fill="#D9D9D9"/>
<path d="M985.293 914.707C985.683 915.098 986.317 915.098 986.707 914.707L993.071 908.343C993.462 907.953 993.462 907.319 993.071 906.929C992.681 906.538 992.047 906.538 991.657 906.929L986 912.586L980.343 906.929C979.953 906.538 979.319 906.538 978.929 906.929C978.538 907.319 978.538 907.953 978.929 908.343L985.293 914.707ZM986 845H985V914H986H987V845H986Z" fill="black"/>
<line x1="229" y1="337.5" x2="1643" y2="337.5" stroke="black"/>
<line x1="229" y1="490.5" x2="1643" y2="490.5" stroke="black"/>
<line x1="225" y1="630.5" x2="1643" y2="630.5" stroke="black"/>
<line x1="222" y1="798.5" x2="1643" y2="798.5" stroke="black"/>
<line x1="589.5" y1="221" x2="589.5" y2="879" stroke="black"/>
<line x1="957.5" y1="221" x2="957.5" y2="879" stroke="black"/>
<line x1="1285.5" y1="221" x2="1285.5" y2="879" stroke="black"/>
<path d="M317.864 284H313.544V268.016H295.976V284H291.656V249.728H295.976V264.224H313.544V249.728H317.864V284ZM336.402 257.84C339.538 257.84 341.858 258.528 343.362 259.904C344.866 261.28 345.618 263.472 345.618 266.48V284H342.546L341.73 280.352H341.538C340.802 281.28 340.034 282.064 339.234 282.704C338.466 283.312 337.57 283.76 336.546 284.048C335.554 284.336 334.338 284.48 332.898 284.48C331.362 284.48 329.97 284.208 328.722 283.664C327.506 283.12 326.546 282.288 325.842 281.168C325.138 280.016 324.786 278.576 324.786 276.848C324.786 274.288 325.794 272.32 327.81 270.944C329.826 269.536 332.93 268.768 337.122 268.64L341.49 268.496V266.96C341.49 264.816 341.026 263.328 340.098 262.496C339.17 261.664 337.858 261.248 336.162 261.248C334.818 261.248 333.538 261.456 332.322 261.872C331.106 262.256 329.97 262.704 328.914 263.216L327.618 260.048C328.738 259.44 330.066 258.928 331.602 258.512C333.138 258.064 334.738 257.84 336.402 257.84ZM337.65 271.568C334.45 271.696 332.226 272.208 330.978 273.104C329.762 274 329.154 275.264 329.154 276.896C329.154 278.336 329.586 279.392 330.45 280.064C331.346 280.736 332.482 281.072 333.858 281.072C336.034 281.072 337.842 280.48 339.282 279.296C340.722 278.08 341.442 276.224 341.442 273.728V271.424L337.65 271.568ZM360.332 257.792C362.284 257.792 363.98 258.064 365.42 258.608C366.86 259.12 367.98 259.888 368.78 260.912C369.58 261.904 369.98 263.12 369.98 264.56C369.98 266.128 369.548 267.376 368.684 268.304C367.82 269.2 366.636 269.856 365.132 270.272V270.464C366.156 270.752 367.1 271.152 367.964 271.664C368.828 272.176 369.516 272.848 370.028 273.68C370.572 274.512 370.844 275.584 370.844 276.896C370.844 278.304 370.444 279.584 369.644 280.736C368.876 281.888 367.676 282.8 366.044 283.472C364.444 284.144 362.38 284.48 359.852 284.48C358.636 284.48 357.468 284.416 356.348 284.288C355.26 284.16 354.268 283.968 353.372 283.712C352.508 283.456 351.74 283.152 351.068 282.8V279.008C352.156 279.52 353.436 279.984 354.908 280.4C356.412 280.816 358.044 281.024 359.804 281.024C361.084 281.024 362.236 280.88 363.26 280.592C364.316 280.304 365.148 279.856 365.756 279.248C366.364 278.608 366.668 277.744 366.668 276.656C366.668 275.664 366.396 274.864 365.852 274.256C365.308 273.616 364.492 273.136 363.404 272.816C362.348 272.496 360.988 272.336 359.324 272.336H355.868V268.88H358.652C360.86 268.88 362.62 268.592 363.932 268.016C365.276 267.408 365.948 266.384 365.948 264.944C365.948 263.728 365.436 262.816 364.412 262.208C363.42 261.6 361.98 261.296 360.092 261.296C358.684 261.296 357.436 261.44 356.348 261.728C355.292 261.984 354.124 262.384 352.844 262.928L351.356 259.568C352.732 258.96 354.172 258.512 355.676 258.224C357.18 257.936 358.732 257.792 360.332 257.792ZM397.784 264.752C397.784 266.352 397.304 267.6 396.344 268.496C395.384 269.392 394.152 270 392.648 270.32V270.512C394.248 270.736 395.64 271.312 396.824 272.24C398.008 273.136 398.6 274.544 398.6 276.464C398.6 277.552 398.392 278.56 397.976 279.488C397.592 280.416 396.984 281.216 396.152 281.888C395.32 282.56 394.248 283.088 392.936 283.472C391.624 283.824 390.04 284 388.184 284H377.096V258.272H388.136C389.96 258.272 391.592 258.48 393.032 258.896C394.504 259.28 395.656 259.952 396.488 260.912C397.352 261.84 397.784 263.12 397.784 264.752ZM394.232 276.464C394.232 274.992 393.672 273.936 392.552 273.296C391.432 272.656 389.784 272.336 387.608 272.336H381.32V280.592H387.704C389.816 280.592 391.432 280.288 392.552 279.68C393.672 279.04 394.232 277.968 394.232 276.464ZM393.512 265.28C393.512 264.064 393.064 263.184 392.168 262.64C391.304 262.064 389.88 261.776 387.896 261.776H381.32V268.832H387.128C389.208 268.832 390.792 268.544 391.88 267.968C392.968 267.392 393.512 266.496 393.512 265.28ZM414.496 257.84C417.632 257.84 419.952 258.528 421.456 259.904C422.96 261.28 423.712 263.472 423.712 266.48V284H420.64L419.824 280.352H419.632C418.896 281.28 418.128 282.064 417.328 282.704C416.56 283.312 415.664 283.76 414.64 284.048C413.648 284.336 412.432 284.48 410.992 284.48C409.456 284.48 408.064 284.208 406.816 283.664C405.6 283.12 404.64 282.288 403.936 281.168C403.232 280.016 402.88 278.576 402.88 276.848C402.88 274.288 403.888 272.32 405.904 270.944C407.92 269.536 411.024 268.768 415.216 268.64L419.584 268.496V266.96C419.584 264.816 419.12 263.328 418.192 262.496C417.264 261.664 415.952 261.248 414.256 261.248C412.912 261.248 411.632 261.456 410.416 261.872C409.2 262.256 408.064 262.704 407.008 263.216L405.712 260.048C406.832 259.44 408.16 258.928 409.696 258.512C411.232 258.064 412.832 257.84 414.496 257.84ZM415.744 271.568C412.544 271.696 410.32 272.208 409.072 273.104C407.856 274 407.248 275.264 407.248 276.896C407.248 278.336 407.68 279.392 408.544 280.064C409.44 280.736 410.576 281.072 411.952 281.072C414.128 281.072 415.936 280.48 417.376 279.296C418.816 278.08 419.536 276.224 419.536 273.728V271.424L415.744 271.568ZM435.882 258.272V268.976H449.85V258.272H454.074V284H449.85V272.528H435.882V284H431.658V258.272H435.882ZM466.205 273.968C466.205 274.256 466.189 274.672 466.157 275.216C466.157 275.728 466.141 276.288 466.109 276.896C466.077 277.472 466.045 278.032 466.013 278.576C465.981 279.088 465.949 279.504 465.917 279.824L479.693 258.272H484.877V284H480.941V268.832C480.941 268.32 480.941 267.648 480.941 266.816C480.973 265.984 481.005 265.168 481.037 264.368C481.069 263.536 481.101 262.912 481.133 262.496L467.453 284H462.221V258.272H466.205V273.968ZM503 257.792C505.208 257.792 507.096 258.272 508.664 259.232C510.264 260.192 511.48 261.552 512.312 263.312C513.176 265.04 513.608 267.072 513.608 269.408V271.952H495.992C496.056 274.864 496.792 277.088 498.2 278.624C499.64 280.128 501.64 280.88 504.2 280.88C505.832 280.88 507.272 280.736 508.52 280.448C509.8 280.128 511.112 279.68 512.456 279.104V282.8C511.144 283.376 509.848 283.792 508.568 284.048C507.288 284.336 505.768 284.48 504.008 284.48C501.576 284.48 499.416 283.984 497.528 282.992C495.672 282 494.216 280.528 493.16 278.576C492.136 276.592 491.624 274.176 491.624 271.328C491.624 268.512 492.088 266.096 493.016 264.08C493.976 262.064 495.304 260.512 497 259.424C498.728 258.336 500.728 257.792 503 257.792ZM502.952 261.248C500.936 261.248 499.336 261.904 498.152 263.216C497 264.496 496.312 266.288 496.088 268.592H509.192C509.192 267.12 508.968 265.84 508.52 264.752C508.072 263.664 507.384 262.816 506.456 262.208C505.56 261.568 504.392 261.248 502.952 261.248Z" fill="black"/>
<path d="M729.16 284L725.032 273.392H711.448L707.368 284H703L716.392 249.584H720.28L733.624 284H729.16ZM719.896 259.184C719.8 258.928 719.64 258.464 719.416 257.792C719.192 257.12 718.968 256.432 718.744 255.728C718.552 254.992 718.392 254.432 718.264 254.048C718.104 254.688 717.928 255.344 717.736 256.016C717.576 256.656 717.4 257.248 717.208 257.792C717.048 258.336 716.904 258.8 716.776 259.184L712.888 269.552H723.736L719.896 259.184ZM758.424 264.752C758.424 266.352 757.944 267.6 756.984 268.496C756.024 269.392 754.792 270 753.288 270.32V270.512C754.888 270.736 756.28 271.312 757.464 272.24C758.648 273.136 759.24 274.544 759.24 276.464C759.24 277.552 759.032 278.56 758.616 279.488C758.232 280.416 757.624 281.216 756.792 281.888C755.96 282.56 754.888 283.088 753.576 283.472C752.264 283.824 750.68 284 748.824 284H737.736V258.272H748.776C750.6 258.272 752.232 258.48 753.672 258.896C755.144 259.28 756.296 259.952 757.128 260.912C757.992 261.84 758.424 263.12 758.424 264.752ZM754.872 276.464C754.872 274.992 754.312 273.936 753.192 273.296C752.072 272.656 750.424 272.336 748.248 272.336H741.96V280.592H748.344C750.456 280.592 752.072 280.288 753.192 279.68C754.312 279.04 754.872 277.968 754.872 276.464ZM754.152 265.28C754.152 264.064 753.704 263.184 752.808 262.64C751.944 262.064 750.52 261.776 748.536 261.776H741.96V268.832H747.768C749.848 268.832 751.432 268.544 752.52 267.968C753.608 267.392 754.152 266.496 754.152 265.28ZM783.153 261.824H774.753V284H770.577V261.824H762.273V258.272H783.153V261.824ZM810.12 271.088C810.12 273.232 809.832 275.136 809.256 276.8C808.712 278.432 807.912 279.824 806.856 280.976C805.832 282.128 804.568 283.008 803.064 283.616C801.592 284.192 799.944 284.48 798.12 284.48C796.424 284.48 794.856 284.192 793.416 283.616C791.976 283.008 790.728 282.128 789.672 280.976C788.616 279.824 787.784 278.432 787.176 276.8C786.6 275.136 786.312 273.232 786.312 271.088C786.312 268.24 786.792 265.84 787.752 263.888C788.712 261.904 790.088 260.4 791.88 259.376C793.672 258.32 795.8 257.792 798.264 257.792C800.6 257.792 802.648 258.32 804.408 259.376C806.2 260.4 807.592 261.904 808.584 263.888C809.608 265.84 810.12 268.24 810.12 271.088ZM790.68 271.088C790.68 273.104 790.936 274.864 791.448 276.368C791.992 277.84 792.824 278.976 793.944 279.776C795.064 280.576 796.488 280.976 798.216 280.976C799.944 280.976 801.368 280.576 802.488 279.776C803.608 278.976 804.424 277.84 804.936 276.368C805.48 274.864 805.752 273.104 805.752 271.088C805.752 269.04 805.48 267.296 804.936 265.856C804.392 264.416 803.56 263.312 802.44 262.544C801.352 261.744 799.928 261.344 798.168 261.344C795.544 261.344 793.64 262.208 792.456 263.936C791.272 265.664 790.68 268.048 790.68 271.088ZM829.054 257.792C832.222 257.792 834.766 258.896 836.686 261.104C838.638 263.312 839.614 266.64 839.614 271.088C839.614 274 839.166 276.464 838.27 278.48C837.406 280.464 836.174 281.968 834.574 282.992C833.006 283.984 831.15 284.48 829.006 284.48C827.694 284.48 826.526 284.304 825.502 283.952C824.478 283.6 823.598 283.152 822.862 282.608C822.158 282.032 821.55 281.408 821.038 280.736H820.75C820.814 281.28 820.878 281.968 820.942 282.8C821.006 283.632 821.038 284.352 821.038 284.96V295.52H816.814V258.272H820.27L820.846 261.776H821.038C821.55 261.04 822.158 260.368 822.862 259.76C823.598 259.152 824.462 258.672 825.454 258.32C826.478 257.968 827.678 257.792 829.054 257.792ZM828.286 261.344C826.558 261.344 825.166 261.68 824.11 262.352C823.054 262.992 822.286 263.968 821.806 265.28C821.326 266.592 821.07 268.256 821.038 270.272V271.088C821.038 273.2 821.262 274.992 821.71 276.464C822.158 277.936 822.91 279.056 823.966 279.824C825.054 280.592 826.526 280.976 828.382 280.976C829.95 280.976 831.23 280.544 832.222 279.68C833.246 278.816 833.998 277.648 834.478 276.176C834.99 274.672 835.246 272.96 835.246 271.04C835.246 268.096 834.67 265.744 833.518 263.984C832.398 262.224 830.654 261.344 828.286 261.344Z" fill="black"/>
<path d="M1028.66 296H1023.48L1007.98 278.624V296H1003.66V261.728H1007.98V278.336L1023.1 261.728H1027.99L1013.11 278.384L1028.66 296ZM1042.5 269.84C1045.63 269.84 1047.95 270.528 1049.46 271.904C1050.96 273.28 1051.71 275.472 1051.71 278.48V296H1048.64L1047.82 292.352H1047.63C1046.9 293.28 1046.13 294.064 1045.33 294.704C1044.56 295.312 1043.66 295.76 1042.64 296.048C1041.65 296.336 1040.43 296.48 1038.99 296.48C1037.46 296.48 1036.06 296.208 1034.82 295.664C1033.6 295.12 1032.64 294.288 1031.94 293.168C1031.23 292.016 1030.88 290.576 1030.88 288.848C1030.88 286.288 1031.89 284.32 1033.9 282.944C1035.92 281.536 1039.02 280.768 1043.22 280.64L1047.58 280.496V278.96C1047.58 276.816 1047.12 275.328 1046.19 274.496C1045.26 273.664 1043.95 273.248 1042.26 273.248C1040.91 273.248 1039.63 273.456 1038.42 273.872C1037.2 274.256 1036.06 274.704 1035.01 275.216L1033.71 272.048C1034.83 271.44 1036.16 270.928 1037.7 270.512C1039.23 270.064 1040.83 269.84 1042.5 269.84ZM1043.74 283.568C1040.54 283.696 1038.32 284.208 1037.07 285.104C1035.86 286 1035.25 287.264 1035.25 288.896C1035.25 290.336 1035.68 291.392 1036.54 292.064C1037.44 292.736 1038.58 293.072 1039.95 293.072C1042.13 293.072 1043.94 292.48 1045.38 291.296C1046.82 290.08 1047.54 288.224 1047.54 285.728V283.424L1043.74 283.568ZM1077.42 273.824H1069.02V296H1064.84V273.824H1056.54V270.272H1077.42V273.824ZM1091.95 269.792C1094.16 269.792 1096.05 270.272 1097.62 271.232C1099.22 272.192 1100.43 273.552 1101.27 275.312C1102.13 277.04 1102.56 279.072 1102.56 281.408V283.952H1084.95C1085.01 286.864 1085.75 289.088 1087.15 290.624C1088.59 292.128 1090.59 292.88 1093.15 292.88C1094.79 292.88 1096.23 292.736 1097.47 292.448C1098.75 292.128 1100.07 291.68 1101.41 291.104V294.8C1100.1 295.376 1098.8 295.792 1097.52 296.048C1096.24 296.336 1094.72 296.48 1092.96 296.48C1090.53 296.48 1088.37 295.984 1086.48 294.992C1084.63 294 1083.17 292.528 1082.11 290.576C1081.09 288.592 1080.58 286.176 1080.58 283.328C1080.58 280.512 1081.04 278.096 1081.97 276.08C1082.93 274.064 1084.26 272.512 1085.95 271.424C1087.68 270.336 1089.68 269.792 1091.95 269.792ZM1091.91 273.248C1089.89 273.248 1088.29 273.904 1087.11 275.216C1085.95 276.496 1085.27 278.288 1085.04 280.592H1098.15C1098.15 279.12 1097.92 277.84 1097.47 276.752C1097.03 275.664 1096.34 274.816 1095.41 274.208C1094.51 273.568 1093.35 273.248 1091.91 273.248ZM1124.81 270.272V273.824H1113.34V296H1109.11V270.272H1124.81ZM1151.78 283.088C1151.78 285.232 1151.49 287.136 1150.91 288.8C1150.37 290.432 1149.57 291.824 1148.51 292.976C1147.49 294.128 1146.22 295.008 1144.72 295.616C1143.25 296.192 1141.6 296.48 1139.78 296.48C1138.08 296.48 1136.51 296.192 1135.07 295.616C1133.63 295.008 1132.38 294.128 1131.33 292.976C1130.27 291.824 1129.44 290.432 1128.83 288.8C1128.26 287.136 1127.97 285.232 1127.97 283.088C1127.97 280.24 1128.45 277.84 1129.41 275.888C1130.37 273.904 1131.74 272.4 1133.54 271.376C1135.33 270.32 1137.46 269.792 1139.92 269.792C1142.26 269.792 1144.3 270.32 1146.06 271.376C1147.86 272.4 1149.25 273.904 1150.24 275.888C1151.26 277.84 1151.78 280.24 1151.78 283.088ZM1132.34 283.088C1132.34 285.104 1132.59 286.864 1133.1 288.368C1133.65 289.84 1134.48 290.976 1135.6 291.776C1136.72 292.576 1138.14 292.976 1139.87 292.976C1141.6 292.976 1143.02 292.576 1144.14 291.776C1145.26 290.976 1146.08 289.84 1146.59 288.368C1147.14 286.864 1147.41 285.104 1147.41 283.088C1147.41 281.04 1147.14 279.296 1146.59 277.856C1146.05 276.416 1145.22 275.312 1144.1 274.544C1143.01 273.744 1141.58 273.344 1139.82 273.344C1137.2 273.344 1135.3 274.208 1134.11 275.936C1132.93 277.664 1132.34 280.048 1132.34 283.088ZM1170.71 269.792C1173.88 269.792 1176.42 270.896 1178.34 273.104C1180.29 275.312 1181.27 278.64 1181.27 283.088C1181.27 286 1180.82 288.464 1179.93 290.48C1179.06 292.464 1177.83 293.968 1176.23 294.992C1174.66 295.984 1172.81 296.48 1170.66 296.48C1169.35 296.48 1168.18 296.304 1167.16 295.952C1166.13 295.6 1165.25 295.152 1164.52 294.608C1163.81 294.032 1163.21 293.408 1162.69 292.736H1162.41C1162.47 293.28 1162.53 293.968 1162.6 294.8C1162.66 295.632 1162.69 296.352 1162.69 296.96V307.52H1158.47V270.272H1161.93L1162.5 273.776H1162.69C1163.21 273.04 1163.81 272.368 1164.52 271.76C1165.25 271.152 1166.12 270.672 1167.11 270.32C1168.13 269.968 1169.33 269.792 1170.71 269.792ZM1169.94 273.344C1168.21 273.344 1166.82 273.68 1165.77 274.352C1164.71 274.992 1163.94 275.968 1163.46 277.28C1162.98 278.592 1162.73 280.256 1162.69 282.272V283.088C1162.69 285.2 1162.92 286.992 1163.37 288.464C1163.81 289.936 1164.57 291.056 1165.62 291.824C1166.71 292.592 1168.18 292.976 1170.04 292.976C1171.61 292.976 1172.89 292.544 1173.88 291.68C1174.9 290.816 1175.65 289.648 1176.13 288.176C1176.65 286.672 1176.9 284.96 1176.9 283.04C1176.9 280.096 1176.33 277.744 1175.17 275.984C1174.05 274.224 1172.31 273.344 1169.94 273.344ZM1191.99 285.968C1191.99 286.256 1191.97 286.672 1191.94 287.216C1191.94 287.728 1191.92 288.288 1191.89 288.896C1191.86 289.472 1191.83 290.032 1191.79 290.576C1191.76 291.088 1191.73 291.504 1191.7 291.824L1205.47 270.272H1210.66V296H1206.72V280.832C1206.72 280.32 1206.72 279.648 1206.72 278.816C1206.75 277.984 1206.79 277.168 1206.82 276.368C1206.85 275.536 1206.88 274.912 1206.91 274.496L1193.23 296H1188V270.272H1191.99V285.968ZM1220.43 296H1215.53L1222.88 285.2C1221.89 284.944 1220.93 284.544 1220 284C1219.07 283.424 1218.32 282.64 1217.74 281.648C1217.17 280.624 1216.88 279.36 1216.88 277.856C1216.88 275.392 1217.71 273.52 1219.37 272.24C1221.04 270.928 1223.25 270.272 1226 270.272H1237.52V296H1233.29V285.776H1227.05L1220.43 296ZM1220.96 277.904C1220.96 279.376 1221.5 280.48 1222.59 281.216C1223.71 281.92 1225.26 282.272 1227.25 282.272H1233.29V273.776H1226.43C1224.48 273.776 1223.07 274.16 1222.21 274.928C1221.37 275.696 1220.96 276.688 1220.96 277.904Z" fill="black"/>
<path d="M1356.74 232.728V263.16H1361.11V276.024H1356.98V267H1333.42V276.024H1329.29V263.16H1331.93C1333.08 261.176 1334.17 258.952 1335.19 256.488C1336.25 254.024 1337.18 251.448 1337.98 248.76C1338.78 246.04 1339.43 243.32 1339.94 240.6C1340.46 237.88 1340.78 235.256 1340.9 232.728H1356.74ZM1344.7 236.616C1344.57 238.472 1344.25 240.568 1343.74 242.904C1343.26 245.24 1342.63 247.64 1341.86 250.104C1341.13 252.536 1340.3 254.888 1339.37 257.16C1338.47 259.432 1337.51 261.432 1336.49 263.16H1352.47V236.616H1344.7ZM1376.01 240.84C1379.15 240.84 1381.47 241.528 1382.97 242.904C1384.48 244.28 1385.23 246.472 1385.23 249.48V267H1382.16L1381.34 263.352H1381.15C1380.41 264.28 1379.64 265.064 1378.84 265.704C1378.08 266.312 1377.18 266.76 1376.16 267.048C1375.16 267.336 1373.95 267.48 1372.51 267.48C1370.97 267.48 1369.58 267.208 1368.33 266.664C1367.12 266.12 1366.16 265.288 1365.45 264.168C1364.75 263.016 1364.4 261.576 1364.4 259.848C1364.4 257.288 1365.4 255.32 1367.42 253.944C1369.44 252.536 1372.54 251.768 1376.73 251.64L1381.1 251.496V249.96C1381.1 247.816 1380.64 246.328 1379.71 245.496C1378.78 244.664 1377.47 244.248 1375.77 244.248C1374.43 244.248 1373.15 244.456 1371.93 244.872C1370.72 245.256 1369.58 245.704 1368.52 246.216L1367.23 243.048C1368.35 242.44 1369.68 241.928 1371.21 241.512C1372.75 241.064 1374.35 240.84 1376.01 240.84ZM1377.26 254.568C1374.06 254.696 1371.84 255.208 1370.59 256.104C1369.37 257 1368.76 258.264 1368.76 259.896C1368.76 261.336 1369.2 262.392 1370.06 263.064C1370.96 263.736 1372.09 264.072 1373.47 264.072C1375.64 264.072 1377.45 263.48 1378.89 262.296C1380.33 261.08 1381.05 259.224 1381.05 256.728V254.424L1377.26 254.568ZM1410.93 244.824H1402.53V267H1398.36V244.824H1390.05V241.272H1410.93V244.824ZM1425.75 240.84C1428.88 240.84 1431.2 241.528 1432.71 242.904C1434.21 244.28 1434.96 246.472 1434.96 249.48V267H1431.89L1431.07 263.352H1430.88C1430.15 264.28 1429.38 265.064 1428.58 265.704C1427.81 266.312 1426.91 266.76 1425.89 267.048C1424.9 267.336 1423.68 267.48 1422.24 267.48C1420.71 267.48 1419.31 267.208 1418.07 266.664C1416.85 266.12 1415.89 265.288 1415.19 264.168C1414.48 263.016 1414.13 261.576 1414.13 259.848C1414.13 257.288 1415.14 255.32 1417.15 253.944C1419.17 252.536 1422.27 251.768 1426.47 251.64L1430.83 251.496V249.96C1430.83 247.816 1430.37 246.328 1429.44 245.496C1428.51 244.664 1427.2 244.248 1425.51 244.248C1424.16 244.248 1422.88 244.456 1421.67 244.872C1420.45 245.256 1419.31 245.704 1418.26 246.216L1416.96 243.048C1418.08 242.44 1419.41 241.928 1420.95 241.512C1422.48 241.064 1424.08 240.84 1425.75 240.84ZM1426.99 254.568C1423.79 254.696 1421.57 255.208 1420.32 256.104C1419.11 257 1418.5 258.264 1418.5 259.896C1418.5 261.336 1418.93 262.392 1419.79 263.064C1420.69 263.736 1421.83 264.072 1423.2 264.072C1425.38 264.072 1427.19 263.48 1428.63 262.296C1430.07 261.08 1430.79 259.224 1430.79 256.728V254.424L1426.99 254.568ZM1354.82 299.272V325H1350.6V302.872H1337.3V325H1333.08V299.272H1354.82ZM1359 299.272H1363.51L1369.08 313.912C1369.4 314.776 1369.69 315.608 1369.95 316.408C1370.23 317.208 1370.49 317.992 1370.71 318.76C1370.94 319.496 1371.11 320.216 1371.24 320.92H1371.43C1371.63 320.12 1371.93 319.08 1372.35 317.8C1372.76 316.488 1373.19 315.176 1373.64 313.864L1378.87 299.272H1383.43L1372.35 328.552C1371.74 330.152 1371.02 331.544 1370.19 332.728C1369.39 333.944 1368.39 334.872 1367.21 335.512C1366.06 336.184 1364.65 336.52 1362.99 336.52C1362.22 336.52 1361.55 336.472 1360.97 336.376C1360.39 336.312 1359.9 336.232 1359.48 336.136V332.776C1359.83 332.84 1360.25 332.904 1360.73 332.968C1361.24 333.032 1361.77 333.064 1362.31 333.064C1363.31 333.064 1364.15 332.872 1364.86 332.488C1365.59 332.136 1366.22 331.608 1366.73 330.904C1367.24 330.232 1367.67 329.432 1368.03 328.504L1369.37 325.096L1359 299.272ZM1386.16 309.544C1386.16 305.8 1386.53 302.616 1387.26 299.992C1388.03 297.336 1389.2 295.224 1390.77 293.656C1392.37 292.056 1394.41 290.984 1396.91 290.44C1398.99 289.992 1401.02 289.592 1403.01 289.24C1404.99 288.888 1406.85 288.568 1408.57 288.28L1409.29 291.976C1408.46 292.104 1407.53 292.264 1406.51 292.456C1405.49 292.616 1404.45 292.792 1403.39 292.984C1402.33 293.144 1401.31 293.32 1400.32 293.512C1399.36 293.672 1398.51 293.832 1397.77 293.992C1396.72 294.216 1395.77 294.6 1394.94 295.144C1394.11 295.656 1393.39 296.36 1392.78 297.256C1392.21 298.152 1391.74 299.256 1391.39 300.568C1391.04 301.88 1390.83 303.432 1390.77 305.224H1391.05C1391.5 304.616 1392.11 303.992 1392.88 303.352C1393.68 302.712 1394.62 302.168 1395.71 301.72C1396.83 301.272 1398.09 301.048 1399.5 301.048C1401.74 301.048 1403.6 301.544 1405.07 302.536C1406.57 303.496 1407.69 304.84 1408.43 306.568C1409.2 308.296 1409.58 310.312 1409.58 312.616C1409.58 315.464 1409.09 317.848 1408.09 319.768C1407.1 321.688 1405.73 323.128 1403.97 324.088C1402.21 325.016 1400.16 325.48 1397.82 325.48C1396.06 325.48 1394.46 325.144 1393.02 324.472C1391.58 323.768 1390.35 322.744 1389.33 321.4C1388.3 320.056 1387.52 318.392 1386.97 316.408C1386.43 314.424 1386.16 312.136 1386.16 309.544ZM1398.16 321.976C1399.57 321.976 1400.78 321.688 1401.81 321.112C1402.86 320.536 1403.68 319.592 1404.25 318.28C1404.83 316.968 1405.12 315.224 1405.12 313.048C1405.12 310.424 1404.62 308.36 1403.63 306.856C1402.67 305.32 1401.07 304.552 1398.83 304.552C1397.42 304.552 1396.14 304.872 1394.99 305.512C1393.84 306.12 1392.88 306.824 1392.11 307.624C1391.34 308.424 1390.8 309.096 1390.48 309.64C1390.48 311.208 1390.59 312.728 1390.81 314.2C1391.04 315.672 1391.42 317 1391.97 318.184C1392.54 319.336 1393.33 320.264 1394.32 320.968C1395.34 321.64 1396.62 321.976 1398.16 321.976ZM1435.82 325H1431.55V302.776H1423.96C1423.64 306.84 1423.24 310.312 1422.76 313.192C1422.28 316.04 1421.68 318.36 1420.94 320.152C1420.2 321.944 1419.32 323.256 1418.3 324.088C1417.28 324.92 1416.08 325.336 1414.7 325.336C1414.28 325.336 1413.87 325.304 1413.45 325.24C1413.07 325.208 1412.75 325.128 1412.49 325V321.832C1412.68 321.896 1412.89 321.944 1413.12 321.976C1413.34 322.008 1413.56 322.024 1413.79 322.024C1414.49 322.024 1415.13 321.736 1415.71 321.16C1416.28 320.584 1416.8 319.704 1417.24 318.52C1417.72 317.336 1418.16 315.848 1418.54 314.056C1418.92 312.232 1419.26 310.088 1419.55 307.624C1419.84 305.16 1420.09 302.376 1420.32 299.272H1435.82V325ZM1447.97 314.968C1447.97 315.256 1447.95 315.672 1447.92 316.216C1447.92 316.728 1447.91 317.288 1447.87 317.896C1447.84 318.472 1447.81 319.032 1447.78 319.576C1447.75 320.088 1447.71 320.504 1447.68 320.824L1461.46 299.272H1466.64V325H1462.71V309.832C1462.71 309.32 1462.71 308.648 1462.71 307.816C1462.74 306.984 1462.77 306.168 1462.8 305.368C1462.83 304.536 1462.87 303.912 1462.9 303.496L1449.22 325H1443.99V299.272H1447.97V314.968ZM1490.05 299.272H1494.65L1483.66 311.656L1495.57 325H1490.67L1479.05 311.944V325H1474.83V299.272H1479.05V311.752L1490.05 299.272ZM1509.98 298.84C1513.12 298.84 1515.44 299.528 1516.94 300.904C1518.44 302.28 1519.2 304.472 1519.2 307.48V325H1516.12L1515.31 321.352H1515.12C1514.38 322.28 1513.61 323.064 1512.81 323.704C1512.04 324.312 1511.15 324.76 1510.12 325.048C1509.13 325.336 1507.92 325.48 1506.48 325.48C1504.94 325.48 1503.55 325.208 1502.3 324.664C1501.08 324.12 1500.12 323.288 1499.42 322.168C1498.72 321.016 1498.36 319.576 1498.36 317.848C1498.36 315.288 1499.37 313.32 1501.39 311.944C1503.4 310.536 1506.51 309.768 1510.7 309.64L1515.07 309.496V307.96C1515.07 305.816 1514.6 304.328 1513.68 303.496C1512.75 302.664 1511.44 302.248 1509.74 302.248C1508.4 302.248 1507.12 302.456 1505.9 302.872C1504.68 303.256 1503.55 303.704 1502.49 304.216L1501.2 301.048C1502.32 300.44 1503.64 299.928 1505.18 299.512C1506.72 299.064 1508.32 298.84 1509.98 298.84ZM1511.23 312.568C1508.03 312.696 1505.8 313.208 1504.56 314.104C1503.34 315 1502.73 316.264 1502.73 317.896C1502.73 319.336 1503.16 320.392 1504.03 321.064C1504.92 321.736 1506.06 322.072 1507.44 322.072C1509.61 322.072 1511.42 321.48 1512.86 320.296C1514.3 319.08 1515.02 317.224 1515.02 314.728V312.424L1511.23 312.568ZM1552.53 333.928H1548.41V325H1527.14V299.272H1531.37V321.448H1544.66V299.272H1548.89V321.496H1552.53V333.928ZM1561.45 314.968C1561.45 315.256 1561.44 315.672 1561.41 316.216C1561.41 316.728 1561.39 317.288 1561.36 317.896C1561.33 318.472 1561.29 319.032 1561.26 319.576C1561.23 320.088 1561.2 320.504 1561.17 320.824L1574.94 299.272H1580.13V325H1576.19V309.832C1576.19 309.32 1576.19 308.648 1576.19 307.816C1576.22 306.984 1576.25 306.168 1576.29 305.368C1576.32 304.536 1576.35 303.912 1576.38 303.496L1562.7 325H1557.47V299.272H1561.45V314.968ZM1592.3 314.968C1592.3 315.256 1592.28 315.672 1592.25 316.216C1592.25 316.728 1592.23 317.288 1592.2 317.896C1592.17 318.472 1592.14 319.032 1592.11 319.576C1592.07 320.088 1592.04 320.504 1592.01 320.824L1605.79 299.272H1610.97V325H1607.03V309.832C1607.03 309.32 1607.03 308.648 1607.03 307.816C1607.07 306.984 1607.1 306.168 1607.13 305.368C1607.16 304.536 1607.19 303.912 1607.23 303.496L1593.55 325H1588.31V299.272H1592.3V314.968Z" fill="black"/>
<rect x="744" y="976" width="461" height="62" rx="20" fill="#474747"/>
<path d="M809.835 1022V987.091H822.278C824.994 987.091 827.244 987.585 829.028 988.574C830.813 989.562 832.148 990.915 833.034 992.631C833.92 994.335 834.364 996.256 834.364 998.392C834.364 1000.54 833.915 1002.47 833.017 1004.19C832.131 1005.89 830.79 1007.24 828.994 1008.24C827.21 1009.23 824.966 1009.73 822.261 1009.73H813.705V1005.26H821.784C823.5 1005.26 824.892 1004.97 825.96 1004.38C827.028 1003.77 827.812 1002.95 828.312 1001.92C828.812 1000.89 829.062 999.71 829.062 998.392C829.062 997.074 828.812 995.903 828.312 994.881C827.812 993.858 827.023 993.057 825.943 992.477C824.875 991.898 823.466 991.608 821.716 991.608H815.102V1022H809.835ZM851.085 1022.53C848.506 1022.53 846.284 1021.98 844.42 1020.88C842.568 1019.76 841.136 1018.2 840.125 1016.19C839.125 1014.16 838.625 1011.8 838.625 1009.08C838.625 1006.4 839.125 1004.03 840.125 1001.99C841.136 999.943 842.545 998.347 844.352 997.199C846.17 996.051 848.295 995.477 850.727 995.477C852.205 995.477 853.636 995.722 855.023 996.21C856.409 996.699 857.653 997.466 858.756 998.511C859.858 999.557 860.727 1000.91 861.364 1002.59C862 1004.24 862.318 1006.26 862.318 1008.64V1010.44H841.506V1006.62H857.324C857.324 1005.28 857.051 1004.1 856.506 1003.06C855.96 1002.02 855.193 1001.19 854.205 1000.59C853.227 999.989 852.08 999.688 850.761 999.688C849.33 999.688 848.08 1000.04 847.011 1000.74C845.955 1001.44 845.136 1002.35 844.557 1003.47C843.989 1004.59 843.705 1005.8 843.705 1007.1V1010.09C843.705 1011.84 844.011 1013.32 844.625 1014.55C845.25 1015.78 846.119 1016.72 847.233 1017.36C848.347 1018 849.648 1018.32 851.136 1018.32C852.102 1018.32 852.983 1018.18 853.778 1017.91C854.574 1017.62 855.261 1017.2 855.841 1016.65C856.42 1016.09 856.864 1015.4 857.17 1014.59L861.994 1015.45C861.608 1016.87 860.915 1018.12 859.915 1019.19C858.926 1020.24 857.682 1021.07 856.182 1021.66C854.693 1022.24 852.994 1022.53 851.085 1022.53ZM865.416 1029.55V1017.59H867.547C868.092 1017.09 868.553 1016.49 868.928 1015.8C869.314 1015.1 869.638 1014.28 869.899 1013.32C870.172 1012.37 870.399 1011.26 870.581 1009.98C870.763 1008.7 870.922 1007.23 871.058 1005.59L871.876 995.818H889.672V1017.59H893.695V1029.55H888.717V1022H870.462V1029.55H865.416ZM873.001 1017.59H884.695V1000.18H876.445L875.899 1005.59C875.638 1008.34 875.308 1010.72 874.911 1012.74C874.513 1014.76 873.876 1016.37 873.001 1017.59ZM906.295 1022.58C904.636 1022.58 903.136 1022.27 901.795 1021.66C900.455 1021.03 899.392 1020.13 898.608 1018.95C897.835 1017.77 897.449 1016.32 897.449 1014.6C897.449 1013.12 897.733 1011.91 898.301 1010.95C898.869 1010 899.636 1009.24 900.602 1008.69C901.568 1008.13 902.648 1007.71 903.841 1007.43C905.034 1007.14 906.25 1006.93 907.489 1006.78C909.057 1006.6 910.33 1006.45 911.307 1006.34C912.284 1006.21 912.994 1006.01 913.438 1005.74C913.881 1005.47 914.102 1005.02 914.102 1004.41V1004.29C914.102 1002.8 913.682 1001.65 912.841 1000.83C912.011 1000.01 910.773 999.602 909.125 999.602C907.409 999.602 906.057 999.983 905.068 1000.74C904.091 1001.49 903.415 1002.33 903.04 1003.25L898.25 1002.16C898.818 1000.57 899.648 999.284 900.739 998.307C901.841 997.318 903.108 996.602 904.54 996.159C905.972 995.705 907.477 995.477 909.057 995.477C910.102 995.477 911.21 995.602 912.381 995.852C913.563 996.091 914.665 996.534 915.688 997.182C916.722 997.83 917.568 998.756 918.227 999.96C918.886 1001.15 919.216 1002.7 919.216 1004.61V1022H914.239V1018.42H914.034C913.705 1019.08 913.21 1019.73 912.551 1020.36C911.892 1021 911.045 1021.53 910.011 1021.95C908.977 1022.37 907.739 1022.58 906.295 1022.58ZM907.403 1018.49C908.813 1018.49 910.017 1018.21 911.017 1017.65C912.028 1017.1 912.795 1016.37 913.318 1015.47C913.852 1014.56 914.119 1013.59 914.119 1012.56V1009.18C913.938 1009.36 913.585 1009.53 913.062 1009.69C912.551 1009.84 911.966 1009.97 911.307 1010.09C910.648 1010.19 910.006 1010.28 909.381 1010.38C908.756 1010.45 908.233 1010.52 907.812 1010.58C906.824 1010.7 905.92 1010.91 905.102 1011.21C904.295 1011.51 903.648 1011.93 903.159 1012.49C902.682 1013.03 902.443 1013.76 902.443 1014.67C902.443 1015.93 902.909 1016.89 903.841 1017.53C904.773 1018.17 905.96 1018.49 907.403 1018.49ZM926.004 1022V995.818H931.101V1006.8H933.555L942.197 995.818H948.504L938.362 1008.55L948.624 1022H942.3L934.408 1011.53H931.101V1022H926.004ZM951.116 1000.22V995.818H973.207V1000.22H964.668V1022H959.69V1000.22H951.116ZM983.592 1014.86L995.132 995.818H1000.62V1022H995.626V1002.94L984.138 1022H978.598V995.818H983.592V1014.86ZM1007.47 1031.82V995.818H1012.45V1000.06H1012.88C1013.17 999.517 1013.6 998.886 1014.15 998.17C1014.71 997.455 1015.48 996.83 1016.47 996.295C1017.46 995.75 1018.77 995.477 1020.39 995.477C1022.51 995.477 1024.39 996.011 1026.05 997.08C1027.71 998.148 1029.01 999.687 1029.96 1001.7C1030.91 1003.71 1031.39 1006.13 1031.39 1008.96C1031.39 1011.79 1030.92 1014.22 1029.97 1016.24C1029.03 1018.25 1027.73 1019.8 1026.09 1020.89C1024.44 1021.97 1022.56 1022.51 1020.44 1022.51C1018.85 1022.51 1017.55 1022.24 1016.54 1021.71C1015.54 1021.18 1014.76 1020.55 1014.19 1019.84C1013.62 1019.12 1013.18 1018.48 1012.88 1017.93H1012.57V1031.82H1007.47ZM1012.47 1008.91C1012.47 1010.75 1012.73 1012.36 1013.27 1013.75C1013.8 1015.14 1014.58 1016.22 1015.59 1017.01C1016.6 1017.78 1017.84 1018.16 1019.3 1018.16C1020.83 1018.16 1022.1 1017.76 1023.12 1016.95C1024.14 1016.14 1024.92 1015.03 1025.44 1013.63C1025.97 1012.23 1026.24 1010.66 1026.24 1008.91C1026.24 1007.18 1025.98 1005.63 1025.46 1004.26C1024.94 1002.88 1024.17 1001.8 1023.14 1001C1022.12 1000.2 1020.84 999.807 1019.3 999.807C1017.83 999.807 1016.58 1000.19 1015.55 1000.95C1014.54 1001.71 1013.77 1002.77 1013.25 1004.14C1012.73 1005.5 1012.47 1007.09 1012.47 1008.91ZM1048.13 1022.53C1045.67 1022.53 1043.53 1021.97 1041.7 1020.84C1039.87 1019.72 1038.45 1018.14 1037.44 1016.12C1036.43 1014.1 1035.92 1011.73 1035.92 1009.03C1035.92 1006.31 1036.43 1003.94 1037.44 1001.9C1038.45 999.869 1039.87 998.29 1041.7 997.165C1043.53 996.04 1045.67 995.477 1048.13 995.477C1050.58 995.477 1052.72 996.04 1054.55 997.165C1056.38 998.29 1057.8 999.869 1058.81 1001.9C1059.83 1003.94 1060.33 1006.31 1060.33 1009.03C1060.33 1011.73 1059.83 1014.1 1058.81 1016.12C1057.8 1018.14 1056.38 1019.72 1054.55 1020.84C1052.72 1021.97 1050.58 1022.53 1048.13 1022.53ZM1048.14 1018.25C1049.73 1018.25 1051.05 1017.83 1052.1 1016.99C1053.14 1016.15 1053.92 1015.03 1054.42 1013.63C1054.93 1012.23 1055.18 1010.69 1055.18 1009.01C1055.18 1007.34 1054.93 1005.81 1054.42 1004.41C1053.92 1003 1053.14 1001.87 1052.1 1001.02C1051.05 1000.16 1049.73 999.739 1048.14 999.739C1046.54 999.739 1045.21 1000.16 1044.15 1001.02C1043.11 1001.87 1042.33 1003 1041.82 1004.41C1041.32 1005.81 1041.07 1007.34 1041.07 1009.01C1041.07 1010.69 1041.32 1012.23 1041.82 1013.63C1042.33 1015.03 1043.11 1016.15 1044.15 1016.99C1045.21 1017.83 1046.54 1018.25 1048.14 1018.25ZM1066.02 1022V995.818H1076.88C1079.83 995.818 1082.17 996.449 1083.9 997.71C1085.63 998.96 1086.49 1000.66 1086.49 1002.81C1086.49 1004.34 1086 1005.56 1085.03 1006.45C1084.05 1007.35 1082.75 1007.95 1081.14 1008.26C1082.31 1008.4 1083.38 1008.75 1084.36 1009.32C1085.34 1009.87 1086.12 1010.62 1086.71 1011.57C1087.32 1012.51 1087.62 1013.64 1087.62 1014.94C1087.62 1016.33 1087.26 1017.56 1086.54 1018.62C1085.83 1019.68 1084.79 1020.51 1083.42 1021.11C1082.07 1021.7 1080.44 1022 1078.53 1022H1066.02ZM1070.81 1017.74H1078.53C1079.79 1017.74 1080.78 1017.44 1081.5 1016.84C1082.21 1016.23 1082.57 1015.41 1082.57 1014.38C1082.57 1013.16 1082.21 1012.21 1081.5 1011.52C1080.78 1010.81 1079.79 1010.46 1078.53 1010.46H1070.81V1017.74ZM1070.81 1006.73H1076.93C1077.88 1006.73 1078.7 1006.59 1079.38 1006.32C1080.08 1006.05 1080.61 1005.66 1080.97 1005.16C1081.34 1004.65 1081.53 1004.05 1081.53 1003.35C1081.53 1002.34 1081.12 1001.55 1080.29 1000.98C1079.46 1000.41 1078.32 1000.13 1076.88 1000.13H1070.81V1006.73ZM1100.83 1022.58C1099.17 1022.58 1097.67 1022.27 1096.33 1021.66C1094.99 1021.03 1093.92 1020.13 1093.14 1018.95C1092.37 1017.77 1091.98 1016.32 1091.98 1014.6C1091.98 1013.12 1092.26 1011.91 1092.83 1010.95C1093.4 1010 1094.17 1009.24 1095.13 1008.69C1096.1 1008.13 1097.18 1007.71 1098.37 1007.43C1099.57 1007.14 1100.78 1006.93 1102.02 1006.78C1103.59 1006.6 1104.86 1006.45 1105.84 1006.34C1106.82 1006.21 1107.53 1006.01 1107.97 1005.74C1108.41 1005.47 1108.63 1005.02 1108.63 1004.41V1004.29C1108.63 1002.8 1108.21 1001.65 1107.37 1000.83C1106.54 1000.01 1105.3 999.602 1103.66 999.602C1101.94 999.602 1100.59 999.983 1099.6 1000.74C1098.62 1001.49 1097.95 1002.33 1097.57 1003.25L1092.78 1002.16C1093.35 1000.57 1094.18 999.284 1095.27 998.307C1096.37 997.318 1097.64 996.602 1099.07 996.159C1100.5 995.705 1102.01 995.477 1103.59 995.477C1104.63 995.477 1105.74 995.602 1106.91 995.852C1108.09 996.091 1109.2 996.534 1110.22 997.182C1111.25 997.83 1112.1 998.756 1112.76 999.96C1113.42 1001.15 1113.75 1002.7 1113.75 1004.61V1022H1108.77V1018.42H1108.57C1108.24 1019.08 1107.74 1019.73 1107.08 1020.36C1106.42 1021 1105.58 1021.53 1104.54 1021.95C1103.51 1022.37 1102.27 1022.58 1100.83 1022.58ZM1101.93 1018.49C1103.34 1018.49 1104.55 1018.21 1105.55 1017.65C1106.56 1017.1 1107.33 1016.37 1107.85 1015.47C1108.38 1014.56 1108.65 1013.59 1108.65 1012.56V1009.18C1108.47 1009.36 1108.12 1009.53 1107.59 1009.69C1107.08 1009.84 1106.5 1009.97 1105.84 1010.09C1105.18 1010.19 1104.54 1010.28 1103.91 1010.38C1103.29 1010.45 1102.76 1010.52 1102.34 1010.58C1101.36 1010.7 1100.45 1010.91 1099.63 1011.21C1098.83 1011.51 1098.18 1011.93 1097.69 1012.49C1097.21 1013.03 1096.97 1013.76 1096.97 1014.67C1096.97 1015.93 1097.44 1016.89 1098.37 1017.53C1099.3 1018.17 1100.49 1018.49 1101.93 1018.49ZM1117.29 1000.22V995.818H1139.38V1000.22H1130.84V1022H1125.86V1000.22H1117.29ZM1148.61 1004.82H1156.21C1159.41 1004.82 1161.88 1005.61 1163.61 1007.2C1165.33 1008.8 1166.2 1010.85 1166.2 1013.36C1166.2 1014.99 1165.81 1016.47 1165.04 1017.77C1164.26 1019.08 1163.13 1020.11 1161.64 1020.88C1160.16 1021.62 1158.34 1022 1156.21 1022H1144.77V995.818H1149.76V1017.6H1156.21C1157.67 1017.6 1158.88 1017.22 1159.82 1016.46C1160.76 1015.69 1161.24 1014.7 1161.24 1013.51C1161.24 1012.25 1160.76 1011.22 1159.82 1010.43C1158.88 1009.62 1157.67 1009.22 1156.21 1009.22H1148.61V1004.82Z" fill="white"/>
</svg>
