<svg width="1920" height="1080" viewBox="0 0 1920 1080" fill="none" xmlns="http://www.w3.org/2000/svg">
<g clip-path="url(#clip0_4_3133)">
<rect width="1920" height="1080" fill="white"/>
<rect x="630" y="338" width="731" height="480" rx="61" fill="#D9D9D9"/>
<rect x="710" y="386" width="572" height="69" rx="18" fill="#958383"/>
<rect x="710" y="540" width="572" height="69" rx="18" fill="#FEF4F4"/>
<rect x="710" y="677" width="572" height="69" rx="18" fill="#FEF4F4"/>
<path d="M909.622 573.332H905.634C905.48 572.48 905.195 571.73 904.777 571.082C904.359 570.435 903.848 569.885 903.243 569.433C902.638 568.982 901.96 568.641 901.21 568.411C900.469 568.18 899.68 568.065 898.845 568.065C897.337 568.065 895.986 568.445 894.793 569.203C893.608 569.962 892.67 571.074 891.98 572.54C891.298 574.006 890.957 575.795 890.957 577.909C890.957 580.04 891.298 581.838 891.98 583.304C892.67 584.77 893.612 585.878 894.805 586.628C895.999 587.378 897.341 587.753 898.832 587.753C899.659 587.753 900.443 587.642 901.185 587.42C901.935 587.19 902.612 586.854 903.217 586.411C903.822 585.967 904.334 585.426 904.751 584.787C905.178 584.139 905.472 583.398 905.634 582.562L909.622 582.575C909.409 583.862 908.996 585.047 908.382 586.129C907.777 587.203 906.997 588.132 906.043 588.916C905.097 589.692 904.014 590.293 902.795 590.719C901.577 591.145 900.247 591.358 898.807 591.358C896.54 591.358 894.52 590.821 892.747 589.747C890.974 588.665 889.577 587.118 888.554 585.107C887.54 583.095 887.033 580.696 887.033 577.909C887.033 575.114 887.544 572.714 888.567 570.712C889.589 568.7 890.987 567.158 892.76 566.084C894.533 565.001 896.548 564.46 898.807 564.46C900.196 564.46 901.491 564.661 902.693 565.061C903.903 565.453 904.99 566.033 905.953 566.8C906.916 567.558 907.713 568.487 908.344 569.587C908.974 570.678 909.401 571.926 909.622 573.332ZM914.042 591V571.364H930.061V591H926.315V574.662H917.762V591H914.042ZM938.917 585.643L947.572 571.364H951.688V591H947.942V576.707L939.326 591H935.171V571.364H938.917V585.643ZM965.099 591.396C963.198 591.396 961.562 590.966 960.19 590.105C958.826 589.236 957.778 588.038 957.045 586.513C956.312 584.987 955.945 583.24 955.945 581.271C955.945 579.277 956.32 577.517 957.07 575.991C957.82 574.457 958.877 573.26 960.241 572.399C961.604 571.538 963.211 571.108 965.06 571.108C966.552 571.108 967.881 571.385 969.049 571.939C970.217 572.484 971.158 573.251 971.874 574.24C972.599 575.229 973.029 576.384 973.165 577.705H969.445C969.241 576.784 968.772 575.991 968.039 575.327C967.315 574.662 966.343 574.33 965.124 574.33C964.059 574.33 963.126 574.611 962.325 575.173C961.532 575.727 960.914 576.52 960.471 577.551C960.028 578.574 959.806 579.784 959.806 581.182C959.806 582.614 960.023 583.849 960.458 584.889C960.893 585.929 961.506 586.734 962.299 587.305C963.1 587.876 964.042 588.162 965.124 588.162C965.849 588.162 966.505 588.03 967.093 587.766C967.69 587.493 968.188 587.105 968.589 586.602C968.998 586.099 969.283 585.494 969.445 584.787H973.165C973.029 586.057 972.616 587.19 971.925 588.188C971.235 589.185 970.31 589.969 969.151 590.54C968.001 591.111 966.65 591.396 965.099 591.396ZM985.525 591.396C983.684 591.396 982.077 590.974 980.705 590.131C979.333 589.287 978.267 588.107 977.509 586.589C976.75 585.072 976.371 583.3 976.371 581.271C976.371 579.234 976.75 577.453 977.509 575.928C978.267 574.402 979.333 573.217 980.705 572.374C982.077 571.53 983.684 571.108 985.525 571.108C987.365 571.108 988.972 571.53 990.344 572.374C991.716 573.217 992.782 574.402 993.54 575.928C994.299 577.453 994.678 579.234 994.678 581.271C994.678 583.3 994.299 585.072 993.54 586.589C992.782 588.107 991.716 589.287 990.344 590.131C988.972 590.974 987.365 591.396 985.525 591.396ZM985.537 588.188C986.73 588.188 987.719 587.872 988.503 587.241C989.287 586.611 989.867 585.771 990.242 584.723C990.625 583.675 990.817 582.52 990.817 581.259C990.817 580.006 990.625 578.855 990.242 577.807C989.867 576.75 989.287 575.902 988.503 575.263C987.719 574.624 986.73 574.304 985.537 574.304C984.336 574.304 983.338 574.624 982.546 575.263C981.762 575.902 981.178 576.75 980.794 577.807C980.419 578.855 980.232 580.006 980.232 581.259C980.232 582.52 980.419 583.675 980.794 584.723C981.178 585.771 981.762 586.611 982.546 587.241C983.338 587.872 984.336 588.188 985.537 588.188ZM998.945 591V571.364H1002.77V579.597H1004.61L1011.09 571.364H1015.82L1008.21 580.913L1015.91 591H1011.17L1005.25 583.151H1002.77V591H998.945ZM1028.41 591V571.364H1032.23V579.597H1034.07L1040.55 571.364H1045.28L1037.67 580.913L1045.37 591H1040.63L1034.71 583.151H1032.23V591H1028.41ZM1061.65 579.533V582.844H1051.01V579.533H1061.65ZM1052.08 571.364V591H1048.34V571.364H1052.08ZM1064.32 571.364V591H1060.59V571.364H1064.32ZM1073.18 585.643L1081.83 571.364H1085.95V591H1082.2V576.707L1073.59 591H1069.43V571.364H1073.18V585.643ZM1103.64 571.364V574.662H1094.86V591H1091.09V571.364H1103.64Z" fill="black"/>
<path d="M548.386 194.875V169.068H552.989C554.557 167.75 556.023 165.875 557.386 163.443C558.75 161.011 559.909 157.727 560.864 153.591C561.818 149.455 562.477 144.148 562.841 137.67L564.477 108.182H607.534V169.068H615.443V194.773H605.352V178H558.477V194.875H548.386ZM565.398 169.068H597.443V117.25H574.023L572.932 137.67C572.636 142.602 572.148 147.034 571.466 150.966C570.807 154.898 569.955 158.375 568.909 161.398C567.886 164.398 566.716 166.955 565.398 169.068ZM648.222 179.057C643.313 179.057 639.028 177.932 635.369 175.682C631.71 173.432 628.869 170.284 626.847 166.239C624.824 162.193 623.812 157.466 623.812 152.057C623.812 146.625 624.824 141.875 626.847 137.807C628.869 133.739 631.71 130.58 635.369 128.33C639.028 126.08 643.313 124.955 648.222 124.955C653.131 124.955 657.415 126.08 661.074 128.33C664.733 130.58 667.574 133.739 669.597 137.807C671.619 141.875 672.631 146.625 672.631 152.057C672.631 157.466 671.619 162.193 669.597 166.239C667.574 170.284 664.733 173.432 661.074 175.682C657.415 177.932 653.131 179.057 648.222 179.057ZM648.256 170.5C651.438 170.5 654.074 169.659 656.165 167.977C658.256 166.295 659.801 164.057 660.801 161.261C661.824 158.466 662.335 155.386 662.335 152.023C662.335 148.682 661.824 145.614 660.801 142.818C659.801 140 658.256 137.739 656.165 136.034C654.074 134.33 651.438 133.477 648.256 133.477C645.051 133.477 642.392 134.33 640.278 136.034C638.188 137.739 636.631 140 635.608 142.818C634.608 145.614 634.108 148.682 634.108 152.023C634.108 155.386 634.608 158.466 635.608 161.261C636.631 164.057 638.188 166.295 640.278 167.977C642.392 169.659 645.051 170.5 648.256 170.5ZM724.406 106.136L728.634 112.58C727.065 114.011 725.281 115.034 723.281 115.648C721.304 116.239 719.02 116.614 716.429 116.773C713.838 116.909 710.872 117.034 707.531 117.148C703.759 117.261 700.656 118.08 698.224 119.602C695.793 121.102 693.918 123.33 692.599 126.284C691.304 129.216 690.463 132.898 690.077 137.33H690.724C692.429 134.08 694.793 131.648 697.815 130.034C700.861 128.42 704.281 127.614 708.077 127.614C712.304 127.614 716.065 128.58 719.361 130.511C722.656 132.443 725.247 135.273 727.134 139C729.043 142.705 729.997 147.239 729.997 152.602C729.997 158.034 728.997 162.727 726.997 166.682C725.02 170.636 722.224 173.693 718.611 175.852C715.02 177.989 710.781 179.057 705.895 179.057C701.009 179.057 696.747 177.955 693.111 175.75C689.497 173.523 686.69 170.227 684.69 165.864C682.713 161.5 681.724 156.114 681.724 149.705V144.523C681.724 132.545 683.861 123.534 688.134 117.489C692.406 111.443 698.793 108.341 707.293 108.182C710.043 108.114 712.497 108.102 714.656 108.148C716.815 108.17 718.702 108.068 720.315 107.841C721.952 107.591 723.315 107.023 724.406 106.136ZM705.929 170.5C708.77 170.5 711.213 169.784 713.259 168.352C715.327 166.898 716.918 164.841 718.031 162.182C719.145 159.523 719.702 156.386 719.702 152.773C719.702 149.227 719.145 146.216 718.031 143.739C716.918 141.261 715.327 139.375 713.259 138.08C711.19 136.761 708.713 136.102 705.827 136.102C703.69 136.102 701.781 136.477 700.099 137.227C698.418 137.955 696.974 139.034 695.77 140.466C694.588 141.898 693.668 143.648 693.009 145.716C692.372 147.761 692.031 150.114 691.986 152.773C691.986 158.182 693.224 162.489 695.702 165.693C698.202 168.898 701.611 170.5 705.929 170.5ZM741.384 197.636V125.636H751.338V134.125H752.19C752.781 133.034 753.634 131.773 754.747 130.341C755.861 128.909 757.406 127.659 759.384 126.591C761.361 125.5 763.974 124.955 767.224 124.955C771.452 124.955 775.224 126.023 778.543 128.159C781.861 130.295 784.463 133.375 786.349 137.398C788.259 141.42 789.213 146.261 789.213 151.92C789.213 157.58 788.27 162.432 786.384 166.477C784.497 170.5 781.906 173.602 778.611 175.784C775.315 177.943 771.554 179.023 767.327 179.023C764.145 179.023 761.543 178.489 759.52 177.42C757.52 176.352 755.952 175.102 754.815 173.67C753.679 172.239 752.804 170.966 752.19 169.852H751.577V197.636H741.384ZM751.372 151.818C751.372 155.5 751.906 158.727 752.974 161.5C754.043 164.273 755.588 166.443 757.611 168.011C759.634 169.557 762.111 170.33 765.043 170.33C768.088 170.33 770.634 169.523 772.679 167.909C774.724 166.273 776.27 164.057 777.315 161.261C778.384 158.466 778.918 155.318 778.918 151.818C778.918 148.364 778.395 145.261 777.349 142.511C776.327 139.761 774.781 137.591 772.713 136C770.668 134.409 768.111 133.614 765.043 133.614C762.088 133.614 759.588 134.375 757.543 135.898C755.52 137.42 753.986 139.545 752.94 142.273C751.895 145 751.372 148.182 751.372 151.818ZM822.69 179.057C817.781 179.057 813.497 177.932 809.838 175.682C806.179 173.432 803.338 170.284 801.315 166.239C799.293 162.193 798.281 157.466 798.281 152.057C798.281 146.625 799.293 141.875 801.315 137.807C803.338 133.739 806.179 130.58 809.838 128.33C813.497 126.08 817.781 124.955 822.69 124.955C827.599 124.955 831.884 126.08 835.543 128.33C839.202 130.58 842.043 133.739 844.065 137.807C846.088 141.875 847.099 146.625 847.099 152.057C847.099 157.466 846.088 162.193 844.065 166.239C842.043 170.284 839.202 173.432 835.543 175.682C831.884 177.932 827.599 179.057 822.69 179.057ZM822.724 170.5C825.906 170.5 828.543 169.659 830.634 167.977C832.724 166.295 834.27 164.057 835.27 161.261C836.293 158.466 836.804 155.386 836.804 152.023C836.804 148.682 836.293 145.614 835.27 142.818C834.27 140 832.724 137.739 830.634 136.034C828.543 134.33 825.906 133.477 822.724 133.477C819.52 133.477 816.861 134.33 814.747 136.034C812.656 137.739 811.099 140 810.077 142.818C809.077 145.614 808.577 148.682 808.577 152.023C808.577 155.386 809.077 158.466 810.077 161.261C811.099 164.057 812.656 166.295 814.747 167.977C816.861 169.659 819.52 170.5 822.724 170.5ZM883.884 178V125.636H926.599V178H916.611V134.432H893.804V178H883.884ZM962.284 179.057C957.375 179.057 953.091 177.932 949.432 175.682C945.773 173.432 942.932 170.284 940.909 166.239C938.886 162.193 937.875 157.466 937.875 152.057C937.875 146.625 938.886 141.875 940.909 137.807C942.932 133.739 945.773 130.58 949.432 128.33C953.091 126.08 957.375 124.955 962.284 124.955C967.193 124.955 971.477 126.08 975.136 128.33C978.795 130.58 981.636 133.739 983.659 137.807C985.682 141.875 986.693 146.625 986.693 152.057C986.693 157.466 985.682 162.193 983.659 166.239C981.636 170.284 978.795 173.432 975.136 175.682C971.477 177.932 967.193 179.057 962.284 179.057ZM962.318 170.5C965.5 170.5 968.136 169.659 970.227 167.977C972.318 166.295 973.864 164.057 974.864 161.261C975.886 158.466 976.398 155.386 976.398 152.023C976.398 148.682 975.886 145.614 974.864 142.818C973.864 140 972.318 137.739 970.227 136.034C968.136 134.33 965.5 133.477 962.318 133.477C959.114 133.477 956.455 134.33 954.341 136.034C952.25 137.739 950.693 140 949.67 142.818C948.67 145.614 948.17 148.682 948.17 152.023C948.17 155.386 948.67 158.466 949.67 161.261C950.693 164.057 952.25 166.295 954.341 167.977C956.455 169.659 959.114 170.5 962.318 170.5ZM992.668 178L1012.95 151.205L992.906 125.636H1004.77L1020.96 147.386H1024.61V125.636H1034.8V147.386H1038.35L1054.54 125.636H1066.41L1046.46 151.205L1066.64 178H1054.54L1038.21 156.182H1034.8V178H1024.61V156.182H1021.2L1004.77 178H992.668ZM1092.15 179.159C1088.84 179.159 1085.84 178.545 1083.15 177.318C1080.47 176.068 1078.35 174.261 1076.78 171.898C1075.23 169.534 1074.46 166.636 1074.46 163.205C1074.46 160.25 1075.03 157.818 1076.16 155.909C1077.3 154 1078.84 152.489 1080.77 151.375C1082.7 150.261 1084.86 149.42 1087.24 148.852C1089.63 148.284 1092.06 147.852 1094.54 147.557C1097.68 147.193 1100.22 146.898 1102.18 146.67C1104.13 146.42 1105.55 146.023 1106.44 145.477C1107.32 144.932 1107.77 144.045 1107.77 142.818V142.58C1107.77 139.602 1106.93 137.295 1105.24 135.659C1103.59 134.023 1101.11 133.205 1097.81 133.205C1094.38 133.205 1091.68 133.966 1089.7 135.489C1087.74 136.989 1086.39 138.659 1085.64 140.5L1076.06 138.318C1077.2 135.136 1078.86 132.568 1081.04 130.614C1083.24 128.636 1085.78 127.205 1088.64 126.318C1091.51 125.409 1094.52 124.955 1097.68 124.955C1099.77 124.955 1101.98 125.205 1104.32 125.705C1106.69 126.182 1108.89 127.068 1110.94 128.364C1113.01 129.659 1114.7 131.511 1116.02 133.92C1117.34 136.307 1117.99 139.409 1117.99 143.227V178H1108.04V170.841H1107.63C1106.97 172.159 1105.98 173.455 1104.66 174.727C1103.35 176 1101.65 177.057 1099.59 177.898C1097.52 178.739 1095.04 179.159 1092.15 179.159ZM1094.37 170.977C1097.19 170.977 1099.6 170.42 1101.6 169.307C1103.62 168.193 1105.15 166.739 1106.2 164.943C1107.27 163.125 1107.8 161.182 1107.8 159.114V152.364C1107.44 152.727 1106.73 153.068 1105.69 153.386C1104.66 153.682 1103.49 153.943 1102.18 154.17C1100.86 154.375 1099.57 154.568 1098.32 154.75C1097.07 154.909 1096.03 155.045 1095.19 155.159C1093.21 155.409 1091.4 155.83 1089.77 156.42C1088.15 157.011 1086.86 157.864 1085.88 158.977C1084.93 160.068 1084.45 161.523 1084.45 163.341C1084.45 165.864 1085.38 167.773 1087.24 169.068C1089.11 170.341 1091.48 170.977 1094.37 170.977ZM1127.45 178L1127.41 169.17H1129.29C1130.74 169.17 1131.96 168.864 1132.93 168.25C1133.93 167.614 1134.75 166.545 1135.39 165.045C1136.03 163.545 1136.51 161.477 1136.86 158.841C1137.2 156.182 1137.45 152.841 1137.61 148.818L1138.53 125.636H1175.07V178H1165.08V134.432H1147.97L1147.15 152.227C1146.95 156.545 1146.5 160.318 1145.82 163.545C1145.16 166.773 1144.2 169.466 1142.92 171.625C1141.65 173.761 1140.01 175.364 1138.01 176.432C1136.01 177.477 1133.58 178 1130.72 178H1127.45ZM1210.72 179.057C1205.81 179.057 1201.53 177.932 1197.87 175.682C1194.21 173.432 1191.37 170.284 1189.35 166.239C1187.32 162.193 1186.31 157.466 1186.31 152.057C1186.31 146.625 1187.32 141.875 1189.35 137.807C1191.37 133.739 1194.21 130.58 1197.87 128.33C1201.53 126.08 1205.81 124.955 1210.72 124.955C1215.63 124.955 1219.91 126.08 1223.57 128.33C1227.23 130.58 1230.07 133.739 1232.1 137.807C1234.12 141.875 1235.13 146.625 1235.13 152.057C1235.13 157.466 1234.12 162.193 1232.1 166.239C1230.07 170.284 1227.23 173.432 1223.57 175.682C1219.91 177.932 1215.63 179.057 1210.72 179.057ZM1210.76 170.5C1213.94 170.5 1216.57 169.659 1218.66 167.977C1220.76 166.295 1222.3 164.057 1223.3 161.261C1224.32 158.466 1224.84 155.386 1224.84 152.023C1224.84 148.682 1224.32 145.614 1223.3 142.818C1222.3 140 1220.76 137.739 1218.66 136.034C1216.57 134.33 1213.94 133.477 1210.76 133.477C1207.55 133.477 1204.89 134.33 1202.78 136.034C1200.69 137.739 1199.13 140 1198.11 142.818C1197.11 145.614 1196.61 148.682 1196.61 152.023C1196.61 155.386 1197.11 158.466 1198.11 161.261C1199.13 164.057 1200.69 166.295 1202.78 167.977C1204.89 169.659 1207.55 170.5 1210.76 170.5ZM1246.51 178V125.636H1268.22C1274.13 125.636 1278.82 126.898 1282.27 129.42C1285.72 131.92 1287.45 135.318 1287.45 139.614C1287.45 142.682 1286.47 145.114 1284.52 146.909C1282.57 148.705 1279.97 149.909 1276.75 150.523C1279.09 150.795 1281.24 151.5 1283.19 152.636C1285.14 153.75 1286.71 155.25 1287.89 157.136C1289.1 159.023 1289.7 161.273 1289.7 163.886C1289.7 166.659 1288.99 169.114 1287.55 171.25C1286.12 173.364 1284.04 175.023 1281.32 176.227C1278.61 177.409 1275.35 178 1271.53 178H1246.51ZM1256.09 169.477H1271.53C1274.05 169.477 1276.03 168.875 1277.46 167.67C1278.89 166.466 1279.61 164.83 1279.61 162.761C1279.61 160.33 1278.89 158.42 1277.46 157.034C1276.03 155.625 1274.05 154.92 1271.53 154.92H1256.09V169.477ZM1256.09 147.455H1268.33C1270.24 147.455 1271.87 147.182 1273.24 146.636C1274.62 146.091 1275.68 145.318 1276.41 144.318C1277.16 143.295 1277.53 142.091 1277.53 140.705C1277.53 138.682 1276.7 137.102 1275.04 135.966C1273.38 134.83 1271.11 134.261 1268.22 134.261H1256.09V147.455ZM1316.12 179.159C1312.8 179.159 1309.8 178.545 1307.12 177.318C1304.44 176.068 1302.32 174.261 1300.75 171.898C1299.2 169.534 1298.43 166.636 1298.43 163.205C1298.43 160.25 1299 157.818 1300.13 155.909C1301.27 154 1302.8 152.489 1304.74 151.375C1306.67 150.261 1308.83 149.42 1311.21 148.852C1313.6 148.284 1316.03 147.852 1318.51 147.557C1321.64 147.193 1324.19 146.898 1326.14 146.67C1328.1 146.42 1329.52 146.023 1330.41 145.477C1331.29 144.932 1331.74 144.045 1331.74 142.818V142.58C1331.74 139.602 1330.89 137.295 1329.21 135.659C1327.55 134.023 1325.08 133.205 1321.78 133.205C1318.35 133.205 1315.64 133.966 1313.67 135.489C1311.71 136.989 1310.36 138.659 1309.61 140.5L1300.03 138.318C1301.17 135.136 1302.83 132.568 1305.01 130.614C1307.21 128.636 1309.75 127.205 1312.61 126.318C1315.47 125.409 1318.49 124.955 1321.64 124.955C1323.74 124.955 1325.95 125.205 1328.29 125.705C1330.66 126.182 1332.86 127.068 1334.91 128.364C1336.97 129.659 1338.67 131.511 1339.99 133.92C1341.3 136.307 1341.96 139.409 1341.96 143.227V178H1332.01V170.841H1331.6C1330.94 172.159 1329.95 173.455 1328.63 174.727C1327.32 176 1325.62 177.057 1323.55 177.898C1321.49 178.739 1319.01 179.159 1316.12 179.159ZM1318.34 170.977C1321.16 170.977 1323.57 170.42 1325.57 169.307C1327.59 168.193 1329.12 166.739 1330.17 164.943C1331.24 163.125 1331.77 161.182 1331.77 159.114V152.364C1331.41 152.727 1330.7 153.068 1329.66 153.386C1328.63 153.682 1327.46 153.943 1326.14 154.17C1324.83 154.375 1323.54 154.568 1322.29 154.75C1321.04 154.909 1320 155.045 1319.16 155.159C1317.18 155.409 1315.37 155.83 1313.74 156.42C1312.12 157.011 1310.83 157.864 1309.85 158.977C1308.89 160.068 1308.42 161.523 1308.42 163.341C1308.42 165.864 1309.35 167.773 1311.21 169.068C1313.08 170.341 1315.45 170.977 1318.34 170.977ZM1349.05 134.432V125.636H1393.23V134.432H1376.15V178H1366.19V134.432H1349.05ZM1411.68 143.636H1426.88C1433.29 143.636 1438.22 145.227 1441.68 148.409C1445.13 151.591 1446.86 155.693 1446.86 160.716C1446.86 163.989 1446.09 166.932 1444.54 169.545C1443 172.159 1440.74 174.227 1437.76 175.75C1434.78 177.25 1431.16 178 1426.88 178H1404.01V125.636H1414V169.205H1426.88C1429.82 169.205 1432.22 168.443 1434.11 166.92C1436 165.375 1436.94 163.409 1436.94 161.023C1436.94 158.5 1436 156.443 1434.11 154.852C1432.22 153.239 1429.82 152.432 1426.88 152.432H1411.68V143.636ZM1471.14 108.182L1470.26 157.92H1460.81L1459.93 108.182H1471.14ZM1465.55 178.648C1463.66 178.648 1462.05 177.989 1460.71 176.67C1459.37 175.33 1458.71 173.716 1458.73 171.83C1458.71 169.966 1459.37 168.375 1460.71 167.057C1462.05 165.716 1463.66 165.045 1465.55 165.045C1467.39 165.045 1468.98 165.716 1470.32 167.057C1471.66 168.375 1472.35 169.966 1472.37 171.83C1472.35 173.08 1472.02 174.227 1471.38 175.273C1470.77 176.295 1469.95 177.114 1468.93 177.727C1467.9 178.341 1466.78 178.648 1465.55 178.648Z" fill="black"/>
<path d="M909.622 706.332H905.634C905.48 705.48 905.195 704.73 904.777 704.082C904.359 703.435 903.848 702.885 903.243 702.433C902.638 701.982 901.96 701.641 901.21 701.411C900.469 701.18 899.68 701.065 898.845 701.065C897.337 701.065 895.986 701.445 894.793 702.203C893.608 702.962 892.67 704.074 891.98 705.54C891.298 707.006 890.957 708.795 890.957 710.909C890.957 713.04 891.298 714.838 891.98 716.304C892.67 717.77 893.612 718.878 894.805 719.628C895.999 720.378 897.341 720.753 898.832 720.753C899.659 720.753 900.443 720.642 901.185 720.42C901.935 720.19 902.612 719.854 903.217 719.411C903.822 718.967 904.334 718.426 904.751 717.787C905.178 717.139 905.472 716.398 905.634 715.562L909.622 715.575C909.409 716.862 908.996 718.047 908.382 719.129C907.777 720.203 906.997 721.132 906.043 721.916C905.097 722.692 904.014 723.293 902.795 723.719C901.577 724.145 900.247 724.358 898.807 724.358C896.54 724.358 894.52 723.821 892.747 722.747C890.974 721.665 889.577 720.118 888.554 718.107C887.54 716.095 887.033 713.696 887.033 710.909C887.033 708.114 887.544 705.714 888.567 703.712C889.589 701.7 890.987 700.158 892.76 699.084C894.533 698.001 896.548 697.46 898.807 697.46C900.196 697.46 901.491 697.661 902.693 698.061C903.903 698.453 904.99 699.033 905.953 699.8C906.916 700.558 907.713 701.487 908.344 702.587C908.974 703.678 909.401 704.926 909.622 706.332ZM912.943 707.662V704.364H929.511V707.662H923.106V724H919.373V707.662H912.943ZM938.354 724.435C937.11 724.435 935.985 724.205 934.979 723.744C933.974 723.276 933.177 722.598 932.589 721.712C932.009 720.825 931.719 719.739 931.719 718.452C931.719 717.344 931.933 716.432 932.359 715.716C932.785 715 933.36 714.433 934.085 714.016C934.809 713.598 935.619 713.283 936.513 713.07C937.408 712.857 938.32 712.695 939.249 712.584C940.425 712.447 941.38 712.337 942.113 712.251C942.846 712.158 943.379 712.009 943.711 711.804C944.043 711.599 944.21 711.267 944.21 710.807V710.717C944.21 709.601 943.894 708.736 943.263 708.122C942.641 707.509 941.712 707.202 940.477 707.202C939.19 707.202 938.175 707.487 937.434 708.058C936.701 708.621 936.194 709.247 935.913 709.938L932.32 709.119C932.746 707.926 933.369 706.963 934.187 706.23C935.013 705.489 935.964 704.952 937.038 704.619C938.112 704.278 939.241 704.108 940.425 704.108C941.21 704.108 942.04 704.202 942.918 704.389C943.805 704.568 944.631 704.901 945.398 705.386C946.174 705.872 946.809 706.567 947.303 707.47C947.798 708.365 948.045 709.528 948.045 710.96V724H944.312V721.315H944.158C943.911 721.81 943.54 722.295 943.046 722.773C942.552 723.25 941.917 723.646 941.141 723.962C940.366 724.277 939.437 724.435 938.354 724.435ZM939.185 721.366C940.242 721.366 941.146 721.158 941.896 720.74C942.654 720.322 943.229 719.777 943.621 719.104C944.022 718.422 944.222 717.693 944.222 716.918V714.386C944.086 714.523 943.822 714.651 943.43 714.77C943.046 714.881 942.607 714.979 942.113 715.064C941.619 715.141 941.137 715.213 940.668 715.281C940.2 715.341 939.808 715.392 939.492 715.435C938.751 715.528 938.073 715.686 937.46 715.908C936.854 716.129 936.369 716.449 936.002 716.866C935.644 717.276 935.465 717.821 935.465 718.503C935.465 719.449 935.815 720.165 936.513 720.651C937.212 721.128 938.103 721.366 939.185 721.366ZM950.701 707.662V704.364H967.269V707.662H960.864V724H957.131V707.662H950.701ZM975.058 718.643L983.712 704.364H987.829V724H984.083V709.707L975.467 724H971.312V704.364H975.058V718.643ZM1001.24 724.396C999.339 724.396 997.702 723.966 996.33 723.105C994.967 722.236 993.918 721.038 993.185 719.513C992.452 717.987 992.086 716.24 992.086 714.271C992.086 712.277 992.461 710.517 993.211 708.991C993.961 707.457 995.018 706.26 996.381 705.399C997.745 704.538 999.352 704.108 1001.2 704.108C1002.69 704.108 1004.02 704.385 1005.19 704.939C1006.36 705.484 1007.3 706.251 1008.01 707.24C1008.74 708.229 1009.17 709.384 1009.31 710.705H1005.59C1005.38 709.784 1004.91 708.991 1004.18 708.327C1003.46 707.662 1002.48 707.33 1001.26 707.33C1000.2 707.33 999.266 707.611 998.465 708.173C997.673 708.727 997.055 709.52 996.612 710.551C996.168 711.574 995.947 712.784 995.947 714.182C995.947 715.614 996.164 716.849 996.599 717.889C997.033 718.929 997.647 719.734 998.44 720.305C999.241 720.876 1000.18 721.162 1001.26 721.162C1001.99 721.162 1002.65 721.03 1003.23 720.766C1003.83 720.493 1004.33 720.105 1004.73 719.602C1005.14 719.099 1005.42 718.494 1005.59 717.787H1009.31C1009.17 719.057 1008.76 720.19 1008.07 721.188C1007.38 722.185 1006.45 722.969 1005.29 723.54C1004.14 724.111 1002.79 724.396 1001.24 724.396ZM1011.91 707.662V704.364H1028.48V707.662H1022.07V724H1018.34V707.662H1011.91ZM1036.26 718.643L1044.92 704.364H1049.04V724H1045.29V709.707L1036.67 724H1032.52V704.364H1036.26V718.643ZM1054.18 724V704.364H1058V712.597H1059.84L1066.32 704.364H1071.05L1063.44 713.913L1071.14 724H1066.4L1060.48 716.151H1058V724H1054.18ZM1079.82 724.435C1078.58 724.435 1077.45 724.205 1076.45 723.744C1075.44 723.276 1074.65 722.598 1074.06 721.712C1073.48 720.825 1073.19 719.739 1073.19 718.452C1073.19 717.344 1073.4 716.432 1073.83 715.716C1074.25 715 1074.83 714.433 1075.55 714.016C1076.28 713.598 1077.09 713.283 1077.98 713.07C1078.88 712.857 1079.79 712.695 1080.72 712.584C1081.89 712.447 1082.85 712.337 1083.58 712.251C1084.31 712.158 1084.85 712.009 1085.18 711.804C1085.51 711.599 1085.68 711.267 1085.68 710.807V710.717C1085.68 709.601 1085.36 708.736 1084.73 708.122C1084.11 707.509 1083.18 707.202 1081.95 707.202C1080.66 707.202 1079.64 707.487 1078.9 708.058C1078.17 708.621 1077.66 709.247 1077.38 709.938L1073.79 709.119C1074.22 707.926 1074.84 706.963 1075.66 706.23C1076.48 705.489 1077.43 704.952 1078.51 704.619C1079.58 704.278 1080.71 704.108 1081.89 704.108C1082.68 704.108 1083.51 704.202 1084.39 704.389C1085.27 704.568 1086.1 704.901 1086.87 705.386C1087.64 705.872 1088.28 706.567 1088.77 707.47C1089.27 708.365 1089.51 709.528 1089.51 710.96V724H1085.78V721.315H1085.63C1085.38 721.81 1085.01 722.295 1084.51 722.773C1084.02 723.25 1083.39 723.646 1082.61 723.962C1081.83 724.277 1080.91 724.435 1079.82 724.435ZM1080.65 721.366C1081.71 721.366 1082.61 721.158 1083.36 720.74C1084.12 720.322 1084.7 719.777 1085.09 719.104C1085.49 718.422 1085.69 717.693 1085.69 716.918V714.386C1085.55 714.523 1085.29 714.651 1084.9 714.77C1084.51 714.881 1084.08 714.979 1083.58 715.064C1083.09 715.141 1082.61 715.213 1082.14 715.281C1081.67 715.341 1081.28 715.392 1080.96 715.435C1080.22 715.528 1079.54 715.686 1078.93 715.908C1078.32 716.129 1077.84 716.449 1077.47 716.866C1077.11 717.276 1076.93 717.821 1076.93 718.503C1076.93 719.449 1077.28 720.165 1077.98 720.651C1078.68 721.128 1079.57 721.366 1080.65 721.366Z" fill="black"/>
<path d="M1658.5 402.75C1642.48 402.75 1628.77 397.046 1617.36 385.639C1605.95 374.232 1600.25 360.519 1600.25 344.5C1600.25 328.481 1605.95 314.768 1617.36 303.361C1628.77 291.954 1642.48 286.25 1658.5 286.25C1674.52 286.25 1688.23 291.954 1699.64 303.361C1711.05 314.768 1716.75 328.481 1716.75 344.5C1716.75 360.519 1711.05 374.232 1699.64 385.639C1688.23 397.046 1674.52 402.75 1658.5 402.75ZM1571.12 868.75V490.125H1396.38V431.875H1920.62V490.125H1745.88V868.75H1687.62V694H1629.38V868.75H1571.12Z" fill="#1D1B20"/>
<path d="M308.5 364.75C292.481 364.75 278.768 359.046 267.361 347.639C255.954 336.232 250.25 322.519 250.25 306.5C250.25 290.481 255.954 276.768 267.361 265.361C278.768 253.954 292.481 248.25 308.5 248.25C324.519 248.25 338.232 253.954 349.639 265.361C361.046 276.768 366.75 290.481 366.75 306.5C366.75 322.519 361.046 336.232 349.639 347.639C338.232 359.046 324.519 364.75 308.5 364.75ZM221.125 830.75V452.125H46.375V393.875H570.625V452.125H395.875V830.75H337.625V656H279.375V830.75H221.125Z" fill="#1D1B20"/>
<path d="M942.202 407.818V411.219H929.827V434H925.876V407.818H942.202ZM944.8 434L944.787 430.689H945.49C946.036 430.689 946.492 430.574 946.858 430.344C947.233 430.105 947.54 429.705 947.779 429.142C948.017 428.58 948.201 427.804 948.328 426.815C948.456 425.818 948.55 424.565 948.61 423.057L948.955 414.364H962.659V434H958.914V417.662H952.496L952.189 424.335C952.113 425.955 951.946 427.369 951.691 428.58C951.444 429.79 951.081 430.8 950.604 431.609C950.127 432.411 949.513 433.011 948.763 433.412C948.013 433.804 947.101 434 946.027 434H944.8ZM973.472 434.435C972.227 434.435 971.102 434.205 970.097 433.744C969.091 433.276 968.294 432.598 967.706 431.712C967.126 430.825 966.837 429.739 966.837 428.452C966.837 427.344 967.05 426.432 967.476 425.716C967.902 425 968.477 424.433 969.202 424.016C969.926 423.598 970.736 423.283 971.631 423.07C972.526 422.857 973.438 422.695 974.366 422.584C975.543 422.447 976.497 422.337 977.23 422.251C977.963 422.158 978.496 422.009 978.828 421.804C979.161 421.599 979.327 421.267 979.327 420.807V420.717C979.327 419.601 979.011 418.736 978.381 418.122C977.759 417.509 976.83 417.202 975.594 417.202C974.307 417.202 973.293 417.487 972.551 418.058C971.818 418.621 971.311 419.247 971.03 419.938L967.438 419.119C967.864 417.926 968.486 416.963 969.304 416.23C970.131 415.489 971.081 414.952 972.155 414.619C973.229 414.278 974.358 414.108 975.543 414.108C976.327 414.108 977.158 414.202 978.036 414.389C978.922 414.568 979.749 414.901 980.516 415.386C981.291 415.872 981.926 416.567 982.42 417.47C982.915 418.365 983.162 419.528 983.162 420.96V434H979.429V431.315H979.276C979.028 431.81 978.658 432.295 978.163 432.773C977.669 433.25 977.034 433.646 976.259 433.962C975.483 434.277 974.554 434.435 973.472 434.435ZM974.303 431.366C975.359 431.366 976.263 431.158 977.013 430.74C977.771 430.322 978.347 429.777 978.739 429.104C979.139 428.422 979.339 427.693 979.339 426.918V424.386C979.203 424.523 978.939 424.651 978.547 424.77C978.163 424.881 977.724 424.979 977.23 425.064C976.736 425.141 976.254 425.213 975.786 425.281C975.317 425.341 974.925 425.392 974.609 425.435C973.868 425.528 973.19 425.686 972.577 425.908C971.972 426.129 971.486 426.449 971.119 426.866C970.761 427.276 970.582 427.821 970.582 428.503C970.582 429.449 970.932 430.165 971.631 430.651C972.33 431.128 973.22 431.366 974.303 431.366ZM988.253 434V414.364H996.397C998.613 414.364 1000.37 414.837 1001.66 415.783C1002.96 416.72 1003.61 417.994 1003.61 419.605C1003.61 420.756 1003.24 421.668 1002.51 422.341C1001.77 423.014 1000.8 423.466 999.593 423.696C1000.47 423.798 1001.28 424.062 1002.01 424.489C1002.74 424.906 1003.33 425.469 1003.77 426.176C1004.22 426.884 1004.45 427.727 1004.45 428.707C1004.45 429.747 1004.18 430.668 1003.65 431.469C1003.11 432.261 1002.33 432.884 1001.31 433.335C1000.29 433.778 999.069 434 997.637 434H988.253ZM991.846 430.804H997.637C998.583 430.804 999.324 430.578 999.861 430.126C1000.4 429.675 1000.67 429.061 1000.67 428.286C1000.67 427.374 1000.4 426.658 999.861 426.138C999.324 425.609 998.583 425.345 997.637 425.345H991.846V430.804ZM991.846 422.545H996.435C997.151 422.545 997.765 422.443 998.276 422.239C998.796 422.034 999.192 421.744 999.465 421.369C999.746 420.986 999.887 420.534 999.887 420.014C999.887 419.256 999.576 418.663 998.953 418.237C998.331 417.811 997.479 417.598 996.397 417.598H991.846V422.545ZM1021.95 422.533V425.844H1011.32V422.533H1021.95ZM1012.39 414.364V434H1008.64V414.364H1012.39ZM1024.62 414.364V434H1020.89V414.364H1024.62ZM1035.45 434.435C1034.21 434.435 1033.08 434.205 1032.08 433.744C1031.07 433.276 1030.27 432.598 1029.69 431.712C1029.11 430.825 1028.82 429.739 1028.82 428.452C1028.82 427.344 1029.03 426.432 1029.46 425.716C1029.88 425 1030.46 424.433 1031.18 424.016C1031.91 423.598 1032.72 423.283 1033.61 423.07C1034.51 422.857 1035.42 422.695 1036.35 422.584C1037.52 422.447 1038.48 422.337 1039.21 422.251C1039.94 422.158 1040.48 422.009 1040.81 421.804C1041.14 421.599 1041.31 421.267 1041.31 420.807V420.717C1041.31 419.601 1040.99 418.736 1040.36 418.122C1039.74 417.509 1038.81 417.202 1037.57 417.202C1036.29 417.202 1035.27 417.487 1034.53 418.058C1033.8 418.621 1033.29 419.247 1033.01 419.938L1029.42 419.119C1029.84 417.926 1030.47 416.963 1031.28 416.23C1032.11 415.489 1033.06 414.952 1034.14 414.619C1035.21 414.278 1036.34 414.108 1037.52 414.108C1038.31 414.108 1039.14 414.202 1040.02 414.389C1040.9 414.568 1041.73 414.901 1042.5 415.386C1043.27 415.872 1043.91 416.567 1044.4 417.47C1044.9 418.365 1045.14 419.528 1045.14 420.96V434H1041.41V431.315H1041.26C1041.01 431.81 1040.64 432.295 1040.14 432.773C1039.65 433.25 1039.01 433.646 1038.24 433.962C1037.46 434.277 1036.53 434.435 1035.45 434.435ZM1036.28 431.366C1037.34 431.366 1038.24 431.158 1038.99 430.74C1039.75 430.322 1040.33 429.777 1040.72 429.104C1041.12 428.422 1041.32 427.693 1041.32 426.918V424.386C1041.18 424.523 1040.92 424.651 1040.53 424.77C1040.14 424.881 1039.7 424.979 1039.21 425.064C1038.72 425.141 1038.23 425.213 1037.77 425.281C1037.3 425.341 1036.91 425.392 1036.59 425.435C1035.85 425.528 1035.17 425.686 1034.56 425.908C1033.95 426.129 1033.47 426.449 1033.1 426.866C1032.74 427.276 1032.56 427.821 1032.56 428.503C1032.56 429.449 1032.91 430.165 1033.61 430.651C1034.31 431.128 1035.2 431.366 1036.28 431.366ZM1061.94 434V417.624H1057.24C1056.12 417.624 1055.25 417.884 1054.63 418.403C1054.01 418.923 1053.7 419.605 1053.7 420.449C1053.7 421.284 1053.98 421.957 1054.55 422.469C1055.13 422.972 1055.94 423.223 1056.98 423.223H1063.06V426.317H1056.98C1055.53 426.317 1054.28 426.078 1053.23 425.601C1052.18 425.115 1051.37 424.429 1050.8 423.543C1050.23 422.656 1049.95 421.608 1049.95 420.398C1049.95 419.162 1050.24 418.097 1050.82 417.202C1051.41 416.298 1052.25 415.599 1053.34 415.105C1054.44 414.611 1055.74 414.364 1057.24 414.364H1065.54V434H1061.94ZM1049.06 434L1054.59 424.08H1058.5L1052.97 434H1049.06Z" fill="white"/>
</g>
<defs>
<clipPath id="clip0_4_3133">
<rect width="1920" height="1080" fill="white"/>
</clipPath>
</defs>
</svg>
