<svg width="1920" height="1080" viewBox="0 0 1920 1080" fill="none" xmlns="http://www.w3.org/2000/svg">
<rect width="1920" height="1080" fill="white"/>
<g filter="url(#filter0_dd_4_3588)">
<rect x="397" y="212" width="1328" height="752" rx="7" fill="white"/>
<rect x="397.5" y="212.5" width="1327" height="751" rx="6.5" stroke="#7D7D7D" stroke-opacity="0.13"/>
</g>
<g filter="url(#filter1_dd_4_3588)">
<rect x="1530" y="294" width="159" height="52" rx="7" fill="white"/>
<rect x="1530.5" y="294.5" width="158" height="51" rx="6.5" stroke="#7D7D7D" stroke-opacity="0.13"/>
</g>
<path d="M927.83 281.443H922.511C922.307 280.307 921.926 279.307 921.369 278.443C920.813 277.58 920.131 276.847 919.324 276.244C918.517 275.642 917.614 275.187 916.614 274.881C915.625 274.574 914.574 274.42 913.46 274.42C911.449 274.42 909.648 274.926 908.057 275.938C906.477 276.949 905.227 278.432 904.307 280.386C903.398 282.341 902.943 284.727 902.943 287.545C902.943 290.386 903.398 292.784 904.307 294.739C905.227 296.693 906.483 298.17 908.074 299.17C909.665 300.17 911.455 300.67 913.443 300.67C914.545 300.67 915.591 300.523 916.58 300.227C917.58 299.92 918.483 299.472 919.29 298.881C920.097 298.29 920.778 297.568 921.335 296.716C921.903 295.852 922.295 294.864 922.511 293.75L927.83 293.767C927.545 295.483 926.994 297.062 926.176 298.506C925.369 299.938 924.33 301.176 923.057 302.222C921.795 303.256 920.352 304.057 918.727 304.625C917.102 305.193 915.33 305.477 913.409 305.477C910.386 305.477 907.693 304.761 905.33 303.33C902.966 301.886 901.102 299.824 899.739 297.142C898.386 294.46 897.71 291.261 897.71 287.545C897.71 283.818 898.392 280.619 899.756 277.949C901.119 275.267 902.983 273.21 905.347 271.778C907.71 270.335 910.398 269.614 913.409 269.614C915.261 269.614 916.989 269.881 918.591 270.415C920.205 270.937 921.653 271.71 922.938 272.733C924.222 273.744 925.284 274.983 926.125 276.449C926.966 277.903 927.534 279.568 927.83 281.443ZM932.257 283.216V278.818H954.348V283.216H945.808V305H940.831V283.216H932.257ZM966.139 305.58C964.48 305.58 962.98 305.273 961.639 304.659C960.298 304.034 959.236 303.131 958.452 301.949C957.679 300.767 957.293 299.318 957.293 297.602C957.293 296.125 957.577 294.909 958.145 293.955C958.713 293 959.48 292.244 960.446 291.688C961.412 291.131 962.491 290.71 963.685 290.426C964.878 290.142 966.094 289.926 967.332 289.778C968.901 289.597 970.173 289.449 971.151 289.335C972.128 289.21 972.838 289.011 973.281 288.739C973.724 288.466 973.946 288.023 973.946 287.409V287.29C973.946 285.801 973.526 284.648 972.685 283.83C971.855 283.011 970.616 282.602 968.969 282.602C967.253 282.602 965.901 282.983 964.912 283.744C963.935 284.494 963.259 285.33 962.884 286.25L958.094 285.159C958.662 283.568 959.491 282.284 960.582 281.307C961.685 280.318 962.952 279.602 964.384 279.159C965.815 278.705 967.321 278.477 968.901 278.477C969.946 278.477 971.054 278.602 972.224 278.852C973.406 279.091 974.509 279.534 975.531 280.182C976.565 280.83 977.412 281.756 978.071 282.96C978.73 284.153 979.06 285.705 979.06 287.614V305H974.082V301.42H973.878C973.548 302.08 973.054 302.727 972.395 303.364C971.736 304 970.889 304.528 969.855 304.949C968.821 305.369 967.582 305.58 966.139 305.58ZM967.247 301.489C968.656 301.489 969.861 301.21 970.861 300.653C971.872 300.097 972.639 299.369 973.162 298.472C973.696 297.562 973.963 296.591 973.963 295.557V292.182C973.781 292.364 973.429 292.534 972.906 292.693C972.395 292.841 971.81 292.972 971.151 293.085C970.491 293.187 969.849 293.284 969.224 293.375C968.599 293.455 968.077 293.523 967.656 293.58C966.668 293.705 965.764 293.915 964.946 294.21C964.139 294.506 963.491 294.932 963.003 295.489C962.526 296.034 962.287 296.761 962.287 297.67C962.287 298.932 962.753 299.886 963.685 300.534C964.616 301.17 965.804 301.489 967.247 301.489ZM982.601 283.216V278.818H1004.69V283.216H996.152V305H991.175V283.216H982.601ZM1015.08 297.858L1026.62 278.818H1032.11V305H1027.11V285.943L1015.62 305H1010.08V278.818H1015.08V297.858ZM1049.99 305.528C1047.45 305.528 1045.27 304.955 1043.44 303.807C1041.62 302.648 1040.22 301.051 1039.25 299.017C1038.27 296.983 1037.78 294.653 1037.78 292.028C1037.78 289.369 1038.28 287.023 1039.28 284.989C1040.28 282.943 1041.69 281.347 1043.51 280.199C1045.33 279.051 1047.47 278.477 1049.93 278.477C1051.92 278.477 1053.7 278.847 1055.25 279.585C1056.81 280.312 1058.07 281.335 1059.02 282.653C1059.99 283.972 1060.56 285.511 1060.74 287.273H1055.78C1055.51 286.045 1054.88 284.989 1053.91 284.102C1052.94 283.216 1051.64 282.773 1050.02 282.773C1048.6 282.773 1047.36 283.148 1046.29 283.898C1045.23 284.636 1044.41 285.693 1043.82 287.068C1043.22 288.432 1042.93 290.045 1042.93 291.909C1042.93 293.818 1043.22 295.466 1043.8 296.852C1044.38 298.239 1045.2 299.312 1046.25 300.074C1047.32 300.835 1048.58 301.216 1050.02 301.216C1050.99 301.216 1051.86 301.04 1052.64 300.688C1053.44 300.324 1054.11 299.807 1054.64 299.136C1055.18 298.466 1055.57 297.659 1055.78 296.716H1060.74C1060.56 298.409 1060.01 299.92 1059.09 301.25C1058.17 302.58 1056.93 303.625 1055.39 304.386C1053.86 305.148 1052.05 305.528 1049.99 305.528ZM1064.21 283.216V278.818H1086.3V283.216H1077.76V305H1072.78V283.216H1064.21ZM1096.69 297.858L1108.23 278.818H1113.71V305H1108.72V285.943L1097.23 305H1091.69V278.818H1096.69V297.858ZM1120.57 305V278.818H1125.66V289.795H1128.12L1136.76 278.818H1143.07L1132.92 291.551L1143.19 305H1136.86L1128.97 294.534H1125.66V305H1120.57ZM1154.76 305.58C1153.11 305.58 1151.61 305.273 1150.26 304.659C1148.92 304.034 1147.86 303.131 1147.08 301.949C1146.3 300.767 1145.92 299.318 1145.92 297.602C1145.92 296.125 1146.2 294.909 1146.77 293.955C1147.34 293 1148.11 292.244 1149.07 291.688C1150.04 291.131 1151.12 290.71 1152.31 290.426C1153.5 290.142 1154.72 289.926 1155.96 289.778C1157.53 289.597 1158.8 289.449 1159.78 289.335C1160.75 289.21 1161.46 289.011 1161.91 288.739C1162.35 288.466 1162.57 288.023 1162.57 287.409V287.29C1162.57 285.801 1162.15 284.648 1161.31 283.83C1160.48 283.011 1159.24 282.602 1157.59 282.602C1155.88 282.602 1154.53 282.983 1153.54 283.744C1152.56 284.494 1151.88 285.33 1151.51 286.25L1146.72 285.159C1147.29 283.568 1148.12 282.284 1149.21 281.307C1150.31 280.318 1151.58 279.602 1153.01 279.159C1154.44 278.705 1155.95 278.477 1157.53 278.477C1158.57 278.477 1159.68 278.602 1160.85 278.852C1162.03 279.091 1163.13 279.534 1164.16 280.182C1165.19 280.83 1166.04 281.756 1166.7 282.96C1167.36 284.153 1167.68 285.705 1167.68 287.614V305H1162.71V301.42H1162.5C1162.17 302.08 1161.68 302.727 1161.02 303.364C1160.36 304 1159.51 304.528 1158.48 304.949C1157.45 305.369 1156.21 305.58 1154.76 305.58ZM1155.87 301.489C1157.28 301.489 1158.49 301.21 1159.49 300.653C1160.5 300.097 1161.26 299.369 1161.79 298.472C1162.32 297.562 1162.59 296.591 1162.59 295.557V292.182C1162.41 292.364 1162.05 292.534 1161.53 292.693C1161.02 292.841 1160.43 292.972 1159.78 293.085C1159.12 293.187 1158.47 293.284 1157.85 293.375C1157.22 293.455 1156.7 293.523 1156.28 293.58C1155.29 293.705 1154.39 293.915 1153.57 294.21C1152.76 294.506 1152.12 294.932 1151.63 295.489C1151.15 296.034 1150.91 296.761 1150.91 297.67C1150.91 298.932 1151.38 299.886 1152.31 300.534C1153.24 301.17 1154.43 301.489 1155.87 301.489Z" fill="black"/>
<path d="M442.151 840.273V849H440.83V841.594H440.778L438.69 842.957V841.696L440.868 840.273H442.151ZM447.55 849.145C446.876 849.142 446.301 848.964 445.824 848.612C445.347 848.26 444.982 847.747 444.729 847.074C444.476 846.401 444.349 845.589 444.349 844.641C444.349 843.695 444.476 842.886 444.729 842.216C444.984 841.545 445.351 841.034 445.828 840.682C446.308 840.33 446.882 840.153 447.55 840.153C448.217 840.153 448.79 840.331 449.267 840.686C449.744 841.038 450.109 841.55 450.362 842.22C450.618 842.888 450.746 843.695 450.746 844.641C450.746 845.592 450.619 846.405 450.366 847.078C450.114 847.749 449.749 848.261 449.271 848.616C448.794 848.969 448.22 849.145 447.55 849.145ZM447.55 848.007C448.141 848.007 448.602 847.719 448.935 847.142C449.27 846.565 449.438 845.732 449.438 844.641C449.438 843.916 449.361 843.304 449.207 842.804C449.057 842.301 448.839 841.92 448.555 841.662C448.274 841.401 447.939 841.27 447.55 841.27C446.962 841.27 446.5 841.56 446.165 842.139C445.83 842.719 445.661 843.553 445.658 844.641C445.658 845.368 445.733 845.983 445.884 846.486C446.037 846.986 446.254 847.365 446.536 847.624C446.817 847.879 447.155 848.007 447.55 848.007ZM455.296 849.145C454.623 849.142 454.047 848.964 453.57 848.612C453.093 848.26 452.728 847.747 452.475 847.074C452.222 846.401 452.096 845.589 452.096 844.641C452.096 843.695 452.222 842.886 452.475 842.216C452.73 841.545 453.097 841.034 453.574 840.682C454.054 840.33 454.628 840.153 455.296 840.153C455.963 840.153 456.536 840.331 457.013 840.686C457.49 841.038 457.855 841.55 458.108 842.22C458.364 842.888 458.492 843.695 458.492 844.641C458.492 845.592 458.365 846.405 458.113 847.078C457.86 847.749 457.495 848.261 457.017 848.616C456.54 848.969 455.966 849.145 455.296 849.145ZM455.296 848.007C455.887 848.007 456.348 847.719 456.681 847.142C457.016 846.565 457.184 845.732 457.184 844.641C457.184 843.916 457.107 843.304 456.953 842.804C456.803 842.301 456.586 841.92 456.301 841.662C456.02 841.401 455.685 841.27 455.296 841.27C454.708 841.27 454.246 841.56 453.911 842.139C453.576 842.719 453.407 843.553 453.404 844.641C453.404 845.368 453.479 845.983 453.63 846.486C453.783 846.986 454 847.365 454.282 847.624C454.563 847.879 454.901 848.007 455.296 848.007Z" fill="black"/>
<path d="M500.959 902V893.273H504.07C504.749 893.273 505.311 893.396 505.757 893.643C506.203 893.891 506.537 894.229 506.759 894.658C506.98 895.084 507.091 895.564 507.091 896.098C507.091 896.635 506.979 897.118 506.754 897.547C506.533 897.973 506.197 898.311 505.749 898.561C505.303 898.808 504.741 898.932 504.065 898.932H501.926V897.815H503.946C504.375 897.815 504.723 897.741 504.99 897.594C505.257 897.443 505.453 897.239 505.578 896.98C505.703 896.722 505.766 896.428 505.766 896.098C505.766 895.768 505.703 895.476 505.578 895.22C505.453 894.964 505.256 894.764 504.986 894.619C504.719 894.474 504.366 894.402 503.929 894.402H502.276V902H500.959ZM511.207 902.132C510.594 902.132 510.058 901.991 509.601 901.71C509.143 901.429 508.788 901.036 508.536 900.53C508.283 900.024 508.156 899.433 508.156 898.757C508.156 898.078 508.283 897.484 508.536 896.976C508.788 896.467 509.143 896.072 509.601 895.791C510.058 895.51 510.594 895.369 511.207 895.369C511.821 895.369 512.357 895.51 512.814 895.791C513.271 896.072 513.626 896.467 513.879 896.976C514.132 897.484 514.259 898.078 514.259 898.757C514.259 899.433 514.132 900.024 513.879 900.53C513.626 901.036 513.271 901.429 512.814 901.71C512.357 901.991 511.821 902.132 511.207 902.132ZM511.212 901.062C511.609 901.062 511.939 900.957 512.2 900.747C512.462 900.537 512.655 900.257 512.78 899.908C512.908 899.558 512.972 899.173 512.972 898.753C512.972 898.335 512.908 897.952 512.78 897.602C512.655 897.25 512.462 896.967 512.2 896.754C511.939 896.541 511.609 896.435 511.212 896.435C510.811 896.435 510.479 896.541 510.214 896.754C509.953 896.967 509.759 897.25 509.631 897.602C509.506 897.952 509.443 898.335 509.443 898.753C509.443 899.173 509.506 899.558 509.631 899.908C509.759 900.257 509.953 900.537 510.214 900.747C510.479 900.957 510.811 901.062 511.212 901.062ZM519.354 900.423L521.468 895.455H522.567L519.827 902H518.881L516.196 895.455H517.283L519.354 900.423ZM516.929 895.455V902H515.681V895.455H516.929ZM521.813 902V895.455H523.053V902H521.813ZM526.656 902.145C526.241 902.145 525.866 902.068 525.531 901.915C525.196 901.759 524.93 901.533 524.734 901.237C524.541 900.942 524.444 900.58 524.444 900.151C524.444 899.781 524.515 899.477 524.657 899.239C524.799 899 524.991 898.811 525.233 898.672C525.474 898.533 525.744 898.428 526.042 898.357C526.341 898.286 526.645 898.232 526.954 898.195C527.346 898.149 527.664 898.112 527.909 898.084C528.153 898.053 528.331 898.003 528.441 897.935C528.552 897.866 528.608 897.756 528.608 897.602V897.572C528.608 897.2 528.502 896.912 528.292 896.707C528.085 896.503 527.775 896.401 527.363 896.401C526.934 896.401 526.596 896.496 526.349 896.686C526.105 896.874 525.936 897.082 525.842 897.312L524.645 897.04C524.787 896.642 524.994 896.321 525.267 896.077C525.542 895.83 525.859 895.651 526.217 895.54C526.575 895.426 526.951 895.369 527.346 895.369C527.608 895.369 527.885 895.401 528.177 895.463C528.473 895.523 528.748 895.634 529.004 895.795C529.262 895.957 529.474 896.189 529.639 896.49C529.804 896.788 529.886 897.176 529.886 897.653V902H528.642V901.105H528.591C528.508 901.27 528.385 901.432 528.22 901.591C528.055 901.75 527.843 901.882 527.585 901.987C527.326 902.092 527.017 902.145 526.656 902.145ZM526.933 901.122C527.285 901.122 527.586 901.053 527.836 900.913C528.089 900.774 528.281 900.592 528.412 900.368C528.545 900.141 528.612 899.898 528.612 899.639V898.795C528.566 898.841 528.478 898.884 528.348 898.923C528.22 898.96 528.074 898.993 527.909 899.021C527.744 899.047 527.583 899.071 527.427 899.094C527.271 899.114 527.14 899.131 527.035 899.145C526.788 899.176 526.562 899.229 526.358 899.303C526.156 899.376 525.994 899.483 525.872 899.622C525.752 899.759 525.693 899.94 525.693 900.168C525.693 900.483 525.809 900.722 526.042 900.884C526.275 901.043 526.572 901.122 526.933 901.122ZM536.019 898.178V899.281H532.474V898.178H536.019ZM532.832 895.455V902H531.583V895.455H532.832ZM536.91 895.455V902H535.665V895.455H536.91Z" fill="black"/>
<path d="M761.577 897.119V895.96H762.101C762.32 895.96 762.5 895.923 762.642 895.849C762.787 895.776 762.905 895.676 762.996 895.551C763.089 895.423 763.168 895.284 763.23 895.134L763.354 894.822L760.286 888.273H761.683L763.972 893.318L766.009 888.273H767.389L764.372 895.487C764.244 895.777 764.097 896.045 763.929 896.293C763.764 896.54 763.544 896.74 763.268 896.893C762.993 897.044 762.628 897.119 762.173 897.119H761.577ZM768.115 897L770.65 893.651L768.145 890.455H769.627L771.652 893.173H772.108V890.455H773.382V893.173H773.825L775.849 890.455H777.332L774.839 893.651L777.362 897H775.849L773.808 894.273H773.382V897H772.108V894.273H771.681L769.627 897H768.115ZM780.55 897.145C780.136 897.145 779.761 897.068 779.425 896.915C779.09 896.759 778.825 896.533 778.629 896.237C778.435 895.942 778.339 895.58 778.339 895.151C778.339 894.781 778.41 894.477 778.552 894.239C778.694 894 778.886 893.811 779.127 893.672C779.369 893.533 779.638 893.428 779.937 893.357C780.235 893.286 780.539 893.232 780.849 893.195C781.241 893.149 781.559 893.112 781.803 893.084C782.048 893.053 782.225 893.003 782.336 892.935C782.447 892.866 782.502 892.756 782.502 892.602V892.572C782.502 892.2 782.397 891.912 782.187 891.707C781.979 891.503 781.67 891.401 781.258 891.401C780.829 891.401 780.491 891.496 780.244 891.686C779.999 891.874 779.83 892.082 779.737 892.312L778.539 892.04C778.681 891.642 778.888 891.321 779.161 891.077C779.437 890.83 779.754 890.651 780.112 890.54C780.469 890.426 780.846 890.369 781.241 890.369C781.502 890.369 781.779 890.401 782.072 890.463C782.367 890.523 782.643 890.634 782.898 890.795C783.157 890.957 783.369 891.189 783.533 891.49C783.698 891.788 783.781 892.176 783.781 892.653V897H782.536V896.105H782.485C782.403 896.27 782.279 896.432 782.114 896.591C781.95 896.75 781.738 896.882 781.479 896.987C781.221 897.092 780.911 897.145 780.55 897.145ZM780.827 896.122C781.18 896.122 781.481 896.053 781.731 895.913C781.984 895.774 782.175 895.592 782.306 895.368C782.44 895.141 782.506 894.898 782.506 894.639V893.795C782.461 893.841 782.373 893.884 782.242 893.923C782.114 893.96 781.968 893.993 781.803 894.021C781.638 894.047 781.478 894.071 781.322 894.094C781.165 894.114 781.035 894.131 780.93 894.145C780.683 894.176 780.457 894.229 780.252 894.303C780.05 894.376 779.888 894.483 779.766 894.622C779.647 894.759 779.587 894.94 779.587 895.168C779.587 895.483 779.704 895.722 779.937 895.884C780.17 896.043 780.467 896.122 780.827 896.122ZM788.235 897.132C787.601 897.132 787.056 896.989 786.598 896.702C786.144 896.412 785.794 896.013 785.55 895.504C785.306 894.996 785.184 894.413 785.184 893.757C785.184 893.092 785.309 892.506 785.559 891.997C785.809 891.486 786.161 891.087 786.615 890.8C787.07 890.513 787.605 890.369 788.222 890.369C788.719 890.369 789.162 890.462 789.551 890.646C789.941 890.828 790.255 891.084 790.493 891.413C790.735 891.743 790.878 892.128 790.924 892.568H789.684C789.615 892.261 789.459 891.997 789.215 891.776C788.973 891.554 788.65 891.443 788.243 891.443C787.888 891.443 787.577 891.537 787.31 891.724C787.046 891.909 786.84 892.173 786.692 892.517C786.544 892.858 786.471 893.261 786.471 893.727C786.471 894.205 786.543 894.616 786.688 894.963C786.833 895.31 787.037 895.578 787.301 895.768C787.569 895.959 787.882 896.054 788.243 896.054C788.485 896.054 788.703 896.01 788.9 895.922C789.098 895.831 789.265 895.702 789.398 895.534C789.534 895.366 789.63 895.165 789.684 894.929H790.924C790.878 895.352 790.74 895.73 790.51 896.062C790.28 896.395 789.972 896.656 789.586 896.847C789.202 897.037 788.752 897.132 788.235 897.132ZM791.791 891.554V890.455H797.314V891.554H795.179V897H793.934V891.554H791.791ZM799.91 895.214L802.795 890.455H804.167V897H802.918V892.236L800.046 897H798.661V890.455H799.91V895.214ZM805.88 897V890.455H807.154V893.199H807.768L809.928 890.455H811.505L808.969 893.638L811.535 897H809.954L807.981 894.384H807.154V897H805.88Z" fill="black"/>
<path d="M1043.3 902.109V898.884H1043.87C1044.07 898.719 1044.25 898.484 1044.42 898.18C1044.59 897.876 1044.74 897.466 1044.86 896.949C1044.98 896.432 1045.06 895.768 1045.11 894.959L1045.31 891.273H1050.69V898.884H1051.68V902.097H1050.42V900H1044.56V902.109H1043.3ZM1045.42 898.884H1049.43V892.406H1046.5L1046.37 894.959C1046.33 895.575 1046.27 896.129 1046.18 896.621C1046.1 897.112 1045.99 897.547 1045.86 897.925C1045.74 898.3 1045.59 898.619 1045.42 898.884ZM1055.84 900.132C1055.2 900.132 1054.64 899.994 1054.18 899.719C1053.71 899.44 1053.35 899.05 1053.1 898.547C1052.85 898.041 1052.73 897.449 1052.73 896.77C1052.73 896.099 1052.85 895.509 1053.1 894.997C1053.35 894.486 1053.71 894.087 1054.16 893.8C1054.61 893.513 1055.14 893.369 1055.75 893.369C1056.12 893.369 1056.48 893.43 1056.83 893.553C1057.17 893.675 1057.48 893.866 1057.76 894.128C1058.03 894.389 1058.25 894.729 1058.41 895.146C1058.57 895.561 1058.65 896.065 1058.65 896.659V897.111H1053.45V896.156H1057.4C1057.4 895.821 1057.33 895.524 1057.2 895.266C1057.06 895.004 1056.87 894.798 1056.62 894.648C1056.38 894.497 1056.09 894.422 1055.76 894.422C1055.4 894.422 1055.09 894.51 1054.82 894.686C1054.56 894.859 1054.35 895.087 1054.21 895.368C1054.07 895.646 1054 895.949 1054 896.276V897.021C1054 897.459 1054.07 897.831 1054.23 898.138C1054.38 898.445 1054.6 898.679 1054.88 898.841C1055.16 899 1055.48 899.08 1055.85 899.08C1056.1 899.08 1056.32 899.045 1056.51 898.977C1056.71 898.906 1056.89 898.801 1057.03 898.662C1057.18 898.523 1057.29 898.351 1057.36 898.146L1058.57 898.364C1058.47 898.719 1058.3 899.03 1058.05 899.297C1057.8 899.561 1057.49 899.767 1057.12 899.915C1056.74 900.06 1056.32 900.132 1055.84 900.132ZM1059.49 894.554V893.455H1065.01V894.554H1062.87V900H1061.63V894.554H1059.49ZM1068.87 900.132C1068.23 900.132 1067.67 899.994 1067.21 899.719C1066.74 899.44 1066.39 899.05 1066.13 898.547C1065.88 898.041 1065.76 897.449 1065.76 896.77C1065.76 896.099 1065.88 895.509 1066.13 894.997C1066.39 894.486 1066.74 894.087 1067.19 893.8C1067.64 893.513 1068.18 893.369 1068.78 893.369C1069.15 893.369 1069.51 893.43 1069.86 893.553C1070.2 893.675 1070.51 893.866 1070.79 894.128C1071.07 894.389 1071.28 894.729 1071.44 895.146C1071.6 895.561 1071.68 896.065 1071.68 896.659V897.111H1066.48V896.156H1070.43C1070.43 895.821 1070.36 895.524 1070.23 895.266C1070.09 895.004 1069.9 894.798 1069.65 894.648C1069.41 894.497 1069.12 894.422 1068.79 894.422C1068.43 894.422 1068.12 894.51 1067.85 894.686C1067.59 894.859 1067.39 895.087 1067.24 895.368C1067.1 895.646 1067.03 895.949 1067.03 896.276V897.021C1067.03 897.459 1067.1 897.831 1067.26 898.138C1067.41 898.445 1067.63 898.679 1067.91 898.841C1068.19 899 1068.51 899.08 1068.89 899.08C1069.13 899.08 1069.35 899.045 1069.55 898.977C1069.75 898.906 1069.92 898.801 1070.06 898.662C1070.21 898.523 1070.32 898.351 1070.39 898.146L1071.6 898.364C1071.5 898.719 1071.33 899.03 1071.08 899.297C1070.83 899.561 1070.52 899.767 1070.15 899.915C1069.77 900.06 1069.35 900.132 1068.87 900.132ZM1073.09 900V893.455H1074.37V896.199H1074.98L1077.14 893.455H1078.72L1076.18 896.638L1078.75 900H1077.17L1075.2 897.384H1074.37V900H1073.09ZM1079.37 894.554V893.455H1084.9V894.554H1082.76V900H1081.52V894.554H1079.37ZM1087.49 898.214L1090.38 893.455H1091.75V900H1090.5V895.236L1087.63 900H1086.24V893.455H1087.49V898.214ZM1093.46 900V893.455H1096.18C1096.92 893.455 1097.5 893.612 1097.93 893.928C1098.36 894.24 1098.58 894.665 1098.58 895.202C1098.58 895.585 1098.46 895.889 1098.21 896.114C1097.97 896.338 1097.65 896.489 1097.24 896.565C1097.53 896.599 1097.8 896.687 1098.05 896.83C1098.29 896.969 1098.49 897.156 1098.64 897.392C1098.79 897.628 1098.86 897.909 1098.86 898.236C1098.86 898.582 1098.77 898.889 1098.59 899.156C1098.41 899.42 1098.15 899.628 1097.81 899.778C1097.47 899.926 1097.07 900 1096.59 900H1093.46ZM1094.66 898.935H1096.59C1096.91 898.935 1097.15 898.859 1097.33 898.709C1097.51 898.558 1097.6 898.354 1097.6 898.095C1097.6 897.791 1097.51 897.553 1097.33 897.379C1097.15 897.203 1096.91 897.115 1096.59 897.115H1094.66V898.935ZM1094.66 896.182H1096.19C1096.43 896.182 1096.63 896.148 1096.8 896.08C1096.98 896.011 1097.11 895.915 1097.2 895.79C1097.29 895.662 1097.34 895.511 1097.34 895.338C1097.34 895.085 1097.24 894.888 1097.03 894.746C1096.82 894.604 1096.54 894.533 1096.18 894.533H1094.66V896.182Z" fill="black"/>
<path d="M1492.11 876.278H1493.68C1494.35 876.278 1494.93 876.425 1495.45 876.717C1495.97 877.007 1496.37 877.415 1496.66 877.94C1496.96 878.463 1497.11 879.071 1497.11 879.764C1497.11 880.452 1496.96 881.055 1496.66 881.575C1496.37 882.095 1495.97 882.501 1495.45 882.794C1494.93 883.084 1494.35 883.229 1493.68 883.229H1492.11C1491.44 883.229 1490.85 883.085 1490.34 882.798C1489.82 882.509 1489.41 882.105 1489.12 881.588C1488.82 881.071 1488.68 880.467 1488.68 879.777C1488.68 879.081 1488.83 878.47 1489.12 877.945C1489.42 877.419 1489.82 877.01 1490.34 876.717C1490.85 876.425 1491.44 876.278 1492.11 876.278ZM1492.11 877.416C1491.65 877.416 1491.27 877.511 1490.94 877.702C1490.62 877.889 1490.38 878.159 1490.21 878.511C1490.04 878.864 1489.95 879.286 1489.95 879.777C1489.95 880.257 1490.04 880.67 1490.21 881.017C1490.38 881.361 1490.63 881.626 1490.95 881.814C1491.27 881.999 1491.66 882.091 1492.11 882.091H1493.68C1494.14 882.091 1494.52 881.999 1494.84 881.814C1495.16 881.626 1495.4 881.359 1495.57 881.013C1495.74 880.663 1495.83 880.247 1495.83 879.764C1495.83 879.278 1495.74 878.861 1495.57 878.511C1495.4 878.159 1495.16 877.889 1494.84 877.702C1494.52 877.511 1494.14 877.416 1493.68 877.416H1492.11ZM1493.54 875.119V884.358H1492.25V875.119H1493.54ZM1500.55 884.145C1500.13 884.145 1499.76 884.068 1499.42 883.915C1499.09 883.759 1498.82 883.533 1498.62 883.237C1498.43 882.942 1498.33 882.58 1498.33 882.151C1498.33 881.781 1498.41 881.477 1498.55 881.239C1498.69 881 1498.88 880.811 1499.12 880.672C1499.36 880.533 1499.63 880.428 1499.93 880.357C1500.23 880.286 1500.54 880.232 1500.84 880.195C1501.24 880.149 1501.56 880.112 1501.8 880.084C1502.04 880.053 1502.22 880.003 1502.33 879.935C1502.44 879.866 1502.5 879.756 1502.5 879.602V879.572C1502.5 879.2 1502.39 878.912 1502.18 878.707C1501.98 878.503 1501.67 878.401 1501.25 878.401C1500.82 878.401 1500.49 878.496 1500.24 878.686C1500 878.874 1499.83 879.082 1499.73 879.312L1498.54 879.04C1498.68 878.642 1498.88 878.321 1499.16 878.077C1499.43 877.83 1499.75 877.651 1500.11 877.54C1500.47 877.426 1500.84 877.369 1501.24 877.369C1501.5 877.369 1501.78 877.401 1502.07 877.463C1502.36 877.523 1502.64 877.634 1502.89 877.795C1503.15 877.957 1503.36 878.189 1503.53 878.49C1503.69 878.788 1503.78 879.176 1503.78 879.653V884H1502.53V883.105H1502.48C1502.4 883.27 1502.28 883.432 1502.11 883.591C1501.95 883.75 1501.73 883.882 1501.48 883.987C1501.22 884.092 1500.91 884.145 1500.55 884.145ZM1500.82 883.122C1501.18 883.122 1501.48 883.053 1501.73 882.913C1501.98 882.774 1502.17 882.592 1502.3 882.368C1502.44 882.141 1502.5 881.898 1502.5 881.639V880.795C1502.46 880.841 1502.37 880.884 1502.24 880.923C1502.11 880.96 1501.96 880.993 1501.8 881.021C1501.63 881.047 1501.47 881.071 1501.32 881.094C1501.16 881.114 1501.03 881.131 1500.93 881.145C1500.68 881.176 1500.45 881.229 1500.25 881.303C1500.05 881.376 1499.88 881.483 1499.76 881.622C1499.64 881.759 1499.58 881.94 1499.58 882.168C1499.58 882.483 1499.7 882.722 1499.93 882.884C1500.17 883.043 1500.46 883.122 1500.82 883.122ZM1509.91 880.178V881.281H1506.36V880.178H1509.91ZM1506.72 877.455V884H1505.47V877.455H1506.72ZM1510.8 877.455V884H1509.56V877.455H1510.8ZM1511.69 878.554V877.455H1517.22V878.554H1515.08V884H1513.84V878.554H1511.69ZM1520.16 884.145C1519.75 884.145 1519.37 884.068 1519.04 883.915C1518.7 883.759 1518.44 883.533 1518.24 883.237C1518.05 882.942 1517.95 882.58 1517.95 882.151C1517.95 881.781 1518.02 881.477 1518.17 881.239C1518.31 881 1518.5 880.811 1518.74 880.672C1518.98 880.533 1519.25 880.428 1519.55 880.357C1519.85 880.286 1520.15 880.232 1520.46 880.195C1520.85 880.149 1521.17 880.112 1521.42 880.084C1521.66 880.053 1521.84 880.003 1521.95 879.935C1522.06 879.866 1522.12 879.756 1522.12 879.602V879.572C1522.12 879.2 1522.01 878.912 1521.8 878.707C1521.59 878.503 1521.28 878.401 1520.87 878.401C1520.44 878.401 1520.1 878.496 1519.86 878.686C1519.61 878.874 1519.44 879.082 1519.35 879.312L1518.15 879.04C1518.29 878.642 1518.5 878.321 1518.77 878.077C1519.05 877.83 1519.37 877.651 1519.72 877.54C1520.08 877.426 1520.46 877.369 1520.85 877.369C1521.12 877.369 1521.39 877.401 1521.69 877.463C1521.98 877.523 1522.26 877.634 1522.51 877.795C1522.77 877.957 1522.98 878.189 1523.15 878.49C1523.31 878.788 1523.39 879.176 1523.39 879.653V884H1522.15V883.105H1522.1C1522.02 883.27 1521.89 883.432 1521.73 883.591C1521.56 883.75 1521.35 883.882 1521.09 883.987C1520.83 884.092 1520.52 884.145 1520.16 884.145ZM1520.44 883.122C1520.79 883.122 1521.09 883.053 1521.34 882.913C1521.6 882.774 1521.79 882.592 1521.92 882.368C1522.05 882.141 1522.12 881.898 1522.12 881.639V880.795C1522.07 880.841 1521.99 880.884 1521.86 880.923C1521.73 880.96 1521.58 880.993 1521.42 881.021C1521.25 881.047 1521.09 881.071 1520.94 881.094C1520.78 881.114 1520.65 881.131 1520.54 881.145C1520.3 881.176 1520.07 881.229 1519.87 881.303C1519.66 881.376 1519.5 881.483 1519.38 881.622C1519.26 881.759 1519.2 881.94 1519.2 882.168C1519.2 882.483 1519.32 882.722 1519.55 882.884C1519.78 883.043 1520.08 883.122 1520.44 883.122ZM1527.85 884.132C1527.21 884.132 1526.67 883.989 1526.21 883.702C1525.76 883.412 1525.41 883.013 1525.16 882.504C1524.92 881.996 1524.8 881.413 1524.8 880.757C1524.8 880.092 1524.92 879.506 1525.17 878.997C1525.42 878.486 1525.77 878.087 1526.23 877.8C1526.68 877.513 1527.22 877.369 1527.84 877.369C1528.33 877.369 1528.78 877.462 1529.16 877.646C1529.55 877.828 1529.87 878.084 1530.11 878.413C1530.35 878.743 1530.49 879.128 1530.54 879.568H1529.3C1529.23 879.261 1529.07 878.997 1528.83 878.776C1528.59 878.554 1528.26 878.443 1527.86 878.443C1527.5 878.443 1527.19 878.537 1526.92 878.724C1526.66 878.909 1526.45 879.173 1526.31 879.517C1526.16 879.858 1526.08 880.261 1526.08 880.727C1526.08 881.205 1526.16 881.616 1526.3 881.963C1526.45 882.31 1526.65 882.578 1526.91 882.768C1527.18 882.959 1527.5 883.054 1527.86 883.054C1528.1 883.054 1528.32 883.01 1528.51 882.922C1528.71 882.831 1528.88 882.702 1529.01 882.534C1529.15 882.366 1529.24 882.165 1529.3 881.929H1530.54C1530.49 882.352 1530.35 882.73 1530.12 883.062C1529.89 883.395 1529.59 883.656 1529.2 883.847C1528.82 884.037 1528.37 884.132 1527.85 884.132ZM1531.4 878.554V877.455H1536.93V878.554H1534.79V884H1533.55V878.554H1531.4ZM1539.52 882.214L1542.41 877.455H1543.78V884H1542.53V879.236L1539.66 884H1538.27V877.455H1539.52V882.214ZM1545.49 884V877.455H1546.77V880.199H1547.38L1549.54 877.455H1551.12L1548.58 880.638L1551.15 884H1549.57L1547.59 881.384H1546.77V884H1545.49ZM1554.04 884.145C1553.63 884.145 1553.25 884.068 1552.92 883.915C1552.58 883.759 1552.32 883.533 1552.12 883.237C1551.93 882.942 1551.83 882.58 1551.83 882.151C1551.83 881.781 1551.9 881.477 1552.04 881.239C1552.19 881 1552.38 880.811 1552.62 880.672C1552.86 880.533 1553.13 880.428 1553.43 880.357C1553.73 880.286 1554.03 880.232 1554.34 880.195C1554.73 880.149 1555.05 880.112 1555.3 880.084C1555.54 880.053 1555.72 880.003 1555.83 879.935C1555.94 879.866 1555.99 879.756 1555.99 879.602V879.572C1555.99 879.2 1555.89 878.912 1555.68 878.707C1555.47 878.503 1555.16 878.401 1554.75 878.401C1554.32 878.401 1553.98 878.496 1553.74 878.686C1553.49 878.874 1553.32 879.082 1553.23 879.312L1552.03 879.04C1552.17 878.642 1552.38 878.321 1552.65 878.077C1552.93 877.83 1553.25 877.651 1553.6 877.54C1553.96 877.426 1554.34 877.369 1554.73 877.369C1554.99 877.369 1555.27 877.401 1555.56 877.463C1555.86 877.523 1556.13 877.634 1556.39 877.795C1556.65 877.957 1556.86 878.189 1557.03 878.49C1557.19 878.788 1557.27 879.176 1557.27 879.653V884H1556.03V883.105H1555.98C1555.89 883.27 1555.77 883.432 1555.61 883.591C1555.44 883.75 1555.23 883.882 1554.97 883.987C1554.71 884.092 1554.4 884.145 1554.04 884.145ZM1554.32 883.122C1554.67 883.122 1554.97 883.053 1555.22 882.913C1555.48 882.774 1555.67 882.592 1555.8 882.368C1555.93 882.141 1556 881.898 1556 881.639V880.795C1555.95 880.841 1555.87 880.884 1555.73 880.923C1555.61 880.96 1555.46 880.993 1555.3 881.021C1555.13 881.047 1554.97 881.071 1554.81 881.094C1554.66 881.114 1554.53 881.131 1554.42 881.145C1554.17 881.176 1553.95 881.229 1553.74 881.303C1553.54 881.376 1553.38 881.483 1553.26 881.622C1553.14 881.759 1553.08 881.94 1553.08 882.168C1553.08 882.483 1553.2 882.722 1553.43 882.884C1553.66 883.043 1553.96 883.122 1554.32 883.122Z" fill="black"/>
<path d="M438.839 748V747.045L441.793 743.986C442.108 743.653 442.368 743.362 442.572 743.112C442.78 742.859 442.935 742.619 443.037 742.392C443.139 742.165 443.19 741.923 443.19 741.668C443.19 741.378 443.122 741.128 442.986 740.918C442.849 740.705 442.663 740.541 442.428 740.428C442.192 740.311 441.926 740.253 441.631 740.253C441.318 740.253 441.045 740.317 440.812 740.445C440.58 740.572 440.401 740.753 440.276 740.986C440.151 741.219 440.088 741.491 440.088 741.804H438.831C438.831 741.273 438.953 740.808 439.197 740.411C439.442 740.013 439.777 739.705 440.203 739.486C440.629 739.264 441.114 739.153 441.656 739.153C442.205 739.153 442.688 739.263 443.105 739.482C443.526 739.697 443.854 739.993 444.089 740.368C444.325 740.74 444.443 741.161 444.443 741.629C444.443 741.953 444.382 742.27 444.26 742.58C444.141 742.889 443.932 743.234 443.634 743.615C443.335 743.993 442.92 744.452 442.389 744.991L440.655 746.807V746.871H444.584V748H438.839ZM449.08 748.119C448.545 748.119 448.065 748.017 447.639 747.812C447.216 747.605 446.878 747.321 446.625 746.96C446.372 746.599 446.237 746.188 446.22 745.724H447.499C447.53 746.099 447.696 746.408 447.997 746.649C448.298 746.891 448.659 747.011 449.08 747.011C449.415 747.011 449.712 746.935 449.97 746.781C450.232 746.625 450.436 746.411 450.584 746.138C450.734 745.865 450.81 745.554 450.81 745.205C450.81 744.849 450.733 744.533 450.58 744.254C450.426 743.976 450.214 743.757 449.945 743.598C449.678 743.439 449.371 743.358 449.024 743.355C448.76 743.355 448.494 743.401 448.227 743.491C447.96 743.582 447.744 743.702 447.58 743.849L446.374 743.67L446.864 739.273H451.662V740.402H447.959L447.682 742.844H447.733C447.903 742.679 448.129 742.541 448.411 742.43C448.695 742.32 448.999 742.264 449.322 742.264C449.854 742.264 450.327 742.391 450.741 742.643C451.159 742.896 451.487 743.241 451.726 743.679C451.967 744.114 452.087 744.614 452.084 745.179C452.087 745.744 451.959 746.249 451.7 746.692C451.445 747.135 451.089 747.484 450.635 747.74C450.183 747.993 449.665 748.119 449.08 748.119ZM456.679 748.145C456.005 748.142 455.43 747.964 454.953 747.612C454.475 747.26 454.11 746.747 453.858 746.074C453.605 745.401 453.478 744.589 453.478 743.641C453.478 742.695 453.605 741.886 453.858 741.216C454.113 740.545 454.48 740.034 454.957 739.682C455.437 739.33 456.011 739.153 456.679 739.153C457.346 739.153 457.919 739.331 458.396 739.686C458.873 740.038 459.238 740.55 459.491 741.22C459.747 741.888 459.875 742.695 459.875 743.641C459.875 744.592 459.748 745.405 459.495 746.078C459.243 746.749 458.877 747.261 458.4 747.616C457.923 747.969 457.349 748.145 456.679 748.145ZM456.679 747.007C457.27 747.007 457.731 746.719 458.064 746.142C458.399 745.565 458.566 744.732 458.566 743.641C458.566 742.916 458.49 742.304 458.336 741.804C458.186 741.301 457.968 740.92 457.684 740.662C457.403 740.401 457.068 740.27 456.679 740.27C456.091 740.27 455.629 740.56 455.294 741.139C454.958 741.719 454.789 742.553 454.787 743.641C454.787 744.368 454.862 744.983 455.012 745.486C455.166 745.986 455.383 746.365 455.664 746.624C455.946 746.879 456.284 747.007 456.679 747.007Z" fill="black"/>
<path d="M429.72 640.119C429.186 640.119 428.706 640.017 428.28 639.812C427.857 639.605 427.518 639.321 427.266 638.96C427.013 638.599 426.878 638.188 426.861 637.724H428.139C428.17 638.099 428.337 638.408 428.638 638.649C428.939 638.891 429.3 639.011 429.72 639.011C430.055 639.011 430.352 638.935 430.611 638.781C430.872 638.625 431.077 638.411 431.224 638.138C431.375 637.865 431.45 637.554 431.45 637.205C431.45 636.849 431.374 636.533 431.22 636.254C431.067 635.976 430.855 635.757 430.585 635.598C430.318 635.439 430.011 635.358 429.665 635.355C429.401 635.355 429.135 635.401 428.868 635.491C428.601 635.582 428.385 635.702 428.22 635.849L427.014 635.67L427.504 631.273H432.303V632.402H428.599L428.322 634.844H428.374C428.544 634.679 428.77 634.541 429.051 634.43C429.335 634.32 429.639 634.264 429.963 634.264C430.494 634.264 430.967 634.391 431.382 634.643C431.8 634.896 432.128 635.241 432.366 635.679C432.608 636.114 432.727 636.614 432.724 637.179C432.727 637.744 432.599 638.249 432.341 638.692C432.085 639.135 431.73 639.484 431.276 639.74C430.824 639.993 430.305 640.119 429.72 640.119ZM437.319 640.145C436.646 640.142 436.071 639.964 435.593 639.612C435.116 639.26 434.751 638.747 434.498 638.074C434.245 637.401 434.119 636.589 434.119 635.641C434.119 634.695 434.245 633.886 434.498 633.216C434.754 632.545 435.12 632.034 435.598 631.682C436.078 631.33 436.652 631.153 437.319 631.153C437.987 631.153 438.559 631.331 439.037 631.686C439.514 632.038 439.879 632.55 440.132 633.22C440.387 633.888 440.515 634.695 440.515 635.641C440.515 636.592 440.389 637.405 440.136 638.078C439.883 638.749 439.518 639.261 439.041 639.616C438.564 639.969 437.99 640.145 437.319 640.145ZM437.319 639.007C437.91 639.007 438.372 638.719 438.704 638.142C439.039 637.565 439.207 636.732 439.207 635.641C439.207 634.916 439.13 634.304 438.977 633.804C438.826 633.301 438.609 632.92 438.325 632.662C438.044 632.401 437.708 632.27 437.319 632.27C436.731 632.27 436.27 632.56 435.934 633.139C435.599 633.719 435.43 634.553 435.427 635.641C435.427 636.368 435.502 636.983 435.653 637.486C435.806 637.986 436.024 638.365 436.305 638.624C436.586 638.879 436.924 639.007 437.319 639.007ZM445.065 640.145C444.392 640.142 443.817 639.964 443.339 639.612C442.862 639.26 442.497 638.747 442.244 638.074C441.991 637.401 441.865 636.589 441.865 635.641C441.865 634.695 441.991 633.886 442.244 633.216C442.5 632.545 442.866 632.034 443.344 631.682C443.824 631.33 444.398 631.153 445.065 631.153C445.733 631.153 446.305 631.331 446.783 631.686C447.26 632.038 447.625 632.55 447.878 633.22C448.134 633.888 448.261 634.695 448.261 635.641C448.261 636.592 448.135 637.405 447.882 638.078C447.629 638.749 447.264 639.261 446.787 639.616C446.31 639.969 445.736 640.145 445.065 640.145ZM445.065 639.007C445.656 639.007 446.118 638.719 446.45 638.142C446.786 637.565 446.953 636.732 446.953 635.641C446.953 634.916 446.876 634.304 446.723 633.804C446.572 633.301 446.355 632.92 446.071 632.662C445.79 632.401 445.455 632.27 445.065 632.27C444.477 632.27 444.016 632.56 443.68 633.139C443.345 633.719 443.176 634.553 443.173 635.641C443.173 636.368 443.249 636.983 443.399 637.486C443.553 637.986 443.77 638.365 444.051 638.624C444.332 638.879 444.67 639.007 445.065 639.007Z" fill="black"/>
<path d="M428.134 540L431.943 532.466V532.402H427.537V531.273H433.307V532.44L429.51 540H428.134ZM437.552 540.119C437.018 540.119 436.538 540.017 436.112 539.812C435.689 539.605 435.35 539.321 435.098 538.96C434.845 538.599 434.71 538.188 434.693 537.724H435.971C436.002 538.099 436.169 538.408 436.47 538.649C436.771 538.891 437.132 539.011 437.552 539.011C437.887 539.011 438.184 538.935 438.443 538.781C438.704 538.625 438.909 538.411 439.056 538.138C439.207 537.865 439.282 537.554 439.282 537.205C439.282 536.849 439.206 536.533 439.052 536.254C438.899 535.976 438.687 535.757 438.417 535.598C438.15 535.439 437.843 535.358 437.497 535.355C437.233 535.355 436.967 535.401 436.7 535.491C436.433 535.582 436.217 535.702 436.052 535.849L434.846 535.67L435.336 531.273H440.135V532.402H436.431L436.154 534.844H436.206C436.376 534.679 436.602 534.541 436.883 534.43C437.167 534.32 437.471 534.264 437.795 534.264C438.326 534.264 438.799 534.391 439.214 534.643C439.632 534.896 439.96 535.241 440.199 535.679C440.44 536.114 440.559 536.614 440.556 537.179C440.559 537.744 440.431 538.249 440.173 538.692C439.917 539.135 439.562 539.484 439.108 539.74C438.656 539.993 438.137 540.119 437.552 540.119ZM445.151 540.145C444.478 540.142 443.903 539.964 443.425 539.612C442.948 539.26 442.583 538.747 442.33 538.074C442.077 537.401 441.951 536.589 441.951 535.641C441.951 534.695 442.077 533.886 442.33 533.216C442.586 532.545 442.952 532.034 443.43 531.682C443.91 531.33 444.484 531.153 445.151 531.153C445.819 531.153 446.391 531.331 446.869 531.686C447.346 532.038 447.711 532.55 447.964 533.22C448.219 533.888 448.347 534.695 448.347 535.641C448.347 536.592 448.221 537.405 447.968 538.078C447.715 538.749 447.35 539.261 446.873 539.616C446.396 539.969 445.822 540.145 445.151 540.145ZM445.151 539.007C445.742 539.007 446.204 538.719 446.536 538.142C446.871 537.565 447.039 536.732 447.039 535.641C447.039 534.916 446.962 534.304 446.809 533.804C446.658 533.301 446.441 532.92 446.157 532.662C445.876 532.401 445.54 532.27 445.151 532.27C444.563 532.27 444.102 532.56 443.766 533.139C443.431 533.719 443.262 534.553 443.259 535.641C443.259 536.368 443.335 536.983 443.485 537.486C443.638 537.986 443.856 538.365 444.137 538.624C444.418 538.879 444.756 539.007 445.151 539.007Z" fill="black"/>
<path d="M1548.6 312.455H1551.26L1555.89 323.761H1556.06L1560.69 312.455H1563.36V327H1561.27V316.474H1561.13L1556.84 326.979H1555.11L1550.82 316.467H1550.69V327H1548.6V312.455ZM1570.97 327.22C1569.95 327.22 1569.06 326.986 1568.29 326.517C1567.53 326.048 1566.94 325.393 1566.52 324.55C1566.1 323.707 1565.89 322.722 1565.89 321.595C1565.89 320.464 1566.1 319.474 1566.52 318.626C1566.94 317.779 1567.53 317.121 1568.29 316.652C1569.06 316.183 1569.95 315.949 1570.97 315.949C1571.99 315.949 1572.89 316.183 1573.65 316.652C1574.41 317.121 1575 317.779 1575.43 318.626C1575.85 319.474 1576.06 320.464 1576.06 321.595C1576.06 322.722 1575.85 323.707 1575.43 324.55C1575 325.393 1574.41 326.048 1573.65 326.517C1572.89 326.986 1571.99 327.22 1570.97 327.22ZM1570.98 325.438C1571.64 325.438 1572.19 325.262 1572.63 324.912C1573.06 324.562 1573.38 324.095 1573.59 323.513C1573.81 322.93 1573.91 322.289 1573.91 321.588C1573.91 320.892 1573.81 320.253 1573.59 319.67C1573.38 319.083 1573.06 318.612 1572.63 318.257C1572.19 317.902 1571.64 317.724 1570.98 317.724C1570.31 317.724 1569.76 317.902 1569.32 318.257C1568.88 318.612 1568.56 319.083 1568.34 319.67C1568.14 320.253 1568.03 320.892 1568.03 321.588C1568.03 322.289 1568.14 322.93 1568.34 323.513C1568.56 324.095 1568.88 324.562 1569.32 324.912C1569.76 325.262 1570.31 325.438 1570.98 325.438ZM1580.55 320.523V327H1578.43V316.091H1580.47V317.866H1580.6C1580.85 317.289 1581.24 316.825 1581.78 316.474C1582.32 316.124 1583 315.949 1583.82 315.949C1584.56 315.949 1585.21 316.105 1585.77 316.418C1586.33 316.725 1586.76 317.185 1587.07 317.795C1587.38 318.406 1587.53 319.161 1587.53 320.061V327H1585.41V320.317C1585.41 319.526 1585.2 318.908 1584.79 318.463C1584.38 318.013 1583.81 317.788 1583.09 317.788C1582.6 317.788 1582.16 317.895 1581.78 318.108C1581.4 318.321 1581.1 318.634 1580.88 319.045C1580.66 319.453 1580.55 319.945 1580.55 320.523ZM1595.47 316.091V317.795H1589.51V316.091H1595.47ZM1591.11 313.477H1593.24V323.797C1593.24 324.209 1593.3 324.519 1593.42 324.727C1593.54 324.931 1593.7 325.071 1593.9 325.146C1594.1 325.217 1594.31 325.253 1594.54 325.253C1594.71 325.253 1594.86 325.241 1594.99 325.217C1595.12 325.194 1595.22 325.175 1595.29 325.161L1595.67 326.915C1595.55 326.962 1595.37 327.009 1595.15 327.057C1594.92 327.109 1594.63 327.137 1594.29 327.142C1593.74 327.152 1593.21 327.052 1592.73 326.844C1592.25 326.635 1591.86 326.313 1591.56 325.878C1591.26 325.442 1591.11 324.895 1591.11 324.237V313.477ZM1600.18 320.523V327H1598.06V312.455H1600.15V317.866H1600.29C1600.54 317.279 1600.93 316.813 1601.46 316.467C1601.98 316.122 1602.67 315.949 1603.52 315.949C1604.27 315.949 1604.92 316.103 1605.48 316.411C1606.04 316.718 1606.48 317.178 1606.79 317.788C1607.1 318.394 1607.25 319.152 1607.25 320.061V327H1605.13V320.317C1605.13 319.517 1604.92 318.896 1604.51 318.456C1604.1 318.011 1603.53 317.788 1602.79 317.788C1602.29 317.788 1601.84 317.895 1601.44 318.108C1601.05 318.321 1600.74 318.634 1600.51 319.045C1600.29 319.453 1600.18 319.945 1600.18 320.523ZM1612.21 312.455V327H1610.09V312.455H1612.21ZM1616.41 331.091C1616.09 331.091 1615.8 331.065 1615.54 331.013C1615.28 330.965 1615.09 330.913 1614.96 330.857L1615.47 329.116C1615.86 329.221 1616.21 329.266 1616.51 329.251C1616.81 329.237 1617.08 329.124 1617.31 328.911C1617.55 328.697 1617.76 328.349 1617.94 327.866L1618.2 327.142L1614.21 316.091H1616.48L1619.24 324.557H1619.36L1622.12 316.091H1624.4L1619.9 328.456C1619.7 329.024 1619.43 329.505 1619.11 329.898C1618.79 330.295 1618.4 330.594 1617.96 330.793C1617.51 330.991 1617 331.091 1616.41 331.091Z" fill="black"/>
<g filter="url(#filter2_d_4_3588)">
<path d="M505 716C505 712.134 508.134 709 512 709H561C564.866 709 568 712.134 568 716V872H505V716Z" fill="#ECEFF8"/>
</g>
<g filter="url(#filter3_d_4_3588)">
<path d="M1513 592C1513 588.134 1516.13 585 1520 585H1567C1570.87 585 1574 588.134 1574 592V854H1513V592Z" fill="#7F7FF9"/>
</g>
<line y1="-0.5" x2="20.7729" y2="-0.5" transform="matrix(0.823302 -0.567603 0.492967 0.870048 1083.23 629.393)" stroke="#817FFA"/>
<rect width="3.56451" height="2.41112" transform="matrix(0.8314 -0.555674 0.481438 0.87648 1096.06 614.841)" fill="#FAFAFC"/>
<g filter="url(#filter4_f_4_3588)">
<path d="M1050.5 612.5C1057.09 612.5 1062.5 618.283 1062.5 625.5C1062.5 632.717 1057.09 638.5 1050.5 638.5C1043.91 638.5 1038.5 632.717 1038.5 625.5C1038.5 618.283 1043.91 612.5 1050.5 612.5Z" stroke="white"/>
</g>
<path d="M1664 307.5L1671 314.5L1678 307.5" stroke="black" stroke-width="2" stroke-linecap="round" stroke-linejoin="round"/>
<g filter="url(#filter5_d_4_3588)">
<path d="M1038 487C1038 483.134 1041.13 480 1045 480H1094C1097.87 480 1101 483.134 1101 487V874H1038V487Z" fill="#ECEFF8"/>
</g>
<g filter="url(#filter6_d_4_3588)">
<path d="M768 549C768 545.134 771.134 542 775 542H824C827.866 542 831 545.134 831 549V866H768V549Z" fill="#7F7FF9"/>
</g>
<rect x="1469" y="41" width="398" height="69" rx="18" fill="#958383"/>
<path d="M1623.2 62.8182V66.2188H1610.83V89H1606.88V62.8182H1623.2ZM1625.8 89L1625.79 85.6889H1626.49C1627.04 85.6889 1627.49 85.5739 1627.86 85.3438C1628.23 85.1051 1628.54 84.7045 1628.78 84.142C1629.02 83.5795 1629.2 82.804 1629.33 81.8153C1629.46 80.8182 1629.55 79.5653 1629.61 78.0568L1629.95 69.3636H1643.66V89H1639.91V72.6619H1633.5L1633.19 79.3352C1633.11 80.9545 1632.95 82.3693 1632.69 83.5795C1632.44 84.7898 1632.08 85.7997 1631.6 86.6094C1631.13 87.4105 1630.51 88.0114 1629.76 88.4119C1629.01 88.804 1628.1 89 1627.03 89H1625.8ZM1654.47 89.4347C1653.23 89.4347 1652.1 89.2045 1651.1 88.7443C1650.09 88.2756 1649.29 87.598 1648.71 86.7116C1648.13 85.8253 1647.84 84.7386 1647.84 83.4517C1647.84 82.3437 1648.05 81.4318 1648.48 80.7159C1648.9 80 1649.48 79.4332 1650.2 79.0156C1650.93 78.598 1651.74 78.2827 1652.63 78.0696C1653.53 77.8565 1654.44 77.6946 1655.37 77.5838C1656.54 77.4474 1657.5 77.3366 1658.23 77.2514C1658.96 77.1577 1659.5 77.0085 1659.83 76.804C1660.16 76.5994 1660.33 76.267 1660.33 75.8068V75.7173C1660.33 74.6009 1660.01 73.7358 1659.38 73.1222C1658.76 72.5085 1657.83 72.2017 1656.59 72.2017C1655.31 72.2017 1654.29 72.4872 1653.55 73.0582C1652.82 73.6207 1652.31 74.2472 1652.03 74.9375L1648.44 74.1193C1648.86 72.9261 1649.49 71.9631 1650.3 71.2301C1651.13 70.4886 1652.08 69.9517 1653.15 69.6193C1654.23 69.2784 1655.36 69.108 1656.54 69.108C1657.33 69.108 1658.16 69.2017 1659.04 69.3892C1659.92 69.5682 1660.75 69.9006 1661.52 70.3864C1662.29 70.8722 1662.93 71.5668 1663.42 72.4702C1663.91 73.3651 1664.16 74.5284 1664.16 75.9602V89H1660.43V86.3153H1660.28C1660.03 86.8097 1659.66 87.2955 1659.16 87.7727C1658.67 88.25 1658.03 88.6463 1657.26 88.9616C1656.48 89.277 1655.55 89.4347 1654.47 89.4347ZM1655.3 86.3665C1656.36 86.3665 1657.26 86.1577 1658.01 85.7401C1658.77 85.3224 1659.35 84.777 1659.74 84.1037C1660.14 83.4219 1660.34 82.6932 1660.34 81.9176V79.3864C1660.2 79.5227 1659.94 79.6506 1659.55 79.7699C1659.16 79.8807 1658.72 79.9787 1658.23 80.0639C1657.74 80.1406 1657.25 80.2131 1656.79 80.2812C1656.32 80.3409 1655.92 80.392 1655.61 80.4347C1654.87 80.5284 1654.19 80.6861 1653.58 80.9077C1652.97 81.1293 1652.49 81.4489 1652.12 81.8665C1651.76 82.2756 1651.58 82.821 1651.58 83.5028C1651.58 84.4489 1651.93 85.1648 1652.63 85.6506C1653.33 86.1278 1654.22 86.3665 1655.3 86.3665ZM1669.25 89V69.3636H1677.4C1679.61 69.3636 1681.37 69.8366 1682.66 70.7827C1683.96 71.7202 1684.61 72.9943 1684.61 74.6051C1684.61 75.7557 1684.24 76.6676 1683.51 77.3409C1682.77 78.0142 1681.8 78.4659 1680.59 78.696C1681.47 78.7983 1682.28 79.0625 1683.01 79.4886C1683.74 79.9062 1684.33 80.4687 1684.77 81.1761C1685.22 81.8835 1685.45 82.7273 1685.45 83.7074C1685.45 84.7472 1685.18 85.6676 1684.65 86.4688C1684.11 87.2614 1683.33 87.8835 1682.31 88.3352C1681.29 88.7784 1680.07 89 1678.64 89H1669.25ZM1672.85 85.804H1678.64C1679.58 85.804 1680.32 85.5781 1680.86 85.1264C1681.4 84.6747 1681.67 84.0611 1681.67 83.2855C1681.67 82.3736 1681.4 81.6577 1680.86 81.1378C1680.32 80.6094 1679.58 80.3452 1678.64 80.3452H1672.85V85.804ZM1672.85 77.5455H1677.44C1678.15 77.5455 1678.76 77.4432 1679.28 77.2386C1679.8 77.0341 1680.19 76.7443 1680.46 76.3693C1680.75 75.9858 1680.89 75.5341 1680.89 75.0142C1680.89 74.2557 1680.58 73.6634 1679.95 73.2372C1679.33 72.8111 1678.48 72.598 1677.4 72.598H1672.85V77.5455ZM1702.95 77.5327V80.8438H1692.32V77.5327H1702.95ZM1693.39 69.3636V89H1689.64V69.3636H1693.39ZM1705.62 69.3636V89H1701.89V69.3636H1705.62ZM1716.45 89.4347C1715.21 89.4347 1714.08 89.2045 1713.08 88.7443C1712.07 88.2756 1711.27 87.598 1710.69 86.7116C1710.11 85.8253 1709.82 84.7386 1709.82 83.4517C1709.82 82.3437 1710.03 81.4318 1710.46 80.7159C1710.88 80 1711.46 79.4332 1712.18 79.0156C1712.91 78.598 1713.72 78.2827 1714.61 78.0696C1715.51 77.8565 1716.42 77.6946 1717.35 77.5838C1718.52 77.4474 1719.48 77.3366 1720.21 77.2514C1720.94 77.1577 1721.48 77.0085 1721.81 76.804C1722.14 76.5994 1722.31 76.267 1722.31 75.8068V75.7173C1722.31 74.6009 1721.99 73.7358 1721.36 73.1222C1720.74 72.5085 1719.81 72.2017 1718.57 72.2017C1717.29 72.2017 1716.27 72.4872 1715.53 73.0582C1714.8 73.6207 1714.29 74.2472 1714.01 74.9375L1710.42 74.1193C1710.84 72.9261 1711.47 71.9631 1712.28 71.2301C1713.11 70.4886 1714.06 69.9517 1715.14 69.6193C1716.21 69.2784 1717.34 69.108 1718.52 69.108C1719.31 69.108 1720.14 69.2017 1721.02 69.3892C1721.9 69.5682 1722.73 69.9006 1723.5 70.3864C1724.27 70.8722 1724.91 71.5668 1725.4 72.4702C1725.9 73.3651 1726.14 74.5284 1726.14 75.9602V89H1722.41V86.3153H1722.26C1722.01 86.8097 1721.64 87.2955 1721.14 87.7727C1720.65 88.25 1720.01 88.6463 1719.24 88.9616C1718.46 89.277 1717.53 89.4347 1716.45 89.4347ZM1717.28 86.3665C1718.34 86.3665 1719.24 86.1577 1719.99 85.7401C1720.75 85.3224 1721.33 84.777 1721.72 84.1037C1722.12 83.4219 1722.32 82.6932 1722.32 81.9176V79.3864C1722.18 79.5227 1721.92 79.6506 1721.53 79.7699C1721.14 79.8807 1720.7 79.9787 1720.21 80.0639C1719.72 80.1406 1719.23 80.2131 1718.77 80.2812C1718.3 80.3409 1717.91 80.392 1717.59 80.4347C1716.85 80.5284 1716.17 80.6861 1715.56 80.9077C1714.95 81.1293 1714.47 81.4489 1714.1 81.8665C1713.74 82.2756 1713.56 82.821 1713.56 83.5028C1713.56 84.4489 1713.91 85.1648 1714.61 85.6506C1715.31 86.1278 1716.2 86.3665 1717.28 86.3665ZM1742.94 89V72.6236H1738.24C1737.12 72.6236 1736.25 72.8835 1735.63 73.4034C1735.01 73.9233 1734.7 74.6051 1734.7 75.4489C1734.7 76.2841 1734.98 76.9574 1735.55 77.4688C1736.13 77.9716 1736.94 78.223 1737.98 78.223H1744.06V81.3168H1737.98C1736.53 81.3168 1735.28 81.0781 1734.23 80.6009C1733.18 80.1151 1732.37 79.429 1731.8 78.5426C1731.23 77.6562 1730.95 76.608 1730.95 75.3977C1730.95 74.1619 1731.24 73.0966 1731.82 72.2017C1732.41 71.2983 1733.25 70.5994 1734.34 70.1051C1735.44 69.6108 1736.74 69.3636 1738.24 69.3636H1746.54V89H1742.94ZM1730.06 89L1735.59 79.0795H1739.5L1733.97 89H1730.06Z" fill="white"/>
<defs>
<filter id="filter0_dd_4_3588" x="393" y="212" width="1336" height="760" filterUnits="userSpaceOnUse" color-interpolation-filters="sRGB">
<feFlood flood-opacity="0" result="BackgroundImageFix"/>
<feColorMatrix in="SourceAlpha" type="matrix" values="0 0 0 0 0 0 0 0 0 0 0 0 0 0 0 0 0 0 127 0" result="hardAlpha"/>
<feOffset dy="4"/>
<feGaussianBlur stdDeviation="2"/>
<feComposite in2="hardAlpha" operator="out"/>
<feColorMatrix type="matrix" values="0 0 0 0 0 0 0 0 0 0 0 0 0 0 0 0 0 0 0.25 0"/>
<feBlend mode="normal" in2="BackgroundImageFix" result="effect1_dropShadow_4_3588"/>
<feColorMatrix in="SourceAlpha" type="matrix" values="0 0 0 0 0 0 0 0 0 0 0 0 0 0 0 0 0 0 127 0" result="hardAlpha"/>
<feOffset dy="4"/>
<feGaussianBlur stdDeviation="2"/>
<feComposite in2="hardAlpha" operator="out"/>
<feColorMatrix type="matrix" values="0 0 0 0 0 0 0 0 0 0 0 0 0 0 0 0 0 0 0.25 0"/>
<feBlend mode="normal" in2="effect1_dropShadow_4_3588" result="effect2_dropShadow_4_3588"/>
<feBlend mode="normal" in="SourceGraphic" in2="effect2_dropShadow_4_3588" result="shape"/>
</filter>
<filter id="filter1_dd_4_3588" x="1526" y="294" width="167" height="60" filterUnits="userSpaceOnUse" color-interpolation-filters="sRGB">
<feFlood flood-opacity="0" result="BackgroundImageFix"/>
<feColorMatrix in="SourceAlpha" type="matrix" values="0 0 0 0 0 0 0 0 0 0 0 0 0 0 0 0 0 0 127 0" result="hardAlpha"/>
<feOffset dy="4"/>
<feGaussianBlur stdDeviation="2"/>
<feComposite in2="hardAlpha" operator="out"/>
<feColorMatrix type="matrix" values="0 0 0 0 0 0 0 0 0 0 0 0 0 0 0 0 0 0 0.25 0"/>
<feBlend mode="normal" in2="BackgroundImageFix" result="effect1_dropShadow_4_3588"/>
<feColorMatrix in="SourceAlpha" type="matrix" values="0 0 0 0 0 0 0 0 0 0 0 0 0 0 0 0 0 0 127 0" result="hardAlpha"/>
<feOffset dy="4"/>
<feGaussianBlur stdDeviation="2"/>
<feComposite in2="hardAlpha" operator="out"/>
<feColorMatrix type="matrix" values="0 0 0 0 0 0 0 0 0 0 0 0 0 0 0 0 0 0 0.25 0"/>
<feBlend mode="normal" in2="effect1_dropShadow_4_3588" result="effect2_dropShadow_4_3588"/>
<feBlend mode="normal" in="SourceGraphic" in2="effect2_dropShadow_4_3588" result="shape"/>
</filter>
<filter id="filter2_d_4_3588" x="501" y="709" width="71" height="171" filterUnits="userSpaceOnUse" color-interpolation-filters="sRGB">
<feFlood flood-opacity="0" result="BackgroundImageFix"/>
<feColorMatrix in="SourceAlpha" type="matrix" values="0 0 0 0 0 0 0 0 0 0 0 0 0 0 0 0 0 0 127 0" result="hardAlpha"/>
<feOffset dy="4"/>
<feGaussianBlur stdDeviation="2"/>
<feComposite in2="hardAlpha" operator="out"/>
<feColorMatrix type="matrix" values="0 0 0 0 0 0 0 0 0 0 0 0 0 0 0 0 0 0 0.25 0"/>
<feBlend mode="normal" in2="BackgroundImageFix" result="effect1_dropShadow_4_3588"/>
<feBlend mode="normal" in="SourceGraphic" in2="effect1_dropShadow_4_3588" result="shape"/>
</filter>
<filter id="filter3_d_4_3588" x="1509" y="585" width="69" height="277" filterUnits="userSpaceOnUse" color-interpolation-filters="sRGB">
<feFlood flood-opacity="0" result="BackgroundImageFix"/>
<feColorMatrix in="SourceAlpha" type="matrix" values="0 0 0 0 0 0 0 0 0 0 0 0 0 0 0 0 0 0 127 0" result="hardAlpha"/>
<feOffset dy="4"/>
<feGaussianBlur stdDeviation="2"/>
<feComposite in2="hardAlpha" operator="out"/>
<feColorMatrix type="matrix" values="0 0 0 0 0 0 0 0 0 0 0 0 0 0 0 0 0 0 0.25 0"/>
<feBlend mode="normal" in2="BackgroundImageFix" result="effect1_dropShadow_4_3588"/>
<feBlend mode="normal" in="SourceGraphic" in2="effect1_dropShadow_4_3588" result="shape"/>
</filter>
<filter id="filter4_f_4_3588" x="1034" y="608" width="33" height="35" filterUnits="userSpaceOnUse" color-interpolation-filters="sRGB">
<feFlood flood-opacity="0" result="BackgroundImageFix"/>
<feBlend mode="normal" in="SourceGraphic" in2="BackgroundImageFix" result="shape"/>
<feGaussianBlur stdDeviation="2" result="effect1_foregroundBlur_4_3588"/>
</filter>
<filter id="filter5_d_4_3588" x="1034" y="480" width="71" height="402" filterUnits="userSpaceOnUse" color-interpolation-filters="sRGB">
<feFlood flood-opacity="0" result="BackgroundImageFix"/>
<feColorMatrix in="SourceAlpha" type="matrix" values="0 0 0 0 0 0 0 0 0 0 0 0 0 0 0 0 0 0 127 0" result="hardAlpha"/>
<feOffset dy="4"/>
<feGaussianBlur stdDeviation="2"/>
<feComposite in2="hardAlpha" operator="out"/>
<feColorMatrix type="matrix" values="0 0 0 0 0 0 0 0 0 0 0 0 0 0 0 0 0 0 0.25 0"/>
<feBlend mode="normal" in2="BackgroundImageFix" result="effect1_dropShadow_4_3588"/>
<feBlend mode="normal" in="SourceGraphic" in2="effect1_dropShadow_4_3588" result="shape"/>
</filter>
<filter id="filter6_d_4_3588" x="764" y="542" width="71" height="332" filterUnits="userSpaceOnUse" color-interpolation-filters="sRGB">
<feFlood flood-opacity="0" result="BackgroundImageFix"/>
<feColorMatrix in="SourceAlpha" type="matrix" values="0 0 0 0 0 0 0 0 0 0 0 0 0 0 0 0 0 0 127 0" result="hardAlpha"/>
<feOffset dy="4"/>
<feGaussianBlur stdDeviation="2"/>
<feComposite in2="hardAlpha" operator="out"/>
<feColorMatrix type="matrix" values="0 0 0 0 0 0 0 0 0 0 0 0 0 0 0 0 0 0 0.25 0"/>
<feBlend mode="normal" in2="BackgroundImageFix" result="effect1_dropShadow_4_3588"/>
<feBlend mode="normal" in="SourceGraphic" in2="effect1_dropShadow_4_3588" result="shape"/>
</filter>
</defs>
</svg>
